<svg width="102" height="97" viewBox="0 0 102 97" fill="none" xmlns="http://www.w3.org/2000/svg">
<circle cx="51" cy="39" r="30.5" fill="#FDF9F9" stroke="#F1BFC1"/>
<path d="M35.862 75.888H49.704V77.13H35.862V75.888ZM35.088 75.888H36.42V81.108C36.42 84.078 36.168 88.452 34.512 91.404C34.26 91.188 33.684 90.846 33.342 90.72C34.926 87.894 35.088 83.916 35.088 81.09V75.888ZM39.372 82.62V84.312H46.86V82.62H39.372ZM39.372 79.974V81.612H46.86V79.974H39.372ZM38.04 78.894H48.228V85.374H38.04V78.894ZM42.432 84.708H43.746V89.982C43.746 90.702 43.584 91.062 43.062 91.242C42.504 91.458 41.622 91.458 40.236 91.458C40.182 91.098 39.984 90.612 39.822 90.252C40.884 90.288 41.802 90.288 42.072 90.27C42.36 90.27 42.432 90.18 42.432 89.964V84.708ZM42.288 76.86L43.854 77.022C43.584 77.958 43.26 78.948 42.99 79.596L41.658 79.416C41.892 78.696 42.18 77.598 42.288 76.86ZM45.294 86.904L46.32 86.238C47.688 87.282 49.29 88.794 50.01 89.856L48.912 90.612C48.21 89.55 46.662 87.984 45.294 86.904ZM39.39 86.31L40.704 86.67C39.75 88.2 38.328 89.712 37.014 90.684C36.762 90.45 36.222 90.072 35.898 89.892C37.23 89.01 38.562 87.642 39.39 86.31ZM54.834 83.88H66.138V85.122H54.834V83.88ZM59.73 79.848H61.08V84.51H59.73V79.848ZM54.78 79.362H67.056V85.914H65.688V80.586H54.78V79.362ZM54.096 79.362H55.446V88.578C55.446 89.73 55.824 89.982 57.804 89.982C58.758 89.982 63.69 89.982 64.896 89.982C66.642 89.982 66.93 89.514 67.146 87.3C67.488 87.534 68.064 87.732 68.478 87.804C68.172 90.468 67.614 91.26 64.932 91.26C64.212 91.26 58.56 91.26 57.894 91.26C54.978 91.26 54.096 90.738 54.096 88.578V79.362ZM57.102 76.086H62.754V77.292H56.49L57.102 76.086ZM57.138 74.826L58.632 75.114C57.354 77.256 55.482 79.632 52.89 81.522C52.674 81.198 52.224 80.748 51.9 80.532C54.348 78.876 56.166 76.644 57.138 74.826ZM62.16 76.086H62.466L62.736 76.014L63.654 76.608C62.952 77.994 61.89 79.542 60.972 80.514C60.774 80.244 60.36 79.848 60.108 79.65C60.882 78.786 61.746 77.364 62.16 76.356V76.086Z" fill="#3F1A09"/>
</svg>
