<svg width="102" height="117" viewBox="0 0 102 117" fill="none" xmlns="http://www.w3.org/2000/svg">
<rect width="102" height="116.022" rx="10" fill="#EACEB1"/>
<rect x="11.4888" y="9" width="79.022" height="79.022" rx="39.511" fill="white"/>
<rect x="11.4888" y="9" width="79.022" height="79.022" rx="39.511" stroke="#F3C4B4" stroke-width="2"/>
<circle cx="51" cy="48.511" r="34" fill="#F6EAE5"/>
<path d="M33.756 96.53H49.722V97.808H33.756V96.53ZM36.924 108.5H46.518V109.76H36.924V108.5ZM40.992 93.902H42.396V103.334H40.992V93.902ZM40.218 96.998L41.37 97.448C39.786 100.058 36.96 102.416 34.278 103.622C34.062 103.298 33.666 102.794 33.36 102.524C35.988 101.498 38.778 99.284 40.218 96.998ZM43.116 97.034C44.556 99.248 47.382 101.372 50.064 102.326C49.758 102.596 49.344 103.1 49.128 103.46C46.41 102.326 43.602 99.986 42 97.466L43.116 97.034ZM36.276 103.784H47.166V110.408H45.798V105.044H37.59V110.498H36.276V103.784ZM54.834 102.902H66.138V104.144H54.834V102.902ZM59.73 98.87H61.08V103.532H59.73V98.87ZM54.78 98.384H67.056V104.936H65.688V99.608H54.78V98.384ZM54.096 98.384H55.446V107.6C55.446 108.752 55.824 109.004 57.804 109.004C58.758 109.004 63.69 109.004 64.896 109.004C66.642 109.004 66.93 108.536 67.146 106.322C67.488 106.556 68.064 106.754 68.478 106.826C68.172 109.49 67.614 110.282 64.932 110.282C64.212 110.282 58.56 110.282 57.894 110.282C54.978 110.282 54.096 109.76 54.096 107.6V98.384ZM57.102 95.108H62.754V96.314H56.49L57.102 95.108ZM57.138 93.848L58.632 94.136C57.354 96.278 55.482 98.654 52.89 100.544C52.674 100.22 52.224 99.77 51.9 99.554C54.348 97.898 56.166 95.666 57.138 93.848ZM62.16 95.108H62.466L62.736 95.036L63.654 95.63C62.952 97.016 61.89 98.564 60.972 99.536C60.774 99.266 60.36 98.87 60.108 98.672C60.882 97.808 61.746 96.386 62.16 95.378V95.108Z" fill="white"/>
</svg>
