<svg width="36" height="36" viewBox="0 0 36 36" fill="none" xmlns="http://www.w3.org/2000/svg">
<path d="M12 24.315L12 11.685C11.9993 11.1864 12.1398 10.6978 12.4053 10.2757C12.6707 9.85363 13.0503 9.51536 13.5 9.30004C14.0336 9.04799 14.6273 8.95092 15.2134 9.01987C15.7995 9.08882 16.3545 9.32103 16.815 9.69004L24.465 16.005C24.751 16.2529 24.9803 16.5593 25.1375 16.9035C25.2946 17.2477 25.376 17.6216 25.376 18C25.376 18.3784 25.2946 18.7524 25.1375 19.0966C24.9803 19.4408 24.751 19.7472 24.465 19.995L16.815 26.31C16.3545 26.6791 15.7995 26.9113 15.2134 26.9802C14.6273 27.0492 14.0336 26.9521 13.5 26.7C13.0503 26.4847 12.6707 26.1465 12.4053 25.7244C12.1398 25.3023 11.9993 24.8137 12 24.315ZM15 12L19.8749 14.25L22.23 18L15 12Z" fill="#EACEB1"/>
</svg>
