<svg width="102" height="117" viewBox="0 0 102 117" fill="none" xmlns="http://www.w3.org/2000/svg">
<rect width="102" height="116.022" rx="10" fill="#EACEB1"/>
<rect x="11.4888" y="9" width="79.022" height="79.022" rx="39.511" fill="white"/>
<rect x="11.4888" y="9" width="79.022" height="79.022" rx="39.511" stroke="#F3C4B4" stroke-width="2"/>
<circle cx="51" cy="48.511" r="34" fill="#F4CFCF"/>
<path d="M33.666 94.334L34.944 94.532C34.35 97.682 33.216 100.238 31.146 101.876C31.074 101.57 30.786 100.868 30.552 100.562C32.262 99.194 33.216 97.016 33.666 94.334ZM31.74 101.066H38.526V102.326H31.74V101.066ZM37.95 101.066H39.264C39.264 101.066 39.264 101.498 39.246 101.696C38.994 107.114 38.742 109.04 38.202 109.688C37.896 110.084 37.572 110.21 37.068 110.264C36.618 110.318 35.826 110.3 35.034 110.264C35.016 109.886 34.89 109.346 34.692 109.004C35.448 109.076 36.15 109.094 36.456 109.094C36.744 109.094 36.906 109.058 37.068 108.86C37.464 108.41 37.734 106.52 37.95 101.336V101.066ZM33.972 101.696L35.268 101.768C34.89 105.944 33.756 108.68 31.128 110.426C30.966 110.192 30.498 109.67 30.21 109.454C32.694 107.996 33.666 105.422 33.972 101.696ZM37.59 94.208C38.202 97.214 39.12 99.032 40.884 100.616C40.524 100.886 40.11 101.318 39.93 101.714C37.986 99.842 37.032 97.754 36.366 94.442L37.59 94.208ZM27.006 93.92H28.266V110.462H27.006V93.92ZM24.27 100.112H30.642V101.39H24.27V100.112ZM26.952 100.634L27.834 100.976C27.204 103.37 25.98 106.412 24.738 107.996C24.576 107.6 24.252 107.024 24.018 106.682C25.152 105.314 26.394 102.704 26.952 100.634ZM28.14 102.074C28.644 102.542 30.444 104.63 30.822 105.116L29.994 106.196C29.526 105.35 28.05 103.37 27.474 102.686L28.14 102.074ZM24.396 95.414L25.404 95.18C25.8 96.404 26.196 97.988 26.358 99.032L25.296 99.302C25.152 98.24 24.756 96.638 24.396 95.414ZM29.832 95.036L31.038 95.36C30.588 96.692 30.012 98.33 29.544 99.338L28.608 99.05C29.04 97.988 29.562 96.242 29.832 95.036ZM50.262 95.828H58.992V97.124H50.262V95.828ZM49.524 108.518H59.28V109.814H49.524V108.518ZM53.862 96.242H55.248V109.202H53.862V96.242ZM46.176 102.308H47.49V110.462H46.176V102.308ZM45.996 93.884L47.274 94.406C46.482 95.702 45.474 97.25 44.664 98.222L43.692 97.772C44.466 96.746 45.456 95.072 45.996 93.884ZM48.318 95.882L49.56 96.476C48.192 98.492 46.284 101.012 44.772 102.542L43.872 102.002C45.348 100.418 47.238 97.79 48.318 95.882ZM42.72 97.502L43.404 96.62C44.538 97.502 45.888 98.726 46.482 99.59L45.762 100.634C45.15 99.734 43.854 98.42 42.72 97.502ZM48.012 100.022L49.002 99.518C49.92 100.652 50.91 102.182 51.306 103.19L50.262 103.784C49.866 102.776 48.912 101.192 48.012 100.022ZM42.648 101.804C44.466 101.732 47.202 101.606 49.884 101.462V102.614C47.328 102.794 44.7 102.974 42.81 103.082L42.648 101.804ZM48.408 104.432L49.506 104.072C50.118 105.224 50.694 106.718 50.928 107.69L49.758 108.14C49.542 107.132 48.966 105.602 48.408 104.432ZM43.926 104.18L45.186 104.414C44.898 106.124 44.376 107.888 43.746 109.04C43.494 108.86 42.918 108.59 42.612 108.464C43.242 107.384 43.674 105.746 43.926 104.18ZM64.104 102.902H75.408V104.144H64.104V102.902ZM69 98.87H70.35V103.532H69V98.87ZM64.05 98.384H76.326V104.936H74.958V99.608H64.05V98.384ZM63.366 98.384H64.716V107.6C64.716 108.752 65.094 109.004 67.074 109.004C68.028 109.004 72.96 109.004 74.166 109.004C75.912 109.004 76.2 108.536 76.416 106.322C76.758 106.556 77.334 106.754 77.748 106.826C77.442 109.49 76.884 110.282 74.202 110.282C73.482 110.282 67.83 110.282 67.164 110.282C64.248 110.282 63.366 109.76 63.366 107.6V98.384ZM66.372 95.108H72.024V96.314H65.76L66.372 95.108ZM66.408 93.848L67.902 94.136C66.624 96.278 64.752 98.654 62.16 100.544C61.944 100.22 61.494 99.77 61.17 99.554C63.618 97.898 65.436 95.666 66.408 93.848ZM71.43 95.108H71.736L72.006 95.036L72.924 95.63C72.222 97.016 71.16 98.564 70.242 99.536C70.044 99.266 69.63 98.87 69.378 98.672C70.152 97.808 71.016 96.386 71.43 95.378V95.108Z" fill="white"/>
</svg>
