<svg width="102" height="116" viewBox="0 0 102 116" fill="none" xmlns="http://www.w3.org/2000/svg">
<circle cx="51" cy="48.511" r="40.511" fill="#6B3B20"/>
<path d="M29.472 97.556H34.17V98.762H29.472V97.556ZM36.096 107.078H39.534V108.302H36.096V107.078ZM35.646 96.008H40.164V109.67H38.994V97.232H36.762V109.814H35.646V96.008ZM33.756 97.556H34.926C34.926 97.556 34.926 98.006 34.926 98.186C34.692 106.16 34.512 108.698 33.954 109.454C33.666 109.904 33.36 110.048 32.91 110.12C32.514 110.156 31.92 110.174 31.308 110.12C31.308 109.76 31.182 109.238 31.002 108.896C31.596 108.95 32.118 108.95 32.388 108.95C32.622 108.95 32.748 108.914 32.91 108.68C33.324 108.104 33.54 105.494 33.756 97.844V97.556ZM31.038 93.974H32.208C32.172 101.318 32.172 107.222 28.968 110.534C28.77 110.246 28.338 109.85 28.032 109.67C31.056 106.628 31.02 100.994 31.038 93.974ZM25.476 95.234H28.824V105.944H25.476V104.81H27.744V96.35H25.476V95.234ZM24.81 95.234H25.908V107.708H24.81V95.234ZM54.42 94.028H55.734V110.462H54.42V94.028ZM48.48 96.98H52.26V98.222H48.48V96.98ZM55.122 96.98H59.1V98.222H55.122V96.98ZM55.176 100.724H58.884V101.948H55.176V100.724ZM55.122 104.522H59.28V105.764H55.122V104.522ZM48.624 100.724H52.098V101.948H48.624V100.724ZM47.76 105.386C49.2 104.99 51.396 104.252 53.502 103.55L53.682 104.576C51.792 105.314 49.848 106.052 48.3 106.61L47.76 105.386ZM51.522 94.064H52.8V102.092C52.8 105.44 52.314 108.554 49.038 110.552C48.822 110.3 48.354 109.868 48.03 109.67C51.126 107.834 51.522 104.954 51.522 102.092V94.064ZM43.998 95.594H48.012V105.17H43.998V103.928H46.77V96.836H43.998V95.594ZM43.314 95.594H44.52V106.79H43.314V95.594ZM64.104 102.902H75.408V104.144H64.104V102.902ZM69 98.87H70.35V103.532H69V98.87ZM64.05 98.384H76.326V104.936H74.958V99.608H64.05V98.384ZM63.366 98.384H64.716V107.6C64.716 108.752 65.094 109.004 67.074 109.004C68.028 109.004 72.96 109.004 74.166 109.004C75.912 109.004 76.2 108.536 76.416 106.322C76.758 106.556 77.334 106.754 77.748 106.826C77.442 109.49 76.884 110.282 74.202 110.282C73.482 110.282 67.83 110.282 67.164 110.282C64.248 110.282 63.366 109.76 63.366 107.6V98.384ZM66.372 95.108H72.024V96.314H65.76L66.372 95.108ZM66.408 93.848L67.902 94.136C66.624 96.278 64.752 98.654 62.16 100.544C61.944 100.22 61.494 99.77 61.17 99.554C63.618 97.898 65.436 95.666 66.408 93.848ZM71.43 95.108H71.736L72.006 95.036L72.924 95.63C72.222 97.016 71.16 98.564 70.242 99.536C70.044 99.266 69.63 98.87 69.378 98.672C70.152 97.808 71.016 96.386 71.43 95.378V95.108Z" fill="#3F1A09"/>
</svg>
