<svg width="48" height="49" viewBox="0 0 48 49" fill="none" xmlns="http://www.w3.org/2000/svg">
<path d="M16.0001 32.6194V15.7794C15.9991 15.1145 16.1865 14.463 16.5404 13.9002C16.8944 13.3375 17.4005 12.8864 18.0001 12.5994C18.7116 12.2633 19.5032 12.1339 20.2846 12.2258C21.0661 12.3177 21.806 12.6273 22.4201 13.1194L32.6201 21.5394C33.0014 21.8698 33.3071 22.2783 33.5167 22.7373C33.7263 23.1962 33.8347 23.6948 33.8347 24.1994C33.8347 24.7039 33.7263 25.2025 33.5167 25.6615C33.3071 26.1204 33.0014 26.5289 32.6201 26.8594L22.4201 35.2794C21.806 35.7714 21.0661 36.081 20.2846 36.1729C19.5032 36.2649 18.7116 36.1354 18.0001 35.7994C17.4005 35.5123 16.8944 35.0612 16.5404 34.4985C16.1865 33.9357 15.9991 33.2842 16.0001 32.6194ZM20.0001 16.1994V31.9994L29.6401 24.1994L20.0001 16.1994Z" fill="#DEAD9C"/>
</svg>
