<svg width="37" height="63" viewBox="0 0 37 63" fill="none" xmlns="http://www.w3.org/2000/svg">
<rect width="37" height="63" rx="10" fill="#EACEB1"/>
<rect x="5.5" y="4" width="26" height="26" rx="13" fill="white"/>
<rect x="5.5" y="4" width="26" height="26" rx="13" stroke="#F3C4B4" stroke-width="2"/>
<rect x="10.5" y="9" width="16" height="16" rx="8" fill="#664131"/>
<path d="M4.298 38.698V42.622H14.018V38.698H4.298ZM3.02 37.564H15.368V43.774H3.02V37.564ZM5.306 39.49L6.206 39.166C6.728 39.994 7.232 41.074 7.394 41.812L6.44 42.19C6.296 41.47 5.81 40.336 5.306 39.49ZM2.696 45.25H15.71V46.366H2.696V45.25ZM1.22 47.986H17.24V49.192H1.22V47.986ZM8.51 38.032H9.878V48.598H8.51V38.032ZM12.056 39.148L13.118 39.544C12.614 40.516 12.02 41.65 11.552 42.37L10.67 41.992C11.156 41.236 11.75 39.994 12.056 39.148ZM6.35 50.38L7.592 50.272C7.826 51.226 7.988 52.45 7.988 53.17L6.674 53.35C6.656 52.594 6.548 51.352 6.35 50.38ZM10.04 50.416L11.318 50.164C11.732 51.064 12.182 52.27 12.344 53.026L11.012 53.35C10.868 52.576 10.436 51.352 10.04 50.416ZM13.712 50.344L14.936 49.912C15.818 50.83 16.862 52.108 17.33 52.972L16.016 53.476C15.584 52.63 14.576 51.316 13.712 50.344ZM3.236 49.912L4.532 50.236C4.1 51.406 3.344 52.702 2.48 53.512L1.238 52.936C2.048 52.234 2.804 51.028 3.236 49.912ZM19.598 39.31H26.186V40.642H19.598V39.31ZM26.114 37.978H35.942V39.346H26.114V37.978ZM22.226 39.634H23.576V48.472H22.226V39.634ZM19.364 48.454C21.2 48.076 24.026 47.41 26.744 46.744L26.906 48.04C24.332 48.688 21.632 49.354 19.67 49.84L19.364 48.454ZM28.814 38.338H30.254C29.732 40.894 28.994 44.26 28.454 46.258L27.05 46.042C27.644 44.062 28.382 40.768 28.814 38.338ZM28.454 43.432H34.79V44.746H28.094L28.454 43.432ZM34.178 43.432H35.564C35.564 43.432 35.546 43.9 35.528 44.116C35.078 49.768 34.664 51.982 33.872 52.756C33.458 53.206 33.026 53.35 32.342 53.404C31.73 53.44 30.614 53.422 29.462 53.368C29.426 52.954 29.246 52.36 28.976 51.964C30.218 52.09 31.388 52.108 31.874 52.108C32.252 52.108 32.486 52.072 32.702 51.874C33.35 51.316 33.782 49.066 34.178 43.666V43.432Z" fill="white"/>
</svg>
