<svg width="42" height="35" viewBox="0 0 42 35" fill="none" xmlns="http://www.w3.org/2000/svg">
<path d="M37.5 8.5L36.25 29.764C36.1826 30.9101 35.6798 31.9871 34.8443 32.7746C34.0089 33.5621 32.9041 34.0004 31.756 34H10.244C9.09593 34.0004 7.99109 33.5621 7.15565 32.7746C6.32022 31.9871 5.81735 30.9101 5.75 29.764L4.5 8.5M21 14.5V28M21 28L15 22M21 28L27 22M3.75 8.5H38.25C39.492 8.5 40.5 7.492 40.5 6.25V3.25C40.5 2.008 39.492 1 38.25 1H3.75C2.508 1 1.5 2.008 1.5 3.25V6.25C1.5 7.492 2.508 8.5 3.75 8.5Z" stroke="#3F1A09" stroke-width="1.25" stroke-linecap="round" stroke-linejoin="round"/>
</svg>
