<svg width="605" height="68" viewBox="0 0 605 68" fill="none" xmlns="http://www.w3.org/2000/svg">
<path d="M187.498 3.5H417.503L449 34L417.503 64.5H187.498L156 34L187.498 3.5Z" fill="#6B3B20"/>
<path d="M287.52 33.956L289.92 34.94H295.104L296.184 33.692L298.344 35.348C298.176 35.564 297.936 35.708 297.432 35.78V43.436C297.432 43.556 296.688 43.964 295.584 43.964H295.2V35.636H289.656V43.58C289.656 43.724 288.984 44.132 287.88 44.132H287.52V33.956ZM296.016 41.372V42.068H288.6V41.372H296.016ZM294.072 22.676C294.024 23.012 293.808 23.228 293.184 23.348V31.772H290.904V22.388L294.072 22.676ZM296.736 29.852C296.736 29.852 298.2 30.956 299.064 31.772C298.992 32.036 298.752 32.156 298.416 32.156H286.392L286.2 31.46H295.488L296.736 29.852ZM297.072 24.836C297.072 24.836 298.536 25.964 299.424 26.804C299.376 27.068 299.112 27.188 298.776 27.188H285.576L285.384 26.492H295.8L297.072 24.836ZM286.104 28.34C285.936 28.604 285.432 28.772 284.712 28.388L285.408 28.268C283.992 30.332 280.752 33.668 278.088 35.492L278.064 35.228H279.12C278.976 36.548 278.472 37.268 277.944 37.46L277.032 34.892C277.032 34.892 277.584 34.772 277.8 34.628C279.816 32.996 282.576 28.892 283.536 26.612L286.104 28.34ZM283.8 23.828C283.656 24.116 283.2 24.332 282.432 24.044L283.128 23.876C282.048 25.676 279.816 28.388 277.992 29.828L277.968 29.54H279.096C278.976 30.812 278.544 31.556 278.016 31.772L276.984 29.228C276.984 29.228 277.464 29.108 277.632 28.988C278.88 27.692 280.464 24.26 280.992 22.412L283.8 23.828ZM279.072 37.868C279.864 40.388 279.552 42.308 278.856 43.196C278.376 43.82 277.296 43.916 276.888 43.268C276.552 42.668 276.84 42.02 277.416 41.588C278.064 40.94 278.784 39.284 278.688 37.868H279.072ZM283.44 37.196C287.976 39.524 286.104 43.052 284.496 41.54C284.496 40.148 283.824 38.42 283.152 37.316L283.44 37.196ZM281.112 37.58C284.664 40.892 282.36 44.276 280.92 42.452C281.208 40.892 281.064 38.996 280.776 37.652L281.112 37.58ZM283.224 32.06C287.856 34.7 286.032 38.204 284.424 36.692C284.352 35.228 283.584 33.404 282.936 32.204L283.224 32.06ZM277.464 34.988C278.76 34.94 281.808 34.7 284.856 34.436L284.88 34.772C283.512 35.276 280.968 36.236 278.184 37.076L277.464 34.988ZM277.344 29.276C278.448 29.324 280.92 29.324 283.272 29.276V29.612C282.312 29.996 280.272 30.74 278.16 31.364L277.344 29.276ZM307.632 22.604C307.584 22.94 307.368 23.156 306.768 23.252V27.428H306.528V27.476H306.648V43.916C306.624 44.06 305.952 44.492 305.16 44.492H304.896V27.476H305.016V27.428H304.776V22.316L307.632 22.604ZM307.92 26.996L308.832 25.94L310.968 27.572C310.824 27.74 310.44 27.932 309.96 28.028V36.908C309.96 38.324 309.744 39.116 307.944 39.284C307.92 38.732 307.872 38.228 307.704 37.94C307.56 37.652 307.32 37.46 306.816 37.364V36.98C306.816 36.98 307.584 37.052 307.872 37.052C308.112 37.052 308.16 36.932 308.16 36.692V26.996H307.92ZM303.336 38.924C303.336 39.116 302.592 39.572 301.776 39.572H301.464V26.108L303.456 26.996H308.928V27.692H303.336V38.924ZM322.608 35.996C322.488 36.188 322.224 36.212 321.84 36.116C320.832 36.86 318.84 37.964 317.424 38.732L317.16 38.444C318.12 37.268 319.368 35.516 319.992 34.412L322.608 35.996ZM315.84 33.356C316.8 37.532 319.272 40.82 323.112 41.996L323.088 42.26C322.248 42.5 321.6 43.244 321.36 44.348C317.712 42.356 316.2 38.924 315.48 33.452L315.84 33.356ZM311.088 41.876C312.216 41.66 314.832 40.988 317.4 40.268L317.496 40.556C316.488 41.3 314.496 42.692 312.264 44.06L311.088 41.876ZM313.32 33.332L313.824 33.644V41.876L311.832 42.668L312.768 41.828C313.2 43.292 312.504 44.18 312 44.444L310.608 41.924C311.52 41.42 311.664 41.252 311.664 40.796V33.332H313.32ZM311.952 22.82L314.544 23.876H314.16V33.596H311.952V22.82ZM319.152 28.628C319.152 28.628 320.472 29.636 321.312 30.428C321.24 30.692 321 30.812 320.664 30.812H312.912V30.116H317.952L319.152 28.628ZM319.056 25.46C319.056 25.46 320.4 26.468 321.216 27.26C321.168 27.524 320.904 27.644 320.592 27.644H312.888V26.948H317.88L319.056 25.46ZM319.584 22.268C319.584 22.268 321.048 23.372 321.96 24.188C321.888 24.452 321.624 24.572 321.312 24.572H312.648V23.876H318.288L319.584 22.268ZM320.544 31.532C320.544 31.532 321.984 32.636 322.872 33.452C322.8 33.716 322.56 33.836 322.224 33.836H310.32L310.128 33.14H319.296L320.544 31.532Z" fill="white"/>
</svg>
