<svg width="294" height="61" viewBox="0 0 294 61" fill="none" xmlns="http://www.w3.org/2000/svg">
<path d="M31.9975 0H262.003L293.5 30.5L262.003 61H31.9975L0.5 30.5L31.9975 0Z" fill="#6B3B20"/>
<path d="M134.52 32.456L136.92 33.44H142.104L143.184 32.192L145.344 33.848C145.176 34.064 144.936 34.208 144.432 34.28V41.936C144.432 42.056 143.688 42.464 142.584 42.464H142.2V34.136H136.656V42.08C136.656 42.224 135.984 42.632 134.88 42.632H134.52V32.456ZM143.016 39.872V40.568H135.6V39.872H143.016ZM141.072 21.176C141.024 21.512 140.808 21.728 140.184 21.848V30.272H137.904V20.888L141.072 21.176ZM143.736 28.352C143.736 28.352 145.2 29.456 146.064 30.272C145.992 30.536 145.752 30.656 145.416 30.656H133.392L133.2 29.96H142.488L143.736 28.352ZM144.072 23.336C144.072 23.336 145.536 24.464 146.424 25.304C146.376 25.568 146.112 25.688 145.776 25.688H132.576L132.384 24.992H142.8L144.072 23.336ZM133.104 26.84C132.936 27.104 132.432 27.272 131.712 26.888L132.408 26.768C130.992 28.832 127.752 32.168 125.088 33.992L125.064 33.728H126.12C125.976 35.048 125.472 35.768 124.944 35.96L124.032 33.392C124.032 33.392 124.584 33.272 124.8 33.128C126.816 31.496 129.576 27.392 130.536 25.112L133.104 26.84ZM130.8 22.328C130.656 22.616 130.2 22.832 129.432 22.544L130.128 22.376C129.048 24.176 126.816 26.888 124.992 28.328L124.968 28.04H126.096C125.976 29.312 125.544 30.056 125.016 30.272L123.984 27.728C123.984 27.728 124.464 27.608 124.632 27.488C125.88 26.192 127.464 22.76 127.992 20.912L130.8 22.328ZM126.072 36.368C126.864 38.888 126.552 40.808 125.856 41.696C125.376 42.32 124.296 42.416 123.888 41.768C123.552 41.168 123.84 40.52 124.416 40.088C125.064 39.44 125.784 37.784 125.688 36.368H126.072ZM130.44 35.696C134.976 38.024 133.104 41.552 131.496 40.04C131.496 38.648 130.824 36.92 130.152 35.816L130.44 35.696ZM128.112 36.08C131.664 39.392 129.36 42.776 127.92 40.952C128.208 39.392 128.064 37.496 127.776 36.152L128.112 36.08ZM130.224 30.56C134.856 33.2 133.032 36.704 131.424 35.192C131.352 33.728 130.584 31.904 129.936 30.704L130.224 30.56ZM124.464 33.488C125.76 33.44 128.808 33.2 131.856 32.936L131.88 33.272C130.512 33.776 127.968 34.736 125.184 35.576L124.464 33.488ZM124.344 27.776C125.448 27.824 127.92 27.824 130.272 27.776V28.112C129.312 28.496 127.272 29.24 125.16 29.864L124.344 27.776ZM154.632 21.104C154.584 21.44 154.368 21.656 153.768 21.752V25.928H153.528V25.976H153.648V42.416C153.624 42.56 152.952 42.992 152.16 42.992H151.896V25.976H152.016V25.928H151.776V20.816L154.632 21.104ZM154.92 25.496L155.832 24.44L157.968 26.072C157.824 26.24 157.44 26.432 156.96 26.528V35.408C156.96 36.824 156.744 37.616 154.944 37.784C154.92 37.232 154.872 36.728 154.704 36.44C154.56 36.152 154.32 35.96 153.816 35.864V35.48C153.816 35.48 154.584 35.552 154.872 35.552C155.112 35.552 155.16 35.432 155.16 35.192V25.496H154.92ZM150.336 37.424C150.336 37.616 149.592 38.072 148.776 38.072H148.464V24.608L150.456 25.496H155.928V26.192H150.336V37.424ZM169.608 34.496C169.488 34.688 169.224 34.712 168.84 34.616C167.832 35.36 165.84 36.464 164.424 37.232L164.16 36.944C165.12 35.768 166.368 34.016 166.992 32.912L169.608 34.496ZM162.84 31.856C163.8 36.032 166.272 39.32 170.112 40.496L170.088 40.76C169.248 41 168.6 41.744 168.36 42.848C164.712 40.856 163.2 37.424 162.48 31.952L162.84 31.856ZM158.088 40.376C159.216 40.16 161.832 39.488 164.4 38.768L164.496 39.056C163.488 39.8 161.496 41.192 159.264 42.56L158.088 40.376ZM160.32 31.832L160.824 32.144V40.376L158.832 41.168L159.768 40.328C160.2 41.792 159.504 42.68 159 42.944L157.608 40.424C158.52 39.92 158.664 39.752 158.664 39.296V31.832H160.32ZM158.952 21.32L161.544 22.376H161.16V32.096H158.952V21.32ZM166.152 27.128C166.152 27.128 167.472 28.136 168.312 28.928C168.24 29.192 168 29.312 167.664 29.312H159.912V28.616H164.952L166.152 27.128ZM166.056 23.96C166.056 23.96 167.4 24.968 168.216 25.76C168.168 26.024 167.904 26.144 167.592 26.144H159.888V25.448H164.88L166.056 23.96ZM166.584 20.768C166.584 20.768 168.048 21.872 168.96 22.688C168.888 22.952 168.624 23.072 168.312 23.072H159.648V22.376H165.288L166.584 20.768ZM167.544 30.032C167.544 30.032 168.984 31.136 169.872 31.952C169.8 32.216 169.56 32.336 169.224 32.336H157.32L157.128 31.64H166.296L167.544 30.032Z" fill="white"/>
</svg>
