<svg width="293" height="61" viewBox="0 0 293 61" fill="none" xmlns="http://www.w3.org/2000/svg">
<path d="M1.43753 30.5L31.9023 1H261.098L291.562 30.5L261.098 60H31.9023L1.43753 30.5Z" stroke="#6B3B20" stroke-width="2"/>
<path d="M116.472 37.764C117.264 37.764 118.992 37.716 120.576 37.596L120.6 37.98C119.952 38.244 118.296 38.82 116.88 39.228L116.472 37.764ZM121.536 34.164C121.392 34.404 120.936 34.62 120.216 34.26L120.888 34.116C119.976 35.34 118.152 37.164 116.64 38.244L116.616 37.932H117.504C117.408 38.892 117.048 39.516 116.664 39.684L115.752 37.668C115.752 37.668 116.136 37.596 116.28 37.5C117.528 36.564 119.016 34.14 119.592 32.892L121.536 34.164ZM120.024 32.052C119.904 32.292 119.472 32.532 118.68 32.22L119.376 32.076C118.656 32.916 117.384 34.116 116.328 34.788V34.476H117.168C117.048 35.412 116.688 36.012 116.304 36.156L115.512 34.236C115.512 34.236 115.824 34.14 115.968 34.092C116.76 33.516 117.672 31.764 117.984 30.948L120.024 32.052ZM116.016 34.404C116.688 34.428 118.032 34.404 119.208 34.332L119.232 34.716C118.824 34.956 117.504 35.46 116.52 35.844L116.016 34.404ZM119.592 36.108C122.88 37.716 121.296 40.164 120.144 38.988C120.192 38.076 119.784 36.924 119.304 36.252L119.592 36.108ZM110.856 38.004C111.6 38.004 113.136 37.932 114.576 37.836L114.6 38.22C114.048 38.46 112.512 39.036 111.288 39.444L110.856 38.004ZM116.064 34.116C115.92 34.38 115.464 34.596 114.744 34.212L115.392 34.092C114.48 35.34 112.632 37.26 111.048 38.388L111.024 38.1H111.888C111.792 39.036 111.432 39.612 111.072 39.756L110.184 37.86C110.184 37.86 110.568 37.764 110.712 37.692C112.008 36.684 113.568 34.188 114.192 32.892L116.064 34.116ZM114.624 32.076C114.48 32.34 114.048 32.58 113.28 32.244L113.952 32.124C113.28 32.988 112.032 34.188 111.024 34.884L111 34.572H111.84C111.744 35.508 111.36 36.084 111 36.228L110.184 34.308C110.184 34.308 110.52 34.236 110.64 34.164C111.408 33.588 112.272 31.812 112.584 30.972L114.624 32.076ZM110.712 34.524C111.36 34.524 112.68 34.5 113.856 34.452V34.836C113.472 35.052 112.176 35.58 111.216 35.964L110.712 34.524ZM113.928 36.516C116.976 38.196 115.392 40.548 114.312 39.396C114.408 38.484 114.048 37.332 113.616 36.66L113.928 36.516ZM116.568 27.324C117.312 27.348 118.896 27.324 120.36 27.228L120.384 27.636C119.832 27.876 118.248 28.428 116.976 28.836L116.568 27.324ZM121.68 23.604C121.536 23.868 121.08 24.084 120.336 23.7L121.008 23.58C120.12 24.828 118.296 26.7 116.76 27.804L116.712 27.516H117.6C117.504 28.452 117.144 29.076 116.784 29.22L115.872 27.252C115.872 27.252 116.256 27.156 116.4 27.084C117.672 26.1 119.16 23.628 119.736 22.356L121.68 23.604ZM120.168 21.324C120.048 21.588 119.592 21.828 118.824 21.492L119.52 21.372C118.824 22.308 117.552 23.652 116.496 24.42L116.472 24.132H117.312C117.216 25.068 116.856 25.596 116.496 25.74L115.656 23.868C115.656 23.868 115.992 23.796 116.136 23.724C116.904 23.052 117.768 21.108 118.08 20.196L120.168 21.324ZM116.184 23.916C116.832 23.964 118.2 23.964 119.352 23.916V24.324C118.968 24.516 117.624 24.996 116.664 25.332L116.184 23.916ZM119.448 25.836C122.856 27.324 121.344 29.868 120.144 28.74C120.168 27.804 119.688 26.676 119.16 25.98L119.448 25.836ZM110.952 27.732C111.696 27.708 113.304 27.636 114.768 27.516L114.792 27.9C114.24 28.164 112.68 28.764 111.408 29.22L110.952 27.732ZM116.184 23.868C116.04 24.108 115.56 24.3 114.864 23.916L115.512 23.772C114.6 25.068 112.752 27.036 111.168 28.188L111.144 27.9H112.008C111.888 28.836 111.552 29.412 111.192 29.556L110.304 27.636C110.304 27.636 110.688 27.564 110.832 27.492C112.152 26.46 113.736 23.844 114.36 22.524L116.184 23.868ZM114.768 21.396C114.648 21.636 114.192 21.876 113.424 21.564L114.12 21.42C113.424 22.332 112.152 23.628 111.144 24.372L111.12 24.06H111.984C111.888 25.02 111.504 25.62 111.144 25.764L110.304 23.796C110.304 23.796 110.64 23.724 110.76 23.652C111.528 23.028 112.392 21.156 112.656 20.268L114.768 21.396ZM110.76 23.964C111.432 24.012 112.8 24.012 114.024 23.964V24.372C113.616 24.564 112.248 25.068 111.24 25.428L110.76 23.964ZM110.328 20.532C110.28 20.796 110.112 20.964 109.704 21.036V22.092H107.784V20.268L110.328 20.532ZM109.248 21.18L109.704 21.468V41.052H109.872L109.2 42.108L107.088 40.764C107.352 40.476 107.856 40.092 108.24 39.972L107.784 40.764V21.18H109.248ZM120.312 38.94C120.312 38.94 121.608 39.924 122.424 40.668C122.352 40.932 122.112 41.052 121.776 41.052H108.648V40.356H119.16L120.312 38.94ZM120.072 28.884C120.072 28.884 121.32 29.844 122.112 30.588C122.064 30.852 121.824 30.972 121.488 30.972H108.696V30.276H118.944L120.072 28.884ZM113.952 26.268C117.144 27.996 115.56 30.42 114.432 29.244C114.528 28.308 114.12 27.132 113.664 26.412L113.952 26.268ZM108.216 25.956C108.048 26.22 107.544 26.388 106.824 26.004L107.52 25.86C106.272 27.948 103.416 31.38 101.04 33.276L100.992 32.988H102.072C101.928 34.26 101.448 35.004 100.896 35.172L100.032 32.676C100.032 32.676 100.536 32.556 100.728 32.388C102.528 30.708 104.928 26.556 105.768 24.252L108.216 25.956ZM106.464 21.516C106.344 21.804 105.888 22.044 105.096 21.756L105.792 21.588C104.808 23.436 102.768 26.22 101.112 27.78L101.088 27.492H102.192C102.072 28.716 101.64 29.46 101.136 29.652L100.128 27.18C100.128 27.18 100.584 27.084 100.752 26.94C101.904 25.596 103.32 22.116 103.752 20.268L106.464 21.516ZM101.688 35.628C102.504 38.076 102.312 39.948 101.688 40.836C101.256 41.412 100.224 41.556 99.816 40.908C99.48 40.332 99.768 39.708 100.32 39.276C100.872 38.604 101.472 36.996 101.28 35.628H101.688ZM105.096 34.764C109.104 36.972 107.544 39.996 106.152 38.724C106.104 37.5 105.432 35.892 104.784 34.908L105.096 34.764ZM103.296 35.268C106.776 38.556 104.616 41.868 103.248 40.164C103.512 38.604 103.296 36.684 102.96 35.34L103.296 35.268ZM105.096 29.988C109.248 32.748 107.376 35.988 105.912 34.5C105.96 33.084 105.36 31.284 104.784 30.108L105.096 29.988ZM100.56 32.7C101.664 32.7 104.256 32.58 106.824 32.412L106.848 32.772C105.72 33.204 103.464 34.02 101.16 34.74L100.56 32.7ZM100.584 27.204C101.568 27.252 103.704 27.252 105.72 27.204V27.564C104.952 27.924 103.152 28.62 101.376 29.22L100.584 27.204ZM141.408 26.94V30.012H139.92V26.94H141.408ZM137.976 26.94V30.012L136.488 29.988V26.94H137.976ZM133.584 30.684L135.72 31.548H135.552V38.556C135.552 38.724 134.928 39.18 133.92 39.18H133.584V30.684ZM132.504 25.74L134.568 26.58H134.424V30.66C134.424 30.78 133.8 31.26 132.816 31.26H132.504V25.74ZM139.632 38.724C149.256 39.684 145.584 43.764 143.808 42.012C143.04 41.076 141.648 39.924 139.488 39.084L139.632 38.724ZM138.888 39.924C138.696 40.14 138.48 40.212 138 40.092C136.392 41.076 133.608 42.084 131.016 42.564L130.8 42.228C132.936 41.268 135.336 39.612 136.488 38.34L138.888 39.924ZM142.08 31.548L143.064 30.516L145.152 32.076C145.032 32.244 144.72 32.388 144.36 32.46V38.196C144.336 38.388 143.352 38.868 142.632 38.868H142.296V31.548H142.08ZM142.848 37.452V38.148H134.904V37.452H142.848ZM142.896 35.46V36.156H134.952V35.46H142.896ZM142.944 31.548V32.244H135V31.548H142.944ZM142.92 33.492V34.188H134.976V33.492H142.92ZM143.256 26.58L144.192 25.62L146.184 27.108C146.064 27.252 145.776 27.396 145.44 27.444V30.444C145.416 30.612 144.432 31.02 143.784 31.02H143.448V26.58H143.256ZM144.24 26.58V27.276H133.872V26.58H144.24ZM144.264 29.652V30.324H133.896V29.652H144.264ZM140.448 20.508C140.4 20.844 140.208 21.036 139.632 21.132V25.236H137.568V20.244L140.448 20.508ZM144.144 20.844C144.144 20.844 145.488 21.876 146.304 22.644C146.256 22.908 145.992 23.028 145.68 23.028H131.856L131.664 22.332H142.968L144.144 20.844ZM143.064 23.364C143.064 23.364 144.312 24.324 145.08 25.044C145.008 25.308 144.768 25.428 144.456 25.428H133.296L133.104 24.732H141.96L143.064 23.364ZM132.648 26.1C132.48 26.364 131.976 26.556 131.256 26.196L131.976 26.052C130.632 28.212 127.608 31.692 125.112 33.612L125.064 33.348H126.168C126 34.62 125.52 35.364 124.992 35.532L124.08 32.988C124.08 32.988 124.608 32.868 124.824 32.7C126.672 31.02 129.216 26.772 130.08 24.42L132.648 26.1ZM130.92 21.78C130.776 22.068 130.32 22.284 129.528 21.996L130.248 21.828C129.168 23.652 126.96 26.412 125.184 27.876L125.16 27.612H126.288C126.168 28.884 125.736 29.628 125.208 29.82L124.176 27.276C124.176 27.276 124.632 27.18 124.824 27.036C126.048 25.716 127.584 22.236 128.088 20.364L130.92 21.78ZM126.216 35.916C126.984 38.484 126.672 40.452 126 41.412C125.544 42.06 124.488 42.204 124.056 41.58C123.72 41.028 123.984 40.38 124.512 39.948C125.16 39.252 125.904 37.476 125.808 35.916H126.216ZM129.984 35.172C134.328 37.452 132.576 40.86 131.016 39.42C131.016 38.052 130.344 36.372 129.696 35.292L129.984 35.172ZM127.944 35.604C131.496 39.012 129.24 42.444 127.824 40.644C128.088 39.06 127.92 37.068 127.608 35.676L127.944 35.604ZM129.792 30.132C134.208 32.868 132.24 36.252 130.704 34.668C130.704 33.252 130.08 31.452 129.48 30.252L129.792 30.132ZM124.464 33.012C125.76 32.964 128.784 32.772 131.784 32.532L131.808 32.868C130.464 33.372 127.92 34.284 125.16 35.124L124.464 33.012ZM124.464 27.324C125.544 27.372 127.944 27.372 130.248 27.324L130.272 27.684C129.312 28.068 127.32 28.788 125.28 29.436L124.464 27.324ZM152.304 36.492C153.936 39.564 156.36 39.948 160.992 39.948C163.128 39.948 168.288 39.948 170.496 39.9V40.188C169.704 40.356 169.296 41.076 169.272 41.94C167.472 41.94 162.912 41.94 160.944 41.94C156.072 41.94 153.624 40.956 152.016 36.66L152.304 36.492ZM153.576 27.324C152.904 28.548 151.32 31.14 150.432 32.436H150.624L149.856 33.108L148.104 31.764C148.416 31.548 149.04 31.308 149.472 31.236L148.656 31.908C149.568 30.612 151.176 27.876 151.848 26.532L153.576 27.324ZM151.776 26.508L152.76 25.5L154.752 27.3C154.392 27.66 153.288 27.732 152.352 27.612L152.088 26.508H151.776ZM152.088 31.836L153.24 30.708L155.232 32.436C155.064 32.652 154.824 32.724 154.296 32.748C153.384 36.324 151.464 40.116 147.84 42.588L147.576 42.3C150.216 39.612 151.776 35.484 152.328 31.836H152.088ZM152.664 26.508V27.204H148.272L148.056 26.508H152.664ZM153.24 31.836V32.532H149.592L149.856 31.836H153.24ZM149.352 20.244C155.04 21.708 153.216 25.86 151.152 24.348C150.984 22.98 150 21.372 149.112 20.388L149.352 20.244ZM155.448 20.844L157.68 21.732H157.368V23.172C157.368 23.172 156.768 23.172 155.448 23.172V20.844ZM155.304 27.588C156.432 27.516 159.096 27.156 161.712 26.796L161.784 27.156C160.584 27.612 158.256 28.548 155.88 29.34L155.304 27.588ZM156.912 22.092L157.368 22.356V27.852L155.952 28.356L156.6 27.78C156.768 28.86 156.192 29.412 155.784 29.604L154.944 27.78C155.4 27.492 155.448 27.324 155.448 26.916V22.092H156.912ZM162.888 35.364C172.272 36.78 168.72 40.644 167.04 38.988C166.296 37.956 164.832 36.708 162.72 35.724L162.888 35.364ZM159.504 21.732L160.392 20.796L162.312 22.26C162.192 22.428 161.904 22.596 161.496 22.644V25.452C161.472 25.596 160.584 26.004 160.008 26.004H159.72V21.732H159.504ZM160.68 24.492V25.188H156.408V24.492H160.68ZM166.68 21.732L167.568 20.796L169.536 22.284C169.416 22.428 169.104 22.596 168.72 22.668V25.284C168.696 25.452 167.784 25.86 167.184 25.86H166.872V21.732H166.68ZM167.712 21.732V22.428H163.536L163.32 21.732H167.712ZM162.6 20.892V20.844L164.808 21.732H164.496V26.556C164.496 26.844 164.568 26.916 165.096 26.916H166.416C166.92 26.916 167.424 26.916 167.64 26.916C167.784 26.916 168 26.892 168.12 26.892C168.264 26.868 168.456 26.82 168.6 26.796H168.816H168.912C169.464 27.012 169.68 27.132 169.68 27.468C169.68 28.188 168.912 28.428 166.2 28.428L164.544 28.404C162.888 28.404 162.6 27.996 162.6 26.844V20.892ZM161.784 36.276C161.616 36.54 161.256 36.636 160.608 36.564C159.384 37.62 157.176 38.748 154.92 39.3L154.728 39.012C156.48 38.004 158.208 36.276 158.976 35.004L161.784 36.276ZM166.176 28.86C166.152 29.148 165.984 29.316 165.552 29.412V34.62H163.488V28.62L166.176 28.86ZM161.184 28.812C161.136 29.076 160.992 29.244 160.536 29.34V34.62H158.472V28.548L161.184 28.812ZM167.928 32.82C167.928 32.82 169.224 33.852 169.968 34.62C169.896 34.884 169.68 35.004 169.368 35.004H154.872L154.68 34.308H166.8L167.928 32.82ZM167.616 29.7C167.616 29.7 168.792 30.684 169.488 31.404C169.44 31.668 169.2 31.788 168.864 31.788H155.808L155.616 31.092H166.584L167.616 29.7ZM167.64 24.492V25.188H163.68V24.492H167.64ZM160.752 21.732V22.428H156.432L156.216 21.732H160.752ZM182.568 33.756H190.968V34.452H182.568V33.756ZM180.168 22.98H190.704L191.808 21.516C191.808 21.516 193.056 22.524 193.824 23.268C193.776 23.532 193.536 23.652 193.2 23.652H180.36L180.168 22.98ZM179.808 28.26H191.04L192.144 26.82C192.144 26.82 193.416 27.852 194.16 28.572C194.112 28.836 193.872 28.956 193.536 28.956H180L179.808 28.26ZM179.568 36.972H191.928L192.864 35.532C192.864 35.532 193.968 36.564 194.544 37.284C194.496 37.548 194.304 37.668 193.968 37.668H179.76L179.568 36.972ZM180.504 25.548H190.656L191.592 24.3C191.592 24.3 192.696 25.212 193.368 25.86C193.296 26.124 193.08 26.244 192.744 26.244H180.696L180.504 25.548ZM183.096 20.436L185.856 20.676C185.832 20.988 185.64 21.204 185.112 21.276V28.62H183.096V20.436ZM187.968 20.436L190.752 20.676C190.704 20.988 190.512 21.204 189.984 21.276V28.62H187.968V20.436ZM185.592 28.476H187.584V37.284H185.592V28.476ZM181.272 30.66V29.748L183.384 30.66H190.728V31.356H183.24V41.868C183.24 42.084 182.424 42.564 181.584 42.564H181.272V30.66ZM189.984 30.66H189.744L190.704 29.532L192.96 31.212C192.84 31.404 192.48 31.596 192.024 31.668V39.924C192.024 41.388 191.712 42.276 189.216 42.516C189.168 41.868 189.048 41.34 188.76 41.028C188.448 40.716 187.944 40.5 186.936 40.332V39.972C186.936 39.972 189.024 40.116 189.48 40.116C189.888 40.116 189.984 39.996 189.984 39.66V30.66ZM174.336 36.54L176.952 37.74C176.832 38.004 176.64 38.124 176.064 38.076C175.224 39.54 173.76 41.388 171.96 42.516L171.696 42.228C172.968 40.692 173.928 38.22 174.336 36.54ZM176.736 36.684C181.848 38.724 179.88 42.54 178.056 40.932C177.984 39.564 177.216 37.884 176.472 36.804L176.736 36.684ZM172.992 21.852V20.94L175.224 21.852H177.336L178.344 20.628L180.48 22.284C180.288 22.476 180.024 22.644 179.496 22.74V36.108C179.496 36.228 178.752 36.708 177.768 36.708H177.432V22.524H174.96V36.444C174.96 36.612 174.336 37.044 173.304 37.044H172.992V21.852ZM174.096 26.1H178.512V26.796H174.096V26.1ZM174.096 30.42H178.512V31.116H174.096V30.42ZM174.096 34.86H178.512V35.556H174.096V34.86Z" fill="#6B3B20"/>
</svg>
