<svg width="510" height="68" viewBox="0 0 510 68" fill="none" xmlns="http://www.w3.org/2000/svg">
<path d="M157.438 34L187.902 4.5H417.098L447.562 34L417.098 63.5H187.902L157.438 34Z" stroke="#6B3B20" stroke-width="2"/>
<path d="M272.472 41.264C273.264 41.264 274.992 41.216 276.576 41.096L276.6 41.48C275.952 41.744 274.296 42.32 272.88 42.728L272.472 41.264ZM277.536 37.664C277.392 37.904 276.936 38.12 276.216 37.76L276.888 37.616C275.976 38.84 274.152 40.664 272.64 41.744L272.616 41.432H273.504C273.408 42.392 273.048 43.016 272.664 43.184L271.752 41.168C271.752 41.168 272.136 41.096 272.28 41C273.528 40.064 275.016 37.64 275.592 36.392L277.536 37.664ZM276.024 35.552C275.904 35.792 275.472 36.032 274.68 35.72L275.376 35.576C274.656 36.416 273.384 37.616 272.328 38.288V37.976H273.168C273.048 38.912 272.688 39.512 272.304 39.656L271.512 37.736C271.512 37.736 271.824 37.64 271.968 37.592C272.76 37.016 273.672 35.264 273.984 34.448L276.024 35.552ZM272.016 37.904C272.688 37.928 274.032 37.904 275.208 37.832L275.232 38.216C274.824 38.456 273.504 38.96 272.52 39.344L272.016 37.904ZM275.592 39.608C278.88 41.216 277.296 43.664 276.144 42.488C276.192 41.576 275.784 40.424 275.304 39.752L275.592 39.608ZM266.856 41.504C267.6 41.504 269.136 41.432 270.576 41.336L270.6 41.72C270.048 41.96 268.512 42.536 267.288 42.944L266.856 41.504ZM272.064 37.616C271.92 37.88 271.464 38.096 270.744 37.712L271.392 37.592C270.48 38.84 268.632 40.76 267.048 41.888L267.024 41.6H267.888C267.792 42.536 267.432 43.112 267.072 43.256L266.184 41.36C266.184 41.36 266.568 41.264 266.712 41.192C268.008 40.184 269.568 37.688 270.192 36.392L272.064 37.616ZM270.624 35.576C270.48 35.84 270.048 36.08 269.28 35.744L269.952 35.624C269.28 36.488 268.032 37.688 267.024 38.384L267 38.072H267.84C267.744 39.008 267.36 39.584 267 39.728L266.184 37.808C266.184 37.808 266.52 37.736 266.64 37.664C267.408 37.088 268.272 35.312 268.584 34.472L270.624 35.576ZM266.712 38.024C267.36 38.024 268.68 38 269.856 37.952V38.336C269.472 38.552 268.176 39.08 267.216 39.464L266.712 38.024ZM269.928 40.016C272.976 41.696 271.392 44.048 270.312 42.896C270.408 41.984 270.048 40.832 269.616 40.16L269.928 40.016ZM272.568 30.824C273.312 30.848 274.896 30.824 276.36 30.728L276.384 31.136C275.832 31.376 274.248 31.928 272.976 32.336L272.568 30.824ZM277.68 27.104C277.536 27.368 277.08 27.584 276.336 27.2L277.008 27.08C276.12 28.328 274.296 30.2 272.76 31.304L272.712 31.016H273.6C273.504 31.952 273.144 32.576 272.784 32.72L271.872 30.752C271.872 30.752 272.256 30.656 272.4 30.584C273.672 29.6 275.16 27.128 275.736 25.856L277.68 27.104ZM276.168 24.824C276.048 25.088 275.592 25.328 274.824 24.992L275.52 24.872C274.824 25.808 273.552 27.152 272.496 27.92L272.472 27.632H273.312C273.216 28.568 272.856 29.096 272.496 29.24L271.656 27.368C271.656 27.368 271.992 27.296 272.136 27.224C272.904 26.552 273.768 24.608 274.08 23.696L276.168 24.824ZM272.184 27.416C272.832 27.464 274.2 27.464 275.352 27.416V27.824C274.968 28.016 273.624 28.496 272.664 28.832L272.184 27.416ZM275.448 29.336C278.856 30.824 277.344 33.368 276.144 32.24C276.168 31.304 275.688 30.176 275.16 29.48L275.448 29.336ZM266.952 31.232C267.696 31.208 269.304 31.136 270.768 31.016L270.792 31.4C270.24 31.664 268.68 32.264 267.408 32.72L266.952 31.232ZM272.184 27.368C272.04 27.608 271.56 27.8 270.864 27.416L271.512 27.272C270.6 28.568 268.752 30.536 267.168 31.688L267.144 31.4H268.008C267.888 32.336 267.552 32.912 267.192 33.056L266.304 31.136C266.304 31.136 266.688 31.064 266.832 30.992C268.152 29.96 269.736 27.344 270.36 26.024L272.184 27.368ZM270.768 24.896C270.648 25.136 270.192 25.376 269.424 25.064L270.12 24.92C269.424 25.832 268.152 27.128 267.144 27.872L267.12 27.56H267.984C267.888 28.52 267.504 29.12 267.144 29.264L266.304 27.296C266.304 27.296 266.64 27.224 266.76 27.152C267.528 26.528 268.392 24.656 268.656 23.768L270.768 24.896ZM266.76 27.464C267.432 27.512 268.8 27.512 270.024 27.464V27.872C269.616 28.064 268.248 28.568 267.24 28.928L266.76 27.464ZM266.328 24.032C266.28 24.296 266.112 24.464 265.704 24.536V25.592H263.784V23.768L266.328 24.032ZM265.248 24.68L265.704 24.968V44.552H265.872L265.2 45.608L263.088 44.264C263.352 43.976 263.856 43.592 264.24 43.472L263.784 44.264V24.68H265.248ZM276.312 42.44C276.312 42.44 277.608 43.424 278.424 44.168C278.352 44.432 278.112 44.552 277.776 44.552H264.648V43.856H275.16L276.312 42.44ZM276.072 32.384C276.072 32.384 277.32 33.344 278.112 34.088C278.064 34.352 277.824 34.472 277.488 34.472H264.696V33.776H274.944L276.072 32.384ZM269.952 29.768C273.144 31.496 271.56 33.92 270.432 32.744C270.528 31.808 270.12 30.632 269.664 29.912L269.952 29.768ZM264.216 29.456C264.048 29.72 263.544 29.888 262.824 29.504L263.52 29.36C262.272 31.448 259.416 34.88 257.04 36.776L256.992 36.488H258.072C257.928 37.76 257.448 38.504 256.896 38.672L256.032 36.176C256.032 36.176 256.536 36.056 256.728 35.888C258.528 34.208 260.928 30.056 261.768 27.752L264.216 29.456ZM262.464 25.016C262.344 25.304 261.888 25.544 261.096 25.256L261.792 25.088C260.808 26.936 258.768 29.72 257.112 31.28L257.088 30.992H258.192C258.072 32.216 257.64 32.96 257.136 33.152L256.128 30.68C256.128 30.68 256.584 30.584 256.752 30.44C257.904 29.096 259.32 25.616 259.752 23.768L262.464 25.016ZM257.688 39.128C258.504 41.576 258.312 43.448 257.688 44.336C257.256 44.912 256.224 45.056 255.816 44.408C255.48 43.832 255.768 43.208 256.32 42.776C256.872 42.104 257.472 40.496 257.28 39.128H257.688ZM261.096 38.264C265.104 40.472 263.544 43.496 262.152 42.224C262.104 41 261.432 39.392 260.784 38.408L261.096 38.264ZM259.296 38.768C262.776 42.056 260.616 45.368 259.248 43.664C259.512 42.104 259.296 40.184 258.96 38.84L259.296 38.768ZM261.096 33.488C265.248 36.248 263.376 39.488 261.912 38C261.96 36.584 261.36 34.784 260.784 33.608L261.096 33.488ZM256.56 36.2C257.664 36.2 260.256 36.08 262.824 35.912L262.848 36.272C261.72 36.704 259.464 37.52 257.16 38.24L256.56 36.2ZM256.584 30.704C257.568 30.752 259.704 30.752 261.72 30.704V31.064C260.952 31.424 259.152 32.12 257.376 32.72L256.584 30.704ZM297.408 30.44V33.512H295.92V30.44H297.408ZM293.976 30.44V33.512L292.488 33.488V30.44H293.976ZM289.584 34.184L291.72 35.048H291.552V42.056C291.552 42.224 290.928 42.68 289.92 42.68H289.584V34.184ZM288.504 29.24L290.568 30.08H290.424V34.16C290.424 34.28 289.8 34.76 288.816 34.76H288.504V29.24ZM295.632 42.224C305.256 43.184 301.584 47.264 299.808 45.512C299.04 44.576 297.648 43.424 295.488 42.584L295.632 42.224ZM294.888 43.424C294.696 43.64 294.48 43.712 294 43.592C292.392 44.576 289.608 45.584 287.016 46.064L286.8 45.728C288.936 44.768 291.336 43.112 292.488 41.84L294.888 43.424ZM298.08 35.048L299.064 34.016L301.152 35.576C301.032 35.744 300.72 35.888 300.36 35.96V41.696C300.336 41.888 299.352 42.368 298.632 42.368H298.296V35.048H298.08ZM298.848 40.952V41.648H290.904V40.952H298.848ZM298.896 38.96V39.656H290.952V38.96H298.896ZM298.944 35.048V35.744H291V35.048H298.944ZM298.92 36.992V37.688H290.976V36.992H298.92ZM299.256 30.08L300.192 29.12L302.184 30.608C302.064 30.752 301.776 30.896 301.44 30.944V33.944C301.416 34.112 300.432 34.52 299.784 34.52H299.448V30.08H299.256ZM300.24 30.08V30.776H289.872V30.08H300.24ZM300.264 33.152V33.824H289.896V33.152H300.264ZM296.448 24.008C296.4 24.344 296.208 24.536 295.632 24.632V28.736H293.568V23.744L296.448 24.008ZM300.144 24.344C300.144 24.344 301.488 25.376 302.304 26.144C302.256 26.408 301.992 26.528 301.68 26.528H287.856L287.664 25.832H298.968L300.144 24.344ZM299.064 26.864C299.064 26.864 300.312 27.824 301.08 28.544C301.008 28.808 300.768 28.928 300.456 28.928H289.296L289.104 28.232H297.96L299.064 26.864ZM288.648 29.6C288.48 29.864 287.976 30.056 287.256 29.696L287.976 29.552C286.632 31.712 283.608 35.192 281.112 37.112L281.064 36.848H282.168C282 38.12 281.52 38.864 280.992 39.032L280.08 36.488C280.08 36.488 280.608 36.368 280.824 36.2C282.672 34.52 285.216 30.272 286.08 27.92L288.648 29.6ZM286.92 25.28C286.776 25.568 286.32 25.784 285.528 25.496L286.248 25.328C285.168 27.152 282.96 29.912 281.184 31.376L281.16 31.112H282.288C282.168 32.384 281.736 33.128 281.208 33.32L280.176 30.776C280.176 30.776 280.632 30.68 280.824 30.536C282.048 29.216 283.584 25.736 284.088 23.864L286.92 25.28ZM282.216 39.416C282.984 41.984 282.672 43.952 282 44.912C281.544 45.56 280.488 45.704 280.056 45.08C279.72 44.528 279.984 43.88 280.512 43.448C281.16 42.752 281.904 40.976 281.808 39.416H282.216ZM285.984 38.672C290.328 40.952 288.576 44.36 287.016 42.92C287.016 41.552 286.344 39.872 285.696 38.792L285.984 38.672ZM283.944 39.104C287.496 42.512 285.24 45.944 283.824 44.144C284.088 42.56 283.92 40.568 283.608 39.176L283.944 39.104ZM285.792 33.632C290.208 36.368 288.24 39.752 286.704 38.168C286.704 36.752 286.08 34.952 285.48 33.752L285.792 33.632ZM280.464 36.512C281.76 36.464 284.784 36.272 287.784 36.032L287.808 36.368C286.464 36.872 283.92 37.784 281.16 38.624L280.464 36.512ZM280.464 30.824C281.544 30.872 283.944 30.872 286.248 30.824L286.272 31.184C285.312 31.568 283.32 32.288 281.28 32.936L280.464 30.824ZM308.304 39.992C309.936 43.064 312.36 43.448 316.992 43.448C319.128 43.448 324.288 43.448 326.496 43.4V43.688C325.704 43.856 325.296 44.576 325.272 45.44C323.472 45.44 318.912 45.44 316.944 45.44C312.072 45.44 309.624 44.456 308.016 40.16L308.304 39.992ZM309.576 30.824C308.904 32.048 307.32 34.64 306.432 35.936H306.624L305.856 36.608L304.104 35.264C304.416 35.048 305.04 34.808 305.472 34.736L304.656 35.408C305.568 34.112 307.176 31.376 307.848 30.032L309.576 30.824ZM307.776 30.008L308.76 29L310.752 30.8C310.392 31.16 309.288 31.232 308.352 31.112L308.088 30.008H307.776ZM308.088 35.336L309.24 34.208L311.232 35.936C311.064 36.152 310.824 36.224 310.296 36.248C309.384 39.824 307.464 43.616 303.84 46.088L303.576 45.8C306.216 43.112 307.776 38.984 308.328 35.336H308.088ZM308.664 30.008V30.704H304.272L304.056 30.008H308.664ZM309.24 35.336V36.032H305.592L305.856 35.336H309.24ZM305.352 23.744C311.04 25.208 309.216 29.36 307.152 27.848C306.984 26.48 306 24.872 305.112 23.888L305.352 23.744ZM311.448 24.344L313.68 25.232H313.368V26.672C313.368 26.672 312.768 26.672 311.448 26.672V24.344ZM311.304 31.088C312.432 31.016 315.096 30.656 317.712 30.296L317.784 30.656C316.584 31.112 314.256 32.048 311.88 32.84L311.304 31.088ZM312.912 25.592L313.368 25.856V31.352L311.952 31.856L312.6 31.28C312.768 32.36 312.192 32.912 311.784 33.104L310.944 31.28C311.4 30.992 311.448 30.824 311.448 30.416V25.592H312.912ZM318.888 38.864C328.272 40.28 324.72 44.144 323.04 42.488C322.296 41.456 320.832 40.208 318.72 39.224L318.888 38.864ZM315.504 25.232L316.392 24.296L318.312 25.76C318.192 25.928 317.904 26.096 317.496 26.144V28.952C317.472 29.096 316.584 29.504 316.008 29.504H315.72V25.232H315.504ZM316.68 27.992V28.688H312.408V27.992H316.68ZM322.68 25.232L323.568 24.296L325.536 25.784C325.416 25.928 325.104 26.096 324.72 26.168V28.784C324.696 28.952 323.784 29.36 323.184 29.36H322.872V25.232H322.68ZM323.712 25.232V25.928H319.536L319.32 25.232H323.712ZM318.6 24.392V24.344L320.808 25.232H320.496V30.056C320.496 30.344 320.568 30.416 321.096 30.416H322.416C322.92 30.416 323.424 30.416 323.64 30.416C323.784 30.416 324 30.392 324.12 30.392C324.264 30.368 324.456 30.32 324.6 30.296H324.816H324.912C325.464 30.512 325.68 30.632 325.68 30.968C325.68 31.688 324.912 31.928 322.2 31.928L320.544 31.904C318.888 31.904 318.6 31.496 318.6 30.344V24.392ZM317.784 39.776C317.616 40.04 317.256 40.136 316.608 40.064C315.384 41.12 313.176 42.248 310.92 42.8L310.728 42.512C312.48 41.504 314.208 39.776 314.976 38.504L317.784 39.776ZM322.176 32.36C322.152 32.648 321.984 32.816 321.552 32.912V38.12H319.488V32.12L322.176 32.36ZM317.184 32.312C317.136 32.576 316.992 32.744 316.536 32.84V38.12H314.472V32.048L317.184 32.312ZM323.928 36.32C323.928 36.32 325.224 37.352 325.968 38.12C325.896 38.384 325.68 38.504 325.368 38.504H310.872L310.68 37.808H322.8L323.928 36.32ZM323.616 33.2C323.616 33.2 324.792 34.184 325.488 34.904C325.44 35.168 325.2 35.288 324.864 35.288H311.808L311.616 34.592H322.584L323.616 33.2ZM323.64 27.992V28.688H319.68V27.992H323.64ZM316.752 25.232V25.928H312.432L312.216 25.232H316.752ZM338.568 37.256H346.968V37.952H338.568V37.256ZM336.168 26.48H346.704L347.808 25.016C347.808 25.016 349.056 26.024 349.824 26.768C349.776 27.032 349.536 27.152 349.2 27.152H336.36L336.168 26.48ZM335.808 31.76H347.04L348.144 30.32C348.144 30.32 349.416 31.352 350.16 32.072C350.112 32.336 349.872 32.456 349.536 32.456H336L335.808 31.76ZM335.568 40.472H347.928L348.864 39.032C348.864 39.032 349.968 40.064 350.544 40.784C350.496 41.048 350.304 41.168 349.968 41.168H335.76L335.568 40.472ZM336.504 29.048H346.656L347.592 27.8C347.592 27.8 348.696 28.712 349.368 29.36C349.296 29.624 349.08 29.744 348.744 29.744H336.696L336.504 29.048ZM339.096 23.936L341.856 24.176C341.832 24.488 341.64 24.704 341.112 24.776V32.12H339.096V23.936ZM343.968 23.936L346.752 24.176C346.704 24.488 346.512 24.704 345.984 24.776V32.12H343.968V23.936ZM341.592 31.976H343.584V40.784H341.592V31.976ZM337.272 34.16V33.248L339.384 34.16H346.728V34.856H339.24V45.368C339.24 45.584 338.424 46.064 337.584 46.064H337.272V34.16ZM345.984 34.16H345.744L346.704 33.032L348.96 34.712C348.84 34.904 348.48 35.096 348.024 35.168V43.424C348.024 44.888 347.712 45.776 345.216 46.016C345.168 45.368 345.048 44.84 344.76 44.528C344.448 44.216 343.944 44 342.936 43.832V43.472C342.936 43.472 345.024 43.616 345.48 43.616C345.888 43.616 345.984 43.496 345.984 43.16V34.16ZM330.336 40.04L332.952 41.24C332.832 41.504 332.64 41.624 332.064 41.576C331.224 43.04 329.76 44.888 327.96 46.016L327.696 45.728C328.968 44.192 329.928 41.72 330.336 40.04ZM332.736 40.184C337.848 42.224 335.88 46.04 334.056 44.432C333.984 43.064 333.216 41.384 332.472 40.304L332.736 40.184ZM328.992 25.352V24.44L331.224 25.352H333.336L334.344 24.128L336.48 25.784C336.288 25.976 336.024 26.144 335.496 26.24V39.608C335.496 39.728 334.752 40.208 333.768 40.208H333.432V26.024H330.96V39.944C330.96 40.112 330.336 40.544 329.304 40.544H328.992V25.352ZM330.096 29.6H334.512V30.296H330.096V29.6ZM330.096 33.92H334.512V34.616H330.096V33.92ZM330.096 38.36H334.512V39.056H330.096V38.36Z" fill="#6B3B20"/>
</svg>
