<svg width="50" height="50" viewBox="0 0 50 50" fill="none" xmlns="http://www.w3.org/2000/svg">
<rect x="1" y="1" width="48" height="48" rx="9" stroke="#ACA7A1" stroke-width="2"/>
<path d="M35.0001 36.6667C35.0001 37.9927 34.4733 39.2645 33.5356 40.2022C32.5979 41.1399 31.3262 41.6667 30.0001 41.6667H18.3334C17.0073 41.6667 15.7356 41.1399 14.7979 40.2022C13.8602 39.2645 13.3334 37.9927 13.3334 36.6667V16.6667H11.6667V11.6667H19.1667L20.8334 10H27.5001L29.1667 11.6667H36.6667V16.6667H35.0001V36.6667ZM15.0001 16.6667V36.6667C15.0001 37.5507 15.3513 38.3986 15.9764 39.0237C16.6015 39.6488 17.4494 40 18.3334 40H30.0001C30.8841 40 31.732 39.6488 32.3571 39.0237C32.9822 38.3986 33.3334 37.5507 33.3334 36.6667V16.6667H15.0001ZM35.0001 15V13.3333H28.3334L26.6667 11.6667H21.6667L20.0001 13.3333H13.3334V15H35.0001ZM18.3334 20H20.0001V36.6667H18.3334V20ZM28.3334 20H30.0001V36.6667H28.3334V20Z" fill="#ACA7A1"/>
</svg>
