<svg width="36" height="36" viewBox="0 0 36 36" fill="none" xmlns="http://www.w3.org/2000/svg">
<path d="M24 11.685V24.315C24.0007 24.8136 23.8602 25.3022 23.5947 25.7243C23.3293 26.1464 22.9497 26.4846 22.5 26.7C21.9664 26.952 21.3727 27.0491 20.7866 26.9801C20.2005 26.9112 19.6455 26.679 19.185 26.31L11.535 19.995C11.249 19.7471 11.0197 19.4407 10.8625 19.0965C10.7054 18.7523 10.624 18.3784 10.624 18C10.624 17.6216 10.7054 17.2476 10.8625 16.9034C11.0197 16.5592 11.249 16.2528 11.535 16.005L19.185 9.68996C19.6455 9.32095 20.2005 9.08874 20.7866 9.01978C21.3727 8.95083 21.9664 9.04791 22.5 9.29996C22.9497 9.51527 23.3293 9.85355 23.5947 10.2756C23.8602 10.6977 24.0007 11.1863 24 11.685ZM21 24L16.1251 21.75L13.77 18L21 24Z" fill="#EACEB1"/>
</svg>
