<svg width="514" height="179" viewBox="0 0 514 179" fill="none" xmlns="http://www.w3.org/2000/svg">
<path d="M53.5673 122.172L48.7528 133.33C46.8648 137.71 45.9208 140.637 45.9208 142.109C45.9208 143.695 48.3563 144.488 53.2274 144.488H54.1337V148H32.3837V144.488L33.5731 144.432C36.8205 144.281 38.7463 143.884 39.3505 143.242C39.9924 142.562 41.5783 139.258 44.1083 133.33L73.618 63.0957H77.5829L106.979 133.727C109.283 138.786 110.906 141.807 111.85 142.789C112.794 143.733 114.645 144.281 117.401 144.432L118.704 144.488V148H87.6083V144.488H88.6278C93.9143 144.488 96.5575 143.733 96.5575 142.223C96.5575 139.995 95.7645 137.031 94.1786 133.33L89.4774 122.172H53.5673ZM55.4364 117.584H87.4384L71.5223 79.4082L55.4364 117.584Z" fill="#F1BFC1"/>
<path d="M170.775 104.557C177.761 105.689 183.236 108.238 187.201 112.203C191.165 116.168 193.148 121.077 193.148 126.93C193.148 134.029 190.788 139.315 186.068 142.789C181.348 146.263 174.136 148 164.431 148H131.58V144.488L132.656 144.432C137.225 144.13 139.925 143.488 140.755 142.506C141.624 141.486 142.058 138.428 142.058 133.33V78.8418C142.058 73.7064 141.624 70.6478 140.755 69.666C139.925 68.6842 137.225 68.0423 132.656 67.7402L131.58 67.627V64.1719H166.017C173.72 64.1719 179.592 65.7578 183.632 68.9297C187.673 72.1016 189.693 76.7083 189.693 82.75C189.693 87.6589 188.107 91.9447 184.935 95.6074C181.801 99.2324 177.081 102.215 170.775 104.557ZM153.783 106.426V133.33C153.783 139.107 154.274 142.242 155.255 142.732C157.106 143.714 159.862 144.205 163.525 144.205C168.66 144.205 172.833 142.657 176.042 139.561C179.252 136.426 180.857 132.367 180.857 127.383C180.857 113.411 171.832 106.426 153.783 106.426ZM153.783 102.574H157.238C163.997 102.574 169.057 101.026 172.417 97.9297C175.816 94.7956 177.515 90.1322 177.515 83.9395C177.515 78.0866 175.948 73.9707 172.814 71.5918C169.718 69.1751 164.337 67.9668 156.671 67.9668H153.783V102.574ZM255.357 150.096C243.236 150.096 233.683 146.169 226.697 138.314C219.712 130.46 216.219 119.717 216.219 106.086C216.219 92.4544 219.712 81.7116 226.697 73.8574C233.683 66.0033 243.236 62.0762 255.357 62.0762C267.479 62.0762 277.032 66.0033 284.018 73.8574C291.003 81.7116 294.496 92.4544 294.496 106.086C294.496 119.717 291.003 130.46 284.018 138.314C277.032 146.169 267.479 150.096 255.357 150.096ZM255.357 146.244C263.665 146.244 270.16 142.695 274.842 135.596C279.562 128.497 281.922 118.66 281.922 106.086C281.922 93.5117 279.562 83.6751 274.842 76.5762C270.16 69.4395 263.665 65.8711 255.357 65.8711C247.05 65.8711 240.536 69.4395 235.816 76.5762C231.134 83.6751 228.793 93.5117 228.793 106.086C228.793 118.66 231.134 128.497 235.816 135.596C240.536 142.695 247.05 146.244 255.357 146.244ZM311.79 67.627V64.1719H344.811V67.627L343.792 67.7402C339.147 68.0423 336.409 68.6842 335.579 69.666C334.748 70.61 334.333 73.6686 334.333 78.8418V114.695C334.333 123.38 334.559 129.044 335.012 131.688C335.465 134.331 336.598 136.842 338.411 139.221C342.073 143.979 347.549 146.357 354.836 146.357C361.671 146.357 367.146 144.281 371.262 140.127C373.566 137.786 375.057 135.199 375.737 132.367C376.454 129.535 376.813 124.475 376.813 117.188V78.8418C376.813 73.7064 376.379 70.6478 375.51 69.666C374.68 68.6842 371.961 68.0423 367.354 67.7402L366.335 67.627V64.1719H393.182V67.627L392.106 67.7402C387.461 68.0423 384.724 68.6842 383.893 69.666C383.1 70.61 382.704 73.6686 382.704 78.8418V113.959C382.704 121.738 382.269 127.439 381.401 131.064C380.532 134.689 378.795 138.069 376.19 141.203C371.281 147.132 363.691 150.096 353.42 150.096C332.652 150.096 322.268 138.938 322.268 116.621V78.8418C322.268 73.7064 321.834 70.6478 320.965 69.666C320.135 68.6842 317.435 68.0423 312.866 67.7402L311.79 67.627Z" fill="white"/>
<path d="M437.153 68.7031H423.786C420.652 68.7031 417.915 68.873 415.573 69.2129C414.025 69.4395 413.251 70.8366 413.251 73.4043C413.251 75.3301 413.213 76.9915 413.138 78.3887L413.081 79.5215H407.134V64.1719H479.124V79.5215H473.177L473.12 78.3887C473.007 76.9915 472.95 75.3301 472.95 73.4043C472.95 70.8366 472.195 69.4395 470.685 69.2129C468.306 68.873 465.568 68.7031 462.472 68.7031H449.048V133.33C449.048 138.352 449.501 141.411 450.407 142.506C451.314 143.563 454.013 144.205 458.507 144.432L460.943 144.488V148H425.316V144.488L427.751 144.432C432.245 144.205 434.926 143.563 435.794 142.506C436.7 141.411 437.153 138.352 437.153 133.33V68.7031Z" fill="#E1CBAA"/>
<path d="M353.172 25.484C352.92 25.844 352.2 26.096 351.12 25.484L352.2 25.376C350.508 26.744 346.872 28.832 343.92 29.84L343.884 29.444H345.108C344.964 30.884 344.46 31.64 343.92 31.856L342.588 29.012C342.588 29.012 343.128 28.868 343.416 28.76C345.756 27.752 348.708 24.62 349.824 23.036L353.172 25.484ZM349.752 23.072C349.536 23.432 348.888 23.792 347.7 23.288L348.816 23.144C347.592 24.224 345.288 25.736 343.524 26.456V26.024H344.748C344.604 27.464 344.1 28.184 343.56 28.4L342.264 25.592C342.264 25.592 342.696 25.484 342.948 25.376C344.172 24.692 345.612 22.208 346.08 21.056L349.752 23.072ZM343.2 29.012C344.712 29.012 348.132 28.832 351.48 28.616L351.516 29.192C350.076 29.696 347.016 30.74 344.064 31.604L343.2 29.012ZM342.66 25.628C343.92 25.664 346.692 25.664 349.248 25.628V26.204C348.276 26.564 345.756 27.284 343.56 27.86L342.66 25.628ZM350.076 27.212C355.116 29.66 352.416 33.224 350.544 31.352C350.544 30.056 350.076 28.4 349.644 27.392L350.076 27.212ZM353.316 32.252C353.244 32.648 353.028 32.936 352.272 33.08V37.94C352.272 38.192 350.832 38.696 349.644 38.696H349.068V31.856L353.316 32.252ZM350.76 36.248V37.256H345.504V36.248H350.76ZM340.968 36.212V37.22H335.892V36.212H340.968ZM348.384 32.144C348.312 32.648 347.988 33.008 347.052 33.152V41.864C347.052 42.152 345.504 42.692 344.136 42.692H343.524V31.712L348.384 32.144ZM343.776 32.18C343.704 32.648 343.452 32.972 342.624 33.08V35.168C342.516 38.048 341.148 41.36 333.948 43.052L333.66 42.656C338.34 40.64 339.204 37.688 339.204 35.096V31.748L343.776 32.18ZM338.484 32.468C338.412 32.936 338.124 33.224 337.332 33.368V34.772H334.092V32L338.484 32.468ZM336.576 33.656L337.332 34.124V37.22H337.62L336.432 38.876L332.76 36.788C333.192 36.32 334.092 35.744 334.704 35.528L334.092 36.824V33.656H336.576ZM342.984 25.52C342.768 25.88 342.048 26.132 340.968 25.52L342.048 25.412C340.428 26.924 337.08 29.192 334.38 30.38L334.344 29.948H335.568C335.46 31.388 334.92 32.144 334.38 32.36L333.084 29.516C333.084 29.516 333.624 29.408 333.876 29.264C335.964 28.148 338.628 24.8 339.6 23.108L342.984 25.52ZM340.752 22.964C340.572 23.36 339.924 23.684 338.736 23.18L339.816 23.036C338.52 24.152 336.036 25.664 334.128 26.384L334.092 25.952H335.316C335.208 27.392 334.668 28.112 334.164 28.328L332.868 25.52C332.868 25.52 333.3 25.412 333.552 25.304C334.92 24.584 336.576 22.1 337.116 20.948L340.752 22.964ZM333.768 29.516C335.172 29.516 338.304 29.372 341.292 29.156L341.328 29.732C340.104 30.2 337.26 31.208 334.632 32.036L333.768 29.516ZM333.408 25.592C334.632 25.628 337.296 25.628 339.708 25.592V26.168C338.808 26.492 336.36 27.248 334.308 27.824L333.408 25.592ZM339.816 27.176C345.036 29.408 342.48 33.08 340.572 31.316C340.5 29.984 339.924 28.364 339.384 27.356L339.816 27.176ZM355.944 20.048V21.056H346.224V20.048H355.944ZM355.944 16.448V17.456H346.224V16.448H355.944ZM339.96 20.084V21.092H329.916V20.084H339.96ZM339.96 16.448V17.456H329.916V16.448H339.96ZM336.576 12.812L338.52 10.724L342.588 13.748C342.372 14 341.94 14.324 341.256 14.432V21.668C341.22 21.92 339.06 22.676 337.692 22.676H336.936V12.812H336.576ZM353.208 12.812L355.296 10.4L359.688 13.82C359.436 14.108 358.968 14.432 358.248 14.576V38.804C358.248 41.972 357.528 43.7 352.272 44.168C352.128 42.656 351.912 41.54 351.3 40.856C350.652 40.172 349.86 39.632 347.916 39.308V38.804C347.916 38.804 351.948 39.056 352.776 39.056C353.388 39.056 353.568 38.804 353.568 38.3V12.812H353.208ZM348.564 21.236C348.564 21.632 346.548 22.604 344.712 22.604H344.064V11.012L348.744 12.812H356.088V13.82H348.564V21.236ZM332.436 42.692C332.436 43.304 330.708 44.456 328.62 44.456H327.828V10.796L332.616 12.812H339.888V13.82H332.436V42.692ZM393.06 12.092C394.356 16.916 397.704 20.372 400.98 22.496L400.908 23C398.928 24.188 397.668 25.736 397.416 27.644C394.644 23.9 393.204 18.068 392.484 12.452L393.06 12.092ZM393.24 12.632C391.404 18.032 387.48 24.368 382.188 28.22L381.9 28.004C385.068 23.036 387.372 15.044 387.912 10.04L394.716 11.732C394.572 12.236 394.212 12.524 393.24 12.632ZM383.952 33.224C401.628 34.52 399.288 46.256 393.276 43.592C391.188 39.92 387.228 35.924 383.7 33.476L383.952 33.224ZM386.832 24.296C397.956 23.468 395.436 32.144 390.72 29.984C389.892 28.004 388.056 25.844 386.58 24.512L386.832 24.296ZM371.064 10.292C382.116 11.624 377.544 20.084 373.188 16.664C373.008 14.432 371.964 12.056 370.812 10.472L371.064 10.292ZM375.348 18.032C375.204 27.644 374.34 38.336 366.132 44.528L365.844 44.24C370.092 36.68 370.128 26.636 369.732 18.032H375.348ZM377.004 23.864L379.452 21.452L383.592 24.98C383.304 25.304 382.872 25.556 382.08 25.7C381.756 37.364 381.216 40.928 379.236 42.62C378.012 43.664 376.536 44.132 374.556 44.132C374.556 42.656 374.448 41.54 374.016 40.928C373.548 40.244 372.828 39.74 371.604 39.416V38.984C372.504 39.056 373.98 39.128 374.664 39.128C375.168 39.128 375.456 39.02 375.744 38.768C376.752 37.868 377.148 33.656 377.4 23.864H377.004ZM378.84 23.864V24.872H372.72V23.864H378.84ZM380.784 14.576C380.784 14.576 383.484 16.772 385.068 18.248C384.96 18.644 384.564 18.824 384.06 18.824H366.636L366.348 17.816H378.372L380.784 14.576Z" fill="white"/>
<path d="M406.596 21.92H433.596L436.188 18.824C436.188 18.824 439.104 20.912 440.904 22.352C440.796 22.748 440.4 22.928 439.896 22.928H406.884L406.596 21.92ZM424.632 10.904L431.04 11.516C431.004 11.984 430.716 12.416 429.78 12.56C429.6 22.712 430.248 32.18 436.476 37.04C437.016 37.508 437.304 37.508 437.664 36.932C438.312 35.96 439.428 33.944 440.184 32.324L440.508 32.432L439.644 38.66C441.048 41.036 441.228 42.332 440.544 43.052C438.672 44.96 435.36 43.376 433.632 41.9C425.496 34.88 424.668 23.756 424.632 10.904ZM431.652 12.164C442.164 13.46 437.736 21.56 433.596 18.248C433.56 16.124 432.552 13.82 431.364 12.344L431.652 12.164ZM433.776 23.648L439.788 26.384C439.572 26.78 439.212 27.032 438.348 26.924C435 33.26 429.168 39.884 419.376 43.052L419.124 42.656C426.864 38.084 431.688 30.308 433.776 23.648ZM406.56 29.3C409.692 29.048 417.576 28.04 425.388 26.924L425.424 27.32C422.292 29.048 417.36 31.316 409.836 34.268C409.62 34.736 409.188 35.06 408.756 35.168L406.56 29.3ZM419.952 10.436L425.352 15.116C424.884 15.512 424.02 15.584 422.724 15.152C418.728 16.268 412.284 17.204 406.632 17.492L406.56 17.132C411.276 15.476 417.072 12.524 419.952 10.436ZM414.408 14.54H419.52V38.3C419.52 41.648 418.656 43.988 413.112 44.384C413.04 42.728 412.788 41.468 412.176 40.712C411.564 39.956 410.772 39.38 408.648 39.02V38.588C408.648 38.588 412.752 38.84 413.652 38.84C414.228 38.84 414.408 38.552 414.408 38.12V14.54ZM458.94 18.428H464.88V19.436H458.94V18.428ZM458.94 24.26H464.88V25.268H458.94V24.26ZM463.332 13.064H463.008L464.808 11.192L468.444 13.928C468.264 14.18 467.868 14.432 467.292 14.54V26.276C467.256 26.528 465.312 27.32 464.016 27.32H463.332V13.064ZM471.468 18.428H477.408V19.436H471.468V18.428ZM471.468 24.26H477.408V25.268H471.468V24.26ZM474.564 13.064H474.204L476.436 10.508L480.972 14.108C480.756 14.396 480.288 14.72 479.568 14.864V38.804C479.568 42.116 478.812 43.916 473.376 44.42C473.268 42.8 473.052 41.576 472.476 40.892C471.864 40.136 471.144 39.596 469.236 39.236V38.768C469.236 38.768 473.016 38.984 473.808 38.984C474.42 38.984 474.564 38.732 474.564 38.264V13.064ZM456.636 13.064V10.976L461.604 13.064H465.528V14.072H461.496V42.584C461.496 43.232 459.66 44.42 457.464 44.42H456.636V13.064ZM468.66 13.064V11.408L472.8 13.064H476.292V14.072H472.656V25.952C472.656 26.312 470.964 27.212 469.236 27.212H468.66V13.064ZM449.544 22.136L451.2 19.94L455.376 21.488C455.232 21.812 454.908 22.064 454.224 22.172V43.16C454.188 43.484 452.208 44.42 450.408 44.42H449.544V22.136ZM451.164 10.22L457.5 12.2C457.356 12.668 456.888 12.956 456.06 12.956C454.008 19.904 451.02 25.484 446.772 29.408L446.34 29.156C448.464 24.332 450.408 17.024 451.164 10.22Z" fill="#E1CBAA"/>
</svg>
