<svg width="1921" height="469" viewBox="0 0 1921 469" fill="none" xmlns="http://www.w3.org/2000/svg">
<path d="M163.094 289.219C146.844 295.677 130.958 298.906 115.438 298.906C90.6458 298.906 70.5417 290.625 55.125 274.062C39.7083 257.5 32 235.938 32 209.375C32 182.812 39.3958 161.562 54.1875 145.625C69.0833 129.583 88.875 121.562 113.562 121.562C126.167 121.562 142.677 124.115 163.094 129.219V169.688H143.875L143.719 166.875C143.719 143.542 133.458 131.875 112.938 131.875C98.0417 131.875 86.1667 138.646 77.3125 152.188C68.5625 165.729 64.1875 184.062 64.1875 207.188C64.1875 230.833 69.3958 249.479 79.8125 263.125C90.2292 276.771 104.396 283.594 122.312 283.594C137.729 283.594 151.323 280.99 163.094 275.781V289.219ZM244.812 157.188C252.625 145.312 261.635 136.406 271.844 130.469C282.052 124.531 293.458 121.562 306.062 121.562C320.646 121.562 332.104 126.354 340.438 135.938C348.667 145.521 352.781 158.698 352.781 175.469V254.531C353.51 270.052 354.708 278.802 356.375 280.781C358.042 282.76 365.542 284.219 378.875 285.156L381.688 285.312V295H293.094V285.312L295.906 285.156C309.24 284.219 316.74 282.76 318.406 280.781C320.073 278.802 321.271 270.052 322 254.531V180.312C322 165.729 320.073 155.625 316.219 150C312.469 144.271 305.698 141.406 295.906 141.406C289.031 141.406 281.323 143.594 272.781 147.969C264.24 152.24 254.917 158.75 244.812 167.5V254.531C244.812 268.698 245.958 277.135 248.25 279.844C250.542 282.552 258.094 284.323 270.906 285.156L273.875 285.312V295H185.125V285.312L188.094 285.156C200.698 284.323 208.146 282.552 210.438 279.844C212.833 277.031 214.031 268.594 214.031 254.531V88.75C214.031 74.6875 212.833 66.3021 210.438 63.5938C208.146 60.7812 200.698 58.9583 188.094 58.125L185.125 57.9688V48.2812H244.812V157.188ZM478.25 298.906C453.25 298.906 433.51 290.99 419.031 275.156C404.552 259.219 397.312 237.552 397.312 210.156C397.312 182.76 404.552 161.146 419.031 145.312C433.51 129.479 453.25 121.562 478.25 121.562C503.354 121.562 523.094 129.479 537.469 145.312C551.948 161.146 559.188 182.76 559.188 210.156C559.188 237.552 551.948 259.219 537.469 275.156C522.99 290.99 503.25 298.906 478.25 298.906ZM478.25 289.219C492.104 289.219 503.615 281.771 512.781 266.875C521.948 251.875 526.531 232.969 526.531 210.156C526.531 187.552 521.948 168.75 512.781 153.75C503.615 138.646 492.104 131.094 478.25 131.094C464.5 131.094 453.042 138.646 443.875 153.75C434.708 168.75 430.125 187.552 430.125 210.156C430.125 232.969 434.656 251.875 443.719 266.875C452.885 281.771 464.396 289.219 478.25 289.219ZM721.219 289.219C704.969 295.677 689.083 298.906 673.562 298.906C648.771 298.906 628.667 290.625 613.25 274.062C597.833 257.5 590.125 235.938 590.125 209.375C590.125 182.812 597.521 161.562 612.312 145.625C627.208 129.583 647 121.562 671.688 121.562C684.292 121.562 700.802 124.115 721.219 129.219V169.688H702L701.844 166.875C701.844 143.542 691.583 131.875 671.062 131.875C656.167 131.875 644.292 138.646 635.438 152.188C626.688 165.729 622.312 184.062 622.312 207.188C622.312 230.833 627.521 249.479 637.938 263.125C648.354 276.771 662.521 283.594 680.438 283.594C695.854 283.594 709.448 280.99 721.219 275.781V289.219Z" fill="white"/>
<path d="M1279.75 290.662C1256.31 290.662 1237.81 283.24 1224.23 268.396C1210.66 253.455 1203.87 233.143 1203.87 207.459C1203.87 181.775 1210.66 161.512 1224.23 146.668C1237.81 131.824 1256.31 124.402 1279.75 124.402C1303.29 124.402 1321.79 131.824 1335.27 146.668C1348.84 161.512 1355.63 181.775 1355.63 207.459C1355.63 233.143 1348.84 253.455 1335.27 268.396C1321.7 283.24 1303.19 290.662 1279.75 290.662ZM1279.75 281.58C1292.74 281.58 1303.53 274.598 1312.12 260.633C1320.72 246.57 1325.02 228.846 1325.02 207.459C1325.02 186.268 1320.72 168.641 1312.12 154.578C1303.53 140.418 1292.74 133.338 1279.75 133.338C1266.86 133.338 1256.12 140.418 1247.53 154.578C1238.93 168.641 1234.63 186.268 1234.63 207.459C1234.63 228.846 1238.88 246.57 1247.38 260.633C1255.97 274.598 1266.76 281.58 1279.75 281.58ZM1431.51 55.7012V249.061C1431.51 262.342 1432.58 270.252 1434.73 272.791C1436.88 275.33 1443.96 276.99 1455.97 277.771L1458.76 277.918V287H1375.55V277.918L1378.34 277.771C1390.15 276.99 1397.13 275.33 1399.28 272.791C1401.53 270.154 1402.65 262.244 1402.65 249.061V93.6406C1402.65 80.457 1401.53 72.5957 1399.28 70.0566C1397.13 67.4199 1390.15 65.7109 1378.34 64.9297L1375.55 64.7832V55.7012H1431.51ZM1576.97 265.174C1559.78 282.166 1542.79 290.662 1525.99 290.662C1512.52 290.662 1501.29 286.414 1492.3 277.918C1483.32 269.324 1478.82 258.582 1478.82 245.691C1478.82 230.652 1484.68 218.445 1496.4 209.07C1509.78 198.328 1532.44 192.957 1564.37 192.957H1570.38V173.182C1570.38 148.084 1560.86 135.535 1541.81 135.535C1532.93 135.535 1525.06 138.27 1518.23 143.738C1514.22 147.059 1511.69 153.846 1510.61 164.1L1510.46 166.883H1490.84V137.732C1511.15 128.846 1530 124.402 1547.38 124.402C1581.95 124.402 1599.23 140.271 1599.23 172.01V242.908C1599.23 255.604 1600.31 264.539 1602.46 269.715C1604.7 274.891 1608.56 277.479 1614.03 277.479C1615.98 277.479 1618.57 277.039 1621.79 276.16L1622.67 287C1615.74 289.441 1609.54 290.662 1604.07 290.662C1589.81 290.662 1580.78 282.166 1576.97 265.174ZM1570.38 261.951V202.039H1563.64C1546.65 202.039 1533.37 205.555 1523.79 212.586C1514.22 219.617 1509.44 229.285 1509.44 241.59C1509.44 250.77 1512.42 258.387 1518.38 264.441C1524.33 270.496 1531.75 273.523 1540.64 273.523C1549.04 273.523 1558.95 269.666 1570.38 261.951ZM1732.68 286.121C1725.36 289.148 1718.38 290.662 1711.73 290.662C1694.84 290.662 1682.49 286.414 1674.67 277.918C1666.96 269.422 1663.1 255.896 1663.1 237.342V139.783H1639.66V127.918H1663.1V99.0605L1692.11 91.8828V127.918H1736.34V139.783H1692.11V241.15C1692.11 254.822 1693.91 264.539 1697.53 270.301C1701.14 276.062 1707.29 278.943 1715.98 278.943C1720.57 278.943 1726.14 277.43 1732.68 274.402V286.121ZM1888.1 279.822C1869.74 287.049 1852.99 290.662 1837.86 290.662C1814.52 290.662 1795.52 282.801 1780.88 267.078C1766.32 251.355 1759.05 230.945 1759.05 205.848C1759.05 182.02 1765.59 162.488 1778.68 147.254C1791.76 132.02 1808.56 124.402 1829.07 124.402C1848.01 124.402 1862.56 130.799 1872.72 143.592C1882.97 156.385 1888.1 174.646 1888.1 198.377V201.16H1790.98C1790.98 225.867 1795.28 244.52 1803.87 257.117C1812.56 269.715 1825.41 276.014 1842.4 276.014C1860.27 276.014 1875.5 272.352 1888.1 265.027V279.822ZM1791.57 192.078H1857.49L1857.63 185.633C1857.63 167.176 1855.24 153.846 1850.46 145.643C1845.67 137.439 1837.86 133.338 1827.02 133.338C1816.18 133.338 1807.54 138.66 1801.09 149.305C1794.74 159.949 1791.57 174.207 1791.57 192.078Z" fill="white"/>
<path d="M163.094 398.219C146.844 404.677 130.958 407.906 115.438 407.906C90.6458 407.906 70.5417 399.625 55.125 383.062C39.7083 366.5 32 344.938 32 318.375C32 291.917 39.3958 270.667 54.1875 254.625C68.9792 238.583 88.5625 230.562 112.938 230.562C125.958 230.562 142.677 233.115 163.094 238.219V278.688H143.875L143.719 275.875C143.719 252.542 133.562 240.875 113.25 240.875C98.1458 240.875 86.1667 247.646 77.3125 261.188C68.5625 274.729 64.1875 293.062 64.1875 316.188C64.1875 339.833 69.3958 358.479 79.8125 372.125C90.2292 385.771 104.396 392.594 122.312 392.594C137.729 392.594 151.323 389.99 163.094 384.781V398.219ZM244.812 266.188C260.438 242.438 280.854 230.562 306.062 230.562C320.646 230.562 332.052 235.354 340.281 244.938C348.615 254.521 352.781 267.698 352.781 284.469V363.531L353.875 379C354.188 384.938 355.177 388.74 356.844 390.406C358.51 391.969 362.312 392.958 368.25 393.375L378.875 394.156L381.688 394.312V404H293.094V394.312L295.906 394.156L306.531 393.375C312.469 392.958 316.271 391.969 317.938 390.406C319.604 388.74 320.646 384.938 321.062 379L322 363.531V289.312C322 274.729 320.073 264.625 316.219 259C312.469 253.271 305.75 250.406 296.062 250.406C282.104 250.406 265.021 259.104 244.812 276.5V363.531C244.812 375.823 245.75 383.792 247.625 387.438C249.5 390.979 253.719 392.958 260.281 393.375L270.906 394.156L273.875 394.312V404H185.125V394.312L188.094 394.156L198.562 393.375C204.604 392.958 208.406 391.969 209.969 390.406C211.635 388.74 212.677 384.938 213.094 379L214.031 363.531V197.75L213.094 182.281C212.677 176.344 211.635 172.594 209.969 171.031C208.406 169.365 204.604 168.323 198.562 167.906L188.094 167.125L185.125 166.969V157.281H244.812V266.188ZM477.156 407.906C452.677 407.906 433.25 399.938 418.875 384C404.5 367.958 397.312 346.344 397.312 319.156C397.312 291.76 404.552 270.146 419.031 254.312C433.51 238.479 453.25 230.562 478.25 230.562C503.25 230.562 522.99 238.479 537.469 254.312C551.948 270.146 559.188 291.656 559.188 318.844C559.188 346.656 551.896 368.479 537.312 384.312C522.833 400.042 502.781 407.906 477.156 407.906ZM477.625 398.219C491.896 398.219 503.615 390.771 512.781 375.875C521.948 360.979 526.531 341.969 526.531 318.844C526.531 296.448 521.896 277.75 512.625 262.75C503.458 247.646 492 240.094 478.25 240.094C464.5 240.094 453.042 247.646 443.875 262.75C434.708 277.75 430.125 296.552 430.125 319.156C430.125 341.656 434.656 360.458 443.719 375.562C452.781 390.667 464.083 398.219 477.625 398.219ZM721.219 398.219C704.969 404.677 689.083 407.906 673.562 407.906C648.771 407.906 628.667 399.625 613.25 383.062C597.833 366.5 590.125 344.938 590.125 318.375C590.125 291.917 597.521 270.667 612.312 254.625C627.104 238.583 646.688 230.562 671.062 230.562C684.083 230.562 700.802 233.115 721.219 238.219V278.688H702L701.844 275.875C701.844 252.542 691.688 240.875 671.375 240.875C656.271 240.875 644.292 247.646 635.438 261.188C626.688 274.729 622.312 293.062 622.312 316.188C622.312 339.833 627.521 358.479 637.938 372.125C648.354 385.771 662.521 392.594 680.438 392.594C695.854 392.594 709.448 389.99 721.219 384.781V398.219Z" fill="#EBDAC6"/>
<path d="M1282.25 402.662C1258.81 402.662 1240.31 395.24 1226.73 380.396C1213.16 365.455 1206.37 345.143 1206.37 319.459C1206.37 293.775 1213.16 273.512 1226.73 258.668C1240.31 243.824 1258.81 236.402 1282.25 236.402C1305.79 236.402 1324.29 243.824 1337.77 258.668C1351.34 273.512 1358.13 293.775 1358.13 319.459C1358.13 345.143 1351.34 365.455 1337.77 380.396C1324.2 395.24 1305.69 402.662 1282.25 402.662ZM1282.25 393.58C1295.24 393.58 1306.03 386.598 1314.62 372.633C1323.22 358.57 1327.52 340.846 1327.52 319.459C1327.52 298.268 1323.22 280.641 1314.62 266.578C1306.03 252.418 1295.24 245.338 1282.25 245.338C1269.36 245.338 1258.62 252.418 1250.03 266.578C1241.43 280.641 1237.13 298.268 1237.13 319.459C1237.13 340.846 1241.38 358.57 1249.88 372.633C1258.47 386.598 1269.26 393.58 1282.25 393.58ZM1434.01 167.701V361.061C1434.01 374.342 1435.08 382.252 1437.23 384.791C1439.38 387.33 1446.46 388.99 1458.47 389.771L1461.26 389.918V399H1378.05V389.918L1380.84 389.771C1392.65 388.99 1399.63 387.33 1401.78 384.791C1404.03 382.154 1405.15 374.244 1405.15 361.061V205.641C1405.15 192.457 1404.03 184.596 1401.78 182.057C1399.63 179.42 1392.65 177.711 1380.84 176.93L1378.05 176.783V167.701H1434.01ZM1579.47 377.174C1562.28 394.166 1545.29 402.662 1528.49 402.662C1515.02 402.662 1503.79 398.414 1494.8 389.918C1485.82 381.324 1481.32 370.582 1481.32 357.691C1481.32 342.652 1487.18 330.445 1498.9 321.07C1512.28 310.328 1534.94 304.957 1566.87 304.957H1572.88V285.182C1572.88 260.084 1563.36 247.535 1544.31 247.535C1535.43 247.535 1527.56 250.27 1520.73 255.738C1516.72 259.059 1514.19 265.846 1513.11 276.1L1512.96 278.883H1493.34V249.732C1513.65 240.846 1532.5 236.402 1549.88 236.402C1584.45 236.402 1601.73 252.271 1601.73 284.01V354.908C1601.73 367.604 1602.81 376.539 1604.96 381.715C1607.2 386.891 1611.06 389.479 1616.53 389.479C1618.48 389.479 1621.07 389.039 1624.29 388.16L1625.17 399C1618.24 401.441 1612.04 402.662 1606.57 402.662C1592.31 402.662 1583.28 394.166 1579.47 377.174ZM1572.88 373.951V314.039H1566.14C1549.15 314.039 1535.87 317.555 1526.29 324.586C1516.72 331.617 1511.94 341.285 1511.94 353.59C1511.94 362.77 1514.92 370.387 1520.88 376.441C1526.83 382.496 1534.25 385.523 1543.14 385.523C1551.54 385.523 1561.45 381.666 1572.88 373.951ZM1735.18 398.121C1727.86 401.148 1720.88 402.662 1714.23 402.662C1697.34 402.662 1684.99 398.414 1677.17 389.918C1669.46 381.422 1665.6 367.896 1665.6 349.342V251.783H1642.16V239.918H1665.6V211.061L1694.61 203.883V239.918H1738.84V251.783H1694.61V353.15C1694.61 366.822 1696.41 376.539 1700.03 382.301C1703.64 388.062 1709.79 390.943 1718.48 390.943C1723.07 390.943 1728.64 389.43 1735.18 386.402V398.121ZM1890.6 391.822C1872.24 399.049 1855.49 402.662 1840.36 402.662C1817.02 402.662 1798.02 394.801 1783.38 379.078C1768.82 363.355 1761.55 342.945 1761.55 317.848C1761.55 294.02 1768.09 274.488 1781.18 259.254C1794.26 244.02 1811.06 236.402 1831.57 236.402C1850.51 236.402 1865.06 242.799 1875.22 255.592C1885.47 268.385 1890.6 286.646 1890.6 310.377V313.16H1793.48C1793.48 337.867 1797.78 356.52 1806.37 369.117C1815.06 381.715 1827.91 388.014 1844.9 388.014C1862.77 388.014 1878 384.352 1890.6 377.027V391.822ZM1794.07 304.078H1859.99L1860.13 297.633C1860.13 279.176 1857.74 265.846 1852.96 257.643C1848.17 249.439 1840.36 245.338 1829.52 245.338C1818.68 245.338 1810.04 250.66 1803.59 261.305C1797.24 271.949 1794.07 286.207 1794.07 304.078Z" fill="#EBDAC6"/>
</svg>
