<svg width="395" height="225" viewBox="0 0 395 225" fill="none" xmlns="http://www.w3.org/2000/svg">
<path d="M34.7352 82.4883V86H1.88367V82.4883L2.95984 82.4316C7.52885 82.1296 10.2287 81.4876 11.0594 80.5059C11.9279 79.4863 12.3622 76.4277 12.3622 71.3301V16.8418C12.3622 11.7064 11.9279 8.64779 11.0594 7.66602C10.2287 6.68424 7.52885 6.04232 2.95984 5.74023L1.88367 5.62695V2.17188H34.7352V5.62695L33.6591 5.74023C29.0523 6.04232 26.3335 6.68424 25.5028 7.66602C24.6721 8.64779 24.2567 11.7064 24.2567 16.8418V71.3301C24.2567 76.4277 24.6721 79.4863 25.5028 80.5059C26.3335 81.4876 29.0523 82.1296 33.6591 82.4316L34.7352 82.4883ZM117.845 87.1328L65.8491 16.8984V71.3301C65.8491 76.4655 66.2644 79.5241 67.0952 80.5059C67.9259 81.4499 70.6635 82.0918 75.308 82.4316L76.3276 82.4883V86H50.103V82.4883L51.1225 82.4316C55.767 82.0918 58.5047 81.4499 59.3354 80.5059C60.1661 79.5241 60.5815 76.4655 60.5815 71.3301V16.8418C60.5815 11.6686 60.1661 8.61003 59.3354 7.66602C58.5047 6.68424 55.767 6.04232 51.1225 5.74023L50.0463 5.62695V2.17188H68.9077L116.712 67.252V16.8418C116.712 11.7064 116.278 8.64779 115.41 7.66602C114.579 6.68424 111.86 6.04232 107.253 5.74023L106.234 5.62695V2.17188H132.345V5.62695L131.269 5.74023C126.662 6.04232 123.943 6.68424 123.113 7.66602C122.282 8.64779 121.867 11.7064 121.867 16.8418V87.1328H117.845ZM219.193 83.9609C208.432 86.7174 199.35 88.0957 191.949 88.0957C179.526 88.0957 169.633 84.112 162.27 76.1445C154.906 68.1393 151.225 57.3965 151.225 43.916C151.225 29.9824 154.812 19.2018 161.986 11.5742C169.161 3.90885 179.262 0.0761719 192.289 0.0761719C196.934 0.0761719 201.484 0.434896 205.939 1.15234C210.395 1.86979 214.757 2.94596 219.023 4.38086V19.6172H212.736L212.68 18.4844C212.604 17.4648 212.566 16.3887 212.566 15.2559C212.566 11.7064 210.829 8.93099 207.355 6.92969C203.882 4.89062 199.048 3.87109 192.855 3.87109C183.566 3.87109 176.411 7.40169 171.389 14.4629C166.367 21.4863 163.855 31.4928 163.855 44.4824C163.855 56.6413 166.65 66.1569 172.238 73.0293C177.865 79.9017 185.643 83.3379 195.574 83.3379C198.633 83.3379 202.56 82.7148 207.355 81.4688V64.9863C207.355 59.8132 206.94 56.7546 206.109 55.8105C205.279 54.8288 202.541 54.168 197.896 53.8281L196.877 53.7715V50.3164H229.672V53.7715L228.652 53.8281C224.008 54.168 221.27 54.8288 220.439 55.8105C219.609 56.7546 219.193 59.8132 219.193 64.9863V83.9609ZM265.374 49.127V71.3301C265.374 76.39 265.751 79.4486 266.506 80.5059C267.299 81.5254 269.603 82.1673 273.417 82.4316L274.493 82.4883V86H243.114V82.4883L244.19 82.4316C248.759 82.1296 251.459 81.4876 252.29 80.5059C253.158 79.4863 253.592 76.4277 253.592 71.3301V16.8418C253.592 11.7064 253.158 8.64779 252.29 7.66602C251.459 6.68424 248.759 6.04232 244.19 5.74023L243.114 5.62695V2.17188H263.278L273.473 1.88867L278.004 1.77539C295.336 1.77539 304.003 8.83659 304.003 22.959C304.003 34.7025 298.225 42.5566 286.67 46.5215L303.096 71.2168C306.721 76.4277 309.081 79.543 310.176 80.5625C311.271 81.582 312.706 82.1296 314.481 82.2051C315.01 82.2806 316.275 82.3561 318.276 82.4316L319.409 82.4883V86H298.055L275.172 49.127H265.374ZM265.487 45.2754H269.678C284.48 45.2754 291.881 38.2708 291.881 24.2617C291.881 17.6159 290.484 12.9147 287.69 10.1582C284.933 7.36393 280.213 5.9668 273.53 5.9668H265.487V45.2754ZM208.885 223H148.449V219.488L149.525 219.432C154.094 219.13 156.794 218.488 157.625 217.506C158.493 216.486 158.928 213.428 158.928 208.33V153.842C158.928 148.706 158.493 145.648 157.625 144.666C156.794 143.684 154.094 143.042 149.525 142.74L148.449 142.627V139.172H205.77V153.842H199.482L199.369 152.766C199.067 147.555 198.671 144.742 198.18 144.326C197.727 143.911 194.706 143.703 189.117 143.703H170.822V177.234L186.172 177.178C189.57 177.178 191.647 177.008 192.402 176.668C193.195 176.29 193.667 174.497 193.818 171.287L193.875 170.268H198.406V188.732H193.875L193.818 187.713C193.667 184.843 193.195 183.144 192.402 182.615C191.647 182.049 189.57 181.766 186.172 181.766H170.822V208.33C170.822 212.71 171.332 215.448 172.352 216.543C173.409 217.6 176.109 218.129 180.451 218.129H189.4C196.046 218.129 199.822 217.808 200.729 217.166C201.673 216.486 202.277 213.654 202.541 208.67L202.598 207.65H208.885V223ZM292.391 224.133L240.395 153.898V208.33C240.395 213.465 240.81 216.524 241.641 217.506C242.472 218.45 245.21 219.092 249.854 219.432L250.874 219.488V223H224.649V219.488L225.669 219.432C230.313 219.092 233.051 218.45 233.881 217.506C234.712 216.524 235.128 213.465 235.128 208.33V153.842C235.128 148.669 234.712 145.61 233.881 144.666C233.051 143.684 230.313 143.042 225.669 142.74L224.592 142.627V139.172H243.454L291.258 204.252V153.842C291.258 148.706 290.824 145.648 289.956 144.666C289.125 143.684 286.406 143.042 281.799 142.74L280.78 142.627V139.172H306.891V142.627L305.815 142.74C301.208 143.042 298.489 143.684 297.659 144.666C296.828 145.648 296.413 148.706 296.413 153.842V224.133H292.391ZM352.278 143.703H338.911C335.777 143.703 333.04 143.873 330.698 144.213C329.15 144.439 328.376 145.837 328.376 148.404C328.376 150.33 328.338 151.992 328.263 153.389L328.206 154.521H322.259V139.172H394.249V154.521H388.302L388.245 153.389C388.132 151.992 388.075 150.33 388.075 148.404C388.075 145.837 387.32 144.439 385.81 144.213C383.431 143.873 380.693 143.703 377.597 143.703H364.173V208.33C364.173 213.352 364.626 216.411 365.532 217.506C366.439 218.563 369.138 219.205 373.632 219.432L376.068 219.488V223H340.441V219.488L342.876 219.432C347.37 219.205 350.051 218.563 350.919 217.506C351.825 216.411 352.278 213.352 352.278 208.33V143.703Z" fill="white"/>
<path d="M392.72 86H332.284V82.4883L333.36 82.4316C337.929 82.1296 340.629 81.4876 341.46 80.5059C342.329 79.4863 342.763 76.4277 342.763 71.3301V16.8418C342.763 11.7064 342.329 8.64779 341.46 7.66602C340.629 6.68424 337.929 6.04232 333.36 5.74023L332.284 5.62695V2.17188H389.605V16.8418H383.318L383.204 15.7656C382.902 10.5547 382.506 7.74154 382.015 7.32617C381.562 6.91081 378.541 6.70312 372.952 6.70312H354.657V40.2344L370.007 40.1777C373.405 40.1777 375.482 40.0078 376.237 39.668C377.03 39.2904 377.502 37.4967 377.653 34.2871L377.71 33.2676H382.241V51.7324H377.71L377.653 50.7129C377.502 47.8431 377.03 46.1439 376.237 45.6152C375.482 45.0488 373.405 44.7656 370.007 44.7656H354.657V71.3301C354.657 75.7103 355.167 78.4479 356.187 79.543C357.244 80.6003 359.944 81.1289 364.286 81.1289H373.235C379.881 81.1289 383.657 80.8079 384.564 80.166C385.508 79.4863 386.112 76.6543 386.376 71.6699L386.433 70.6504H392.72V86ZM0.694214 223V219.488L1.77039 219.432C6.3394 219.13 9.03927 218.488 9.87 217.506C10.7385 216.486 11.1727 213.428 11.1727 208.33V153.842C11.1727 148.706 10.7385 145.648 9.87 144.666C9.03927 143.684 6.3394 143.042 1.77039 142.74L0.694214 142.627V139.172H27.5419L36.3212 138.945L40.3993 138.889C53.5399 138.889 63.6219 142.363 70.6454 149.311C77.6311 156.258 81.1239 166.246 81.1239 179.273C81.1239 192.754 77.5178 203.421 70.3055 211.275C63.0933 219.092 53.2756 223 40.8524 223H0.694214ZM23.0673 142.967V208.33C23.0673 213.428 23.577 216.335 24.5966 217.053C26.6356 218.45 30.6005 219.148 36.4911 219.148C47.1773 219.148 55.1825 215.958 60.5067 209.576C65.8687 203.157 68.5497 193.547 68.5497 180.746C68.5497 167.417 65.6799 157.788 59.9403 151.859C54.2007 145.931 44.8928 142.967 32.0165 142.967H23.0673ZM133.138 219.488V223H100.287V219.488L101.363 219.432C105.932 219.13 108.632 218.488 109.462 217.506C110.331 216.486 110.765 213.428 110.765 208.33V153.842C110.765 148.706 110.331 145.648 109.462 144.666C108.632 143.684 105.932 143.042 101.363 142.74L100.287 142.627V139.172H133.138V142.627L132.062 142.74C127.455 143.042 124.736 143.684 123.906 144.666C123.075 145.648 122.66 148.706 122.66 153.842V208.33C122.66 213.428 123.075 216.486 123.906 217.506C124.736 218.488 127.455 219.13 132.062 219.432L133.138 219.488Z" fill="#F1BFC1"/>
</svg>
