<svg width="315" height="111" viewBox="0 0 315 111" fill="none" xmlns="http://www.w3.org/2000/svg">
<path d="M68.32 74.2C67.04 74.2 65.88 73.92 64.84 73.36C63.8 72.88 63.28 71.76 63.28 70C63.28 68.48 64.08 66.28 65.68 63.4C67.28 60.52 69.44 57.24 72.16 53.56C74.88 49.8 77.88 45.88 81.16 41.8C84.52 37.72 87.96 33.76 91.48 29.92C95 26 98.36 22.4 101.56 19.12C104.76 15.76 107.6 12.96 110.08 10.72C112.56 8.47999 114.4 7.08 115.6 6.52C116 6.35999 116.28 6.35999 116.44 6.52C116.6 6.6 116.4 6.76 115.84 7C113.44 8.12 110.52 10.04 107.08 12.76C103.72 15.4 100.04 18.56 96.04 22.24C92.12 25.92 88.08 29.84 83.92 34C79.76 38.16 75.72 42.32 71.8 46.48C67.96 50.56 64.36 54.4 61 58C57.72 61.52 54.92 64.56 52.6 67.12C50.28 69.68 48.68 71.44 47.8 72.4C46.76 73.44 45.88 73.84 45.16 73.6C44.44 73.36 44.08 72.48 44.08 70.96C44.08 68.88 44.72 66.28 46 63.16C47.28 60.04 49 56.64 51.16 52.96C53.32 49.28 55.72 45.52 58.36 41.68C61 37.84 63.64 34.12 66.28 30.52C69 26.84 71.56 23.52 73.96 20.56C76.44 17.6 78.52 15.16 80.2 13.24C81.96 11.24 83.12 10 83.68 9.51999C84 9.28 84.52 9.12 85.24 9.03999C85.96 8.95999 86 9.12 85.36 9.51999C83.76 10.32 81.56 12.08 78.76 14.8C75.96 17.52 72.76 20.84 69.16 24.76C65.56 28.6 61.68 32.76 57.52 37.24C53.44 41.72 49.2 46.12 44.8 50.44C40.4 54.76 36.04 58.72 31.72 62.32C27.48 65.84 23.4 68.68 19.48 70.84C15.56 73 12 74.08 8.8 74.08C5.6 74.08 3.36 73.52 2.08 72.4C0.799999 71.2 0.159999 70 0.159999 68.8C0.159999 67.2 0.599999 66.04 1.48 65.32C2.36 64.52 3.2 64.12 4 64.12C5.84 64.12 6.76 64.76 6.76 66.04C6.76 67 6.44 67.68 5.8 68.08C5.16 68.4 4.64 68.56 4.24 68.56C3.52 68.56 2.96 68.48 2.56 68.32C2.16 68.08 1.96 67.96 1.96 67.96C1.96 68.12 2.04 68.6 2.2 69.4C2.28 70.2 2.8 71 3.76 71.8C4.64 72.52 6.24 72.88 8.56 72.88C11.84 72.88 15.48 71.72 19.48 69.4C23.56 67 27.84 63.88 32.32 60.04C36.88 56.2 41.44 51.96 46 47.32C50.64 42.6 55.12 37.88 59.44 33.16C63.76 28.44 67.8 24.08 71.56 20.08C75.32 16.08 78.6 12.8 81.4 10.24C84.2 7.6 86.32 6.12 87.76 5.8C88.88 5.56 89.44 5.56 89.44 5.8C89.44 6.04 89.24 6.35999 88.84 6.75999C87.8 7.55999 86.36 9.15999 84.52 11.56C82.68 13.88 80.6 16.76 78.28 20.2C75.96 23.56 73.48 27.24 70.84 31.24C68.28 35.24 65.72 39.28 63.16 43.36C60.6 47.44 58.2 51.36 55.96 55.12C53.8 58.8 51.92 62.08 50.32 64.96C48.72 67.84 47.6 70.04 46.96 71.56C46.88 71.72 46.56 71.96 46 72.28C45.44 72.6 45.2 72.72 45.28 72.64C45.36 72.56 46.24 71.56 47.92 69.64C49.6 67.72 51.84 65.2 54.64 62.08C57.52 58.88 60.8 55.36 64.48 51.52C68.16 47.6 72.04 43.56 76.12 39.4C80.2 35.24 84.24 31.2 88.24 27.28C92.32 23.28 96.2 19.72 99.88 16.6C103.56 13.4 106.8 10.8 109.6 8.8C112.48 6.8 114.72 5.72 116.32 5.56C117.2 5.4 117.6 5.52 117.52 5.92C117.52 6.24 117.36 6.48 117.04 6.64C115.28 7.68 113.08 9.6 110.44 12.4C107.8 15.12 104.92 18.36 101.8 22.12C98.68 25.88 95.48 29.88 92.2 34.12C88.92 38.36 85.76 42.56 82.72 46.72C79.76 50.88 77.08 54.72 74.68 58.24C72.36 61.68 70.48 64.56 69.04 66.88C67.68 69.12 67 70.48 67 70.96C67 71.52 67.28 72 67.84 72.4C68.48 72.8 69.2 73 70 73C71.84 73 73.64 72.56 75.4 71.68C77.24 70.8 78.8 69.92 80.08 69.04C81.36 68.08 82.04 67.56 82.12 67.48C82.52 66.92 82.92 66.96 83.32 67.6C83.72 68.24 83.48 68.76 82.6 69.16C82.6 69.16 81.88 69.6 80.44 70.48C79.08 71.28 77.32 72.12 75.16 73C73 73.8 70.72 74.2 68.32 74.2ZM102.781 74.08C99.0206 74.08 96.5406 73.24 95.3406 71.56C94.1406 69.8 93.5406 67.96 93.5406 66.04C93.5406 62.76 94.3806 59.72 96.0606 56.92C97.7406 54.04 99.9006 51.48 102.541 49.24C105.181 47 107.901 45.28 110.701 44.08C113.581 42.8 116.141 42.16 118.381 42.16C119.981 42.16 121.261 42.4 122.221 42.88C123.181 43.28 123.661 44.16 123.661 45.52C123.661 46.8 122.901 48.16 121.381 49.6C119.861 51.04 117.941 52.44 115.621 53.8C113.301 55.08 110.861 56.28 108.301 57.4C105.821 58.44 103.541 59.28 101.461 59.92C99.3806 60.56 97.8606 60.88 96.9006 60.88C96.9006 60.88 96.9006 60.68 96.9006 60.28C96.9006 59.8 96.9006 59.56 96.9006 59.56C97.6206 59.64 98.8606 59.4 100.621 58.84C102.461 58.28 104.501 57.56 106.741 56.68C108.981 55.72 111.141 54.64 113.221 53.44C115.381 52.24 117.141 50.96 118.501 49.6C119.941 48.24 120.661 46.92 120.661 45.64C120.661 45 120.461 44.44 120.061 43.96C119.741 43.48 119.141 43.24 118.261 43.24C116.981 43.24 115.421 43.88 113.581 45.16C111.821 46.36 110.021 47.96 108.181 49.96C106.341 51.96 104.621 54.08 103.021 56.32C101.421 58.56 100.101 60.72 99.0606 62.8C98.1006 64.8 97.6206 66.48 97.6206 67.84C97.6206 69.44 98.1006 70.64 99.0606 71.44C100.021 72.24 101.421 72.64 103.261 72.64C106.461 72.64 109.461 71.88 112.261 70.36C115.141 68.76 117.741 66.92 120.061 64.84C122.381 62.68 124.341 60.68 125.941 58.84C127.541 56.92 128.621 55.68 129.181 55.12C129.181 55.12 129.301 55.24 129.541 55.48C129.861 55.72 130.021 55.84 130.021 55.84C129.461 56.48 128.381 57.76 126.781 59.68C125.181 61.6 123.181 63.68 120.781 65.92C118.381 68.16 115.661 70.08 112.621 71.68C109.581 73.28 106.301 74.08 102.781 74.08ZM125.581 33.76C125.021 34.08 124.661 34.08 124.501 33.76C124.341 33.44 124.541 33.12 125.101 32.8C127.581 31.44 129.381 29.88 130.501 28.12C131.701 26.28 132.421 24.6 132.661 23.08C132.821 22.04 133.101 21.24 133.501 20.68C133.901 20.12 134.501 19.84 135.301 19.84C135.861 19.84 136.301 20.04 136.621 20.44C137.021 20.84 137.221 21.56 137.221 22.6C137.221 23.56 136.621 24.72 135.421 26.08C134.221 27.44 132.701 28.8 130.861 30.16C129.101 31.52 127.341 32.72 125.581 33.76ZM167.298 0.279999C168.178 0.439997 169.258 0.519996 170.538 0.519996C171.898 0.519996 172.978 0.439997 173.778 0.279999L132.018 58.48C130.738 60.4 129.498 62.2 128.298 63.88C127.098 65.56 126.138 67.04 125.418 68.32C124.618 69.52 124.218 70.48 124.218 71.2C124.218 71.76 124.458 72.16 124.938 72.4C125.338 72.64 125.938 72.76 126.738 72.76C128.578 72.76 130.618 72.12 132.858 70.84C135.098 69.48 137.298 67.8 139.458 65.8C141.698 63.8 143.738 61.84 145.578 59.92C147.498 58 149.018 56.44 150.138 55.24L150.978 55.96C149.938 57.08 148.498 58.64 146.658 60.64C144.818 62.64 142.698 64.68 140.298 66.76C137.978 68.76 135.538 70.48 132.978 71.92C130.498 73.36 128.058 74.08 125.658 74.08C124.378 74.08 123.298 73.72 122.418 73C121.458 72.28 120.978 71.24 120.978 69.88C120.978 69 121.298 67.88 121.938 66.52C122.578 65.16 123.378 63.76 124.338 62.32C125.218 60.8 126.098 59.44 126.978 58.24C127.778 56.96 128.418 56 128.898 55.36L167.298 0.279999ZM176.152 52C175.832 52.64 175.352 53.2 174.712 53.68C174.152 54.16 173.712 54.48 173.392 54.64C173.152 54.72 173.232 54.48 173.632 53.92C175.072 52.16 175.992 50.52 176.392 49C176.872 47.48 176.872 46.28 176.392 45.4C175.992 44.44 175.192 43.96 173.992 43.96C172.392 43.96 170.512 44.6 168.352 45.88C166.192 47.16 163.952 48.84 161.632 50.92C159.392 53 157.272 55.24 155.272 57.64C153.352 59.96 151.792 62.24 150.592 64.48C149.392 66.64 148.792 68.52 148.792 70.12C148.792 71.32 149.032 72.08 149.512 72.4C149.992 72.72 150.472 72.88 150.952 72.88C152.792 72.88 154.912 72.04 157.312 70.36C159.792 68.6 162.312 66.4 164.872 63.76C167.432 61.12 169.872 58.44 172.192 55.72C174.512 52.92 176.512 50.4 178.192 48.16C179.952 45.92 181.152 44.4 181.792 43.6C182.672 43.92 183.712 44.04 184.912 43.96C186.192 43.88 187.272 43.8 188.152 43.72C187.992 43.96 187.152 44.96 185.632 46.72C184.192 48.48 182.432 50.6 180.352 53.08C178.352 55.48 176.312 57.96 174.232 60.52C172.232 63.08 170.552 65.32 169.192 67.24C167.832 69.16 167.152 70.44 167.152 71.08C167.152 71.88 167.312 72.4 167.632 72.64C168.032 72.8 168.632 72.88 169.432 72.88C170.392 72.8 171.792 72.36 173.632 71.56C175.472 70.68 177.832 69 180.712 66.52C183.592 64.04 187.072 60.36 191.152 55.48C191.152 55.48 191.312 55.6 191.632 55.84C192.032 56.08 192.232 56.2 192.232 56.2C187.432 61.8 182.992 66.2 178.912 69.4C174.832 72.52 171.112 74.08 167.752 74.08C165.992 74.08 164.792 73.8 164.152 73.24C163.592 72.68 163.312 71.88 163.312 70.84C163.312 70.04 163.632 69.08 164.272 67.96C164.992 66.76 165.792 65.6 166.672 64.48C167.552 63.36 168.272 62.48 168.832 61.84C168.832 61.84 168.752 61.8 168.592 61.72C168.432 61.64 168.352 61.6 168.352 61.6C166.512 63.84 164.552 65.92 162.472 67.84C160.392 69.76 158.312 71.28 156.232 72.4C154.232 73.52 152.272 74.08 150.352 74.08C148.352 74.08 146.952 73.6 146.152 72.64C145.352 71.6 144.952 70.04 144.952 67.96C144.952 65.96 145.592 63.56 146.872 60.76C148.152 57.88 149.992 55.08 152.392 52.36C154.792 49.56 157.672 47.24 161.032 45.4C164.472 43.56 168.312 42.64 172.552 42.64C174.632 42.64 176.072 43.04 176.872 43.84C177.672 44.56 178.032 45.44 177.952 46.48C177.872 47.52 177.632 48.56 177.232 49.6C176.832 50.64 176.472 51.44 176.152 52ZM216.445 74.08C212.205 74.08 210.085 72.84 210.085 70.36C210.085 68.76 210.605 67.04 211.645 65.2C212.765 63.36 214.125 61.52 215.725 59.68C217.325 57.76 218.925 55.88 220.525 54.04C222.205 52.2 223.565 50.52 224.605 49C225.725 47.4 226.285 46.04 226.285 44.92C226.285 44.52 226.085 44.2 225.685 43.96C225.365 43.64 224.885 43.48 224.245 43.48C223.285 43.48 221.925 43.96 220.165 44.92C218.485 45.88 216.325 47.52 213.685 49.84C211.125 52.08 208.085 55.12 204.565 58.96C201.045 62.72 197.005 67.44 192.445 73.12C191.725 72.96 190.645 72.88 189.205 72.88C187.765 72.88 186.525 73.04 185.485 73.36C187.805 70 190.085 66.72 192.325 63.52C194.565 60.32 196.605 57.4 198.445 54.76C200.365 52.12 201.885 49.96 203.005 48.28C204.125 46.52 204.685 45.44 204.685 45.04C204.685 44.32 204.325 43.96 203.605 43.96C202.805 43.96 201.805 44.6 200.605 45.88C199.405 47.08 198.085 48.64 196.645 50.56C195.205 52.4 193.725 54.28 192.205 56.2L191.125 55.48C192.725 53.64 194.285 51.72 195.805 49.72C197.325 47.72 198.885 46 200.485 44.56C202.085 43.12 203.765 42.4 205.525 42.4C206.405 42.4 207.205 42.64 207.925 43.12C208.725 43.52 209.125 44.2 209.125 45.16C209.125 46.04 208.765 47.12 208.045 48.4C207.405 49.6 206.525 51 205.405 52.6C204.285 54.12 203.005 55.84 201.565 57.76C200.205 59.6 198.765 61.6 197.245 63.76L197.365 64.48C201.605 59.84 205.165 56.08 208.045 53.2C211.005 50.32 213.445 48.12 215.365 46.6C217.365 45 219.085 43.92 220.525 43.36C222.045 42.72 223.485 42.4 224.845 42.4C226.685 42.4 228.005 42.8 228.805 43.6C229.605 44.32 230.005 45.32 230.005 46.6C230.005 48.52 229.445 50.56 228.325 52.72C227.205 54.8 225.805 56.88 224.125 58.96C222.525 60.96 220.885 62.84 219.205 64.6C217.605 66.28 216.245 67.72 215.125 68.92C214.005 70.12 213.445 70.92 213.445 71.32C213.445 71.8 213.565 72.16 213.805 72.4C214.125 72.64 214.885 72.76 216.085 72.76C219.045 72.76 221.845 71.84 224.485 70C227.205 68.16 229.805 65.92 232.285 63.28C234.765 60.56 237.085 57.88 239.245 55.24L240.205 56.08C238.045 58.64 235.685 61.32 233.125 64.12C230.565 66.92 227.885 69.28 225.085 71.2C222.285 73.12 219.405 74.08 216.445 74.08ZM261.615 42.4C264.015 42.4 265.655 42.76 266.535 43.48C267.495 44.2 267.975 45.16 267.975 46.36C267.975 47.48 267.695 48.64 267.135 49.84C266.575 50.96 265.975 52 265.335 52.96C264.775 53.92 264.415 54.56 264.255 54.88C263.775 55.68 263.215 56.2 262.575 56.44C261.935 56.6 262.135 55.96 263.175 54.52C264.535 52.76 265.535 51.08 266.175 49.48C266.815 47.8 266.855 46.44 266.295 45.4C265.815 44.28 264.455 43.72 262.215 43.72C260.695 43.72 258.895 44.4 256.815 45.76C254.815 47.04 252.735 48.76 250.575 50.92C248.415 53 246.375 55.28 244.455 57.76C242.615 60.16 241.095 62.48 239.895 64.72C238.775 66.88 238.215 68.72 238.215 70.24C238.215 71.36 238.455 72.04 238.935 72.28C239.415 72.52 240.015 72.64 240.735 72.64C242.575 72.64 244.695 71.84 247.095 70.24C249.495 68.56 251.975 66.44 254.535 63.88C257.095 61.32 259.535 58.68 261.855 55.96C264.255 53.16 266.335 50.64 268.095 48.4C269.855 46.08 271.095 44.4 271.815 43.36C272.695 43.6 273.575 43.76 274.455 43.84C275.415 43.84 276.655 43.72 278.175 43.48C272.895 49.56 267.975 55.76 263.415 62.08C258.855 68.4 254.495 74.44 250.335 80.2C246.175 85.96 242.095 91.08 238.095 95.56C234.015 100.12 229.895 103.72 225.735 106.36C221.575 109 217.215 110.32 212.655 110.32C211.135 110.32 209.935 110 209.055 109.36C208.095 108.72 207.615 107.88 207.615 106.84C207.615 105.08 208.535 103.24 210.375 101.32C212.215 99.48 214.615 97.68 217.575 95.92C220.535 94.16 223.735 92.44 227.175 90.76C230.535 89.16 233.815 87.72 237.015 86.44C240.135 85.16 242.775 84.08 244.935 83.2C248.695 81.68 252.455 79.76 256.215 77.44C259.975 75.12 263.495 72.6 266.775 69.88C270.135 67.16 273.095 64.52 275.655 61.96C278.295 59.4 280.335 57.12 281.775 55.12C281.775 55.12 281.895 55.28 282.135 55.6C282.455 55.92 282.615 56.08 282.615 56.08C280.615 58.72 277.855 61.76 274.335 65.2C270.815 68.56 266.615 71.92 261.735 75.28C256.855 78.64 251.375 81.6 245.295 84.16C243.215 85.04 240.655 86.12 237.615 87.4C234.575 88.68 231.415 90.08 228.135 91.6C224.855 93.2 221.775 94.84 218.895 96.52C216.015 98.28 213.695 100 211.935 101.68C210.095 103.44 209.175 105.12 209.175 106.72C209.175 107.28 209.455 107.84 210.015 108.4C210.575 108.96 211.455 109.24 212.655 109.24C214.895 109.24 217.375 108.28 220.095 106.36C222.815 104.44 225.695 101.92 228.735 98.8C231.695 95.68 234.695 92.28 237.735 88.6C240.695 85 243.535 81.4 246.255 77.8C248.975 74.2 251.415 70.96 253.575 68.08C255.815 65.2 257.615 63.04 258.975 61.6C258.975 61.6 258.895 61.56 258.735 61.48C258.655 61.4 258.615 61.36 258.615 61.36C258.295 61.76 257.495 62.64 256.215 64C255.015 65.28 253.495 66.72 251.655 68.32C249.815 69.84 247.855 71.2 245.775 72.4C243.695 73.52 241.655 74.08 239.655 74.08C237.575 74.08 236.175 73.48 235.455 72.28C234.655 71.08 234.255 69.72 234.255 68.2C234.255 65.64 234.975 62.88 236.415 59.92C237.775 56.96 239.695 54.16 242.175 51.52C244.735 48.88 247.655 46.72 250.935 45.04C254.295 43.28 257.855 42.4 261.615 42.4ZM286.999 74.08C283.239 74.08 280.759 73.24 279.559 71.56C278.359 69.8 277.759 67.96 277.759 66.04C277.759 62.76 278.599 59.72 280.279 56.92C281.959 54.04 284.119 51.48 286.759 49.24C289.399 47 292.119 45.28 294.919 44.08C297.799 42.8 300.359 42.16 302.599 42.16C304.199 42.16 305.479 42.4 306.439 42.88C307.399 43.28 307.879 44.16 307.879 45.52C307.879 46.8 307.119 48.16 305.599 49.6C304.079 51.04 302.159 52.44 299.839 53.8C297.519 55.08 295.079 56.28 292.519 57.4C290.039 58.44 287.759 59.28 285.679 59.92C283.599 60.56 282.079 60.88 281.119 60.88C281.119 60.88 281.119 60.68 281.119 60.28C281.119 59.8 281.119 59.56 281.119 59.56C281.839 59.64 283.079 59.4 284.839 58.84C286.679 58.28 288.719 57.56 290.959 56.68C293.199 55.72 295.359 54.64 297.439 53.44C299.599 52.24 301.359 50.96 302.719 49.6C304.159 48.24 304.879 46.92 304.879 45.64C304.879 45 304.679 44.44 304.279 43.96C303.959 43.48 303.359 43.24 302.479 43.24C301.199 43.24 299.639 43.88 297.799 45.16C296.039 46.36 294.239 47.96 292.399 49.96C290.559 51.96 288.839 54.08 287.239 56.32C285.639 58.56 284.319 60.72 283.279 62.8C282.319 64.8 281.839 66.48 281.839 67.84C281.839 69.44 282.319 70.64 283.279 71.44C284.239 72.24 285.639 72.64 287.479 72.64C290.679 72.64 293.679 71.88 296.479 70.36C299.359 68.76 301.959 66.92 304.279 64.84C306.599 62.68 308.559 60.68 310.159 58.84C311.759 56.92 312.839 55.68 313.399 55.12C313.399 55.12 313.519 55.24 313.759 55.48C314.079 55.72 314.239 55.84 314.239 55.84C313.679 56.48 312.599 57.76 310.999 59.68C309.399 61.6 307.399 63.68 304.999 65.92C302.599 68.16 299.879 70.08 296.839 71.68C293.799 73.28 290.519 74.08 286.999 74.08Z" fill="#5F2708"/>
</svg>
