<svg width="48" height="49" viewBox="0 0 48 49" fill="none" xmlns="http://www.w3.org/2000/svg">
<path d="M42.5306 20.5306L33.5306 29.5306C33.3899 29.6713 33.199 29.7503 33 29.7503C32.801 29.7503 32.6101 29.6713 32.4694 29.5306C32.3286 29.3898 32.2496 29.199 32.2496 28.9999C32.2496 28.8009 32.3286 28.61 32.4694 28.4693L40.1888 20.7499H30.9375C27.1122 20.7486 23.3951 22.0188 20.3705 24.3608C17.346 26.7028 15.1857 29.9836 14.2294 33.6874C14.1877 33.849 14.0933 33.992 13.9612 34.0938C13.8291 34.1957 13.6668 34.2506 13.5 34.2499C13.4367 34.2497 13.3737 34.2416 13.3125 34.2256C13.1201 34.1757 12.9554 34.0515 12.8545 33.8803C12.7536 33.7091 12.7248 33.5049 12.7744 33.3124C13.8119 29.2851 16.1598 25.7174 19.4482 23.1714C22.7367 20.6254 26.7787 19.2458 30.9375 19.2499H40.1925L32.4694 11.5306C32.3286 11.3898 32.2496 11.199 32.2496 10.9999C32.2496 10.8009 32.3286 10.61 32.4694 10.4693C32.6101 10.3286 32.801 10.2495 33 10.2495C33.199 10.2495 33.3899 10.3286 33.5306 10.4693L42.5306 19.4693C42.6004 19.539 42.6557 19.6217 42.6934 19.7127C42.7312 19.8038 42.7506 19.9014 42.7506 19.9999C42.7506 20.0985 42.7312 20.1961 42.6934 20.2871C42.6557 20.3782 42.6004 20.4609 42.5306 20.5306ZM36 40.2499H6.75V16.9999C6.75 16.801 6.67098 16.6102 6.53033 16.4696C6.38968 16.3289 6.19891 16.2499 6 16.2499C5.80109 16.2499 5.61032 16.3289 5.46967 16.4696C5.32902 16.6102 5.25 16.801 5.25 16.9999V40.9999C5.25 41.1988 5.32902 41.3896 5.46967 41.5303C5.61032 41.6709 5.80109 41.7499 6 41.7499H36C36.1989 41.7499 36.3897 41.6709 36.5303 41.5303C36.671 41.3896 36.75 41.1988 36.75 40.9999C36.75 40.801 36.671 40.6102 36.5303 40.4696C36.3897 40.3289 36.1989 40.2499 36 40.2499Z" fill="#3F1A09"/>
</svg>
