<svg width="436" height="225" viewBox="0 0 436 225" fill="none" xmlns="http://www.w3.org/2000/svg">
<path d="M33.1356 59.1719L28.3212 70.3301C26.4331 74.7103 25.4891 77.6367 25.4891 79.1094C25.4891 80.6953 27.9247 81.4883 32.7958 81.4883H33.702V85H11.952V81.4883L13.1415 81.4316C16.3889 81.2806 18.3147 80.8841 18.9188 80.2422C19.5608 79.5625 21.1467 76.2585 23.6766 70.3301L53.1864 0.0957031H57.1512L86.5477 70.7266C88.8511 75.7865 90.4748 78.8073 91.4188 79.7891C92.3628 80.7331 94.2131 81.2806 96.9696 81.4316L98.2723 81.4883V85H67.1766V81.4883H68.1962C73.4826 81.4883 76.1259 80.7331 76.1259 79.2227C76.1259 76.9948 75.3329 74.0306 73.7469 70.3301L69.0458 59.1719H33.1356ZM35.0048 54.584H67.0067L51.0907 16.4082L35.0048 54.584ZM133.408 50.0527V70.3301C133.408 75.3522 133.861 78.4108 134.767 79.5059C135.673 80.5632 138.373 81.2051 142.867 81.4316L145.302 81.4883V85H111.148V81.4883L112.224 81.4316C116.793 81.1296 119.493 80.4876 120.324 79.5059C121.192 78.4863 121.626 75.4277 121.626 70.3301V15.8418C121.626 10.7064 121.192 7.64779 120.324 6.66602C119.493 5.68424 116.793 5.04232 112.224 4.74023L111.148 4.62695V1.17188H136.07L144.339 0.888672L148.247 0.775391C164.56 0.775391 172.716 8.15755 172.716 22.9219C172.716 31.9466 169.733 38.7246 163.767 43.2559C157.839 47.7871 148.908 50.0527 136.976 50.0527H133.408ZM133.408 46.2012H137.656C145.17 46.2012 150.796 44.2754 154.535 40.4238C158.273 36.5723 160.142 30.8138 160.142 23.1484C160.142 16.6159 158.707 11.9525 155.837 9.1582C153.005 6.36393 148.247 4.9668 141.564 4.9668H133.408V46.2012ZM210.344 50.0527V70.3301C210.344 75.3522 210.797 78.4108 211.703 79.5059C212.609 80.5632 215.309 81.2051 219.803 81.4316L222.238 81.4883V85H188.084V81.4883L189.16 81.4316C193.729 81.1296 196.429 80.4876 197.26 79.5059C198.128 78.4863 198.562 75.4277 198.562 70.3301V15.8418C198.562 10.7064 198.128 7.64779 197.26 6.66602C196.429 5.68424 193.729 5.04232 189.16 4.74023L188.084 4.62695V1.17188H213.006L221.275 0.888672L225.184 0.775391C241.496 0.775391 249.652 8.15755 249.652 22.9219C249.652 31.9466 246.669 38.7246 240.703 43.2559C234.775 47.7871 225.844 50.0527 213.912 50.0527H210.344ZM210.344 46.2012H214.592C222.106 46.2012 227.732 44.2754 231.471 40.4238C235.209 36.5723 237.078 30.8138 237.078 23.1484C237.078 16.6159 235.643 11.9525 232.773 9.1582C229.941 6.36393 225.184 4.9668 218.5 4.9668H210.344V46.2012ZM325.456 85H265.02V81.4883L266.096 81.4316C270.665 81.1296 273.365 80.4876 274.196 79.5059C275.064 78.4863 275.499 75.4277 275.499 70.3301V15.8418C275.499 10.7064 275.064 7.64779 274.196 6.66602C273.365 5.68424 270.665 5.04232 266.096 4.74023L265.02 4.62695V1.17188H322.34V15.8418H316.053L315.94 14.7656C315.638 9.55469 315.241 6.74154 314.751 6.32617C314.297 5.91081 311.277 5.70312 305.688 5.70312H287.393V39.2344L302.743 39.1777C306.141 39.1777 308.218 39.0078 308.973 38.668C309.766 38.2904 310.238 36.4967 310.389 33.2871L310.446 32.2676H314.977V50.7324H310.446L310.389 49.7129C310.238 46.8431 309.766 45.1439 308.973 44.6152C308.218 44.0488 306.141 43.7656 302.743 43.7656H287.393V70.3301C287.393 74.7103 287.903 77.4479 288.922 78.543C289.98 79.6003 292.68 80.1289 297.022 80.1289H305.971C312.617 80.1289 316.393 79.8079 317.299 79.166C318.243 78.4863 318.848 75.6543 319.112 70.6699L319.169 69.6504H325.456V85ZM359.911 59.1719L355.097 70.3301C353.209 74.7103 352.265 77.6367 352.265 79.1094C352.265 80.6953 354.7 81.4883 359.571 81.4883H360.478V85H338.728V81.4883L339.917 81.4316C343.165 81.2806 345.09 80.8841 345.694 80.2422C346.336 79.5625 347.922 76.2585 350.452 70.3301L379.962 0.0957031H383.927L413.323 70.7266C415.627 75.7865 417.25 78.8073 418.194 79.7891C419.138 80.7331 420.989 81.2806 423.745 81.4316L425.048 81.4883V85H393.952V81.4883H394.972C400.258 81.4883 402.901 80.7331 402.901 79.2227C402.901 76.9948 402.109 74.0306 400.523 70.3301L395.821 59.1719H359.911ZM361.78 54.584H393.782L377.866 16.4082L361.78 54.584ZM22.9969 185.127V207.33C22.9969 212.39 23.3746 215.449 24.1298 216.506C24.9227 217.525 27.2261 218.167 31.0399 218.432L32.1161 218.488V222H0.737183V218.488L1.81335 218.432C6.38236 218.13 9.08223 217.488 9.91296 216.506C10.7815 215.486 11.2157 212.428 11.2157 207.33V152.842C11.2157 147.706 10.7815 144.648 9.91296 143.666C9.08223 142.684 6.38236 142.042 1.81335 141.74L0.737183 141.627V138.172H20.9012L31.0966 137.889L35.6278 137.775C52.9598 137.775 61.6259 144.837 61.6259 158.959C61.6259 170.702 55.8485 178.557 44.2938 182.521L60.7196 207.217C64.3446 212.428 66.7046 215.543 67.7997 216.562C68.8947 217.582 70.3296 218.13 72.1044 218.205C72.633 218.281 73.898 218.356 75.8993 218.432L77.0321 218.488V222H55.6786L32.7958 185.127H22.9969ZM23.1102 181.275H27.3016C42.1037 181.275 49.5048 174.271 49.5048 160.262C49.5048 153.616 48.1076 148.915 45.3134 146.158C42.5568 143.364 37.8368 141.967 31.1532 141.967H23.1102V181.275ZM108.656 196.172L103.841 207.33C101.953 211.71 101.009 214.637 101.009 216.109C101.009 217.695 103.445 218.488 108.316 218.488H109.222V222H87.4721V218.488L88.6616 218.432C91.909 218.281 93.8347 217.884 94.4389 217.242C95.0808 216.562 96.6668 213.258 99.1967 207.33L128.706 137.096H132.671L162.068 207.727C164.371 212.786 165.995 215.807 166.939 216.789C167.883 217.733 169.733 218.281 172.49 218.432L173.792 218.488V222H142.697V218.488H143.716C149.003 218.488 151.646 217.733 151.646 216.223C151.646 213.995 150.853 211.031 149.267 207.33L144.566 196.172H108.656ZM110.525 191.584H142.527L126.611 153.408L110.525 191.584Z" fill="#F1BFC1"/>
<path d="M254.467 223.133L202.471 152.898V207.33C202.471 212.465 202.886 215.524 203.717 216.506C204.548 217.45 207.285 218.092 211.93 218.432L212.949 218.488V222H186.725V218.488L187.744 218.432C192.389 218.092 195.126 217.45 195.957 216.506C196.788 215.524 197.203 212.465 197.203 207.33V152.842C197.203 147.669 196.788 144.61 195.957 143.666C195.126 142.684 192.389 142.042 187.744 141.74L186.668 141.627V138.172H205.529L253.334 203.252V152.842C253.334 147.706 252.9 144.648 252.031 143.666C251.201 142.684 248.482 142.042 243.875 141.74L242.855 141.627V138.172H268.967V141.627L267.891 141.74C263.284 142.042 260.565 142.684 259.734 143.666C258.904 144.648 258.488 147.706 258.488 152.842V223.133H254.467ZM355.928 217.525C348.338 221.906 339.503 224.096 329.42 224.096C316.544 224.096 306.387 220.15 298.948 212.258C291.547 204.366 287.846 193.585 287.846 179.916C287.846 166.058 291.415 155.296 298.551 147.631C305.688 139.928 315.695 136.076 328.571 136.076C335.141 136.076 343.769 137.473 354.456 140.268V156.297H347.489L347.432 155.164C347.394 154.031 347.357 152.917 347.319 151.822C347.319 148.122 345.601 145.214 342.165 143.1C338.728 140.947 334.046 139.871 328.118 139.871C319.622 139.871 312.844 143.496 307.784 150.746C302.724 157.996 300.194 167.682 300.194 179.803C300.194 191.962 303.158 201.458 309.086 208.293C315.015 215.09 323.266 218.488 333.838 218.488C340.749 218.488 348.112 216.355 355.928 212.088V217.525ZM435.866 222H375.431V218.488L376.507 218.432C381.076 218.13 383.776 217.488 384.607 216.506C385.475 215.486 385.909 212.428 385.909 207.33V152.842C385.909 147.706 385.475 144.648 384.607 143.666C383.776 142.684 381.076 142.042 376.507 141.74L375.431 141.627V138.172H432.751V152.842H426.464L426.351 151.766C426.049 146.555 425.652 143.742 425.161 143.326C424.708 142.911 421.687 142.703 416.099 142.703H397.804V176.234L413.153 176.178C416.552 176.178 418.629 176.008 419.384 175.668C420.177 175.29 420.649 173.497 420.8 170.287L420.857 169.268H425.388V187.732H420.857L420.8 186.713C420.649 183.843 420.177 182.144 419.384 181.615C418.629 181.049 416.552 180.766 413.153 180.766H397.804V207.33C397.804 211.71 398.314 214.448 399.333 215.543C400.39 216.6 403.09 217.129 407.433 217.129H416.382C423.028 217.129 426.804 216.808 427.71 216.166C428.654 215.486 429.258 212.654 429.523 207.67L429.579 206.65H435.866V222Z" fill="white"/>
</svg>
