<svg width="225" height="53" viewBox="0 0 225 53" fill="none" xmlns="http://www.w3.org/2000/svg">
<path d="M24.08 0.413086H199.92L224 26.4131L199.92 52.4131H24.08L0 26.4131L24.08 0.413086Z" fill="#F1BFC1"/>
<path d="M83.028 28.8211C82.836 29.2691 82.196 29.5891 81.076 29.2371L82.1 29.0131C79.604 31.9571 74.036 36.0851 69.94 38.1011V37.7491H71.956C71.796 40.0851 71.124 41.5251 70.164 41.9411L68.148 37.2051C68.148 37.2051 69.076 37.0131 69.492 36.7891C72.34 35.1251 76.532 29.8131 77.876 26.8051L83.028 28.8211ZM68.756 37.2691C72.532 37.2371 81.204 36.8211 90.388 36.2131V36.6931C86.388 37.9411 79.572 39.6051 70.516 41.4291L68.756 37.2691ZM83.54 12.6611C83.476 13.1411 83.22 13.4611 82.356 13.5891V26.7731H78.292V12.2131L83.54 12.6611ZM89.332 15.9571C89.332 15.9571 91.924 17.9091 93.46 19.2531C93.364 19.6051 93.012 19.7651 92.532 19.7651H68.34L68.084 18.8371H87.06L89.332 15.9571ZM91.252 23.2851C91.252 23.2851 93.876 25.2691 95.476 26.6451C95.38 26.9971 95.028 27.1571 94.548 27.1571H66.068L65.812 26.2611H88.916L91.252 23.2851ZM84.212 31.0931C97.748 35.1571 94.772 44.6931 90.292 41.4931C89.364 37.9731 86.612 34.0051 83.924 31.3171L84.212 31.0931ZM103.636 33.8451C105.748 37.8131 108.884 38.3251 114.996 38.3251C117.812 38.3251 124.82 38.3251 127.764 38.2611V38.6451C126.548 38.9011 125.972 40.1171 125.94 41.4611C123.54 41.4611 117.46 41.4611 114.932 41.4611C108.468 41.4611 105.236 40.0211 103.316 34.0371L103.636 33.8451ZM105.268 21.9731C104.436 23.5731 102.42 26.9971 101.364 28.6931H101.588L100.468 29.7171L97.716 27.7651C98.164 27.4131 99.028 27.0611 99.636 26.9651L98.452 27.8931C99.636 26.1971 101.652 22.5491 102.42 20.7891L105.268 21.9731ZM102.548 20.7891L104.02 19.2851L106.996 21.9731C106.452 22.5171 104.756 22.5811 103.316 22.3571L102.964 20.7891H102.548ZM102.868 27.9571L104.596 26.1971L107.636 28.7571C107.412 29.0771 107.124 29.1731 106.42 29.2371C105.172 34.0371 102.452 39.0931 97.492 42.3251L97.172 41.9731C100.532 38.3571 102.516 32.7891 103.188 27.9571H102.868ZM103.892 20.7891V21.6851H98.164L97.876 20.7891H103.892ZM104.596 27.9251V28.8211H100.116L100.468 27.9251H104.596ZM99.348 12.2771C107.828 13.8771 104.82 20.2131 101.62 17.8131C101.428 15.9571 100.212 13.8131 99.06 12.4691L99.348 12.2771ZM107.732 13.0131L111.188 14.3891H110.772V16.3091C110.772 16.3091 109.844 16.3091 107.732 16.3091V13.0131ZM107.54 21.8451C109.076 21.7491 112.66 21.3651 116.212 20.9171L116.276 21.3651C114.74 22.0691 111.668 23.4131 108.436 24.6291L107.54 21.8451ZM110.036 14.9011L110.772 15.3491V22.2291L108.468 23.0611L109.556 22.1651C109.78 23.8931 108.948 24.7251 108.276 25.0451L106.964 22.1331C107.636 21.7171 107.732 21.4611 107.732 20.8531V14.9011H110.036ZM117.428 32.4691C131.124 33.9091 125.204 39.7971 122.612 37.1731C121.716 35.8611 119.924 34.1971 117.268 32.9171L117.428 32.4691ZM112.948 14.3891L114.26 12.9811L117.108 15.1251C116.948 15.3171 116.564 15.5411 116.02 15.6371V19.1571C115.988 19.3811 114.612 20.0211 113.684 20.0211H113.204V14.3891H112.948ZM114.804 18.0051V18.9331H109.204V18.0051H114.804ZM122.516 14.3891L123.892 12.9491L126.772 15.1251C126.612 15.3171 126.228 15.5411 125.716 15.6691V18.9971C125.684 19.2211 124.244 19.8291 123.316 19.8291H122.804V14.3891H122.516ZM124.116 14.3891V15.3171H118.836L118.548 14.3891H124.116ZM117.3 13.1091V13.0451L120.724 14.3891H120.308V20.5331C120.308 20.9171 120.372 21.0451 121.012 21.0451H122.548C123.124 21.0451 123.7 21.0451 123.988 21.0131C124.18 21.0131 124.5 21.0131 124.66 20.9811C124.852 20.9811 125.172 20.9171 125.396 20.8531H125.684L125.812 20.8851C126.612 21.2051 126.9 21.4291 126.9 21.9411C126.9 23.0291 125.748 23.3811 122.196 23.3811H120.084C117.684 23.3811 117.3 22.7411 117.3 20.9811V13.1091ZM116.564 33.8451C116.34 34.2291 115.86 34.3891 114.868 34.2931C113.172 35.7331 110.132 37.1091 106.964 37.8131L106.74 37.4611C109.012 36.0531 111.22 33.6531 112.18 31.8611L116.564 33.8451ZM122.388 23.9571C122.356 24.3091 122.132 24.5651 121.524 24.6611V31.5411H118.196V23.5731L122.388 23.9571ZM115.764 23.8291C115.732 24.1811 115.54 24.4371 114.9 24.5651V31.5411H111.572V23.4451L115.764 23.8291ZM124.372 28.9811C124.372 28.9811 126.164 30.4851 127.22 31.5411C127.124 31.8931 126.836 32.0531 126.388 32.0531H107.092L106.836 31.1251H122.772L124.372 28.9811ZM124.052 24.8851C124.052 24.8851 125.684 26.2931 126.644 27.3171C126.58 27.6691 126.26 27.8291 125.812 27.8291H108.244L107.988 26.9011H122.612L124.052 24.8851ZM124.052 18.0051V18.9331H119.092V18.0051H124.052ZM114.836 14.3891V15.3171H109.204L108.916 14.3891H114.836ZM144.148 30.3251H155.028V31.2211H144.148V30.3251ZM140.884 16.0531H154.836L156.404 13.9731C156.404 13.9731 158.164 15.4131 159.22 16.4371C159.156 16.7891 158.836 16.9491 158.388 16.9491H141.14L140.884 16.0531ZM140.468 23.0291H155.124L156.66 20.9491C156.66 20.9491 158.42 22.4211 159.444 23.4131C159.412 23.7651 159.092 23.9251 158.644 23.9251H140.724L140.468 23.0291ZM139.956 34.5491H156.532L157.844 32.4051C157.844 32.4051 159.348 33.9091 160.148 34.9331C160.084 35.2851 159.796 35.4451 159.348 35.4451H140.212L139.956 34.5491ZM141.268 19.4451H154.74L156.084 17.6531C156.084 17.6531 157.62 18.9331 158.548 19.8611C158.452 20.2131 158.164 20.3731 157.716 20.3731H141.524L141.268 19.4451ZM144.404 12.5651L148.628 12.9171C148.596 13.3011 148.34 13.5891 147.636 13.7171V23.4131H144.404V12.5651ZM150.932 12.5651L155.188 12.9171C155.124 13.3331 154.9 13.5891 154.196 13.7171V23.4131H150.932V12.5651ZM147.764 23.3171H150.932V34.9331H147.764V23.3171ZM142.068 26.1971V24.7891L145.428 26.1971H154.644V27.0931H145.236V41.2371C145.236 41.5891 143.924 42.3251 142.548 42.3251H142.068V26.1971ZM153.524 26.1971H153.204L154.676 24.4691L158.004 26.9971C157.844 27.2211 157.428 27.4771 156.788 27.6051V38.3251C156.788 40.5971 156.34 41.9091 152.628 42.2611C152.564 41.2051 152.404 40.3731 152.02 39.8931C151.604 39.4131 150.996 39.0611 149.684 38.8371V38.3571C149.684 38.3571 152.308 38.5491 152.884 38.5491C153.396 38.5491 153.524 38.3571 153.524 37.9411V26.1971ZM132.692 34.0371L136.692 35.9251C136.5 36.2451 136.244 36.4371 135.476 36.3731C134.228 38.3891 132.148 40.7891 129.62 42.2611L129.268 41.9091C130.964 39.7331 132.212 36.3411 132.692 34.0371ZM136.052 34.2931C143.668 36.6931 140.468 42.4531 137.652 39.9571C137.62 38.1011 136.692 35.8931 135.732 34.4531L136.052 34.2931ZM130.9 14.5491V13.1731L134.452 14.5491H136.66L138.292 12.6291L141.46 15.1251C141.204 15.4131 140.852 15.6371 140.148 15.7651V33.3971C140.148 33.5891 138.996 34.2931 137.364 34.2931H136.82V15.4451H134.1V33.9411C134.1 34.1651 133.108 34.8051 131.444 34.8051H130.9V14.5491ZM132.724 20.2131H138.548V21.1411H132.724V20.2131ZM132.724 25.9731H138.548V26.9011H132.724V25.9731ZM132.724 31.8611H138.548V32.7891H132.724V31.8611Z" fill="white"/>
</svg>
