<svg width="527" height="171" viewBox="0 0 527 171" fill="none" xmlns="http://www.w3.org/2000/svg">
<path d="M68.8187 99.4385C61.2288 103.819 52.3929 106.009 42.3109 106.009C29.4345 106.009 19.277 102.063 11.8382 94.1709C4.43715 86.279 0.736633 75.4984 0.736633 61.8291C0.736633 47.971 4.30499 37.2093 11.4417 29.5439C18.5784 21.8408 28.5849 17.9893 41.4612 17.9893C48.0316 17.9893 56.6598 19.3864 67.346 22.1807V38.21H60.3792L60.3226 37.0771C60.2848 35.9443 60.247 34.8304 60.2093 33.7354C60.2093 30.0348 58.4912 27.1273 55.055 25.0127C51.6188 22.8604 46.9365 21.7842 41.0081 21.7842C32.512 21.7842 25.734 25.4092 20.6741 32.6592C15.6142 39.9092 13.0843 49.5947 13.0843 61.7158C13.0843 73.8747 16.0485 83.3714 21.9769 90.2061C27.9053 97.0029 36.1559 100.401 46.7288 100.401C53.639 100.401 61.0023 98.2679 68.8187 94.001V99.4385ZM148.417 103.913H88.3212V100.401L89.3973 100.345C93.9663 100.043 96.6662 99.4007 97.4969 98.4189C98.3654 97.3994 98.7997 94.3408 98.7997 89.2432V34.7549C98.7997 29.6195 98.3654 26.5609 97.4969 25.5791C96.6662 24.5973 93.9663 23.9554 89.3973 23.6533L88.3212 23.54V20.085H121.173V23.54L120.097 23.6533C115.49 23.9554 112.771 24.5973 111.94 25.5791C111.11 26.5609 110.694 29.6195 110.694 34.7549V89.2432C110.694 94.2653 111.072 97.154 111.827 97.9092C112.582 98.6644 115.452 99.042 120.436 99.042H128.989C135.748 99.042 139.6 98.6644 140.544 97.9092C141.526 97.1162 142.149 93.9066 142.413 88.2803L142.47 87.1475H148.417V103.913ZM182.193 78.085L177.378 89.2432C175.49 93.6234 174.546 96.5498 174.546 98.0225C174.546 99.6084 176.982 100.401 181.853 100.401H182.759V103.913H161.009V100.401L162.199 100.345C165.446 100.194 167.372 99.7972 167.976 99.1553C168.618 98.4756 170.204 95.1715 172.734 89.2432L202.244 19.0088H206.208L235.605 89.6396C237.908 94.6995 239.532 97.7204 240.476 98.7021C241.42 99.6462 243.27 100.194 246.027 100.345L247.33 100.401V103.913H216.234V100.401H217.253C222.54 100.401 225.183 99.6462 225.183 98.1357C225.183 95.9079 224.39 92.9437 222.804 89.2432L218.103 78.085H182.193ZM184.062 73.4971H216.064L200.148 35.3213L184.062 73.4971ZM264.51 102.214V86.0713H270.457L270.514 87.0908C270.627 88.9788 270.684 90.3949 270.684 91.3389C270.684 94.3219 271.911 96.5687 274.365 98.0791C278.368 100.571 282.786 101.817 287.619 101.817C292.641 101.817 296.568 100.401 299.4 97.5693C302.232 94.6995 303.648 90.7536 303.648 85.7314C303.648 81.5023 302.742 78.1416 300.93 75.6494C299.117 73.1572 295.587 70.4385 290.338 67.4932L284.391 64.0947C271.552 56.8447 265.133 48.9339 265.133 40.3623C265.133 33.9053 267.436 28.5622 272.043 24.333C276.688 20.1038 282.503 17.9893 289.488 17.9893C292.509 17.9893 295.775 18.2913 299.287 18.8955C302.837 19.4619 306.632 20.3493 310.672 21.5576V36.4541H304.385L304.328 35.4912C304.177 33.4521 304.102 31.9606 304.102 31.0166C304.102 27.8447 302.969 25.5225 300.703 24.0498C298.438 22.5394 294.888 21.7842 290.055 21.7842C286.014 21.7842 282.729 23.1247 280.199 25.8057C277.707 28.4489 276.461 31.9417 276.461 36.2842C276.461 39.9847 277.329 43.0433 279.066 45.46C280.803 47.8766 283.938 50.3688 288.469 52.9365L294.416 56.335C302.648 61.0173 308.199 65.0954 311.068 68.5693C313.938 72.0433 315.373 76.4046 315.373 81.6533C315.373 88.639 312.768 94.4541 307.557 99.0986C302.383 103.705 295.908 106.009 288.129 106.009C283.598 106.009 279.35 105.688 275.385 105.046C271.458 104.404 267.833 103.46 264.51 102.214ZM337.821 102.214V86.0713H343.768L343.825 87.0908C343.938 88.9788 343.995 90.3949 343.995 91.3389C343.995 94.3219 345.222 96.5687 347.676 98.0791C351.679 100.571 356.097 101.817 360.93 101.817C365.952 101.817 369.879 100.401 372.711 97.5693C375.544 94.6995 376.96 90.7536 376.96 85.7314C376.96 81.5023 376.053 78.1416 374.241 75.6494C372.428 73.1572 368.898 70.4385 363.649 67.4932L357.702 64.0947C344.863 56.8447 338.444 48.9339 338.444 40.3623C338.444 33.9053 340.747 28.5622 345.354 24.333C349.999 20.1038 355.814 17.9893 362.799 17.9893C365.82 17.9893 369.086 18.2913 372.598 18.8955C376.148 19.4619 379.943 20.3493 383.983 21.5576V36.4541H377.696L377.639 35.4912C377.488 33.4521 377.413 31.9606 377.413 31.0166C377.413 27.8447 376.28 25.5225 374.014 24.0498C371.749 22.5394 368.199 21.7842 363.366 21.7842C359.325 21.7842 356.04 23.1247 353.51 25.8057C351.018 28.4489 349.772 31.9417 349.772 36.2842C349.772 39.9847 350.641 43.0433 352.378 45.46C354.114 47.8766 357.249 50.3688 361.78 52.9365L367.727 56.335C375.959 61.0173 381.51 65.0954 384.379 68.5693C387.249 72.0433 388.684 76.4046 388.684 81.6533C388.684 88.639 386.079 94.4541 380.868 99.0986C375.695 103.705 369.219 106.009 361.44 106.009C356.909 106.009 352.661 105.688 348.696 105.046C344.769 104.404 341.144 103.46 337.821 102.214ZM439.679 100.401V103.913H406.827V100.401L407.903 100.345C412.472 100.043 415.172 99.4007 416.003 98.4189C416.872 97.3994 417.306 94.3408 417.306 89.2432V34.7549C417.306 29.6195 416.872 26.5609 416.003 25.5791C415.172 24.5973 412.472 23.9554 407.903 23.6533L406.827 23.54V20.085H439.679V23.54L438.603 23.6533C433.996 23.9554 431.277 24.5973 430.446 25.5791C429.616 26.5609 429.2 29.6195 429.2 34.7549V89.2432C429.2 94.3408 429.616 97.3994 430.446 98.4189C431.277 99.4007 433.996 100.043 438.603 100.345L439.679 100.401Z" fill="#EACEB1"/>
<path d="M526.584 99.4385C518.994 103.819 510.158 106.009 500.076 106.009C487.2 106.009 477.042 102.063 469.603 94.1709C462.202 86.279 458.502 75.4984 458.502 61.8291C458.502 47.971 462.07 37.2093 469.207 29.5439C476.343 21.8408 486.35 17.9893 499.226 17.9893C505.797 17.9893 514.425 19.3864 525.111 22.1807V38.21H518.144L518.088 37.0771C518.05 35.9443 518.012 34.8304 517.974 33.7354C517.974 30.0348 516.256 27.1273 512.82 25.0127C509.384 22.8604 504.701 21.7842 498.773 21.7842C490.277 21.7842 483.499 25.4092 478.439 32.6592C473.379 39.9092 470.849 49.5947 470.849 61.7158C470.849 73.8747 473.813 83.3714 479.742 90.2061C485.67 97.0029 493.921 100.401 504.494 100.401C511.404 100.401 518.767 98.2679 526.584 94.001V99.4385Z" fill="#F1BFC1"/>
<path d="M441.536 150.621V160.953H436.208V150.621H441.536ZM448.592 136.185C448.448 136.545 448.052 136.797 447.404 136.653C446.216 137.553 442.904 139.677 440.888 140.901C452.012 143.133 447.908 150.009 444.164 147.633C443.768 145.653 442.184 142.629 439.988 141.009C441.068 139.101 442.76 135.645 443.228 134.277L448.592 136.185ZM442.58 136.257C442.436 136.617 442.04 136.869 441.356 136.761C440.24 137.697 437.108 139.965 435.164 141.297C445.748 143.925 441.428 150.657 437.864 148.209C437.612 146.229 436.316 143.133 434.3 141.405C435.272 139.389 436.784 135.825 437.18 134.457L442.58 136.257ZM436.748 136.077C436.604 136.437 436.208 136.653 435.56 136.581C434.408 137.553 431.456 139.893 429.548 141.225C439.592 144.213 435.164 150.693 431.78 148.245C431.636 146.301 430.592 143.205 428.72 141.333C429.656 139.317 431.132 135.717 431.492 134.349L436.748 136.077ZM444.992 147.345C444.992 147.345 447.404 149.289 448.844 150.621C448.736 151.017 448.376 151.197 447.872 151.197H430.628L430.34 150.189H442.868L444.992 147.345ZM446.036 157.029C446.036 157.029 448.808 159.297 450.464 160.809C450.356 161.205 449.96 161.385 449.42 161.385H428.792L428.504 160.377H443.552L446.036 157.029ZM445.244 129.705C445.244 129.705 447.908 131.685 449.528 133.089C449.42 133.485 449.024 133.665 448.52 133.665H429.656L429.368 132.657H442.904L445.244 129.705ZM430.484 139.029C430.232 139.425 429.476 139.713 428.324 139.137L429.476 138.957C427.28 142.089 421.988 147.057 417.92 149.469L417.884 149.037H419.972C419.72 151.629 418.82 153.033 417.776 153.393L416.084 148.389C416.084 148.389 417.056 148.173 417.452 147.885C420.188 145.797 424.184 139.245 425.372 135.609L430.484 139.029ZM427.352 132.549C427.136 132.981 426.452 133.269 425.264 132.837L426.416 132.657C424.544 135.249 420.728 139.065 417.812 140.757V140.325H420.008C419.864 142.773 419.108 144.249 418.136 144.681L416.084 139.749C416.084 139.749 416.912 139.533 417.236 139.281C418.892 137.697 421.124 132.513 421.7 129.705L427.352 132.549ZM419.504 153.285C421.16 157.353 420.98 160.449 419.792 162.105C418.892 163.293 416.624 163.185 415.832 161.673C415.22 160.341 415.796 159.081 416.948 158.289C417.848 157.389 419.18 155.193 419.036 153.285H419.504ZM425.3 152.205C434.12 154.833 430.412 161.565 427.1 158.685C427.028 156.525 426.02 154.041 424.94 152.385L425.3 152.205ZM422.024 152.889C429.584 157.677 424.652 163.977 421.7 160.233C422.168 157.821 422.024 155.121 421.592 152.997L422.024 152.889ZM424.868 145.005C433.364 148.245 429.476 154.653 426.272 151.665C426.2 149.469 425.336 146.949 424.508 145.185L424.868 145.005ZM416.624 148.461C418.604 148.425 423.356 148.137 428.036 147.813L428.072 148.209C426.164 149.217 422.42 151.089 418.028 152.817L416.624 148.461ZM416.732 139.857C418.532 139.929 422.6 139.929 426.596 139.857V140.289C425.084 141.117 421.952 142.629 418.388 144.033L416.732 139.857ZM455.756 153.213H484.952L487.076 150.009C487.076 150.009 489.488 152.205 490.82 153.645C490.712 154.041 490.352 154.221 489.848 154.221H456.044L455.756 153.213ZM475.232 155.769C496.904 157.029 488.012 166.857 483.692 162.753C482.36 160.845 479.696 158.073 475.088 156.165L475.232 155.769ZM466.268 154.509L472.46 157.713C472.172 158.181 471.524 158.433 470.264 158.253C467.132 160.737 461.876 162.717 456.116 163.689L456.008 163.329C460.4 161.205 464.468 157.461 466.268 154.509ZM467.06 130.209L472.748 130.713C472.712 131.145 472.496 131.433 471.74 131.577V153.681H467.06V130.209ZM473.648 130.209L479.408 130.713C479.336 131.145 479.12 131.433 478.364 131.577V153.681H473.648V130.209ZM459.968 136.077V134.097L465.26 136.077H480.38L482.504 133.341L487.58 136.797C487.328 137.193 486.932 137.409 485.96 137.553V153.465H480.74V137.085H464.972V153.465H459.968V136.077ZM462.884 144.465H483.26V145.473H462.884V144.465Z" fill="#6B3B20"/>
</svg>
