<svg width="1574" height="254" viewBox="0 0 1574 254" fill="none" xmlns="http://www.w3.org/2000/svg">
<path d="M585.663 148.627V145.172H609.679L634.827 206.174L659.466 145.172H680.536V148.627L679.46 148.74C674.891 149.042 672.172 149.684 671.304 150.666C670.473 151.648 670.057 154.706 670.057 159.842V214.33C670.057 219.428 670.473 222.486 671.304 223.506C672.172 224.488 674.891 225.13 679.46 225.432L680.536 225.488V229H648.591V225.488L649.61 225.432C654.179 225.13 656.879 224.488 657.71 223.506C658.541 222.486 658.956 219.428 658.956 214.33V156.727L632.561 222.316H628.427L602.372 155.82V214.33C602.372 219.428 602.787 222.486 603.618 223.506C604.487 224.488 607.205 225.13 611.774 225.432L612.85 225.488V229H585.663V225.488L586.739 225.432C591.308 225.13 594.008 224.488 594.839 223.506C595.707 222.486 596.141 219.428 596.141 214.33V159.842C596.141 154.706 595.726 151.648 594.895 150.666C594.065 149.684 591.346 149.042 586.739 148.74L585.663 148.627ZM728.755 225.488V229H695.904V225.488L696.98 225.432C701.549 225.13 704.249 224.488 705.08 223.506C705.948 222.486 706.382 219.428 706.382 214.33V159.842C706.382 154.706 705.948 151.648 705.08 150.666C704.249 149.684 701.549 149.042 696.98 148.74L695.904 148.627V145.172H728.755V148.627L727.679 148.74C723.072 149.042 720.354 149.684 719.523 150.666C718.692 151.648 718.277 154.706 718.277 159.842V214.33C718.277 219.428 718.692 222.486 719.523 223.506C720.354 224.488 723.072 225.13 727.679 225.432L728.755 225.488Z" fill="white"/>
<path d="M748.088 229V224.469L793.061 149.703H767.572C762.588 149.703 759.51 149.949 758.34 150.439C757.169 150.893 756.584 152.12 756.584 154.121C756.584 155.594 756.527 157.727 756.414 160.521L756.301 161.938H750.014V145.172H806.428V148.967L761.625 223.732H787C794.023 223.732 797.951 223.43 798.781 222.826C799.65 222.222 800.197 219.277 800.424 213.99L800.48 212.914H806.824V229H748.088ZM888.348 229H827.913V225.488L828.989 225.432C833.558 225.13 836.258 224.488 837.088 223.506C837.957 222.486 838.391 219.428 838.391 214.33V159.842C838.391 154.706 837.957 151.648 837.088 150.666C836.258 149.684 833.558 149.042 828.989 148.74L827.913 148.627V145.172H885.233V159.842H878.946L878.833 158.766C878.53 153.555 878.134 150.742 877.643 150.326C877.19 149.911 874.169 149.703 868.581 149.703H850.286V183.234L865.635 183.178C869.034 183.178 871.111 183.008 871.866 182.668C872.659 182.29 873.131 180.497 873.282 177.287L873.338 176.268H877.87V194.732H873.338L873.282 193.713C873.131 190.843 872.659 189.144 871.866 188.615C871.111 188.049 869.034 187.766 865.635 187.766H850.286V214.33C850.286 218.71 850.795 221.448 851.815 222.543C852.872 223.6 855.572 224.129 859.915 224.129H868.864C875.51 224.129 879.286 223.808 880.192 223.166C881.136 222.486 881.74 219.654 882.004 214.67L882.061 213.65H888.348V229ZM904.056 229V225.488L905.132 225.432C909.701 225.13 912.401 224.488 913.232 223.506C914.1 222.486 914.534 219.428 914.534 214.33V159.842C914.534 154.706 914.1 151.648 913.232 150.666C912.401 149.684 909.701 149.042 905.132 148.74L904.056 148.627V145.172H930.903L939.683 144.945L943.761 144.889C956.901 144.889 966.984 148.363 974.007 155.311C980.993 162.258 984.485 172.246 984.485 185.273C984.485 198.754 980.879 209.421 973.667 217.275C966.455 225.092 956.637 229 944.214 229H904.056ZM926.429 148.967V214.33C926.429 219.428 926.939 222.335 927.958 223.053C929.997 224.45 933.962 225.148 939.853 225.148C950.539 225.148 958.544 221.958 963.868 215.576C969.23 209.157 971.911 199.547 971.911 186.746C971.911 173.417 969.041 163.788 963.302 157.859C957.562 151.931 948.254 148.967 935.378 148.967H926.429Z" fill="#F1BFC1"/>
<path d="M742.108 148.944C742.108 149.304 740.56 150.456 737.968 150.456L737.032 150.456L737.032 138.504L737.716 137.676L742.612 139.44L742.108 139.44L742.108 148.944ZM754.744 139.44L754.744 140.448L739.192 140.448L739.192 139.44L754.744 139.44ZM752.98 126.192L752.98 127.2L741.64 127.2L742.252 126.192L752.98 126.192ZM751.108 139.44L753.304 137.136L757.768 140.448C757.588 140.664 757.264 140.916 756.652 141.06L756.652 148.908C756.616 149.16 754.024 150.06 752.368 150.06L751.432 150.06L751.432 139.44L751.108 139.44ZM754.348 146.604L754.348 147.612L739.12 147.612L739.12 146.604L754.348 146.604ZM749.848 126.192L753.088 123.348L757.876 127.956C757.516 128.316 757.084 128.46 756.112 128.568C751 134.76 740.884 139.512 729.868 141.24L729.688 140.916C739.444 137.82 747.4 131.952 750.352 126.192L749.848 126.192ZM747.328 124.572C747.148 125.004 746.644 125.328 745.78 125.22C741.928 130.404 736.96 133.212 731.848 134.94L731.56 134.58C735.016 131.88 738.76 127.128 740.848 121.836L747.328 124.572ZM740.596 126.804C744.592 133.176 754.528 135.336 763.744 135.912L763.708 136.38C761.512 136.956 760.216 138.684 759.712 141.168C750.64 139.224 743.62 135.516 740.2 127.092L740.596 126.804ZM742.72 116.4C753.592 115.068 749.56 123.996 744.844 121.044C744.7 119.316 743.692 117.552 742.504 116.58L742.72 116.4ZM756.904 121.26L759.352 118.776L763.636 122.808C763.348 123.132 762.988 123.24 762.232 123.276C760.9 124.392 758.668 125.832 756.904 126.624L756.652 126.408C756.94 124.932 757.228 122.628 757.3 121.26L756.904 121.26ZM735.088 119.064C736.888 123.384 735.916 126.48 734.116 127.632C732.82 128.424 730.876 127.992 730.336 126.408C729.868 124.896 730.768 123.744 732.028 123.132C733.216 122.52 734.692 120.828 734.656 119.064L735.088 119.064ZM759.136 121.26L759.136 122.268L734.296 122.268L734.296 121.26L759.136 121.26ZM784.12 139.296L784.12 142.212L779.044 142.212L779.044 140.772L784.12 139.296ZM777.712 145.38C779.872 145.092 784.84 144.192 789.88 143.22L789.952 143.58C788.152 144.948 784.624 147.36 780.16 149.844L777.712 145.38ZM782.86 141.096L784.12 141.852L784.12 145.488L779.692 147.072L781.852 145.524C782.248 148.512 780.952 150.024 779.8 150.528L777.46 145.38C778.828 144.66 779.044 144.264 779.044 143.544L779.044 141.096L782.86 141.096ZM802.12 140.376C801.976 140.736 801.652 140.952 800.824 140.88C798.7 141.744 794.848 142.428 791.932 142.5L791.644 142.14C793.516 140.952 795.748 138.9 796.756 137.604L802.12 140.376ZM788.476 136.848C790.924 142.608 797.332 144.228 804.1 144.876L804.1 145.272C802.084 145.884 800.788 147.576 800.248 150.06C793.876 147.936 789.916 144.876 788.08 137.064L788.476 136.848ZM789.7 137.424C785.776 141.492 778.54 143.904 770.044 145.056L769.864 144.624C775.552 142.896 780.232 139.872 782.788 136.848L789.7 136.848L789.7 137.424ZM784.336 133.86C792.76 131.088 791.428 138.72 787.324 137.352C786.748 136.092 785.308 134.724 784.12 134.112L784.336 133.86ZM799.492 133.464C799.492 133.464 802.336 135.552 804.1 137.028C803.992 137.424 803.596 137.604 803.056 137.604L770.764 137.604L770.476 136.596L796.972 136.596L799.492 133.464ZM785.308 127.164L787.144 125.076L791.284 128.136C791.068 128.424 790.564 128.748 789.808 128.892L789.808 129.9C789.808 131.844 789.304 132.852 785.488 133.14C785.488 132.348 785.452 131.772 785.236 131.412C785.056 131.124 784.84 130.8 783.904 130.62L783.904 130.152C783.904 130.152 784.696 130.224 785.2 130.224C785.596 130.224 785.668 130.008 785.668 129.684L785.668 127.164L785.308 127.164ZM778.936 117.948C778.792 118.416 778.36 118.704 777.568 118.704C776.308 120.9 774.652 122.808 772.816 123.996L772.312 123.744C772.924 121.836 773.428 118.992 773.644 116.4L778.936 117.948ZM785.92 117.732C785.92 117.732 788.152 119.388 789.592 120.648C789.484 121.044 789.124 121.224 788.62 121.224L773.824 121.224L774.076 120.216L783.904 120.216L785.92 117.732ZM777.064 132.708C777.064 133.032 775.192 133.896 773.572 133.896L772.996 133.896L772.996 125.508L777.28 127.164L788.116 127.164L788.116 128.172L777.064 128.172L777.064 132.708ZM802.876 117.156C802.804 117.696 802.444 117.984 801.652 118.092L801.652 130.188C801.652 133.14 801.004 134.58 796.18 134.94C796.108 133.716 796.036 132.78 795.568 132.168C795.172 131.664 794.632 131.196 793.12 130.908L793.12 130.476C793.12 130.476 795.82 130.656 796.396 130.656C796.828 130.656 796.972 130.512 796.972 130.152L796.972 116.652L802.876 117.156ZM787.504 121.08C787.504 121.08 789.88 122.916 791.284 124.176C791.176 124.572 790.816 124.752 790.312 124.752L771.34 124.752L771.052 123.744L785.452 123.744L787.504 121.08ZM784.48 116.724C784.444 117.192 784.192 117.516 783.328 117.624L783.328 134.652C783.328 135.012 781.384 135.84 779.728 135.84L778.9 135.84L778.9 116.22L784.48 116.724ZM796.828 117.912C796.756 118.38 796.504 118.704 795.64 118.848L795.64 128.964C795.64 129.252 793.732 129.936 792.112 129.936L791.32 129.936L791.32 117.444L796.828 117.912ZM824.764 118.308C824.62 118.776 824.152 119.1 823.288 119.064C820.264 127.092 816.088 132.636 810.508 136.488L810.148 136.2C813.172 131.34 816.196 123.636 817.528 116.184L824.764 118.308ZM821.668 127.236C821.56 127.596 821.236 127.812 820.552 127.956L820.552 148.98C820.48 149.34 818.356 150.42 816.34 150.42L815.368 150.42L815.368 128.136L817.276 125.616L821.668 127.236ZM839.2 126.264C839.2 126.264 842.224 128.82 843.916 130.512C843.808 130.908 843.412 131.088 842.872 131.088L828.328 131.088L828.04 130.08L836.536 130.08L839.2 126.264ZM832.54 117.552C832.468 118.02 832.144 118.416 831.244 118.56L831.244 142.968C831.244 143.94 831.712 144.228 832.972 144.228L836.284 144.228C837.292 144.228 838.192 144.192 838.768 144.156C839.272 144.12 839.704 144.012 840.064 143.616C840.604 142.896 841.396 141.06 842.188 138.792L842.548 138.792L842.692 143.796C844.168 144.444 844.636 145.056 844.636 145.956C844.636 148.26 842.62 149.16 835.744 149.16L832.036 149.16C827.644 149.16 826.06 148.296 826.06 144.408L826.06 116.868L832.54 117.552Z" fill="#6B3B20"/>
<path d="M643.153 95.5254C635.563 99.9056 626.727 102.096 616.645 102.096C603.769 102.096 593.612 98.1497 586.173 90.2578C578.772 82.3659 575.071 71.5853 575.071 57.916C575.071 44.0579 578.64 33.2962 585.776 25.6309C592.913 17.9277 602.919 14.0762 615.796 14.0762C622.366 14.0762 630.994 15.4733 641.681 18.2676V34.2969H634.714L634.657 33.1641C634.619 32.0312 634.582 30.9173 634.544 29.8223C634.544 26.1217 632.826 23.2142 629.39 21.0996C625.953 18.9473 621.271 17.8711 615.343 17.8711C606.847 17.8711 600.069 21.4961 595.009 28.7461C589.949 35.9961 587.419 45.6816 587.419 57.8027C587.419 69.9616 590.383 79.4583 596.311 86.293C602.24 93.0898 610.49 96.4883 621.063 96.4883C627.974 96.4883 635.337 94.3548 643.153 90.0879V95.5254ZM661.126 19.627V16.1719H694.148V19.627L693.128 19.7402C688.484 20.0423 685.746 20.6842 684.915 21.666C684.085 22.61 683.669 25.6686 683.669 30.8418V66.6953C683.669 75.3802 683.896 81.0443 684.349 83.6875C684.802 86.3307 685.935 88.8418 687.747 91.2207C691.41 95.9785 696.886 98.3574 704.173 98.3574C711.008 98.3574 716.483 96.2806 720.599 92.127C722.902 89.7858 724.394 87.1992 725.074 84.3672C725.791 81.5352 726.15 76.4753 726.15 69.1875V30.8418C726.15 25.7064 725.716 22.6478 724.847 21.666C724.016 20.6842 721.298 20.0423 716.691 19.7402L715.671 19.627V16.1719H742.519V19.627L741.443 19.7402C736.798 20.0423 734.061 20.6842 733.23 21.666C732.437 22.61 732.04 25.6686 732.04 30.8418V65.959C732.04 73.7376 731.606 79.4395 730.738 83.0645C729.869 86.6895 728.132 90.069 725.527 93.2031C720.618 99.1315 713.028 102.096 702.757 102.096C681.989 102.096 671.605 90.9375 671.605 68.6211V30.8418C671.605 25.7064 671.171 22.6478 670.302 21.666C669.471 20.6842 666.772 20.0423 662.203 19.7402L661.126 19.627ZM760.775 98.3008V82.1582H766.723L766.779 83.1777C766.893 85.0658 766.949 86.4818 766.949 87.4258C766.949 90.4089 768.176 92.6556 770.631 94.166C774.633 96.6582 779.051 97.9043 783.885 97.9043C788.907 97.9043 792.834 96.4883 795.666 93.6562C798.498 90.7865 799.914 86.8405 799.914 81.8184C799.914 77.5892 799.008 74.2285 797.195 71.7363C795.383 69.2441 791.852 66.5254 786.604 63.5801L780.656 60.1816C767.818 52.9316 761.398 45.0208 761.398 36.4492C761.398 29.9922 763.702 24.6491 768.309 20.4199C772.953 16.1908 778.768 14.0762 785.754 14.0762C788.775 14.0762 792.041 14.3783 795.553 14.9824C799.102 15.5488 802.897 16.4362 806.938 17.6445V32.541H800.65L800.594 31.5781C800.443 29.5391 800.367 28.0475 800.367 27.1035C800.367 23.9316 799.234 21.6094 796.969 20.1367C794.703 18.6263 791.154 17.8711 786.32 17.8711C782.28 17.8711 778.995 19.2116 776.465 21.8926C773.973 24.5358 772.727 28.0286 772.727 32.3711C772.727 36.0716 773.595 39.1302 775.332 41.5469C777.069 43.9635 780.203 46.4557 784.734 49.0234L790.682 52.4219C798.913 57.1042 804.464 61.1823 807.334 64.6562C810.204 68.1302 811.639 72.4915 811.639 77.7402C811.639 84.7259 809.033 90.541 803.822 95.1855C798.649 99.7923 792.173 102.096 784.395 102.096C779.863 102.096 775.615 101.775 771.65 101.133C767.723 100.491 764.098 99.5469 760.775 98.3008ZM859.801 20.7031H846.434C843.3 20.7031 840.562 20.873 838.221 21.2129C836.673 21.4395 835.899 22.8366 835.899 25.4043C835.899 27.3301 835.861 28.9915 835.786 30.3887L835.729 31.5215H829.782V16.1719H901.772V31.5215H895.825L895.768 30.3887C895.655 28.9915 895.598 27.3301 895.598 25.4043C895.598 22.8366 894.843 21.4395 893.333 21.2129C890.954 20.873 888.216 20.7031 885.12 20.7031H871.696V85.3301C871.696 90.3522 872.149 93.4108 873.055 94.5059C873.961 95.5632 876.661 96.2051 881.155 96.4316L883.59 96.4883V100H847.963V96.4883L850.399 96.4316C854.892 96.2051 857.573 95.5632 858.442 94.5059C859.348 93.4108 859.801 90.3522 859.801 85.3301V20.7031ZM959.79 102.096C947.669 102.096 938.116 98.1686 931.13 90.3145C924.144 82.4603 920.651 71.7174 920.651 58.0859C920.651 44.4544 924.144 33.7116 931.13 25.8574C938.116 18.0033 947.669 14.0762 959.79 14.0762C971.911 14.0762 981.465 18.0033 988.45 25.8574C995.436 33.7116 998.929 44.4544 998.929 58.0859C998.929 71.7174 995.436 82.4603 988.45 90.3145C981.465 98.1686 971.911 102.096 959.79 102.096ZM959.79 98.2441C968.097 98.2441 974.592 94.6947 979.275 87.5957C983.995 80.4967 986.355 70.6602 986.355 58.0859C986.355 45.5117 983.995 35.6751 979.275 28.5762C974.592 21.4395 968.097 17.8711 959.79 17.8711C951.483 17.8711 944.969 21.4395 940.249 28.5762C935.567 35.6751 933.226 45.5117 933.226 58.0859C933.226 70.6602 935.567 80.4967 940.249 87.5957C944.969 94.6947 951.483 98.2441 959.79 98.2441Z" fill="#F2EADE"/>
</svg>
