<svg width="41" height="40" viewBox="0 0 41 40" fill="none" xmlns="http://www.w3.org/2000/svg">
<path d="M20.5 4.0625C17.3479 4.0625 14.2665 4.99722 11.6456 6.74845C9.0247 8.49969 6.98195 10.9888 5.77568 13.901C4.56941 16.8132 4.25379 20.0177 4.86874 23.1093C5.48369 26.2008 7.00159 29.0406 9.23049 31.2695C11.4594 33.4984 14.2992 35.0163 17.3908 35.6313C20.4823 36.2462 23.6868 35.9306 26.599 34.7243C29.5112 33.5181 32.0003 31.4753 33.7516 28.8544C35.5028 26.2335 36.4375 23.1521 36.4375 20C36.4325 15.7746 34.7518 11.7238 31.764 8.73597C28.7763 5.74818 24.7254 4.06746 20.5 4.0625ZM21.4375 34.0312V23.4375H25.5C25.7486 23.4375 25.9871 23.3387 26.1629 23.1629C26.3387 22.9871 26.4375 22.7486 26.4375 22.5C26.4375 22.2514 26.3387 22.0129 26.1629 21.8371C25.9871 21.6613 25.7486 21.5625 25.5 21.5625H21.4375V17.5C21.4375 16.7541 21.7338 16.0387 22.2613 15.5113C22.7887 14.9838 23.5041 14.6875 24.25 14.6875H26.75C26.9986 14.6875 27.2371 14.5887 27.4129 14.4129C27.5887 14.2371 27.6875 13.9986 27.6875 13.75C27.6875 13.5014 27.5887 13.2629 27.4129 13.0871C27.2371 12.9113 26.9986 12.8125 26.75 12.8125H24.25C23.0068 12.8125 21.8145 13.3064 20.9354 14.1854C20.0564 15.0645 19.5625 16.2568 19.5625 17.5V21.5625H15.5C15.2514 21.5625 15.0129 21.6613 14.8371 21.8371C14.6613 22.0129 14.5625 22.2514 14.5625 22.5C14.5625 22.7486 14.6613 22.9871 14.8371 23.1629C15.0129 23.3387 15.2514 23.4375 15.5 23.4375H19.5625V34.0312C15.9222 33.788 12.519 32.1395 10.0714 29.4339C7.62387 26.7283 6.32365 23.1774 6.44533 19.531C6.56701 15.8847 8.10107 12.4283 10.7235 9.89189C13.346 7.35546 16.8516 5.93753 20.5 5.93753C24.1484 5.93753 27.654 7.35546 30.2765 9.89189C32.8989 12.4283 34.433 15.8847 34.5547 19.531C34.6764 23.1774 33.3761 26.7283 30.9286 29.4339C28.4811 32.1395 25.0778 33.788 21.4375 34.0312Z" fill="#3F1A09"/>
</svg>
