<svg width="41" height="40" viewBox="0 0 41 40" fill="none" xmlns="http://www.w3.org/2000/svg">
<path d="M20.5 12.8125C19.0784 12.8125 17.6888 13.234 16.5068 14.0238C15.3249 14.8136 14.4036 15.9361 13.8596 17.2495C13.3156 18.5628 13.1733 20.008 13.4506 21.4022C13.7279 22.7964 14.4125 24.0771 15.4177 25.0823C16.4229 26.0875 17.7036 26.7721 19.0978 27.0494C20.492 27.3267 21.9372 27.1844 23.2505 26.6404C24.5639 26.0964 25.6864 25.1751 26.4762 23.9932C27.266 22.8112 27.6875 21.4216 27.6875 20C27.685 18.0945 26.927 16.2678 25.5796 14.9204C24.2322 13.573 22.4055 12.815 20.5 12.8125ZM20.5 25.3125C19.4493 25.3125 18.4222 25.0009 17.5485 24.4172C16.6749 23.8334 15.994 23.0037 15.5919 22.033C15.1898 21.0623 15.0846 19.9941 15.2896 18.9636C15.4946 17.9331 16.0005 16.9865 16.7435 16.2435C17.4865 15.5005 18.4331 14.9946 19.4636 14.7896C20.4941 14.5846 21.5623 14.6898 22.533 15.0919C23.5037 15.494 24.3334 16.1749 24.9172 17.0485C25.5009 17.9222 25.8125 18.9493 25.8125 20C25.8125 21.409 25.2528 22.7602 24.2565 23.7565C23.2602 24.7528 21.909 25.3125 20.5 25.3125ZM28 4.0625H13C10.763 4.06498 8.61833 4.95473 7.03653 6.53653C5.45473 8.11833 4.56498 10.263 4.5625 12.5V27.5C4.56498 29.737 5.45473 31.8817 7.03653 33.4635C8.61833 35.0453 10.763 35.935 13 35.9375H28C30.237 35.935 32.3817 35.0453 33.9635 33.4635C35.5453 31.8817 36.435 29.737 36.4375 27.5V12.5C36.435 10.263 35.5453 8.11833 33.9635 6.53653C32.3817 4.95473 30.237 4.06498 28 4.0625ZM34.5625 27.5C34.5625 29.2405 33.8711 30.9097 32.6404 32.1404C31.4097 33.3711 29.7405 34.0625 28 34.0625H13C11.2595 34.0625 9.59032 33.3711 8.35961 32.1404C7.1289 30.9097 6.4375 29.2405 6.4375 27.5V12.5C6.4375 10.7595 7.1289 9.09032 8.35961 7.85961C9.59032 6.6289 11.2595 5.9375 13 5.9375H28C29.7405 5.9375 31.4097 6.6289 32.6404 7.85961C33.8711 9.09032 34.5625 10.7595 34.5625 12.5V27.5ZM30.1875 11.875C30.1875 12.184 30.0959 12.4861 29.9242 12.7431C29.7525 13 29.5085 13.2003 29.2229 13.3186C28.9374 13.4368 28.6233 13.4678 28.3202 13.4075C28.0171 13.3472 27.7387 13.1984 27.5201 12.9799C27.3016 12.7613 27.1528 12.4829 27.0925 12.1798C27.0322 11.8767 27.0632 11.5626 27.1814 11.2771C27.2997 10.9915 27.5 10.7475 27.7569 10.5758C28.0139 10.4041 28.316 10.3125 28.625 10.3125C29.0394 10.3125 29.4368 10.4771 29.7299 10.7701C30.0229 11.0632 30.1875 11.4606 30.1875 11.875Z" fill="#3F1A09"/>
</svg>
