<svg width="472" height="273" viewBox="0 0 472 273" fill="none" xmlns="http://www.w3.org/2000/svg">
<path d="M67.7098 149.703H54.3427L48.5087 149.986C46.5074 149.986 45.2235 150.251 44.6571 150.779C44.0907 151.308 43.8075 152.516 43.8075 154.404C43.8075 156.33 43.7697 157.992 43.6942 159.389L43.6376 160.521H37.6903V145.172H109.681V160.521H103.733L103.677 159.389C103.563 157.992 103.507 156.33 103.507 154.404C103.507 152.516 103.224 151.308 102.657 150.779C102.128 150.251 100.863 149.986 98.8622 149.986L93.0282 149.703H79.6044V214.33L79.9442 219.938C80.0953 222.09 80.454 223.468 81.0204 224.072C81.6246 224.639 83.0217 224.997 85.2118 225.148L89.0634 225.432L91.4989 225.488V229H55.8719V225.488L58.3075 225.432L62.1591 225.148C64.3114 224.997 65.6897 224.639 66.2938 224.072C66.898 223.468 67.2567 222.09 67.37 219.938L67.7098 214.33V149.703ZM143.796 203.172L138.982 214.33L136.49 221.354C136.263 222.033 136.15 222.618 136.15 223.109C136.15 224.658 137.604 225.432 140.511 225.432L143.456 225.488H144.363V229H122.613V225.488L123.802 225.432L126.521 225.318C128.636 225.205 130.372 223.525 131.732 220.277L134.337 214.33L163.847 144.096H167.812L197.208 214.727L200.097 220.561C201.117 222.751 201.985 224.072 202.703 224.525C203.42 224.979 205.063 225.281 207.63 225.432L208.933 225.488V229H177.837V225.488H178.857L182.312 225.432C185.257 225.432 186.73 224.714 186.73 223.279C186.73 221.014 185.956 218.031 184.408 214.33L179.706 203.172H143.796ZM145.665 198.584H177.667L161.751 160.408L145.665 198.584ZM226.113 227.301V211.158H232.061L232.117 212.178C232.23 214.066 232.287 215.482 232.287 216.426C232.287 219.522 233.873 222.052 237.045 224.016C240.217 225.941 244.314 226.904 249.336 226.904C259.947 226.904 265.252 221.523 265.252 210.762C265.252 206.57 264.346 203.229 262.533 200.736C260.721 198.244 257.19 195.525 251.941 192.58L245.994 189.182C233.156 181.932 226.736 174.021 226.736 165.449C226.736 158.992 229.04 153.649 233.646 149.42C238.291 145.191 244.106 143.076 251.092 143.076C257.096 143.076 264.157 144.266 272.275 146.645V161.541H265.988L265.932 160.578C265.781 158.539 265.705 157.048 265.705 156.104C265.705 152.932 264.572 150.609 262.307 149.137C260.079 147.626 256.529 146.871 251.658 146.871C247.58 146.871 244.295 148.212 241.803 150.893C239.348 153.536 238.121 157.029 238.121 161.371C238.121 165.072 238.971 168.13 240.67 170.547C242.407 172.964 245.541 175.456 250.072 178.023L256.02 181.422C264.251 186.104 269.802 190.182 272.672 193.656C275.542 197.13 276.977 201.51 276.977 206.797C276.977 213.745 274.39 219.541 269.217 224.186C264.044 228.792 257.568 231.096 249.789 231.096C240.651 231.096 232.759 229.831 226.113 227.301ZM325.139 149.703H311.772L305.938 149.986C303.937 149.986 302.653 150.251 302.086 150.779C301.52 151.308 301.237 152.516 301.237 154.404C301.237 156.33 301.199 157.992 301.124 159.389L301.067 160.521H295.12V145.172H367.11V160.521H361.163L361.106 159.389C360.993 157.992 360.936 156.33 360.936 154.404C360.936 152.516 360.653 151.308 360.086 150.779C359.558 150.251 358.293 149.986 356.292 149.986L350.458 149.703H337.034V214.33L337.374 219.938C337.525 222.09 337.883 223.468 338.45 224.072C339.054 224.639 340.451 224.997 342.641 225.148L346.493 225.432L348.928 225.488V229H313.301V225.488L315.737 225.432L319.588 225.148C321.741 224.997 323.119 224.639 323.723 224.072C324.327 223.468 324.686 222.09 324.799 219.938L325.139 214.33V149.703ZM442.913 229H382.478V225.488L383.554 225.432L387.349 225.148C389.539 224.997 390.917 224.639 391.484 224.072C392.088 223.468 392.465 222.09 392.616 219.938L392.956 214.33V159.842L392.616 154.234C392.465 152.082 392.088 150.704 391.484 150.1C390.917 149.495 389.539 149.118 387.349 148.967L383.554 148.74L382.478 148.627V145.172H439.798V159.842H433.511L433.398 158.766L433.114 154.008C433.114 152.195 432.869 151.044 432.378 150.553C431.925 150.024 430.792 149.76 428.98 149.76L423.146 149.703H404.851V183.234L420.2 183.178L423.769 183.064C425.43 183.064 426.469 182.895 426.884 182.555C427.337 182.177 427.601 181.29 427.677 179.893C427.715 179.326 427.771 178.458 427.847 177.287L427.903 176.268H432.435V194.732H427.903L427.847 193.713C427.658 190.843 427.205 189.144 426.487 188.615C425.808 188.049 423.712 187.766 420.2 187.766H404.851V214.33C404.851 218.71 405.36 221.448 406.38 222.543C407.437 223.6 410.137 224.129 414.48 224.129H423.429L431.415 223.789C434.549 223.789 436.211 222.467 436.4 219.824L436.569 214.67L436.626 213.65H442.913V229Z" fill="white"/>
<path d="M58.7098 32.7031H45.3427C42.2085 32.7031 39.4709 32.873 37.1298 33.2129C35.5816 33.4395 34.8075 34.8366 34.8075 37.4043C34.8075 39.3301 34.7697 40.9915 34.6942 42.3887L34.6376 43.5215H28.6903V28.1719H100.681V43.5215H94.7333L94.6766 42.3887C94.5634 40.9915 94.5067 39.3301 94.5067 37.4043C94.5067 34.8366 93.7515 33.4395 92.2411 33.2129C89.8622 32.873 87.1246 32.7031 84.0282 32.7031H70.6044V97.3301C70.6044 102.352 71.0575 105.411 71.9637 106.506C72.87 107.563 75.5699 108.205 80.0634 108.432L82.4989 108.488V112H46.8719V108.488L49.3075 108.432C53.801 108.205 56.482 107.563 57.3505 106.506C58.2567 105.411 58.7098 102.352 58.7098 97.3301V32.7031ZM134.796 86.1719L129.982 97.3301C128.094 101.71 127.15 104.637 127.15 106.109C127.15 107.695 129.585 108.488 134.456 108.488H135.363V112H113.613V108.488L114.802 108.432C118.05 108.281 119.975 107.884 120.58 107.242C121.221 106.562 122.807 103.258 125.337 97.3301L154.847 27.0957H158.812L188.208 97.7266C190.512 102.786 192.136 105.807 193.08 106.789C194.024 107.733 195.874 108.281 198.63 108.432L199.933 108.488V112H168.837V108.488H169.857C175.143 108.488 177.787 107.733 177.787 106.223C177.787 103.995 176.994 101.031 175.408 97.3301L170.706 86.1719H134.796ZM136.665 81.584H168.667L152.751 43.4082L136.665 81.584ZM433.913 112H373.478V108.488L374.554 108.432C379.123 108.13 381.823 107.488 382.653 106.506C383.522 105.486 383.956 102.428 383.956 97.3301V42.8418C383.956 37.7064 383.522 34.6478 382.653 33.666C381.823 32.6842 379.123 32.0423 374.554 31.7402L373.478 31.627V28.1719H430.798V42.8418H424.511L424.398 41.7656C424.095 36.5547 423.699 33.7415 423.208 33.3262C422.755 32.9108 419.734 32.7031 414.146 32.7031H395.851V66.2344L411.2 66.1777C414.599 66.1777 416.676 66.0078 417.431 65.668C418.224 65.2904 418.696 63.4967 418.847 60.2871L418.903 59.2676H423.435V77.7324H418.903L418.847 76.7129C418.696 73.8431 418.224 72.1439 417.431 71.6152C416.676 71.0488 414.599 70.7656 411.2 70.7656H395.851V97.3301C395.851 101.71 396.36 104.448 397.38 105.543C398.437 106.6 401.137 107.129 405.48 107.129H414.429C421.075 107.129 424.851 106.808 425.757 106.166C426.701 105.486 427.305 102.654 427.569 97.6699L427.626 96.6504H433.913V112Z" fill="white"/>
<path d="M217.113 110.301V94.1582H223.061L223.117 95.1777C223.23 97.0658 223.287 98.4818 223.287 99.4258C223.287 102.409 224.514 104.656 226.969 106.166C230.971 108.658 235.389 109.904 240.223 109.904C245.245 109.904 249.172 108.488 252.004 105.656C254.836 102.786 256.252 98.8405 256.252 93.8184C256.252 89.5892 255.346 86.2285 253.533 83.7363C251.721 81.2441 248.19 78.5254 242.941 75.5801L236.994 72.1816C224.156 64.9316 217.736 57.0208 217.736 48.4492C217.736 41.9922 220.04 36.6491 224.646 32.4199C229.291 28.1908 235.106 26.0762 242.092 26.0762C245.113 26.0762 248.379 26.3783 251.891 26.9824C255.44 27.5488 259.235 28.4362 263.275 29.6445V44.541H256.988L256.932 43.5781C256.781 41.5391 256.705 40.0475 256.705 39.1035C256.705 35.9316 255.572 33.6094 253.307 32.1367C251.041 30.6263 247.492 29.8711 242.658 29.8711C238.618 29.8711 235.333 31.2116 232.803 33.8926C230.311 36.5358 229.064 40.0286 229.064 44.3711C229.064 48.0716 229.933 51.1302 231.67 53.5469C233.407 55.9635 236.541 58.4557 241.072 61.0234L247.02 64.4219C255.251 69.1042 260.802 73.1823 263.672 76.6562C266.542 80.1302 267.977 84.4915 267.977 89.7402C267.977 96.7259 265.371 102.541 260.16 107.186C254.987 111.792 248.511 114.096 240.732 114.096C236.201 114.096 231.953 113.775 227.988 113.133C224.061 112.491 220.436 111.547 217.113 110.301ZM316.139 32.7031H302.772C299.638 32.7031 296.9 32.873 294.559 33.2129C293.011 33.4395 292.237 34.8366 292.237 37.4043C292.237 39.3301 292.199 40.9915 292.124 42.3887L292.067 43.5215H286.12V28.1719H358.11V43.5215H352.163L352.106 42.3887C351.993 40.9915 351.936 39.3301 351.936 37.4043C351.936 34.8366 351.181 33.4395 349.67 33.2129C347.292 32.873 344.554 32.7031 341.458 32.7031H328.034V97.3301C328.034 102.352 328.487 105.411 329.393 106.506C330.299 107.563 332.999 108.205 337.493 108.432L339.928 108.488V112H304.301V108.488L306.737 108.432C311.23 108.205 313.911 107.563 314.78 106.506C315.686 105.411 316.139 102.352 316.139 97.3301V32.7031Z" fill="#F1BFC1"/>
</svg>
