<svg width="91" height="91" viewBox="0 0 91 91" fill="none" xmlns="http://www.w3.org/2000/svg">
<path d="M81.6961 60.8961C80.6295 61.9623 79.1832 62.5613 77.675 62.5613C76.1669 62.5613 74.7205 61.9623 73.654 60.8961L45.5009 32.7429L17.3477 60.8961C16.2751 61.9321 14.8384 62.5054 13.3471 62.4924C11.8559 62.4794 10.4294 61.8813 9.37488 60.8268C8.32037 59.7723 7.72223 58.3458 7.70927 56.8545C7.69631 55.3633 8.26958 53.9266 9.30561 52.8539L41.4798 20.6797C42.5464 19.6135 43.9927 19.0145 45.5009 19.0145C47.009 19.0145 48.4554 19.6135 49.5219 20.6797L81.6961 52.8539C82.7623 53.9205 83.3613 55.3669 83.3613 56.875C83.3613 58.3831 82.7623 59.8295 81.6961 60.8961Z" fill="#F1BFC1"/>
</svg>
