<svg width="102" height="117" viewBox="0 0 102 117" fill="none" xmlns="http://www.w3.org/2000/svg">
<circle cx="51" cy="48.511" r="40.511" fill="#664131"/>
<path d="M18.258 95.72V99.644H27.978V95.72H18.258ZM16.98 94.586H29.328V100.796H16.98V94.586ZM19.266 96.512L20.166 96.188C20.688 97.016 21.192 98.096 21.354 98.834L20.4 99.212C20.256 98.492 19.77 97.358 19.266 96.512ZM16.656 102.272H29.67V103.388H16.656V102.272ZM15.18 105.008H31.2V106.214H15.18V105.008ZM22.47 95.054H23.838V105.62H22.47V95.054ZM26.016 96.17L27.078 96.566C26.574 97.538 25.98 98.672 25.512 99.392L24.63 99.014C25.116 98.258 25.71 97.016 26.016 96.17ZM20.31 107.402L21.552 107.294C21.786 108.248 21.948 109.472 21.948 110.192L20.634 110.372C20.616 109.616 20.508 108.374 20.31 107.402ZM24 107.438L25.278 107.186C25.692 108.086 26.142 109.292 26.304 110.048L24.972 110.372C24.828 109.598 24.396 108.374 24 107.438ZM27.672 107.366L28.896 106.934C29.778 107.852 30.822 109.13 31.29 109.994L29.976 110.498C29.544 109.652 28.536 108.338 27.672 107.366ZM17.196 106.934L18.492 107.258C18.06 108.428 17.304 109.724 16.44 110.534L15.198 109.958C16.008 109.256 16.764 108.05 17.196 106.934ZM33.558 96.332H40.146V97.664H33.558V96.332ZM40.074 95H49.902V96.368H40.074V95ZM36.186 96.656H37.536V105.494H36.186V96.656ZM33.324 105.476C35.16 105.098 37.986 104.432 40.704 103.766L40.866 105.062C38.292 105.71 35.592 106.376 33.63 106.862L33.324 105.476ZM42.774 95.36H44.214C43.692 97.916 42.954 101.282 42.414 103.28L41.01 103.064C41.604 101.084 42.342 97.79 42.774 95.36ZM42.414 100.454H48.75V101.768H42.054L42.414 100.454ZM48.138 100.454H49.524C49.524 100.454 49.506 100.922 49.488 101.138C49.038 106.79 48.624 109.004 47.832 109.778C47.418 110.228 46.986 110.372 46.302 110.426C45.69 110.462 44.574 110.444 43.422 110.39C43.386 109.976 43.206 109.382 42.936 108.986C44.178 109.112 45.348 109.13 45.834 109.13C46.212 109.13 46.446 109.094 46.662 108.896C47.31 108.338 47.742 106.088 48.138 100.688V100.454ZM55.824 100.184V103.082H64.734V100.184H55.824ZM54.51 98.978H66.12V104.288H54.51V98.978ZM52.512 95.702H68.082V96.962H52.512V95.702ZM59.532 93.902H60.9V99.518H59.532V93.902ZM61.458 103.55H62.826V108.374C62.826 108.914 62.97 109.004 63.726 109.004C64.104 109.004 65.85 109.004 66.336 109.004C67.074 109.004 67.182 108.662 67.254 106.34C67.56 106.592 68.154 106.808 68.532 106.898C68.37 109.616 67.974 110.3 66.444 110.3C66.084 110.3 63.942 110.3 63.6 110.3C61.908 110.3 61.458 109.868 61.458 108.392V103.55ZM57.354 104.018H58.794C58.416 107.312 57.336 109.418 52.836 110.498C52.71 110.138 52.332 109.562 52.044 109.274C56.166 108.428 57.03 106.718 57.354 104.018ZM71.286 97.844H85.254V99.212H71.286V97.844ZM84.732 97.844H86.136C86.136 97.844 86.118 98.348 86.1 98.564C85.686 106.016 85.308 108.698 84.516 109.598C84.084 110.12 83.652 110.264 82.968 110.318C82.338 110.39 81.186 110.354 80.07 110.282C80.052 109.886 79.872 109.292 79.62 108.896C80.844 109.004 81.996 109.022 82.446 109.022C82.842 109.022 83.058 108.968 83.292 108.752C83.976 108.086 84.372 105.278 84.732 98.132V97.844ZM77.172 93.938H78.594V97.07C78.594 101.174 78.09 106.736 71.79 110.534C71.592 110.21 71.088 109.706 70.764 109.472C76.74 105.908 77.172 100.796 77.172 97.07V93.938Z" fill="#3F1A09"/>
</svg>
