<svg width="22" height="27" viewBox="0 0 22 27" fill="none" xmlns="http://www.w3.org/2000/svg">
<path d="M21.5169 22.6363V3.97069C21.518 3.23379 21.292 2.51165 20.865 1.88787C20.438 1.26409 19.8274 0.764157 19.104 0.445951C18.2456 0.0734545 17.2906 -0.0700158 16.3477 0.0318887C15.4049 0.133793 14.5122 0.476974 13.7714 1.02232L1.46539 10.3551C1.00542 10.7214 0.636512 11.1742 0.383681 11.6829C0.130849 12.1916 0 12.7443 0 13.3035C0 13.8627 0.130849 14.4154 0.383681 14.9241C0.636512 15.4328 1.00542 15.8856 1.46539 16.2518L13.7714 25.5846C14.5122 26.13 15.4049 26.4732 16.3477 26.5751C17.2906 26.677 18.2456 26.5335 19.104 26.161C19.8274 25.8428 20.438 25.3429 20.865 24.7191C21.292 24.0953 21.518 23.3732 21.5169 22.6363ZM16.691 4.43622V21.949L5.06067 13.3035L16.691 4.43622Z" fill="#F1BFC1"/>
</svg>
