<svg width="23" height="28" viewBox="0 0 23 28" fill="none" xmlns="http://www.w3.org/2000/svg">
<path d="M0.774132 23.4261V4.76048C0.77297 4.02358 0.998981 3.30145 1.42601 2.67766C1.85303 2.05388 2.46361 1.55395 3.18707 1.23575C4.04545 0.863249 5.00047 0.719779 5.94328 0.821684C6.8861 0.923588 7.7788 1.26677 8.51965 1.81212L20.8256 11.1449C21.2856 11.5112 21.6545 11.964 21.9073 12.4727C22.1602 12.9814 22.291 13.534 22.291 14.0933C22.291 14.6525 22.1602 15.2052 21.9073 15.7139C21.6545 16.2226 21.2856 16.6754 20.8256 17.0416L8.51965 26.3744C7.7788 26.9198 6.8861 27.2629 5.94328 27.3649C5.00047 27.4668 4.04545 27.3233 3.18707 26.9508C2.46361 26.6326 1.85303 26.1327 1.42601 25.5089C0.998981 24.8851 0.77297 24.1629 0.774132 23.4261ZM5.6 5.22601V22.7388L17.2303 14.0933L5.6 5.22601Z" fill="#F1BFC1"/>
</svg>
