<svg width="102" height="117" viewBox="0 0 102 117" fill="none" xmlns="http://www.w3.org/2000/svg">
<circle cx="51" cy="48.533" r="40.511" fill="#DAE7B1"/>
<path d="M48.714 102.33L49.722 103.14C48.804 104.058 47.652 105.048 46.752 105.696L45.924 104.994C46.788 104.328 48.03 103.158 48.714 102.33ZM40.416 103.23L41.352 102.492C42.126 103.158 43.062 104.13 43.458 104.814L42.486 105.624C42.108 104.94 41.208 103.932 40.416 103.23ZM42.396 95.3641H47.616V96.4261H42.396V95.3641ZM41.856 98.0101H47.238V99.0901H41.856V98.0101ZM39.912 100.404H49.812V101.592H39.912V100.404ZM44.232 100.818H45.456V109.116C45.456 109.782 45.348 110.124 44.88 110.304C44.43 110.52 43.71 110.52 42.648 110.52C42.594 110.178 42.432 109.71 42.27 109.35C43.026 109.386 43.728 109.386 43.944 109.368C44.16 109.368 44.232 109.314 44.232 109.098V100.818ZM39.372 108.396C40.398 107.838 41.946 106.83 43.458 105.858L43.872 106.884C42.576 107.82 41.208 108.792 40.056 109.584L39.372 108.396ZM45.366 100.926C45.816 103.662 47.022 107.046 50.208 108.54C49.938 108.792 49.542 109.314 49.362 109.656C46.23 107.928 45.042 104.382 44.592 101.88L45.366 100.926ZM42.27 93.9421L43.548 94.1041C43.134 95.9221 42.54 98.2441 42.09 99.6661L40.83 99.4861C41.28 98.0461 41.91 95.6881 42.27 93.9421ZM47.112 95.3641H47.238L47.472 95.2921L48.39 95.4361C48.138 97.0921 47.706 99.3421 47.292 101.034L46.05 100.872C46.446 99.1801 46.914 96.7681 47.112 95.5261V95.3641ZM36.258 93.9421L37.446 94.3921C36.762 95.7241 35.916 97.3441 35.214 98.3341L34.296 97.9381C34.944 96.8941 35.79 95.1301 36.258 93.9421ZM38.274 95.9941L39.408 96.5161C38.166 98.5141 36.42 101.07 35.07 102.636L34.242 102.168C35.592 100.566 37.284 97.8841 38.274 95.9941ZM33.378 97.6861L34.098 96.8221C35.07 97.7041 36.168 98.9101 36.636 99.7381L35.862 100.746C35.412 99.8821 34.332 98.6041 33.378 97.6861ZM37.572 100.116L38.544 99.7021C39.3 100.89 40.038 102.438 40.29 103.428L39.228 103.914C38.994 102.906 38.292 101.304 37.572 100.116ZM33.234 101.898C34.8 101.826 37.05 101.718 39.318 101.592V102.726C37.176 102.87 35.016 102.996 33.378 103.104L33.234 101.898ZM38.04 104.472L39.03 104.166C39.498 105.21 39.876 106.56 40.002 107.442L38.958 107.766C38.85 106.884 38.472 105.516 38.04 104.472ZM34.314 104.22L35.448 104.418C35.214 106.128 34.8 107.856 34.224 109.008C34.008 108.864 33.468 108.63 33.198 108.504C33.774 107.406 34.116 105.786 34.314 104.22ZM36.222 102.42H37.41V110.484H36.222V102.42ZM54.834 102.924H66.138V104.166H54.834V102.924ZM59.73 98.8921H61.08V103.554H59.73V98.8921ZM54.78 98.4061H67.056V104.958H65.688V99.6301H54.78V98.4061ZM54.096 98.4061H55.446V107.622C55.446 108.774 55.824 109.026 57.804 109.026C58.758 109.026 63.69 109.026 64.896 109.026C66.642 109.026 66.93 108.558 67.146 106.344C67.488 106.578 68.064 106.776 68.478 106.848C68.172 109.512 67.614 110.304 64.932 110.304C64.212 110.304 58.56 110.304 57.894 110.304C54.978 110.304 54.096 109.782 54.096 107.622V98.4061ZM57.102 95.1301H62.754V96.3361H56.49L57.102 95.1301ZM57.138 93.8701L58.632 94.1581C57.354 96.3001 55.482 98.6761 52.89 100.566C52.674 100.242 52.224 99.7921 51.9 99.5761C54.348 97.9201 56.166 95.6881 57.138 93.8701ZM62.16 95.1301H62.466L62.736 95.0581L63.654 95.6521C62.952 97.0381 61.89 98.5861 60.972 99.5581C60.774 99.2881 60.36 98.8921 60.108 98.6941C60.882 97.8301 61.746 96.4081 62.16 95.4001V95.1301Z" fill="#3F1A09"/>
</svg>
