<svg width="102" height="117" viewBox="0 0 102 117" fill="none" xmlns="http://www.w3.org/2000/svg">
<rect width="102" height="116.022" rx="10" fill="#EACEB1"/>
<rect x="11.4893" y="9" width="79.022" height="79.022" rx="39.511" fill="white"/>
<rect x="11.4893" y="9" width="79.022" height="79.022" rx="39.511" stroke="#F3C4B4" stroke-width="2"/>
<circle cx="51" cy="48.511" r="34" fill="#DAE7B1"/>
<path d="M48.714 102.308L49.722 103.118C48.804 104.036 47.652 105.026 46.752 105.674L45.924 104.972C46.788 104.306 48.03 103.136 48.714 102.308ZM40.416 103.208L41.352 102.47C42.126 103.136 43.062 104.108 43.458 104.792L42.486 105.602C42.108 104.918 41.208 103.91 40.416 103.208ZM42.396 95.342H47.616V96.404H42.396V95.342ZM41.856 97.988H47.238V99.068H41.856V97.988ZM39.912 100.382H49.812V101.57H39.912V100.382ZM44.232 100.796H45.456V109.094C45.456 109.76 45.348 110.102 44.88 110.282C44.43 110.498 43.71 110.498 42.648 110.498C42.594 110.156 42.432 109.688 42.27 109.328C43.026 109.364 43.728 109.364 43.944 109.346C44.16 109.346 44.232 109.292 44.232 109.076V100.796ZM39.372 108.374C40.398 107.816 41.946 106.808 43.458 105.836L43.872 106.862C42.576 107.798 41.208 108.77 40.056 109.562L39.372 108.374ZM45.366 100.904C45.816 103.64 47.022 107.024 50.208 108.518C49.938 108.77 49.542 109.292 49.362 109.634C46.23 107.906 45.042 104.36 44.592 101.858L45.366 100.904ZM42.27 93.92L43.548 94.082C43.134 95.9 42.54 98.222 42.09 99.644L40.83 99.464C41.28 98.024 41.91 95.666 42.27 93.92ZM47.112 95.342H47.238L47.472 95.27L48.39 95.414C48.138 97.07 47.706 99.32 47.292 101.012L46.05 100.85C46.446 99.158 46.914 96.746 47.112 95.504V95.342ZM36.258 93.92L37.446 94.37C36.762 95.702 35.916 97.322 35.214 98.312L34.296 97.916C34.944 96.872 35.79 95.108 36.258 93.92ZM38.274 95.972L39.408 96.494C38.166 98.492 36.42 101.048 35.07 102.614L34.242 102.146C35.592 100.544 37.284 97.862 38.274 95.972ZM33.378 97.664L34.098 96.8C35.07 97.682 36.168 98.888 36.636 99.716L35.862 100.724C35.412 99.86 34.332 98.582 33.378 97.664ZM37.572 100.094L38.544 99.68C39.3 100.868 40.038 102.416 40.29 103.406L39.228 103.892C38.994 102.884 38.292 101.282 37.572 100.094ZM33.234 101.876C34.8 101.804 37.05 101.696 39.318 101.57V102.704C37.176 102.848 35.016 102.974 33.378 103.082L33.234 101.876ZM38.04 104.45L39.03 104.144C39.498 105.188 39.876 106.538 40.002 107.42L38.958 107.744C38.85 106.862 38.472 105.494 38.04 104.45ZM34.314 104.198L35.448 104.396C35.214 106.106 34.8 107.834 34.224 108.986C34.008 108.842 33.468 108.608 33.198 108.482C33.774 107.384 34.116 105.764 34.314 104.198ZM36.222 102.398H37.41V110.462H36.222V102.398ZM54.834 102.902H66.138V104.144H54.834V102.902ZM59.73 98.87H61.08V103.532H59.73V98.87ZM54.78 98.384H67.056V104.936H65.688V99.608H54.78V98.384ZM54.096 98.384H55.446V107.6C55.446 108.752 55.824 109.004 57.804 109.004C58.758 109.004 63.69 109.004 64.896 109.004C66.642 109.004 66.93 108.536 67.146 106.322C67.488 106.556 68.064 106.754 68.478 106.826C68.172 109.49 67.614 110.282 64.932 110.282C64.212 110.282 58.56 110.282 57.894 110.282C54.978 110.282 54.096 109.76 54.096 107.6V98.384ZM57.102 95.108H62.754V96.314H56.49L57.102 95.108ZM57.138 93.848L58.632 94.136C57.354 96.278 55.482 98.654 52.89 100.544C52.674 100.22 52.224 99.77 51.9 99.554C54.348 97.898 56.166 95.666 57.138 93.848ZM62.16 95.108H62.466L62.736 95.036L63.654 95.63C62.952 97.016 61.89 98.564 60.972 99.536C60.774 99.266 60.36 98.87 60.108 98.672C60.882 97.808 61.746 96.386 62.16 95.378V95.108Z" fill="white"/>
</svg>
