<svg width="102" height="116" viewBox="0 0 102 116" fill="none" xmlns="http://www.w3.org/2000/svg">
<rect width="102" height="116" rx="10" fill="#EACEB1"/>
<rect x="11.4893" y="9" width="79.022" height="79.022" rx="39.511" fill="white"/>
<rect x="11.4893" y="9" width="79.022" height="79.022" rx="39.511" stroke="#F3C4B4" stroke-width="2"/>
<circle cx="51" cy="48.511" r="34" fill="#B9C7DA"/>
<path d="M33.756 95.09H49.776V96.26H33.756V95.09ZM43.512 99.122H49.542V100.22H43.512V99.122ZM43.206 102.542H49.128V103.64H43.206V102.542ZM38.004 93.92H39.336V97.304H38.004V93.92ZM37.788 97.952H38.94V100.04H37.788V97.952ZM37.788 101.804H38.94V103.892H37.788V101.804ZM44.034 93.92H45.366V97.304H44.034V93.92ZM33.666 108.77H49.812V109.922H33.666V108.77ZM35.61 105.062H48.066V109.364H46.752V106.124H44.214V109.364H43.044V106.124H40.524V109.364H39.354V106.124H36.87V109.364H35.61V105.062ZM43.926 97.376L45.168 97.664C44.61 99.356 43.674 101.012 42.648 102.074C42.432 101.876 41.91 101.516 41.604 101.354C42.612 100.364 43.458 98.888 43.926 97.376ZM35.214 99.5H41.46V102.344H35.214V101.516H40.344V100.328H35.214V99.5ZM41.91 97.61V98.51H35.718V103.388H42.036V104.288H34.584V97.61H41.91ZM54.834 102.902H66.138V104.144H54.834V102.902ZM59.73 98.87H61.08V103.532H59.73V98.87ZM54.78 98.384H67.056V104.936H65.688V99.608H54.78V98.384ZM54.096 98.384H55.446V107.6C55.446 108.752 55.824 109.004 57.804 109.004C58.758 109.004 63.69 109.004 64.896 109.004C66.642 109.004 66.93 108.536 67.146 106.322C67.488 106.556 68.064 106.754 68.478 106.826C68.172 109.49 67.614 110.282 64.932 110.282C64.212 110.282 58.56 110.282 57.894 110.282C54.978 110.282 54.096 109.76 54.096 107.6V98.384ZM57.102 95.108H62.754V96.314H56.49L57.102 95.108ZM57.138 93.848L58.632 94.136C57.354 96.278 55.482 98.654 52.89 100.544C52.674 100.22 52.224 99.77 51.9 99.554C54.348 97.898 56.166 95.666 57.138 93.848ZM62.16 95.108H62.466L62.736 95.036L63.654 95.63C62.952 97.016 61.89 98.564 60.972 99.536C60.774 99.266 60.36 98.87 60.108 98.672C60.882 97.808 61.746 96.386 62.16 95.378V95.108Z" fill="white"/>
</svg>
