<svg width="102" height="117" viewBox="0 0 102 117" fill="none" xmlns="http://www.w3.org/2000/svg">
<circle cx="51" cy="48.5551" r="40.511" fill="#F1BFC1" fill-opacity="0.7"/>
<path d="M33.666 94.3781L34.944 94.5761C34.35 97.7261 33.216 100.282 31.146 101.92C31.074 101.614 30.786 100.912 30.552 100.606C32.262 99.2381 33.216 97.0601 33.666 94.3781ZM31.74 101.11H38.526V102.37H31.74V101.11ZM37.95 101.11H39.264C39.264 101.11 39.264 101.542 39.246 101.74C38.994 107.158 38.742 109.084 38.202 109.732C37.896 110.128 37.572 110.254 37.068 110.308C36.618 110.362 35.826 110.344 35.034 110.308C35.016 109.93 34.89 109.39 34.692 109.048C35.448 109.12 36.15 109.138 36.456 109.138C36.744 109.138 36.906 109.102 37.068 108.904C37.464 108.454 37.734 106.564 37.95 101.38V101.11ZM33.972 101.74L35.268 101.812C34.89 105.988 33.756 108.724 31.128 110.47C30.966 110.236 30.498 109.714 30.21 109.498C32.694 108.04 33.666 105.466 33.972 101.74ZM37.59 94.2521C38.202 97.2581 39.12 99.0761 40.884 100.66C40.524 100.93 40.11 101.362 39.93 101.758C37.986 99.8861 37.032 97.7981 36.366 94.4861L37.59 94.2521ZM27.006 93.9641H28.266V110.506H27.006V93.9641ZM24.27 100.156H30.642V101.434H24.27V100.156ZM26.952 100.678L27.834 101.02C27.204 103.414 25.98 106.456 24.738 108.04C24.576 107.644 24.252 107.068 24.018 106.726C25.152 105.358 26.394 102.748 26.952 100.678ZM28.14 102.118C28.644 102.586 30.444 104.674 30.822 105.16L29.994 106.24C29.526 105.394 28.05 103.414 27.474 102.73L28.14 102.118ZM24.396 95.4581L25.404 95.2241C25.8 96.4481 26.196 98.0321 26.358 99.0761L25.296 99.3461C25.152 98.2841 24.756 96.6821 24.396 95.4581ZM29.832 95.0801L31.038 95.4041C30.588 96.7361 30.012 98.3741 29.544 99.3821L28.608 99.0941C29.04 98.0321 29.562 96.2861 29.832 95.0801ZM50.262 95.8721H58.992V97.1681H50.262V95.8721ZM49.524 108.562H59.28V109.858H49.524V108.562ZM53.862 96.2861H55.248V109.246H53.862V96.2861ZM46.176 102.352H47.49V110.506H46.176V102.352ZM45.996 93.9281L47.274 94.4501C46.482 95.7461 45.474 97.2941 44.664 98.2661L43.692 97.8161C44.466 96.7901 45.456 95.1161 45.996 93.9281ZM48.318 95.9261L49.56 96.5201C48.192 98.5361 46.284 101.056 44.772 102.586L43.872 102.046C45.348 100.462 47.238 97.8341 48.318 95.9261ZM42.72 97.5461L43.404 96.6641C44.538 97.5461 45.888 98.7701 46.482 99.6341L45.762 100.678C45.15 99.7781 43.854 98.4641 42.72 97.5461ZM48.012 100.066L49.002 99.5621C49.92 100.696 50.91 102.226 51.306 103.234L50.262 103.828C49.866 102.82 48.912 101.236 48.012 100.066ZM42.648 101.848C44.466 101.776 47.202 101.65 49.884 101.506V102.658C47.328 102.838 44.7 103.018 42.81 103.126L42.648 101.848ZM48.408 104.476L49.506 104.116C50.118 105.268 50.694 106.762 50.928 107.734L49.758 108.184C49.542 107.176 48.966 105.646 48.408 104.476ZM43.926 104.224L45.186 104.458C44.898 106.168 44.376 107.932 43.746 109.084C43.494 108.904 42.918 108.634 42.612 108.508C43.242 107.428 43.674 105.79 43.926 104.224ZM64.104 102.946H75.408V104.188H64.104V102.946ZM69 98.9141H70.35V103.576H69V98.9141ZM64.05 98.4281H76.326V104.98H74.958V99.6521H64.05V98.4281ZM63.366 98.4281H64.716V107.644C64.716 108.796 65.094 109.048 67.074 109.048C68.028 109.048 72.96 109.048 74.166 109.048C75.912 109.048 76.2 108.58 76.416 106.366C76.758 106.6 77.334 106.798 77.748 106.87C77.442 109.534 76.884 110.326 74.202 110.326C73.482 110.326 67.83 110.326 67.164 110.326C64.248 110.326 63.366 109.804 63.366 107.644V98.4281ZM66.372 95.1521H72.024V96.3581H65.76L66.372 95.1521ZM66.408 93.8921L67.902 94.1801C66.624 96.3221 64.752 98.6981 62.16 100.588C61.944 100.264 61.494 99.8141 61.17 99.5981C63.618 97.9421 65.436 95.7101 66.408 93.8921ZM71.43 95.1521H71.736L72.006 95.0801L72.924 95.6741C72.222 97.0601 71.16 98.6081 70.242 99.5801C70.044 99.3101 69.63 98.9141 69.378 98.7161C70.152 97.8521 71.016 96.4301 71.43 95.4221V95.1521Z" fill="#3F1A09"/>
</svg>
