<svg width="40" height="40" viewBox="0 0 40 40" fill="none" xmlns="http://www.w3.org/2000/svg">
<g opacity="0.3">
<path d="M20.065 38.3333C15.4961 38.3333 11.4944 36.8733 8.06 33.9533C4.62555 31.0333 2.54889 27.3472 1.83 22.895C1.76778 22.615 1.79944 22.3605 1.925 22.1316C2.05055 21.9027 2.24222 21.7711 2.5 21.7366C2.75778 21.7022 2.97167 21.7777 3.14167 21.9633C3.31167 22.1488 3.41611 22.3705 3.455 22.6283C4.09167 26.6305 5.93333 29.95 8.98 32.5866C12.0244 35.2233 15.6039 36.5772 19.7183 36.6483L17.0833 34.0133C16.9278 33.8577 16.8444 33.6661 16.8333 33.4383C16.8222 33.2127 16.9056 33.0111 17.0833 32.8333C17.2611 32.6555 17.4578 32.5666 17.6733 32.5666C17.8889 32.5666 18.0856 32.6555 18.2633 32.8333L22.9617 37.5333C23.0706 37.6411 23.1011 37.7616 23.0533 37.895C23.0056 38.0283 22.9094 38.1116 22.765 38.145C22.315 38.2327 21.8683 38.2861 21.425 38.305C20.9817 38.3238 20.5294 38.3333 20.065 38.3333ZM16.025 26.6666C15.2806 26.6666 14.6456 26.4044 14.12 25.88C13.5956 25.3555 13.3333 24.7205 13.3333 23.975V15H10.8333C10.5967 15 10.3983 14.9205 10.2383 14.7616C10.0783 14.6027 9.99889 14.4044 10 14.1666C10.0011 13.9288 10.0806 13.7305 10.2383 13.5716C10.3961 13.4127 10.5944 13.3333 10.8333 13.3333H13.3333V10.8333C13.3333 10.5966 13.4128 10.3983 13.5717 10.2383C13.7306 10.0783 13.9289 9.99885 14.1667 9.99996C14.4044 10.0011 14.6028 10.0805 14.7617 10.2383C14.9206 10.3961 15 10.5944 15 10.8333V23.975C15 24.2305 15.1067 24.4655 15.32 24.68C15.5333 24.8944 15.7683 25.0011 16.025 25H30.8333C31.0711 25 31.2694 25.0794 31.4283 25.2383C31.5872 25.3972 31.6667 25.5955 31.6667 25.8333C31.6667 26.0711 31.5872 26.2694 31.4283 26.4283C31.2694 26.5872 31.0711 26.6666 30.8333 26.6666H26.6667V29.1666C26.6667 29.4044 26.5872 29.6027 26.4283 29.7616C26.2694 29.9205 26.0711 30 25.8333 30C25.5956 30 25.3972 29.9205 25.2383 29.7616C25.0794 29.6027 25 29.4044 25 29.1666V26.6666H16.025ZM25 23.3333V16.0266C25 15.77 24.8933 15.5344 24.68 15.32C24.4667 15.1055 24.2317 14.9988 23.975 15H16.6667V13.3333H23.975C24.7194 13.3333 25.3544 13.5955 25.88 14.12C26.4044 14.6444 26.6667 15.28 26.6667 16.0266V23.3333H25ZM19.9367 1.66663C24.5044 1.66663 28.5061 3.13051 31.9417 6.05829C35.375 8.98496 37.4511 12.6783 38.17 17.1383C38.2322 17.4183 38.2006 17.6672 38.075 17.885C37.9494 18.1027 37.7578 18.2288 37.5 18.2633C37.2422 18.2977 37.0283 18.2222 36.8583 18.0366C36.6906 17.8522 36.5861 17.6305 36.545 17.3716C35.9083 13.3694 34.0667 10.05 31.02 7.41329C27.9756 4.77663 24.3961 3.42274 20.2817 3.35163L22.9167 5.98663C23.0722 6.14218 23.1556 6.33329 23.1667 6.55996C23.1778 6.78774 23.0944 6.98996 22.9167 7.16663C22.7389 7.34329 22.5422 7.43218 22.3267 7.43329C22.1111 7.4344 21.9144 7.34552 21.7367 7.16663L17.0383 2.46663C16.9294 2.35885 16.8989 2.23885 16.9467 2.10663C16.9944 1.9744 17.0906 1.89107 17.235 1.85663C17.685 1.76774 18.1317 1.71385 18.575 1.69496C19.0183 1.67607 19.4722 1.66663 19.9367 1.66663Z" fill="black"/>
</g>
</svg>
