<svg width="40" height="40" viewBox="0 0 40 40" fill="none" xmlns="http://www.w3.org/2000/svg">
<path d="M34.375 7.49997V15C34.375 15.1657 34.3092 15.3247 34.1919 15.4419C34.0747 15.5591 33.9158 15.625 33.75 15.625H26.25C26.0842 15.625 25.9253 15.5591 25.8081 15.4419C25.6908 15.3247 25.625 15.1657 25.625 15C25.625 14.8342 25.6908 14.6752 25.8081 14.558C25.9253 14.4408 26.0842 14.375 26.25 14.375H32.2406L28.8891 11.0218C26.4465 8.57949 23.1395 7.19848 19.6854 7.1783C16.2313 7.15811 12.9085 8.50039 10.4375 10.914C10.3788 10.9715 10.3094 11.0168 10.2332 11.0474C10.157 11.0781 10.0755 11.0934 9.99337 11.0925C9.91125 11.0916 9.8301 11.0746 9.75457 11.0424C9.67903 11.0101 9.61058 10.9633 9.55312 10.9047C9.49567 10.846 9.45034 10.7765 9.41972 10.7003C9.38909 10.6241 9.37378 10.5426 9.37465 10.4605C9.37552 10.3784 9.39256 10.2973 9.42479 10.2217C9.45702 10.1462 9.50382 10.0777 9.5625 10.0203C12.2689 7.3767 15.9084 5.90661 19.6916 5.92884C23.4748 5.95107 27.0967 7.46382 29.7719 10.139L33.125 13.4906V7.49997C33.125 7.33421 33.1908 7.17524 33.3081 7.05803C33.4253 6.94082 33.5842 6.87497 33.75 6.87497C33.9158 6.87497 34.0747 6.94082 34.1919 7.05803C34.3092 7.17524 34.375 7.33421 34.375 7.49997ZM29.5625 29.0859C27.1164 31.4884 23.8223 32.8306 20.3938 32.8218H20.3203C16.8625 32.8113 13.5503 31.4288 11.1109 28.9781L7.75937 25.625H13.75C13.9158 25.625 14.0747 25.5591 14.1919 25.4419C14.3092 25.3247 14.375 25.1657 14.375 25C14.375 24.8342 14.3092 24.6752 14.1919 24.558C14.0747 24.4408 13.9158 24.375 13.75 24.375H6.25C6.08424 24.375 5.92527 24.4408 5.80806 24.558C5.69085 24.6752 5.625 24.8342 5.625 25V32.5C5.625 32.6657 5.69085 32.8247 5.80806 32.9419C5.92527 33.0591 6.08424 33.125 6.25 33.125C6.41576 33.125 6.57473 33.0591 6.69194 32.9419C6.80915 32.8247 6.875 32.6657 6.875 32.5V26.5093L10.2281 29.8609C12.8986 32.5456 16.5258 34.0602 20.3125 34.0718H20.3922C24.1478 34.0807 27.7559 32.6106 30.4359 29.9797C30.4946 29.9222 30.5414 29.8538 30.5736 29.7782C30.6059 29.7027 30.6229 29.6215 30.6238 29.5394C30.6247 29.4573 30.6093 29.3758 30.5787 29.2996C30.5481 29.2234 30.5028 29.154 30.4453 29.0953C30.3879 29.0366 30.3194 28.9898 30.2439 28.9576C30.1683 28.9253 30.0872 28.9083 30.0051 28.9074C29.9229 28.9066 29.8415 28.9219 29.7653 28.9525C29.689 28.9831 29.6196 29.0285 29.5609 29.0859H29.5625Z" fill="black" fill-opacity="0.3"/>
</svg>
