<svg width="81" height="80" viewBox="0 0 81 80" fill="none" xmlns="http://www.w3.org/2000/svg">
<path d="M26.125 16.25L19.625 22.75L26.125 29.25" stroke="#ACA7A1" stroke-width="1.25" stroke-linecap="round" stroke-linejoin="round"/>
<path d="M21.25 22.75H51.1094C57.0772 22.75 61.875 27.7601 61.875 33.7188V35.75" stroke="#ACA7A1" stroke-width="1.25" stroke-linecap="round" stroke-linejoin="round"/>
<path d="M20.15 64.68H28.37V66.18H20.15V64.68ZM11.77 74.16H29.73V75.66H11.77V74.16ZM19.29 58.5H20.87V74.96H19.29V58.5ZM31.63 66.38H49.93V68.02H31.63V66.38ZM56.57 66.6L58.01 67.1C56.91 68.96 55.19 70.84 53.65 72.08C53.41 71.78 52.85 71.2 52.51 70.94C54.03 69.88 55.63 68.26 56.57 66.6ZM66.51 66.78L67.93 67.46C65.29 72.66 60.21 75.34 52.55 76.5C52.39 76.06 52.09 75.46 51.77 75.08C59.19 74.08 64.11 71.6 66.51 66.78ZM51.93 64.32H69.47V65.76H51.93V64.32ZM61.19 60.34H67.65V61.76H61.19V60.34ZM60.17 58.22H61.77V65.1H60.17V58.22ZM54.93 59.76H56.45V65.02H54.93V59.76ZM60.05 65.38H61.63V72.08H60.05V65.38Z" fill="#ACA7A1"/>
</svg>
