<svg width="81" height="80" viewBox="0 0 81 80" fill="none" xmlns="http://www.w3.org/2000/svg">
<path d="M25.378 39.9274L32.8834 32.422L33.8282 33.3667L26.3228 40.8721L25.6115 41.5834H26.6174H33.3334V42.9167H23.3334V32.9167H24.6667V39.6327V40.6387L25.378 39.9274ZM54.1774 40.8721L46.672 33.3667L47.6167 32.422L55.1221 39.9274L55.8334 40.6387V39.6327V32.9167H57.1667V42.9167H47.1667V41.5834H53.8827H54.8887L54.1774 40.8721ZM32.8834 19.5782L25.378 12.0728L24.6667 11.3615V12.3674V19.0834H23.3334V9.08341H33.3334V10.4167H26.6174H25.6115L26.3228 11.128L33.8282 18.6334L32.8834 19.5782ZM47.6167 19.5782L46.672 18.6334L54.1774 11.128L54.8887 10.4167H53.8827H47.1667V9.08341H57.1667V19.0834H55.8334V12.3674V11.3615L55.1221 12.0728L47.6167 19.5782Z" fill="#ACA7A1" stroke="#ACA7A1" stroke-width="0.833333"/>
<path d="M25.51 66.08L26.53 65.7C27.07 66.86 27.61 68.36 27.79 69.28L26.69 69.72C26.53 68.78 26.03 67.24 25.51 66.08ZM23.89 71.22L24.95 71C25.19 72.34 25.43 74.08 25.47 75.26L24.39 75.52C24.35 74.36 24.11 72.58 23.89 71.22ZM21.81 71.08L22.97 71.28C22.75 73.02 22.37 74.9 21.97 76.14C21.71 76 21.17 75.8 20.89 75.72C21.33 74.5 21.63 72.7 21.81 71.08ZM21.35 65.7C21.29 65.42 21.09 64.76 20.93 64.4C21.27 64.32 21.59 63.9 21.99 63.3C22.41 62.7 23.75 60.4 24.55 58.22L25.77 58.78C24.79 61 23.49 63.34 22.21 64.94V64.96C22.21 64.96 21.35 65.4 21.35 65.7ZM21.35 65.7L21.33 64.66L21.99 64.24L25.37 63.94C25.31 64.3 25.27 64.8 25.27 65.08C22.17 65.44 21.65 65.54 21.35 65.7ZM21.49 70.2C21.43 69.92 21.23 69.26 21.07 68.9C21.47 68.82 21.89 68.3 22.47 67.54C23.11 66.8 25.11 63.92 26.35 61.18L27.51 61.88C26.03 64.64 24.19 67.46 22.35 69.46V69.5C22.35 69.5 21.49 69.92 21.49 70.2ZM21.49 70.2L21.43 69.16L22.09 68.7L27.13 68C27.09 68.34 27.07 68.84 27.09 69.12C22.47 69.84 21.85 70 21.49 70.2ZM26.03 70.82L27.01 70.48C27.49 71.72 27.97 73.32 28.19 74.36L27.15 74.74C26.95 73.66 26.47 72.04 26.03 70.82ZM34.73 64.1L36.25 64.38C35.95 65.6 35.59 66.94 35.29 67.84L34.03 67.56C34.31 66.62 34.61 65.12 34.73 64.1ZM27.99 60.14H39.11V63.18H37.71V61.42H29.37V63.46H27.99V60.14ZM30.31 62.78L31.63 63.08C30.99 65.64 29.83 68.7 28.21 70.68C28.03 70.38 27.65 69.9 27.41 69.66C28.81 67.86 29.83 65.02 30.31 62.78ZM31.61 63.66H39.17V64.9H31.61V63.66ZM32.75 70.6H38.07V71.8H32.75V70.6ZM32.05 66.94H38.81V76.48H37.47V68.16H33.33V76.58H32.05V66.94ZM29.19 67.12L30.39 65.92L30.47 65.96V76.58H29.19V67.12ZM32.25 58.64L33.43 58.12C33.95 58.78 34.43 59.72 34.65 60.34L33.37 60.94C33.19 60.3 32.71 59.34 32.25 58.64ZM32.79 74.44H38.07V75.66H32.79V74.44ZM44.37 58.56L45.67 58.18C46.09 59.02 46.55 60.14 46.77 60.84L45.39 61.3C45.21 60.56 44.75 59.4 44.37 58.56ZM41.11 61.44H50.01V62.86H41.11V61.44ZM44.35 65.52H48.19V66.9H44.35V65.52ZM47.67 65.52H49.11C49.11 65.52 49.11 66 49.09 66.2C48.95 72.8 48.83 75.04 48.31 75.72C47.99 76.16 47.65 76.32 47.11 76.38C46.63 76.44 45.79 76.44 44.93 76.38C44.91 75.98 44.77 75.38 44.55 74.98C45.37 75.06 46.13 75.08 46.43 75.08C46.73 75.08 46.89 75.02 47.05 74.8C47.39 74.32 47.55 72.16 47.67 65.82V65.52ZM52.03 61.94H59.47V63.34H52.03V61.94ZM52.47 58.2L54.01 58.44C53.27 62.26 52.05 65.9 50.29 68.24C50.05 67.94 49.47 67.38 49.13 67.12C50.77 65 51.87 61.66 52.47 58.2ZM56.61 62.7L58.09 62.86C57.03 69.76 54.83 74.04 49.75 76.66C49.59 76.32 49.15 75.66 48.87 75.34C53.67 73.1 55.73 69.04 56.61 62.7ZM52.63 63.22C53.57 68.8 55.61 73.4 59.67 75.28C59.31 75.58 58.85 76.16 58.61 76.56C54.39 74.36 52.37 69.58 51.31 63.46L52.63 63.22ZM43.49 62.14H44.91V67.02C44.91 70.34 44.51 73.76 41.85 76.58C41.59 76.28 41.11 75.88 40.73 75.62C43.19 73.02 43.49 69.84 43.49 67.02V62.14Z" fill="#ACA7A1"/>
</svg>
