<svg width="34" height="34" viewBox="0 0 34 34" fill="none" xmlns="http://www.w3.org/2000/svg">
<path d="M27.6039 28.5514L18.7327 19.6803C18.0244 20.2838 17.2098 20.7508 16.2889 21.0814C15.3681 21.4119 14.4426 21.5772 13.5123 21.5772C11.2437 21.5772 9.32366 20.7919 7.75211 19.2213C6.18055 17.6507 5.39478 15.7311 5.39478 13.4625C5.39478 11.194 6.17961 9.27344 7.74927 7.70094C9.31894 6.12844 11.2381 5.34125 13.5066 5.33936C15.7752 5.33747 17.6962 6.12325 19.2696 7.69669C20.8431 9.27014 21.6298 11.1907 21.6298 13.4583C21.6298 14.4424 21.4555 15.3949 21.107 16.3157C20.7585 17.2365 20.3005 18.0242 19.7329 18.6787L28.604 27.5484L27.6039 28.5514ZM13.5137 20.1591C15.3931 20.1591 16.9798 19.5122 18.2737 18.2183C19.5676 16.9244 20.2145 15.3372 20.2145 13.4569C20.2145 11.5765 19.5676 9.9898 18.2737 8.69686C16.9798 7.40391 15.3931 6.75697 13.5137 6.75603C11.6342 6.75508 10.0471 7.40203 8.75228 8.69686C7.45744 9.99169 6.8105 11.5784 6.81144 13.4569C6.81239 15.3354 7.45933 16.922 8.75228 18.2169C10.0452 19.5117 11.6319 20.1586 13.5123 20.1577" fill="#6B3B20" fill-opacity="0.8"/>
</svg>
