<svg width="14" height="14" viewBox="0 0 14 14" fill="none" xmlns="http://www.w3.org/2000/svg">
<path d="M13.2375 13.795L8.01917 8.57671C7.6025 8.93171 7.12334 9.20643 6.58167 9.40087C6.04001 9.59532 5.49556 9.69254 4.94834 9.69254C3.6139 9.69254 2.48445 9.23059 1.56001 8.30671C0.635562 7.38282 0.17334 6.25365 0.17334 4.9192C0.17334 3.58476 0.635006 2.45504 1.55834 1.53004C2.48167 0.605038 3.61056 0.141982 4.94501 0.140871C6.27945 0.13976 7.40945 0.601982 8.33501 1.52754C9.26056 2.45309 9.72334 3.58282 9.72334 4.9167C9.72334 5.49559 9.62084 6.05587 9.41584 6.59754C9.21084 7.1392 8.94139 7.60254 8.60751 7.98754L13.8258 13.205L13.2375 13.795ZM4.94917 8.85837C6.05473 8.85837 6.98806 8.47782 7.74917 7.7167C8.51028 6.95559 8.89084 6.02198 8.89084 4.91587C8.89084 3.80976 8.51028 2.87643 7.74917 2.11587C6.98806 1.35532 6.05473 0.97476 4.94917 0.974205C3.84362 0.973649 2.91001 1.3542 2.14834 2.11587C1.38667 2.87754 1.00612 3.81087 1.00667 4.91587C1.00723 6.02087 1.38778 6.95421 2.14834 7.71587C2.9089 8.47754 3.84223 8.85809 4.94834 8.85754" fill="#ACA7A1"/>
</svg>
