<svg width="18" height="22" viewBox="0 0 18 22" fill="none" xmlns="http://www.w3.org/2000/svg">
<path d="M9 0.5C7.60761 0.5 6.27226 1.05312 5.28769 2.03769C4.30312 3.02226 3.75 4.35761 3.75 5.75C3.75 7.14239 4.30312 8.47774 5.28769 9.46231C6.27226 10.4469 7.60761 11 9 11C10.3924 11 11.7277 10.4469 12.7123 9.46231C13.6969 8.47774 14.25 7.14239 14.25 5.75C14.25 4.35761 13.6969 3.02226 12.7123 2.03769C11.7277 1.05312 10.3924 0.5 9 0.5ZM4.5 5.75C4.5 4.55653 4.97411 3.41193 5.81802 2.56802C6.66193 1.72411 7.80653 1.25 9 1.25C10.1935 1.25 11.3381 1.72411 12.182 2.56802C13.0259 3.41193 13.5 4.55653 13.5 5.75C13.5 6.94347 13.0259 8.08807 12.182 8.93198C11.3381 9.77589 10.1935 10.25 9 10.25C7.80653 10.25 6.66193 9.77589 5.81802 8.93198C4.97411 8.08807 4.5 6.94347 4.5 5.75ZM2.625 12.5C1.92881 12.5 1.26113 12.7766 0.768845 13.2688C0.276562 13.7611 0 14.4288 0 15.125V15.6252C0 17.2377 2.0745 21.5 9 21.5C15.9255 21.5 18 17.237 18 15.6252V15.125C18 14.4288 17.7234 13.7611 17.2312 13.2688C16.7389 12.7766 16.0712 12.5 15.375 12.5H2.625ZM0.75 15.125C0.75 14.6277 0.947544 14.1508 1.29917 13.7992C1.65081 13.4475 2.12772 13.25 2.625 13.25H15.375C15.8723 13.25 16.3492 13.4475 16.7008 13.7992C17.0525 14.1508 17.25 14.6277 17.25 15.125V15.6252C17.25 16.763 15.5738 20.75 9 20.75C2.42625 20.75 0.75 16.763 0.75 15.6252V15.125Z" fill="#3F1A09"/>
</svg>
