<svg width="102" height="117" viewBox="0 0 102 117" fill="none" xmlns="http://www.w3.org/2000/svg">
<rect y="0.0440674" width="102" height="116.022" rx="10" fill="#EACEB1"/>
<rect x="11.4888" y="9.04407" width="79.022" height="79.022" rx="39.511" fill="white"/>
<rect x="11.4888" y="9.04407" width="79.022" height="79.022" rx="39.511" stroke="#F3C4B4" stroke-width="2"/>
<circle cx="51" cy="48.5551" r="34" fill="#EACEB1"/>
<path d="M10.032 93.9281L11.436 94.3421C10.284 96.9521 8.43 99.4181 6.594 101.002C6.342 100.75 5.766 100.246 5.424 99.9941C7.296 98.5721 9.006 96.2861 10.032 93.9281ZM9.24 96.4481H21.318V97.6001H8.682L9.24 96.4481ZM15.27 94.0001L16.782 94.4141C16.17 95.4941 15.486 96.6821 14.91 97.4561L13.722 97.0601C14.262 96.2501 14.928 94.9361 15.27 94.0001ZM14.01 97.1861H15.342V105.286H14.01V97.1861ZM9.006 99.2021H20.238V100.264H9.006V99.2021ZM9.006 101.938H20.292V103.018H9.006V101.938ZM8.25 97.3841H9.6V104.71H21.804V105.862H8.25V97.3841ZM11.13 107.032L12.372 106.906C12.606 107.968 12.804 109.336 12.822 110.164L11.49 110.362C11.49 109.516 11.346 108.112 11.13 107.032ZM14.802 107.032L16.062 106.816C16.548 107.842 17.034 109.246 17.214 110.092L15.882 110.38C15.72 109.516 15.27 108.112 14.802 107.032ZM18.474 106.924L19.734 106.492C20.634 107.572 21.696 109.084 22.182 110.056L20.832 110.542C20.4 109.588 19.374 108.04 18.474 106.924ZM7.98 106.564L9.258 106.888C8.79 108.238 7.98 109.678 7.026 110.542L5.802 110.002C6.702 109.228 7.53 107.878 7.98 106.564ZM35.214 97.1861H36.402V103.594H35.214V97.1861ZM34.962 93.9461H36.312V96.4481H34.962V93.9461ZM31.848 100.768H40.722V101.794H31.848V100.768ZM33.342 108.76H39.12V109.84H33.342V108.76ZM31.506 95.8361H40.56V96.9701H31.506V95.8361ZM30.84 95.8361H32.028V101.398C32.028 104.116 31.758 107.932 29.922 110.47C29.724 110.254 29.22 109.858 28.95 109.714C30.678 107.32 30.84 103.954 30.84 101.398V95.8361ZM32.766 98.4821H39.75V104.152H32.694V103.126H38.58V99.4901H32.766V98.4821ZM32.766 105.322H39.75V110.452H38.49V106.402H33.99V110.506H32.766V105.322ZM26.754 93.9641H27.978V110.506H26.754V93.9641ZM24.234 100.156H30.3V101.416H24.234V100.156ZM26.772 100.624L27.636 100.912C27.078 103.378 25.944 106.456 24.72 108.022C24.576 107.644 24.252 107.086 24.036 106.744C25.116 105.376 26.268 102.748 26.772 100.624ZM27.834 102.082C28.32 102.55 30.048 104.656 30.408 105.16L29.598 106.24C29.13 105.376 27.726 103.378 27.168 102.712L27.834 102.082ZM24.324 95.4401L25.278 95.2061C25.746 96.4481 26.07 98.0681 26.124 99.1121L25.098 99.3461C25.08 98.2841 24.756 96.6821 24.324 95.4401ZM29.418 95.0621L30.57 95.3681C30.138 96.6641 29.616 98.3021 29.184 99.2741L28.302 99.0041C28.716 97.9781 29.202 96.2321 29.418 95.0621ZM42.828 96.3761H49.416V97.7081H42.828V96.3761ZM49.344 95.0441H59.172V96.4121H49.344V95.0441ZM45.456 96.7001H46.806V105.538H45.456V96.7001ZM42.594 105.52C44.43 105.142 47.256 104.476 49.974 103.81L50.136 105.106C47.562 105.754 44.862 106.42 42.9 106.906L42.594 105.52ZM52.044 95.4041H53.484C52.962 97.9601 52.224 101.326 51.684 103.324L50.28 103.108C50.874 101.128 51.612 97.8341 52.044 95.4041ZM51.684 100.498H58.02V101.812H51.324L51.684 100.498ZM57.408 100.498H58.794C58.794 100.498 58.776 100.966 58.758 101.182C58.308 106.834 57.894 109.048 57.102 109.822C56.688 110.272 56.256 110.416 55.572 110.47C54.96 110.506 53.844 110.488 52.692 110.434C52.656 110.02 52.476 109.426 52.206 109.03C53.448 109.156 54.618 109.174 55.104 109.174C55.482 109.174 55.716 109.138 55.932 108.94C56.58 108.382 57.012 106.132 57.408 100.732V100.498ZM65.094 100.228V103.126H74.004V100.228H65.094ZM63.78 99.0221H75.39V104.332H63.78V99.0221ZM61.782 95.7461H77.352V97.0061H61.782V95.7461ZM68.802 93.9461H70.17V99.5621H68.802V93.9461ZM70.728 103.594H72.096V108.418C72.096 108.958 72.24 109.048 72.996 109.048C73.374 109.048 75.12 109.048 75.606 109.048C76.344 109.048 76.452 108.706 76.524 106.384C76.83 106.636 77.424 106.852 77.802 106.942C77.64 109.66 77.244 110.344 75.714 110.344C75.354 110.344 73.212 110.344 72.87 110.344C71.178 110.344 70.728 109.912 70.728 108.436V103.594ZM66.624 104.062H68.064C67.686 107.356 66.606 109.462 62.106 110.542C61.98 110.182 61.602 109.606 61.314 109.318C65.436 108.472 66.3 106.762 66.624 104.062ZM80.556 97.8881H94.524V99.2561H80.556V97.8881ZM94.002 97.8881H95.406C95.406 97.8881 95.388 98.3921 95.37 98.6081C94.956 106.06 94.578 108.742 93.786 109.642C93.354 110.164 92.922 110.308 92.238 110.362C91.608 110.434 90.456 110.398 89.34 110.326C89.322 109.93 89.142 109.336 88.89 108.94C90.114 109.048 91.266 109.066 91.716 109.066C92.112 109.066 92.328 109.012 92.562 108.796C93.246 108.13 93.642 105.322 94.002 98.1761V97.8881ZM86.442 93.9821H87.864V97.1141C87.864 101.218 87.36 106.78 81.06 110.578C80.862 110.254 80.358 109.75 80.034 109.516C86.01 105.952 86.442 100.84 86.442 97.1141V93.9821Z" fill="white"/>
</svg>
