<svg width="102" height="117" viewBox="0 0 102 117" fill="none" xmlns="http://www.w3.org/2000/svg">
<circle cx="50.9998" cy="48.511" r="40.511" fill="#F4CFCF"/>
<path d="M5.928 106.268H21.948V107.492H5.928V106.268ZM13.164 103.946H14.532V110.426H13.164V103.946ZM9.312 101.858V103.424H18.492V101.858H9.312ZM9.312 99.284V100.832H18.492V99.284H9.312ZM7.998 98.204H19.842V104.504H7.998V98.204ZM10.158 93.92H11.472V97.844H10.158V93.92ZM16.332 93.92H17.646V97.844H16.332V93.92ZM6.018 95.252H21.858V96.458H6.018V95.252ZM24.396 103.748H40.542V104.846H24.396V103.748ZM27.492 98.204H40.182V99.338H27.492V98.204ZM28.032 100.472H37.608V101.516H28.032V100.472ZM26.88 107.15H40.326V108.23H26.88V107.15ZM30.606 102.2L31.344 101.498C32.334 101.912 33.504 102.614 34.098 103.118L33.342 103.892C32.748 103.352 31.56 102.614 30.606 102.2ZM30.336 105.53L31.11 104.81C32.19 105.26 33.504 105.998 34.17 106.556L33.36 107.366C32.712 106.79 31.398 105.98 30.336 105.53ZM27.438 100.472H28.77C28.302 103.262 27.618 107.006 27.096 109.184L25.764 109.058C26.322 106.88 27.042 103.172 27.438 100.472ZM37.248 100.472H38.526C38.526 100.472 38.526 100.922 38.526 101.102C38.292 107.132 38.04 109.184 37.482 109.85C37.14 110.282 36.762 110.39 36.222 110.444C35.682 110.48 34.728 110.462 33.756 110.408C33.72 110.102 33.612 109.634 33.432 109.346C34.404 109.436 35.304 109.436 35.664 109.436C35.988 109.436 36.168 109.418 36.33 109.202C36.78 108.716 37.032 106.592 37.248 100.742V100.472ZM27.546 97.016L28.914 97.232C28.104 98.924 26.97 100.724 25.278 102.218C25.062 101.93 24.612 101.534 24.288 101.372C25.872 100.094 26.97 98.384 27.546 97.016ZM28.626 93.92H29.958V97.538H28.626V93.92ZM34.836 93.92H36.15V97.538H34.836V93.92ZM24.558 95.09H40.398V96.26H24.558V95.09ZM42.828 96.332H49.416V97.664H42.828V96.332ZM49.344 95H59.172V96.368H49.344V95ZM45.456 96.656H46.806V105.494H45.456V96.656ZM42.594 105.476C44.43 105.098 47.256 104.432 49.974 103.766L50.136 105.062C47.562 105.71 44.862 106.376 42.9 106.862L42.594 105.476ZM52.044 95.36H53.484C52.962 97.916 52.224 101.282 51.684 103.28L50.28 103.064C50.874 101.084 51.612 97.79 52.044 95.36ZM51.684 100.454H58.02V101.768H51.324L51.684 100.454ZM57.408 100.454H58.794C58.794 100.454 58.776 100.922 58.758 101.138C58.308 106.79 57.894 109.004 57.102 109.778C56.688 110.228 56.256 110.372 55.572 110.426C54.96 110.462 53.844 110.444 52.692 110.39C52.656 109.976 52.476 109.382 52.206 108.986C53.448 109.112 54.618 109.13 55.104 109.13C55.482 109.13 55.716 109.094 55.932 108.896C56.58 108.338 57.012 106.088 57.408 100.688V100.454ZM65.094 100.184V103.082H74.004V100.184H65.094ZM63.78 98.978H75.39V104.288H63.78V98.978ZM61.782 95.702H77.352V96.962H61.782V95.702ZM68.802 93.902H70.17V99.518H68.802V93.902ZM70.728 103.55H72.096V108.374C72.096 108.914 72.24 109.004 72.996 109.004C73.374 109.004 75.12 109.004 75.606 109.004C76.344 109.004 76.452 108.662 76.524 106.34C76.83 106.592 77.424 106.808 77.802 106.898C77.64 109.616 77.244 110.3 75.714 110.3C75.354 110.3 73.212 110.3 72.87 110.3C71.178 110.3 70.728 109.868 70.728 108.392V103.55ZM66.624 104.018H68.064C67.686 107.312 66.606 109.418 62.106 110.498C61.98 110.138 61.602 109.562 61.314 109.274C65.436 108.428 66.3 106.718 66.624 104.018ZM80.556 97.844H94.524V99.212H80.556V97.844ZM94.002 97.844H95.406C95.406 97.844 95.388 98.348 95.37 98.564C94.956 106.016 94.578 108.698 93.786 109.598C93.354 110.12 92.922 110.264 92.238 110.318C91.608 110.39 90.456 110.354 89.34 110.282C89.322 109.886 89.142 109.292 88.89 108.896C90.114 109.004 91.266 109.022 91.716 109.022C92.112 109.022 92.328 108.968 92.562 108.752C93.246 108.086 93.642 105.278 94.002 98.132V97.844ZM86.442 93.938H87.864V97.07C87.864 101.174 87.36 106.736 81.06 110.534C80.862 110.21 80.358 109.706 80.034 109.472C86.01 105.908 86.442 100.796 86.442 97.07V93.938Z" fill="#3F1A09"/>
</svg>
