<svg width="102" height="117" viewBox="0 0 102 117" fill="none" xmlns="http://www.w3.org/2000/svg">
<circle cx="50.9998" cy="48.533" r="40.511" fill="#D9E3B9"/>
<path d="M11.904 96.8941H22.092V98.1721H11.904V96.8941ZM12.174 101.286H21.678V102.564H12.174V101.286ZM16.188 93.9961H17.52V110.538H16.188V93.9961ZM15.702 101.988L16.854 102.402C15.702 105.102 13.668 107.694 11.598 109.08C11.382 108.756 10.932 108.27 10.644 108.018C12.624 106.83 14.658 104.4 15.702 101.988ZM17.988 101.988C18.942 104.274 20.76 106.686 22.47 107.91C22.146 108.144 21.714 108.612 21.48 108.954C19.752 107.532 17.952 104.886 16.944 102.366L17.988 101.988ZM5.424 103.482C6.99 103.068 9.366 102.384 11.634 101.718L11.814 102.978C9.726 103.608 7.476 104.292 5.802 104.778L5.424 103.482ZM5.694 97.5601H11.58V98.8381H5.694V97.5601ZM8.196 93.9421H9.51V108.9C9.51 109.656 9.348 110.016 8.898 110.232C8.43 110.448 7.71 110.484 6.54 110.466C6.486 110.142 6.306 109.584 6.126 109.242C6.918 109.26 7.656 109.26 7.872 109.242C8.106 109.242 8.196 109.17 8.196 108.918V93.9421ZM26.7 103.428H38.202V104.706H26.7V103.428ZM31.686 101.286H33.054V110.502H31.686V101.286ZM28.266 105.66L29.652 106.074C28.752 107.622 27.24 109.08 25.854 110.034C25.602 109.764 25.044 109.314 24.72 109.116C26.106 108.288 27.492 107.01 28.266 105.66ZM34.998 106.326L36.06 105.588C37.446 106.632 39.138 108.108 39.948 109.134L38.796 109.944C38.04 108.936 36.384 107.388 34.998 106.326ZM32.406 98.8741C30.894 100.764 27.834 102.798 24.774 104.004C24.63 103.662 24.324 103.158 24.072 102.852C27.204 101.754 30.174 99.6841 31.65 97.7041H33.018C34.962 99.9541 38.094 101.772 40.938 102.636C40.65 102.978 40.344 103.482 40.164 103.842C37.41 102.852 34.134 100.908 32.406 98.8741ZM24.558 95.4901H40.398V96.7501H24.558V95.4901ZM28.482 93.9421H29.814V98.6581H28.482V93.9421ZM34.962 93.9421H36.294V98.6581H34.962V93.9421ZM42.828 96.3541H49.416V97.6861H42.828V96.3541ZM49.344 95.0221H59.172V96.3901H49.344V95.0221ZM45.456 96.6781H46.806V105.516H45.456V96.6781ZM42.594 105.498C44.43 105.12 47.256 104.454 49.974 103.788L50.136 105.084C47.562 105.732 44.862 106.398 42.9 106.884L42.594 105.498ZM52.044 95.3821H53.484C52.962 97.9381 52.224 101.304 51.684 103.302L50.28 103.086C50.874 101.106 51.612 97.8121 52.044 95.3821ZM51.684 100.476H58.02V101.79H51.324L51.684 100.476ZM57.408 100.476H58.794C58.794 100.476 58.776 100.944 58.758 101.16C58.308 106.812 57.894 109.026 57.102 109.8C56.688 110.25 56.256 110.394 55.572 110.448C54.96 110.484 53.844 110.466 52.692 110.412C52.656 109.998 52.476 109.404 52.206 109.008C53.448 109.134 54.618 109.152 55.104 109.152C55.482 109.152 55.716 109.116 55.932 108.918C56.58 108.36 57.012 106.11 57.408 100.71V100.476ZM65.094 100.206V103.104H74.004V100.206H65.094ZM63.78 99.0001H75.39V104.31H63.78V99.0001ZM61.782 95.7241H77.352V96.9841H61.782V95.7241ZM68.802 93.9241H70.17V99.5401H68.802V93.9241ZM70.728 103.572H72.096V108.396C72.096 108.936 72.24 109.026 72.996 109.026C73.374 109.026 75.12 109.026 75.606 109.026C76.344 109.026 76.452 108.684 76.524 106.362C76.83 106.614 77.424 106.83 77.802 106.92C77.64 109.638 77.244 110.322 75.714 110.322C75.354 110.322 73.212 110.322 72.87 110.322C71.178 110.322 70.728 109.89 70.728 108.414V103.572ZM66.624 104.04H68.064C67.686 107.334 66.606 109.44 62.106 110.52C61.98 110.16 61.602 109.584 61.314 109.296C65.436 108.45 66.3 106.74 66.624 104.04ZM80.556 97.8661H94.524V99.2341H80.556V97.8661ZM94.002 97.8661H95.406C95.406 97.8661 95.388 98.3701 95.37 98.5861C94.956 106.038 94.578 108.72 93.786 109.62C93.354 110.142 92.922 110.286 92.238 110.34C91.608 110.412 90.456 110.376 89.34 110.304C89.322 109.908 89.142 109.314 88.89 108.918C90.114 109.026 91.266 109.044 91.716 109.044C92.112 109.044 92.328 108.99 92.562 108.774C93.246 108.108 93.642 105.3 94.002 98.1541V97.8661ZM86.442 93.9601H87.864V97.0921C87.864 101.196 87.36 106.758 81.06 110.556C80.862 110.232 80.358 109.728 80.034 109.494C86.01 105.93 86.442 100.818 86.442 97.0921V93.9601Z" fill="#3F1A09"/>
</svg>
