<svg width="40" height="40" viewBox="0 0 40 40" fill="none" xmlns="http://www.w3.org/2000/svg">
<path d="M34.375 20C34.375 20.1658 34.3092 20.3247 34.1919 20.4419C34.0747 20.5592 33.9158 20.625 33.75 20.625H6.25C6.08424 20.625 5.92527 20.5592 5.80806 20.4419C5.69085 20.3247 5.625 20.1658 5.625 20C5.625 19.8342 5.69085 19.6753 5.80806 19.5581C5.92527 19.4408 6.08424 19.375 6.25 19.375H33.75C33.9158 19.375 34.0747 19.4408 34.1919 19.5581C34.3092 19.6753 34.375 19.8342 34.375 20ZM19.5578 15.4422C19.6159 15.5003 19.6848 15.5464 19.7607 15.5779C19.8365 15.6093 19.9179 15.6255 20 15.6255C20.0821 15.6255 20.1635 15.6093 20.2393 15.5779C20.3152 15.5464 20.3841 15.5003 20.4422 15.4422L25.4422 10.4422C25.5003 10.3841 25.5463 10.3152 25.5777 10.2393C25.6092 10.1634 25.6253 10.0821 25.6253 10C25.6253 9.91788 25.6092 9.83656 25.5777 9.76069C25.5463 9.68482 25.5003 9.61588 25.4422 9.55781C25.3841 9.49974 25.3152 9.45368 25.2393 9.42225C25.1634 9.39083 25.0821 9.37465 25 9.37465C24.9179 9.37465 24.8366 9.39083 24.7607 9.42225C24.6848 9.45368 24.6159 9.49974 24.5578 9.55781L20.625 13.4906V2.5C20.625 2.33424 20.5592 2.17527 20.4419 2.05806C20.3247 1.94085 20.1658 1.875 20 1.875C19.8342 1.875 19.6753 1.94085 19.5581 2.05806C19.4408 2.17527 19.375 2.33424 19.375 2.5V13.4906L15.4422 9.55781C15.3249 9.44054 15.1659 9.37465 15 9.37465C14.8341 9.37465 14.6751 9.44054 14.5578 9.55781C14.4405 9.67509 14.3747 9.83415 14.3747 10C14.3747 10.1659 14.4405 10.3249 14.5578 10.4422L19.5578 15.4422ZM20.4422 24.5578C20.3841 24.4997 20.3152 24.4536 20.2393 24.4221C20.1635 24.3907 20.0821 24.3745 20 24.3745C19.9179 24.3745 19.8365 24.3907 19.7607 24.4221C19.6848 24.4536 19.6159 24.4997 19.5578 24.5578L14.5578 29.5578C14.4405 29.6751 14.3747 29.8341 14.3747 30C14.3747 30.1659 14.4405 30.3249 14.5578 30.4422C14.6751 30.5595 14.8341 30.6253 15 30.6253C15.1659 30.6253 15.3249 30.5595 15.4422 30.4422L19.375 26.5094V37.5C19.375 37.6658 19.4408 37.8247 19.5581 37.9419C19.6753 38.0592 19.8342 38.125 20 38.125C20.1658 38.125 20.3247 38.0592 20.4419 37.9419C20.5592 37.8247 20.625 37.6658 20.625 37.5V26.5094L24.5578 30.4422C24.6751 30.5595 24.8341 30.6253 25 30.6253C25.1659 30.6253 25.3249 30.5595 25.4422 30.4422C25.5595 30.3249 25.6253 30.1659 25.6253 30C25.6253 29.8341 25.5595 29.6751 25.4422 29.5578L20.4422 24.5578Z" fill="black" fill-opacity="0.3"/>
</svg>
