<svg width="81" height="80" viewBox="0 0 81 80" fill="none" xmlns="http://www.w3.org/2000/svg">
<path d="M27.7786 6.7469L54.4242 25.5102C54.652 25.6725 54.8299 25.8951 54.9379 26.1531C55.0459 26.411 55.0797 26.694 55.0356 26.9701C54.9914 27.2462 54.8711 27.5045 54.688 27.7159C54.505 27.9273 54.2665 28.0834 53.9996 28.1666L43.9896 30.0667C43.8125 30.1184 43.6493 30.2094 43.5123 30.3329C43.3753 30.4564 43.268 30.6094 43.1984 30.7802C43.1288 30.9511 43.0988 31.1354 43.1105 31.3195C43.1221 31.5036 43.1753 31.6827 43.2659 31.8434L48.2709 41.3269C48.3845 41.4961 48.4624 41.6867 48.4999 41.887C48.5374 42.0873 48.5338 42.2932 48.4892 42.4921C48.4446 42.6909 48.36 42.8786 48.2405 43.0437C48.121 43.2088 47.9692 43.3479 47.7942 43.4524L44.1911 45.3287C43.8393 45.5138 43.4285 45.5517 43.0487 45.4344C42.669 45.317 42.3513 45.0538 42.1652 44.7026L37.1602 35.1974C37.0845 35.0274 36.9717 34.8764 36.8301 34.7556C36.6885 34.6347 36.5217 34.547 36.3419 34.4988C36.1621 34.4506 35.9738 34.4432 35.7908 34.4771C35.6077 34.511 35.4346 34.5854 35.2839 34.6947L27.9541 41.7516C27.7333 41.9513 27.4581 42.0807 27.1635 42.1234C26.8689 42.1662 26.5683 42.1202 26.2999 41.9915C26.0315 41.8628 25.8075 41.657 25.6564 41.4005C25.5053 41.1441 25.434 40.8484 25.4516 40.5512V8.02307C25.4476 7.75019 25.518 7.48138 25.6553 7.24553C25.7926 7.00969 25.9916 6.81572 26.2309 6.68449C26.4702 6.55327 26.7407 6.48974 27.0134 6.50073C27.2861 6.51173 27.5506 6.59684 27.7786 6.7469Z" stroke="#ACA7A1" stroke-width="1.16667" stroke-linecap="round" stroke-linejoin="round"/>
<path d="M26.95 66.74H38.57V67.9H26.95V66.74ZM26.11 69.76H39.21V70.92H26.11V69.76ZM29.73 65.3H31.13V70.4H29.73V65.3ZM34.25 65.3H35.65V70.4H34.25V65.3ZM33.73 71.76L34.73 71.08C36.23 71.78 37.91 72.72 38.87 73.46L37.55 74.16C36.69 73.4 35.19 72.46 33.73 71.76ZM30.39 71.1L31.73 71.56C30.67 72.56 29.03 73.58 27.67 74.2C27.39 73.96 26.85 73.5 26.51 73.28C27.91 72.74 29.45 71.92 30.39 71.1ZM27.39 59H32.15V62.4H27.39V61.36H30.85V60.02H27.39V59ZM33.77 59.02H38.63V62.42H33.77V61.38H37.31V60.04H33.77V59.02ZM33.19 59.02H34.43V63.1C34.43 63.66 34.51 63.84 34.97 63.84C35.37 63.84 37.27 63.84 37.67 63.84C38.05 63.84 38.65 63.82 38.99 63.76C39.01 64.08 39.05 64.54 39.11 64.84C38.81 64.9 38.27 64.94 37.73 64.94C37.27 64.94 35.23 64.94 34.91 64.94C33.53 64.94 33.19 64.44 33.19 63.08V59.02ZM26.83 65.44L26.79 64.46L27.41 64.04L32.33 63.26C32.27 63.58 32.21 64.08 32.21 64.34C27.77 65.14 27.17 65.26 26.83 65.44ZM26.83 65.44C26.75 65.12 26.47 64.54 26.29 64.24C26.53 64.12 26.81 63.86 26.81 63.1V59H28.03V64.32C28.03 64.32 26.83 65 26.83 65.44ZM21.59 59L22.69 58.32C23.61 59.3 24.73 60.58 25.29 61.38L24.11 62.2C23.59 61.38 22.47 59.98 21.59 59ZM21.19 62.84H24.83V64.1H21.19V62.84ZM24.63 72C25.87 74.62 28.51 74.98 32.53 74.98C34.65 74.98 37.61 74.88 39.67 74.7C39.43 75.04 39.25 75.74 39.17 76.16C37.27 76.26 34.73 76.32 32.51 76.32C27.79 76.32 25.15 75.78 23.63 72.46L24.63 72ZM24.61 67.82H24.97L25.23 67.78L25.99 68.06C25.37 72.26 23.87 75.1 21.83 76.66C21.63 76.34 21.13 75.84 20.83 75.62C22.77 74.24 24.11 71.68 24.61 68.08V67.82ZM21.51 69.32V68.18L22.23 67.82H25.01V69.04H22.65C22.19 69.04 21.67 69.18 21.51 69.32ZM21.51 69.32C21.43 68.98 21.13 68.28 20.97 67.98C21.25 67.9 21.55 67.78 21.85 67.38C22.37 66.82 23.95 64.02 24.49 62.98V62.92L24.91 62.74L25.91 63.12C25.13 64.48 23.59 67.12 22.63 68.38C22.63 68.38 21.51 68.92 21.51 69.32ZM50.47 60.96H57.85V62.42H50.47V60.96ZM41.19 59.46H50.97V60.86H41.19V59.46ZM43.53 63.52H48.73V64.9H43.53V63.52ZM43.53 67.68H48.73V69.04H43.53V67.68ZM57.41 60.96H57.67L57.95 60.92L58.91 61.18C57.95 69.14 54.89 73.84 50.61 76.32C50.37 75.94 49.95 75.38 49.61 75.1C53.57 73.04 56.55 68.34 57.41 61.32V60.96ZM52.29 62.5C53.35 68.28 55.67 73.02 59.79 75.14C59.45 75.44 58.97 76 58.73 76.4C54.39 73.94 52.09 69.06 50.85 62.78L52.29 62.5ZM42.75 60H44.19V72.98H42.75V60ZM48.11 60H49.55V76.56H48.11V60ZM40.79 72.54C42.75 72.3 45.77 71.88 48.69 71.44L48.77 72.82C46.03 73.26 43.15 73.72 41.07 74.04L40.79 72.54Z" fill="#ACA7A1"/>
</svg>
