<svg width="80" height="80" viewBox="0 0 80 80" fill="none" xmlns="http://www.w3.org/2000/svg">
<path d="M40.0846 49.8333C34.145 49.8333 28.9428 47.9353 24.4781 44.1393C20.0133 40.3433 17.3136 35.5514 16.3791 29.7635C16.2982 29.3995 16.3393 29.0687 16.5026 28.7711C16.6658 28.4736 16.915 28.3024 17.2501 28.2576C17.5852 28.2128 17.8632 28.3111 18.0842 28.5523C18.3052 28.7935 18.441 29.0817 18.4916 29.4168C19.3192 34.6197 21.7134 38.935 25.6741 42.3626C29.6319 45.7903 34.2851 47.5504 39.6339 47.6428L36.2084 44.2173C36.0062 44.0151 35.8979 43.7659 35.8834 43.4698C35.869 43.1766 35.9773 42.9144 36.2084 42.6833C36.4395 42.4522 36.6952 42.3366 36.9754 42.3366C37.2556 42.3366 37.5113 42.4522 37.7424 42.6833L43.8502 48.7933C43.9918 48.9334 44.0315 49.0901 43.9694 49.2635C43.9073 49.4368 43.7824 49.5451 43.5946 49.5885C43.0096 49.7026 42.4289 49.7719 41.8526 49.7965C41.2762 49.821 40.6883 49.8333 40.0846 49.8333ZM34.8326 34.6666C33.8648 34.6666 33.0393 34.3257 32.3561 33.644C31.6743 32.9622 31.3334 32.1367 31.3334 31.1675V19.5H28.0834C27.7757 19.5 27.5179 19.3967 27.3099 19.1901C27.1019 18.9836 26.9986 18.7257 27.0001 18.4166C27.0015 18.1075 27.1048 17.8497 27.3099 17.6431C27.515 17.4366 27.7729 17.3333 28.0834 17.3333H31.3334V14.0833C31.3334 13.7756 31.4367 13.5178 31.6432 13.3098C31.8498 13.1018 32.1076 12.9985 32.4167 13C32.7259 13.0014 32.9837 13.1047 33.1902 13.3098C33.3968 13.5149 33.5001 13.7727 33.5001 14.0833V31.1675C33.5001 31.4997 33.6387 31.8052 33.9161 32.084C34.1934 32.3627 34.4989 32.5014 34.8326 32.5H54.0834C54.3925 32.5 54.6504 32.6032 54.8569 32.8098C55.0635 33.0163 55.1667 33.2742 55.1667 33.5833C55.1667 33.8924 55.0635 34.1502 54.8569 34.3568C54.6504 34.5634 54.3925 34.6666 54.0834 34.6666H48.6667V37.9166C48.6667 38.2257 48.5635 38.4836 48.3569 38.6901C48.1504 38.8967 47.8925 39 47.5834 39C47.2743 39 47.0165 38.8967 46.8099 38.6901C46.6034 38.4836 46.5001 38.2257 46.5001 37.9166V34.6666H34.8326ZM46.5001 30.3333V20.8346C46.5001 20.501 46.3614 20.1947 46.0841 19.916C45.8067 19.6372 45.5012 19.4985 45.1676 19.5H35.6667V17.3333H45.1676C46.1354 17.3333 46.9609 17.6742 47.6441 18.356C48.3259 19.0377 48.6667 19.864 48.6667 20.8346V30.3333H46.5001ZM39.9177 2.16663C45.8559 2.16663 51.058 4.06968 55.5242 7.87579C59.9876 11.6805 62.6865 16.4818 63.6211 22.2798C63.702 22.6438 63.6608 22.9673 63.4976 23.2505C63.3344 23.5336 63.0852 23.6975 62.7501 23.7423C62.415 23.7871 62.1369 23.6888 61.9159 23.4476C61.6978 23.2078 61.562 22.9197 61.5086 22.5831C60.6809 17.3802 58.2867 13.065 54.3261 9.63729C50.3683 6.20963 45.715 4.44957 40.3662 4.35713L43.7917 7.78263C43.994 7.98485 44.1023 8.23329 44.1167 8.52796C44.1312 8.82407 44.0229 9.08696 43.7917 9.31663C43.5606 9.54629 43.305 9.66185 43.0247 9.66329C42.7445 9.66474 42.4889 9.54918 42.2577 9.31663L36.1499 3.20663C36.0083 3.06651 35.9686 2.91052 36.0307 2.73863C36.0929 2.56674 36.2178 2.4584 36.4056 2.41363C36.9906 2.29807 37.5712 2.22801 38.1476 2.20346C38.7239 2.1789 39.314 2.16663 39.9177 2.16663Z" fill="#3F1A09"/>
<path d="M20.86 61.48H28.88V62.88H20.86V61.48ZM23.72 65.52H27.18V66.9H23.72V65.52ZM33.2 65.04H34.58V75.02H33.2V65.04ZM23.02 62.28H24.44C24.38 68.68 24.18 73.62 21.64 76.6C21.4 76.26 20.9 75.82 20.54 75.6C22.88 72.9 22.98 68.26 23.02 62.28ZM26.68 65.52H28.06C28.06 65.52 28.06 66 28.04 66.2C27.92 72.86 27.78 75.08 27.28 75.76C26.98 76.2 26.64 76.36 26.12 76.42C25.64 76.48 24.88 76.46 24.08 76.42C24.04 76.02 23.9 75.44 23.72 75.06C24.46 75.12 25.16 75.12 25.46 75.12C25.74 75.14 25.9 75.08 26.06 74.86C26.4 74.38 26.54 72.2 26.68 65.82V65.52ZM30.7 60.8H39.16V62.18H30.7V60.8ZM29.74 64.32H37.88V65.66H29.74V64.32ZM33.84 69.18H38.4V70.48H33.84V69.18ZM31.02 58.2L32.5 58.48C31.84 61.04 30.7 63.46 29.32 65.02C29.06 64.76 28.46 64.3 28.12 64.08C29.46 62.66 30.46 60.48 31.02 58.2ZM37.58 64.32H37.82L38.04 64.26L39.02 64.58C38.54 65.82 37.98 67.24 37.48 68.12L36.3 67.68C36.72 66.86 37.22 65.62 37.58 64.54V64.32ZM30.1 67.56H31.44C31.28 71.22 30.88 74.6 28.96 76.54C28.76 76.24 28.32 75.78 28 75.58C29.66 73.88 30 70.78 30.1 67.56ZM31.14 70.34C32.02 74.16 33.9 74.86 36.34 74.86C36.72 74.86 38.8 74.86 39.38 74.84C39.16 75.18 38.98 75.84 38.92 76.22H36.24C33.24 76.22 31.18 75.3 30.1 70.7L31.14 70.34ZM23.38 58.74L24.74 58.3C25.3 59.2 25.96 60.34 26.26 61.08L24.84 61.6C24.54 60.84 23.92 59.62 23.38 58.74ZM49.2 59.68H58.96V60.86H49.2V59.68ZM48.98 70.9H59.2V72.06H48.98V70.9ZM53.34 58.22H54.66V69H53.34V58.22ZM50.9 65.02V66.24H57.22V65.02H50.9ZM50.9 62.88V64.1H57.22V62.88H50.9ZM49.66 61.94H58.5V67.2H49.66V61.94ZM49 68.56C51.24 68.54 54.64 68.48 58.04 68.4L58.02 69.5C54.76 69.6 51.4 69.66 49.1 69.72L49 68.56ZM55.36 69.82H56.76V75.14C56.76 75.88 56.62 76.24 56.06 76.44C55.48 76.64 54.62 76.64 53.26 76.64C53.2 76.26 53 75.76 52.82 75.4C53.84 75.44 54.76 75.44 55.02 75.42C55.3 75.4 55.36 75.34 55.36 75.12V69.82ZM50.16 72.86L51.18 72.24C51.98 72.92 52.78 73.88 53.16 74.58L52.04 75.3C51.7 74.58 50.92 73.56 50.16 72.86ZM55.92 67.56L56.92 67.04C57.84 67.84 58.84 68.94 59.32 69.7L58.26 70.32C57.82 69.54 56.82 68.38 55.92 67.56ZM41.02 60.38H48.78V61.72H41.02V60.38ZM40.76 71.78H49.06V73.12H40.76V71.78ZM44.3 58.22H45.68V63.68H44.3V58.22ZM44.44 63.76H45.54V69.58H45.68V76.64H44.3V69.58H44.44V63.76ZM42.62 67.2V69.04H47.4V67.2H42.62ZM42.62 64.32V66.12H47.4V64.32H42.62ZM41.46 63.2H48.56V70.16H41.46V63.2Z" fill="#3F1A09"/>
</svg>
