<svg width="80" height="80" viewBox="0 0 80 80" fill="none" xmlns="http://www.w3.org/2000/svg">
<path d="M25.375 16.25L18.875 22.75L25.375 29.25" stroke="#3F1A09" stroke-width="1.25" stroke-linecap="round" stroke-linejoin="round"/>
<path d="M20.5 22.75H50.3594C56.3272 22.75 61.125 27.7601 61.125 33.7188V35.75" stroke="#3F1A09" stroke-width="1.25" stroke-linecap="round" stroke-linejoin="round"/>
<path d="M19.4 64.68H27.62V66.18H19.4V64.68ZM11.02 74.16H28.98V75.66H11.02V74.16ZM18.54 58.5H20.12V74.96H18.54V58.5ZM30.88 66.38H49.18V68.02H30.88V66.38ZM55.82 66.6L57.26 67.1C56.16 68.96 54.44 70.84 52.9 72.08C52.66 71.78 52.1 71.2 51.76 70.94C53.28 69.88 54.88 68.26 55.82 66.6ZM65.76 66.78L67.18 67.46C64.54 72.66 59.46 75.34 51.8 76.5C51.64 76.06 51.34 75.46 51.02 75.08C58.44 74.08 63.36 71.6 65.76 66.78ZM51.18 64.32H68.72V65.76H51.18V64.32ZM60.44 60.34H66.9V61.76H60.44V60.34ZM59.42 58.22H61.02V65.1H59.42V58.22ZM54.18 59.76H55.7V65.02H54.18V59.76ZM59.3 65.38H60.88V72.08H59.3V65.38Z" fill="#3F1A09"/>
</svg>
