<svg width="80" height="80" viewBox="0 0 80 80" fill="none" xmlns="http://www.w3.org/2000/svg">
<path d="M40.8516 34.5013L45.9252 39.5748C46.0776 39.7273 46.2844 39.813 46.5 39.813C46.7156 39.813 46.9224 39.7273 47.0748 39.5748C47.2273 39.4224 47.313 39.2156 47.313 39C47.313 38.7844 47.2273 38.5776 47.0748 38.4252L40.5748 31.9252C40.4994 31.8496 40.4098 31.7897 40.3111 31.7488C40.2125 31.7079 40.1068 31.6869 40 31.6869C39.8932 31.6869 39.7875 31.7079 39.6889 31.7488C39.5902 31.7897 39.5006 31.8496 39.4252 31.9252L40.8516 34.5013ZM40.8516 34.5013V34.4622H40.8125L40.7849 34.4898L40.8125 34.5174V48.75C40.8125 48.9655 40.7269 49.1722 40.5745 49.3245C40.4222 49.4769 40.2155 49.5625 40 49.5625C39.7845 49.5625 39.5778 49.4769 39.4255 49.3245C39.2731 49.1722 39.1875 48.9655 39.1875 48.75V34.5174L39.2151 34.4898L39.1875 34.4622H39.1484L40.8516 34.5013ZM39.4528 20.0472L39.4528 20.0472L32.9528 13.5472C32.8076 13.4021 32.7261 13.2052 32.7261 13C32.7261 12.7948 32.8076 12.5979 32.9528 12.4528C33.0979 12.3076 33.2948 12.2261 33.5 12.2261C33.7052 12.2261 33.9021 12.3076 34.0472 12.4528L39.1599 17.5654L39.2266 17.6321V17.5378V3.25C39.2266 3.04487 39.308 2.84814 39.4531 2.7031C39.5981 2.55805 39.7949 2.47656 40 2.47656C40.2051 2.47656 40.4019 2.55805 40.5469 2.7031C40.692 2.84814 40.7734 3.04487 40.7734 3.25V17.5378V17.6321L40.8401 17.5654L45.9528 12.4528C46.0246 12.3809 46.11 12.3239 46.2038 12.285C46.2977 12.2461 46.3984 12.2261 46.5 12.2261C46.6016 12.2261 46.7023 12.2461 46.7962 12.285C46.89 12.3239 46.9754 12.3809 47.0472 12.4528C47.1191 12.5246 47.1761 12.61 47.215 12.7038C47.2539 12.7977 47.2739 12.8984 47.2739 13C47.2739 13.1016 47.2539 13.2023 47.215 13.2962C47.1761 13.39 47.1191 13.4754 47.0472 13.5472L40.5472 20.0472L40.5472 20.0472C40.4754 20.1192 40.3901 20.1762 40.2962 20.2151C40.2023 20.254 40.1016 20.2741 40 20.2741C39.8984 20.2741 39.7977 20.254 39.7038 20.2151C39.6099 20.1762 39.5246 20.1192 39.4528 20.0472ZM40.5472 31.9528L40.5472 31.9528L47.0472 38.4528C47.1924 38.5979 47.2739 38.7948 47.2739 39C47.2739 39.2052 47.1924 39.4021 47.0472 39.5472C46.9021 39.6924 46.7052 39.7739 46.5 39.7739C46.2948 39.7739 46.0979 39.6924 45.9528 39.5472L40.8401 34.4346L40.7734 34.3679V34.4622V48.75C40.7734 48.9551 40.692 49.1519 40.5469 49.2969C40.4019 49.442 40.2051 49.5234 40 49.5234C39.7949 49.5234 39.5981 49.442 39.4531 49.2969C39.308 49.1519 39.2266 48.9551 39.2266 48.75V34.4622V34.3679L39.1599 34.4346L34.0472 39.5472C33.9021 39.6924 33.7052 39.7739 33.5 39.7739C33.2948 39.7739 33.0979 39.6924 32.9528 39.5472C32.8076 39.4021 32.7261 39.2052 32.7261 39C32.7261 38.7948 32.8076 38.5979 32.9528 38.4528L39.4528 31.9528L39.4528 31.9528C39.5246 31.8808 39.6099 31.8238 39.7038 31.7849C39.7977 31.746 39.8984 31.7259 40 31.7259C40.1016 31.7259 40.2023 31.746 40.2962 31.7849C40.3901 31.8238 40.4754 31.8808 40.5472 31.9528ZM58.6484 26C58.6484 26.2051 58.567 26.4019 58.4219 26.5469C58.2769 26.692 58.0801 26.7734 57.875 26.7734H22.125C21.9199 26.7734 21.7231 26.692 21.5781 26.5469C21.433 26.4019 21.3516 26.2051 21.3516 26C21.3516 25.7949 21.433 25.5981 21.5781 25.4531C21.7231 25.308 21.9199 25.2266 22.125 25.2266H57.875C58.0801 25.2266 58.2769 25.308 58.4219 25.4531C58.567 25.5981 58.6484 25.7949 58.6484 26Z" fill="#3F1A09" stroke="#3F1A09" stroke-width="0.078125"/>
<path d="M20.98 63.16H29.82V64.34H20.98V63.16ZM22.5 71.54H28.56V72.62H22.5V71.54ZM22.5 74.36H28.5V75.54H22.5V74.36ZM24.96 59.84H26.26V68.16H24.96V59.84ZM25.02 69.4H26.12V75H25.02V69.4ZM28.84 58.44L29.66 59.52C27.54 60.04 24.14 60.38 21.42 60.48C21.36 60.2 21.2 59.7 21.04 59.42C23.72 59.26 27.02 58.92 28.84 58.44ZM22.08 60.96L23.1 60.68C23.42 61.34 23.78 62.22 23.96 62.72L22.9 63.08C22.74 62.54 22.38 61.64 22.08 60.96ZM28.08 60.34L29.24 60.72C28.76 61.72 28.24 62.88 27.8 63.62L26.82 63.3C27.26 62.48 27.8 61.2 28.08 60.34ZM24.66 63.72L25.56 64.24C24.54 66 22.74 68.06 21.18 69.1C21.06 68.7 20.76 68.12 20.54 67.8C22 66.92 23.78 65.2 24.66 63.72ZM21.82 68.72H29.44V76.36H28.2V69.9H22.98V76.58H21.82V68.72ZM30.06 59.18H33.36V60.48H30.06V59.18ZM32.84 59.18H34.1V74.7C34.1 75.46 33.98 75.9 33.48 76.14C33 76.38 32.2 76.4 31.06 76.4C31 76.04 30.82 75.4 30.64 75.02C31.48 75.04 32.26 75.04 32.52 75.02C32.76 75.02 32.84 74.94 32.84 74.7V59.18ZM34.56 59.18H38.02V60.48H34.56V59.18ZM37.36 59.18H38.64V74.68C38.64 75.46 38.48 75.88 37.98 76.14C37.48 76.38 36.66 76.4 35.46 76.4C35.42 76.02 35.22 75.38 35.04 75.02C35.94 75.04 36.78 75.04 37.04 75.02C37.28 75.02 37.36 74.94 37.36 74.68V59.18ZM29.94 62.8L30.96 62.46C31.52 63.74 32.1 65.46 32.36 66.42L31.26 66.88C31.02 65.86 30.46 64.12 29.94 62.8ZM34.56 62.84L35.6 62.54C36.12 63.78 36.68 65.44 36.94 66.38L35.84 66.78C35.6 65.78 35.04 64.12 34.56 62.84ZM34.16 71.34C34.78 70.54 35.76 69.26 36.72 67.92L37.46 68.96C36.68 70.12 35.78 71.34 34.94 72.4L34.16 71.34ZM29.54 71.64C30.18 70.84 31.18 69.52 32.14 68.16L32.88 69.2C32.08 70.38 31.18 71.64 30.32 72.7L29.54 71.64ZM25.58 64.48L26.48 63.78C27.82 64.94 29.36 66.6 30.08 67.72L29.12 68.54C28.44 67.4 26.92 65.7 25.58 64.48ZM49.2 59.68H58.96V60.86H49.2V59.68ZM48.98 70.9H59.2V72.06H48.98V70.9ZM53.34 58.22H54.66V69H53.34V58.22ZM50.9 65.02V66.24H57.22V65.02H50.9ZM50.9 62.88V64.1H57.22V62.88H50.9ZM49.66 61.94H58.5V67.2H49.66V61.94ZM49 68.56C51.24 68.54 54.64 68.48 58.04 68.4L58.02 69.5C54.76 69.6 51.4 69.66 49.1 69.72L49 68.56ZM55.36 69.82H56.76V75.14C56.76 75.88 56.62 76.24 56.06 76.44C55.48 76.64 54.62 76.64 53.26 76.64C53.2 76.26 53 75.76 52.82 75.4C53.84 75.44 54.76 75.44 55.02 75.42C55.3 75.4 55.36 75.34 55.36 75.12V69.82ZM50.16 72.86L51.18 72.24C51.98 72.92 52.78 73.88 53.16 74.58L52.04 75.3C51.7 74.58 50.92 73.56 50.16 72.86ZM55.92 67.56L56.92 67.04C57.84 67.84 58.84 68.94 59.32 69.7L58.26 70.32C57.82 69.54 56.82 68.38 55.92 67.56ZM41.02 60.38H48.78V61.72H41.02V60.38ZM40.76 71.78H49.06V73.12H40.76V71.78ZM44.3 58.22H45.68V63.68H44.3V58.22ZM44.44 63.76H45.54V69.58H45.68V76.64H44.3V69.58H44.44V63.76ZM42.62 67.2V69.04H47.4V67.2H42.62ZM42.62 64.32V66.12H47.4V64.32H42.62ZM41.46 63.2H48.56V70.16H41.46V63.2Z" fill="#3F1A09"/>
</svg>
