<svg width="40" height="40" viewBox="0 0 40 40" fill="none" xmlns="http://www.w3.org/2000/svg">
<path d="M10.4066 5.19006L30.9033 19.6234C31.0785 19.7482 31.2153 19.9195 31.2984 20.1179C31.3815 20.3163 31.4075 20.5339 31.3736 20.7463C31.3396 20.9588 31.247 21.1574 31.1062 21.3201C30.9654 21.4827 30.782 21.6027 30.5766 21.6667L22.8766 23.1284C22.7404 23.1681 22.6149 23.2381 22.5095 23.3331C22.4041 23.4282 22.3216 23.5458 22.2681 23.6772C22.2145 23.8086 22.1914 23.9505 22.2004 24.0921C22.2094 24.2337 22.2502 24.3715 22.32 24.4951L26.17 31.7901C26.2573 31.9202 26.3172 32.0668 26.3461 32.2209C26.375 32.375 26.3722 32.5334 26.3379 32.6863C26.3035 32.8393 26.2385 32.9837 26.1466 33.1107C26.0547 33.2377 25.9379 33.3446 25.8033 33.4251L23.0316 34.8684C22.761 35.0107 22.445 35.0399 22.1529 34.9496C21.8608 34.8594 21.6164 34.6569 21.4733 34.3867L17.6233 27.0751C17.565 26.9443 17.4782 26.8282 17.3693 26.7352C17.2604 26.6422 17.1321 26.5747 16.9938 26.5377C16.8555 26.5006 16.7106 26.4949 16.5698 26.521C16.429 26.5471 16.2958 26.6043 16.18 26.6884L10.5416 32.1167C10.3718 32.2703 10.1601 32.3699 9.9335 32.4028C9.70689 32.4356 9.47563 32.4003 9.26917 32.3013C9.06271 32.2023 8.8904 32.044 8.77419 31.8467C8.65798 31.6494 8.60313 31.422 8.61663 31.1934V6.17173C8.61355 5.96182 8.66773 5.75504 8.77335 5.57362C8.87898 5.3922 9.03205 5.243 9.21612 5.14205C9.40019 5.04111 9.60828 4.99224 9.81804 5.00069C10.0278 5.00915 10.2313 5.07462 10.4066 5.19006Z" stroke="black" stroke-opacity="0.3" stroke-width="1.16667" stroke-linecap="round" stroke-linejoin="round"/>
</svg>
