<svg width="81" height="80" viewBox="0 0 81 80" fill="none" xmlns="http://www.w3.org/2000/svg">
<path d="M25.7501 15.1667V14.75H25.3334H23.5834V9.08333H32.9167H33.0893L33.2114 8.96129L35.256 6.91667H43.5775L45.6221 8.96129L45.7442 9.08333H45.9167H55.2501V14.75H53.5001H53.0834V15.1667V41.1667C53.0834 42.7801 52.4425 44.3274 51.3016 45.4682C50.1608 46.6091 48.6135 47.25 47.0001 47.25H31.8334C30.22 47.25 28.6727 46.6091 27.5318 45.4682C26.391 44.3274 25.7501 42.7801 25.7501 41.1667V15.1667ZM27.5001 14.75H27.0834V15.1667V41.1667C27.0834 42.4264 27.5839 43.6346 28.4747 44.5254C29.3655 45.4162 30.5736 45.9167 31.8334 45.9167H47.0001C48.2599 45.9167 49.468 45.4162 50.3588 44.5254C51.2496 43.6346 51.7501 42.4264 51.7501 41.1667V15.1667V14.75H51.3334H27.5001ZM53.5001 13.4167H53.9167V13V10.8333V10.4167H53.5001H45.006L42.9614 8.37204L42.8393 8.25H42.6667H36.1667H35.9942L35.8721 8.37204L33.8275 10.4167H25.3334H24.9167V10.8333V13V13.4167H25.3334H53.5001ZM33.5834 19.9167V40.75H32.2501V19.9167H33.5834ZM46.5834 19.9167V40.75H45.2501V19.9167H46.5834Z" fill="#ACA7A1" stroke="#ACA7A1" stroke-width="0.833333"/>
<path d="M33.76 60.62H35.1V71.7H33.76V60.62ZM37.42 58.58H38.82V74.66C38.82 75.6 38.6 76.04 38.02 76.28C37.44 76.52 36.38 76.58 34.94 76.58C34.88 76.18 34.68 75.5 34.48 75.08C35.6 75.12 36.68 75.1 37.04 75.08C37.34 75.08 37.42 74.98 37.42 74.66V58.58ZM30.72 59.2H32.04V75C32.04 75.66 31.92 76.06 31.5 76.32C31.1 76.54 30.52 76.58 29.62 76.58C29.56 76.24 29.36 75.62 29.16 75.26C29.76 75.28 30.3 75.28 30.46 75.26C30.66 75.26 30.72 75.2 30.72 74.98V59.2ZM22.56 59.2H31.44V60.54H23.84V76.62H22.56V59.2ZM21.28 66.26H33.28V67.66H21.28V66.26ZM25.38 59.76H26.44V75.98H25.38V59.76ZM28.02 59.76H29.08V75.88H28.02V59.76ZM42.04 59.02H46.7V60.38H43.38V76.56H42.04V59.02ZM46.3 59.02H46.54L46.76 58.96L47.74 59.54C47.12 61.2 46.32 63.16 45.6 64.74C47.16 66.4 47.52 67.84 47.54 69.1C47.54 70.2 47.3 71.02 46.72 71.44C46.42 71.66 46.06 71.76 45.62 71.82C45.22 71.86 44.66 71.86 44.18 71.84C44.18 71.48 44.06 70.9 43.82 70.52C44.3 70.56 44.74 70.56 45.08 70.54C45.34 70.54 45.58 70.48 45.74 70.34C46.08 70.12 46.2 69.58 46.2 68.96C46.18 67.86 45.8 66.5 44.26 64.9C45.04 63.1 45.82 60.78 46.3 59.42V59.02ZM49.78 64.34H57.68V65.68H49.78V64.34ZM47.92 68.12H59.56V69.5H47.92V68.12ZM49.96 70.6L51.3 70.98C50.54 72.58 49.38 74.28 48.36 75.4C48.12 75.18 47.54 74.76 47.22 74.58C48.26 73.54 49.3 72.02 49.96 70.6ZM55.76 71L56.9 70.42C58.02 71.68 59.26 73.4 59.82 74.52L58.64 75.22C58.08 74.06 56.84 72.28 55.76 71ZM53.16 64.66H54.62V74.86C54.62 75.7 54.42 76.1 53.84 76.34C53.28 76.58 52.36 76.6 50.92 76.6C50.84 76.2 50.62 75.6 50.4 75.2C51.52 75.24 52.48 75.24 52.78 75.24C53.08 75.22 53.16 75.12 53.16 74.86V64.66ZM53.72 58.08L55 58.58C53.48 61.24 50.98 63.68 48.38 65.18C48.14 64.82 47.74 64.36 47.38 64.08C49.88 62.78 52.38 60.48 53.72 58.08ZM54.38 59.14C56.14 61.38 58.08 62.74 59.98 63.8C59.62 64.08 59.18 64.58 58.96 64.98C57 63.74 55.1 62.2 53.2 59.64L54.38 59.14Z" fill="#ACA7A1"/>
</svg>
