<svg width="80" height="80" viewBox="0 0 80 80" fill="none" xmlns="http://www.w3.org/2000/svg">
<path d="M58.6875 9.74995V19.4999C58.6875 19.7154 58.6019 19.9221 58.4495 20.0745C58.2972 20.2268 58.0905 20.3124 57.875 20.3124H48.125C47.9095 20.3124 47.7028 20.2268 47.5505 20.0745C47.3981 19.9221 47.3125 19.7154 47.3125 19.4999C47.3125 19.2845 47.3981 19.0778 47.5505 18.9254C47.7028 18.773 47.9095 18.6874 48.125 18.6874H55.9128L51.5558 14.3284C48.3804 11.1533 44.0814 9.35801 39.5911 9.33177C35.1007 9.30553 30.781 11.0505 27.5688 14.1882C27.4925 14.2629 27.4022 14.3219 27.3031 14.3617C27.2041 14.4015 27.0981 14.4214 26.9914 14.4202C26.8846 14.4191 26.7791 14.397 26.6809 14.3551C26.5827 14.3132 26.4938 14.2523 26.4191 14.176C26.3444 14.0998 26.2854 14.0095 26.2456 13.9104C26.2058 13.8114 26.1859 13.7054 26.187 13.5987C26.1882 13.4919 26.2103 13.3864 26.2522 13.2882C26.2941 13.19 26.355 13.101 26.4313 13.0264C29.9496 9.58969 34.6809 7.67858 39.5991 7.70748C44.5172 7.73638 49.2257 9.70296 52.7034 13.1807L57.0625 17.5378V9.74995C57.0625 9.53446 57.1481 9.3278 57.3005 9.17542C57.4528 9.02305 57.6595 8.93745 57.875 8.93745C58.0905 8.93745 58.2972 9.02305 58.4495 9.17542C58.6019 9.3278 58.6875 9.53446 58.6875 9.74995ZM52.4312 37.8117C49.2513 40.9349 44.9691 42.6797 40.5119 42.6684H40.4164C35.9213 42.6546 31.6153 40.8575 28.4442 37.6715L24.0872 33.3124H31.875C32.0905 33.3124 32.2972 33.2268 32.4495 33.0745C32.6019 32.9221 32.6875 32.7154 32.6875 32.4999C32.6875 32.2845 32.6019 32.0778 32.4495 31.9254C32.2972 31.773 32.0905 31.6874 31.875 31.6874H22.125C21.9095 31.6874 21.7028 31.773 21.5505 31.9254C21.3981 32.0778 21.3125 32.2845 21.3125 32.4999V42.2499C21.3125 42.4654 21.3981 42.6721 21.5505 42.8245C21.7028 42.9768 21.9095 43.0624 22.125 43.0624C22.3405 43.0624 22.5472 42.9768 22.6995 42.8245C22.8519 42.6721 22.9375 42.4654 22.9375 42.2499V34.4621L27.2966 38.8192C30.7682 42.3093 35.4835 44.2782 40.4062 44.2934H40.5098C45.3921 44.3049 50.0827 42.3938 53.5667 38.9735C53.643 38.8988 53.7038 38.8099 53.7457 38.7117C53.7876 38.6135 53.8098 38.508 53.8109 38.4012C53.8121 38.2945 53.7921 38.1885 53.7523 38.0895C53.7125 37.9904 53.6536 37.9001 53.5789 37.8239C53.5042 37.7476 53.4152 37.6867 53.317 37.6448C53.2188 37.6029 53.1133 37.5808 53.0066 37.5797C52.8998 37.5785 52.7939 37.5984 52.6948 37.6382C52.5958 37.678 52.5055 37.737 52.4292 37.8117H52.4312Z" fill="#3F1A09"/>
<path d="M21.04 74.74H38.98V75.98H21.04V74.74ZM21.14 61.76H38.86V63H21.14V61.76ZM22.52 71.82H37.7V73.02H22.52V71.82ZM29.16 59.74H30.66V75.34H29.16V59.74ZM36.12 58.32L36.92 59.48C33.34 60.14 27.64 60.48 22.96 60.58C22.96 60.22 22.78 59.7 22.64 59.38C27.3 59.26 32.96 58.9 36.12 58.32ZM24.62 67.8V69.34H35.44V67.8H24.62ZM24.62 65.28V66.8H35.44V65.28H24.62ZM23.16 64.2H36.96V70.42H23.16V64.2ZM49.22 69.58L50.4 70.14C48.38 71.92 44.72 73.42 41.6 74.08C41.42 73.74 41.04 73.24 40.76 72.96C43.84 72.4 47.4 71.12 49.22 69.58ZM50.94 69.46C52.2 72.52 55.06 74.46 59.16 75.14C58.88 75.44 58.5 75.98 58.32 76.36C54.02 75.5 51.16 73.32 49.7 69.76L50.94 69.46ZM56.82 70.54L57.92 71.32C56.64 72.22 54.96 73.08 53.64 73.66L52.7 72.9C54 72.3 55.78 71.3 56.82 70.54ZM41.1 69.14H58.9V70.36H41.1V69.14ZM52.66 59.24H54.02V65.8H52.66V59.24ZM56.46 58.4H57.82V66.7C57.82 67.48 57.66 67.82 57.1 68.04C56.54 68.24 55.62 68.26 54.2 68.26C54.14 67.88 53.92 67.38 53.72 67C54.82 67.04 55.8 67.04 56.08 67.02C56.38 67.02 56.46 66.94 56.46 66.68V58.4ZM45.56 58.2H46.86V68.36H45.56V58.2ZM49.34 64.08H50.58V66.52C50.58 67.08 50.5 67.36 50.08 67.54C49.66 67.72 49.06 67.72 48.18 67.72C48.12 67.4 47.92 67.04 47.78 66.76C48.42 66.78 48.94 66.78 49.1 66.76C49.28 66.74 49.34 66.7 49.34 66.54V64.08ZM42.06 64.08H49.9V65.1H43.26V67.84H42.06V64.08ZM41.02 61.92H51.12V63.02H41.02V61.92ZM43.1 59.64H50.42V60.7H42.66L43.1 59.64ZM42.92 58.28L44.1 58.56C43.68 59.76 43.02 61.06 42.38 61.9C42.14 61.72 41.6 61.46 41.3 61.32C42 60.5 42.56 59.36 42.92 58.28ZM44.76 76.62L44.7 75.56L45.32 75.06L51.1 73.82C51.06 74.18 51.04 74.68 51.06 74.96C45.74 76.22 45.14 76.38 44.76 76.62ZM44.78 76.62C44.68 76.3 44.42 75.74 44.22 75.5C44.54 75.3 45.06 74.9 45.06 73.98V72.08L46.48 72.06V75.02C46.48 75.02 44.78 76.04 44.78 76.62ZM48.98 67.88L50.36 67.48C50.76 68.1 51.18 68.96 51.36 69.48L49.88 69.96C49.74 69.42 49.34 68.52 48.98 67.88Z" fill="#3F1A09"/>
</svg>
