<svg width="80" height="80" viewBox="0 0 80 80" fill="none" xmlns="http://www.w3.org/2000/svg">
<path d="M25.25 15.1667V14.75H24.8333H23.0833V9.08333H32.4166H32.5892L32.7113 8.96129L34.7559 6.91667H43.0774L45.122 8.96129L45.244 9.08333H45.4166H54.75V14.75H53H52.5833V15.1667V41.1667C52.5833 42.7801 51.9424 44.3274 50.8015 45.4682C49.6607 46.6091 48.1134 47.25 46.5 47.25H31.3333C29.7199 47.25 28.1726 46.6091 27.0317 45.4682C25.8909 44.3274 25.25 42.7801 25.25 41.1667V15.1667ZM27 14.75H26.5833V15.1667V41.1667C26.5833 42.4264 27.0837 43.6346 27.9745 44.5254C28.8653 45.4162 30.0735 45.9167 31.3333 45.9167H46.5C47.7597 45.9167 48.9679 45.4162 49.8587 44.5254C50.7495 43.6346 51.25 42.4264 51.25 41.1667V15.1667V14.75H50.8333H27ZM53 13.4167H53.4166V13V10.8333V10.4167H53H44.5059L42.4613 8.37204L42.3392 8.25H42.1666H35.6666H35.494L35.372 8.37204L33.3274 10.4167H24.8333H24.4166V10.8333V13V13.4167H24.8333H53ZM33.0833 19.9167V40.75H31.75V19.9167H33.0833ZM46.0833 19.9167V40.75H44.75V19.9167H46.0833Z" fill="#ACA7A1" stroke="#D45959" stroke-width="0.833333"/>
<path d="M33.26 60.62H34.6V71.7H33.26V60.62ZM36.92 58.58H38.32V74.66C38.32 75.6 38.1 76.04 37.52 76.28C36.94 76.52 35.88 76.58 34.44 76.58C34.38 76.18 34.18 75.5 33.98 75.08C35.1 75.12 36.18 75.1 36.54 75.08C36.84 75.08 36.92 74.98 36.92 74.66V58.58ZM30.22 59.2H31.54V75C31.54 75.66 31.42 76.06 31 76.32C30.6 76.54 30.02 76.58 29.12 76.58C29.06 76.24 28.86 75.62 28.66 75.26C29.26 75.28 29.8 75.28 29.96 75.26C30.16 75.26 30.22 75.2 30.22 74.98V59.2ZM22.06 59.2H30.94V60.54H23.34V76.62H22.06V59.2ZM20.78 66.26H32.78V67.66H20.78V66.26ZM24.88 59.76H25.94V75.98H24.88V59.76ZM27.52 59.76H28.58V75.88H27.52V59.76ZM41.54 59.02H46.2V60.38H42.88V76.56H41.54V59.02ZM45.8 59.02H46.04L46.26 58.96L47.24 59.54C46.62 61.2 45.82 63.16 45.1 64.74C46.66 66.4 47.02 67.84 47.04 69.1C47.04 70.2 46.8 71.02 46.22 71.44C45.92 71.66 45.56 71.76 45.12 71.82C44.72 71.86 44.16 71.86 43.68 71.84C43.68 71.48 43.56 70.9 43.32 70.52C43.8 70.56 44.24 70.56 44.58 70.54C44.84 70.54 45.08 70.48 45.24 70.34C45.58 70.12 45.7 69.58 45.7 68.96C45.68 67.86 45.3 66.5 43.76 64.9C44.54 63.1 45.32 60.78 45.8 59.42V59.02ZM49.28 64.34H57.18V65.68H49.28V64.34ZM47.42 68.12H59.06V69.5H47.42V68.12ZM49.46 70.6L50.8 70.98C50.04 72.58 48.88 74.28 47.86 75.4C47.62 75.18 47.04 74.76 46.72 74.58C47.76 73.54 48.8 72.02 49.46 70.6ZM55.26 71L56.4 70.42C57.52 71.68 58.76 73.4 59.32 74.52L58.14 75.22C57.58 74.06 56.34 72.28 55.26 71ZM52.66 64.66H54.12V74.86C54.12 75.7 53.92 76.1 53.34 76.34C52.78 76.58 51.86 76.6 50.42 76.6C50.34 76.2 50.12 75.6 49.9 75.2C51.02 75.24 51.98 75.24 52.28 75.24C52.58 75.22 52.66 75.12 52.66 74.86V64.66ZM53.22 58.08L54.5 58.58C52.98 61.24 50.48 63.68 47.88 65.18C47.64 64.82 47.24 64.36 46.88 64.08C49.38 62.78 51.88 60.48 53.22 58.08ZM53.88 59.14C55.64 61.38 57.58 62.74 59.48 63.8C59.12 64.08 58.68 64.58 58.46 64.98C56.5 63.74 54.6 62.2 52.7 59.64L53.88 59.14Z" fill="#D45959"/>
</svg>
