<svg width="81" height="80" viewBox="0 0 81 80" fill="none" xmlns="http://www.w3.org/2000/svg">
<g opacity="0.3">
<path d="M40.3346 49.8334C34.395 49.8334 29.1928 47.9354 24.7281 44.1394C20.2633 40.3434 17.5636 35.5515 16.6291 29.7636C16.5482 29.3996 16.5893 29.0688 16.7526 28.7712C16.9158 28.4737 17.165 28.3025 17.5001 28.2577C17.8352 28.213 18.1132 28.3112 18.3342 28.5524C18.5552 28.7936 18.691 29.0818 18.7416 29.4169C19.5692 34.6198 21.9634 38.9351 25.9241 42.3627C29.8819 45.7904 34.5351 47.5505 39.8839 47.6429L36.4584 44.2174C36.2562 44.0152 36.1479 43.766 36.1334 43.4699C36.119 43.1767 36.2273 42.9145 36.4584 42.6834C36.6895 42.4523 36.9452 42.3368 37.2254 42.3368C37.5056 42.3368 37.7613 42.4523 37.9924 42.6834L44.1002 48.7934C44.2418 48.9335 44.2815 49.0902 44.2194 49.2636C44.1573 49.4369 44.0324 49.5452 43.8446 49.5886C43.2596 49.7027 42.6789 49.772 42.1026 49.7966C41.5262 49.8211 40.9383 49.8334 40.3346 49.8334ZM35.0826 34.6667C34.1148 34.6667 33.2893 34.3259 32.6061 33.6441C31.9243 32.9623 31.5834 32.1368 31.5834 31.1676V19.5001H28.3334C28.0257 19.5001 27.7679 19.3968 27.5599 19.1902C27.3519 18.9837 27.2486 18.7259 27.2501 18.4167C27.2515 18.1076 27.3548 17.8498 27.5599 17.6432C27.765 17.4367 28.0229 17.3334 28.3334 17.3334H31.5834V14.0834C31.5834 13.7757 31.6867 13.5179 31.8932 13.3099C32.0998 13.1019 32.3576 12.9986 32.6667 13.0001C32.9759 13.0015 33.2337 13.1048 33.4402 13.3099C33.6468 13.515 33.7501 13.7729 33.7501 14.0834V31.1676C33.7501 31.4998 33.8887 31.8053 34.1661 32.0841C34.4434 32.3629 34.7489 32.5015 35.0826 32.5001H54.3334C54.6425 32.5001 54.9004 32.6034 55.1069 32.8099C55.3135 33.0165 55.4167 33.2743 55.4167 33.5834C55.4167 33.8925 55.3135 34.1504 55.1069 34.3569C54.9004 34.5635 54.6425 34.6667 54.3334 34.6667H48.9167V37.9167C48.9167 38.2259 48.8135 38.4837 48.6069 38.6903C48.4004 38.8968 48.1425 39.0001 47.8334 39.0001C47.5243 39.0001 47.2665 38.8968 47.0599 38.6903C46.8534 38.4837 46.7501 38.2259 46.7501 37.9167V34.6667H35.0826ZM46.7501 30.3334V20.8347C46.7501 20.5011 46.6114 20.1949 46.3341 19.9161C46.0567 19.6373 45.7512 19.4986 45.4176 19.5001H35.9167V17.3334H45.4176C46.3854 17.3334 47.2109 17.6743 47.8941 18.3561C48.5759 19.0379 48.9167 19.8641 48.9167 20.8347V30.3334H46.7501ZM40.1677 2.16675C46.1059 2.16675 51.308 4.0698 55.7742 7.87591C60.2376 11.6806 62.9365 16.4819 63.8711 22.2799C63.952 22.6439 63.9108 22.9675 63.7476 23.2506C63.5844 23.5337 63.3352 23.6976 63.0001 23.7424C62.665 23.7872 62.3869 23.689 62.1659 23.4477C61.9478 23.208 61.812 22.9198 61.7586 22.5832C60.9309 17.3804 58.5367 13.0651 54.5761 9.63741C50.6183 6.20975 45.965 4.44969 40.6162 4.35725L44.0417 7.78275C44.244 7.98497 44.3523 8.23342 44.3667 8.52808C44.3812 8.82419 44.2729 9.08708 44.0417 9.31675C43.8106 9.54642 43.555 9.66197 43.2747 9.66342C42.9945 9.66486 42.7389 9.5493 42.5077 9.31675L36.3999 3.20675C36.2583 3.06664 36.2186 2.91064 36.2807 2.73875C36.3429 2.56686 36.4678 2.45853 36.6556 2.41375C37.2406 2.29819 37.8212 2.22814 38.3976 2.20358C38.9739 2.17903 39.564 2.16675 40.1677 2.16675Z" fill="#ACA7A1"/>
</g>
<path d="M21.11 61.48H29.13V62.88H21.11V61.48ZM23.97 65.52H27.43V66.9H23.97V65.52ZM33.45 65.04H34.83V75.02H33.45V65.04ZM23.27 62.28H24.69C24.63 68.68 24.43 73.62 21.89 76.6C21.65 76.26 21.15 75.82 20.79 75.6C23.13 72.9 23.23 68.26 23.27 62.28ZM26.93 65.52H28.31C28.31 65.52 28.31 66 28.29 66.2C28.17 72.86 28.03 75.08 27.53 75.76C27.23 76.2 26.89 76.36 26.37 76.42C25.89 76.48 25.13 76.46 24.33 76.42C24.29 76.02 24.15 75.44 23.97 75.06C24.71 75.12 25.41 75.12 25.71 75.12C25.99 75.14 26.15 75.08 26.31 74.86C26.65 74.38 26.79 72.2 26.93 65.82V65.52ZM30.95 60.8H39.41V62.18H30.95V60.8ZM29.99 64.32H38.13V65.66H29.99V64.32ZM34.09 69.18H38.65V70.48H34.09V69.18ZM31.27 58.2L32.75 58.48C32.09 61.04 30.95 63.46 29.57 65.02C29.31 64.76 28.71 64.3 28.37 64.08C29.71 62.66 30.71 60.48 31.27 58.2ZM37.83 64.32H38.07L38.29 64.26L39.27 64.58C38.79 65.82 38.23 67.24 37.73 68.12L36.55 67.68C36.97 66.86 37.47 65.62 37.83 64.54V64.32ZM30.35 67.56H31.69C31.53 71.22 31.13 74.6 29.21 76.54C29.01 76.24 28.57 75.78 28.25 75.58C29.91 73.88 30.25 70.78 30.35 67.56ZM31.39 70.34C32.27 74.16 34.15 74.86 36.59 74.86C36.97 74.86 39.05 74.86 39.63 74.84C39.41 75.18 39.23 75.84 39.17 76.22H36.49C33.49 76.22 31.43 75.3 30.35 70.7L31.39 70.34ZM23.63 58.74L24.99 58.3C25.55 59.2 26.21 60.34 26.51 61.08L25.09 61.6C24.79 60.84 24.17 59.62 23.63 58.74ZM49.45 59.68H59.21V60.86H49.45V59.68ZM49.23 70.9H59.45V72.06H49.23V70.9ZM53.59 58.22H54.91V69H53.59V58.22ZM51.15 65.02V66.24H57.47V65.02H51.15ZM51.15 62.88V64.1H57.47V62.88H51.15ZM49.91 61.94H58.75V67.2H49.91V61.94ZM49.25 68.56C51.49 68.54 54.89 68.48 58.29 68.4L58.27 69.5C55.01 69.6 51.65 69.66 49.35 69.72L49.25 68.56ZM55.61 69.82H57.01V75.14C57.01 75.88 56.87 76.24 56.31 76.44C55.73 76.64 54.87 76.64 53.51 76.64C53.45 76.26 53.25 75.76 53.07 75.4C54.09 75.44 55.01 75.44 55.27 75.42C55.55 75.4 55.61 75.34 55.61 75.12V69.82ZM50.41 72.86L51.43 72.24C52.23 72.92 53.03 73.88 53.41 74.58L52.29 75.3C51.95 74.58 51.17 73.56 50.41 72.86ZM56.17 67.56L57.17 67.04C58.09 67.84 59.09 68.94 59.57 69.7L58.51 70.32C58.07 69.54 57.07 68.38 56.17 67.56ZM41.27 60.38H49.03V61.72H41.27V60.38ZM41.01 71.78H49.31V73.12H41.01V71.78ZM44.55 58.22H45.93V63.68H44.55V58.22ZM44.69 63.76H45.79V69.58H45.93V76.64H44.55V69.58H44.69V63.76ZM42.87 67.2V69.04H47.65V67.2H42.87ZM42.87 64.32V66.12H47.65V64.32H42.87ZM41.71 63.2H48.81V70.16H41.71V63.2Z" fill="#ACA7A1"/>
</svg>
