<svg width="80" height="77" viewBox="0 0 80 77" fill="none" xmlns="http://www.w3.org/2000/svg">
<path d="M40.0846 47.6667C34.145 47.6667 28.9428 45.7687 24.4781 41.9727C20.0133 38.1767 17.3136 33.3847 16.3791 27.5968C16.2982 27.2328 16.3394 26.9021 16.5026 26.6045C16.6658 26.3069 16.915 26.1358 17.2501 26.091C17.5852 26.0462 17.8632 26.1444 18.0842 26.3857C18.3052 26.6269 18.441 26.9151 18.4916 27.2502C19.3192 32.4531 21.7134 36.7683 25.6741 40.196C29.6319 43.6237 34.2851 45.3837 39.6339 45.4762L36.2084 42.0507C36.0062 41.8484 35.8979 41.5993 35.8834 41.3032C35.869 41.0099 35.9773 40.7478 36.2084 40.5167C36.4395 40.2856 36.6952 40.17 36.9754 40.17C37.2556 40.17 37.5113 40.2856 37.7424 40.5167L43.8502 46.6267C43.9918 46.7668 44.0315 46.9235 43.9694 47.0968C43.9073 47.2702 43.7824 47.3785 43.5946 47.4218C43.0096 47.5359 42.4289 47.6053 41.8526 47.6298C41.2762 47.6544 40.6883 47.6667 40.0846 47.6667ZM34.8326 32.5C33.8648 32.5 33.0393 32.1591 32.3561 31.4773C31.6743 30.7956 31.3334 29.9701 31.3334 29.0008V17.3333H28.0834C27.7757 17.3333 27.5179 17.2301 27.3099 17.0235C27.1019 16.8169 26.9986 16.5591 27.0001 16.25C27.0015 15.9409 27.1048 15.6831 27.3099 15.4765C27.515 15.2699 27.7728 15.1667 28.0834 15.1667H31.3334V11.9167C31.3334 11.609 31.4367 11.3512 31.6432 11.1432C31.8498 10.9352 32.1076 10.8319 32.4167 10.8333C32.7258 10.8348 32.9837 10.9381 33.1902 11.1432C33.3968 11.3483 33.5001 11.6061 33.5001 11.9167V29.0008C33.5001 29.3331 33.6387 29.6386 33.9161 29.9173C34.1934 30.1961 34.4989 30.3348 34.8326 30.3333H54.0834C54.3925 30.3333 54.6504 30.4366 54.8569 30.6432C55.0635 30.8497 55.1667 31.1076 55.1667 31.4167C55.1667 31.7258 55.0635 31.9836 54.8569 32.1902C54.6504 32.3967 54.3925 32.5 54.0834 32.5H48.6667V35.75C48.6667 36.0591 48.5635 36.3169 48.3569 36.5235C48.1503 36.7301 47.8925 36.8333 47.5834 36.8333C47.2743 36.8333 47.0165 36.7301 46.8099 36.5235C46.6034 36.3169 46.5001 36.0591 46.5001 35.75V32.5H34.8326ZM46.5001 28.1667V18.668C46.5001 18.3343 46.3614 18.0281 46.0841 17.7493C45.8067 17.4706 45.5012 17.3319 45.1676 17.3333H35.6667V15.1667H45.1676C46.1353 15.1667 46.9609 15.5076 47.6441 16.1893C48.3259 16.8711 48.6667 17.6973 48.6667 18.668V28.1667H46.5001ZM39.9177 0C45.8559 0 51.058 1.90306 55.5242 5.70917C59.9876 9.51383 62.6865 14.3152 63.6211 20.1132C63.702 20.4772 63.6608 20.8007 63.4976 21.0838C63.3343 21.3669 63.0852 21.5309 62.7501 21.5757C62.415 21.6204 62.1369 21.5222 61.9159 21.281C61.6978 21.0412 61.562 20.7531 61.5086 20.4165C60.6809 15.2136 58.2867 10.8983 54.3261 7.47067C50.3683 4.043 45.715 2.28294 40.3662 2.1905L43.7917 5.616C43.994 5.81822 44.1023 6.06667 44.1167 6.36133C44.1312 6.65744 44.0229 6.92033 43.7917 7.15C43.5606 7.37967 43.305 7.49522 43.0247 7.49667C42.7445 7.49811 42.4889 7.38256 42.2577 7.15L36.1499 1.04C36.0083 0.899889 35.9686 0.743889 36.0307 0.572C36.0928 0.400111 36.2178 0.291778 36.4056 0.247C36.9906 0.131444 37.5712 0.0613888 38.1476 0.0368332C38.7239 0.0122777 39.314 0 39.9177 0Z" fill="#ACA7A1"/>
<path d="M20.86 57.1467H28.88V58.5467H20.86V57.1467ZM23.72 61.1867H27.18V62.5667H23.72V61.1867ZM33.2 60.7067H34.58V70.6867H33.2V60.7067ZM23.02 57.9467H24.44C24.38 64.3467 24.18 69.2867 21.64 72.2667C21.4 71.9267 20.9 71.4867 20.54 71.2667C22.88 68.5667 22.98 63.9267 23.02 57.9467ZM26.68 61.1867H28.06C28.06 61.1867 28.06 61.6667 28.04 61.8667C27.92 68.5267 27.78 70.7467 27.28 71.4267C26.98 71.8667 26.64 72.0267 26.12 72.0867C25.64 72.1467 24.88 72.1267 24.08 72.0867C24.04 71.6867 23.9 71.1067 23.72 70.7267C24.46 70.7867 25.16 70.7867 25.46 70.7867C25.74 70.8067 25.9 70.7467 26.06 70.5267C26.4 70.0467 26.54 67.8667 26.68 61.4867V61.1867ZM30.7 56.4667H39.16V57.8467H30.7V56.4667ZM29.74 59.9867H37.88V61.3267H29.74V59.9867ZM33.84 64.8467H38.4V66.1467H33.84V64.8467ZM31.02 53.8667L32.5 54.1467C31.84 56.7067 30.7 59.1267 29.32 60.6867C29.06 60.4267 28.46 59.9667 28.12 59.7467C29.46 58.3267 30.46 56.1467 31.02 53.8667ZM37.58 59.9867H37.82L38.04 59.9267L39.02 60.2467C38.54 61.4867 37.98 62.9067 37.48 63.7867L36.3 63.3467C36.72 62.5267 37.22 61.2867 37.58 60.2067V59.9867ZM30.1 63.2267H31.44C31.28 66.8867 30.88 70.2667 28.96 72.2067C28.76 71.9067 28.32 71.4467 28 71.2467C29.66 69.5467 30 66.4467 30.1 63.2267ZM31.14 66.0067C32.02 69.8267 33.9 70.5267 36.34 70.5267C36.72 70.5267 38.8 70.5267 39.38 70.5067C39.16 70.8467 38.98 71.5067 38.92 71.8867H36.24C33.24 71.8867 31.18 70.9667 30.1 66.3667L31.14 66.0067ZM23.38 54.4067L24.74 53.9667C25.3 54.8667 25.96 56.0067 26.26 56.7467L24.84 57.2667C24.54 56.5067 23.92 55.2867 23.38 54.4067ZM49.2 55.3467H58.96V56.5267H49.2V55.3467ZM48.98 66.5667H59.2V67.7267H48.98V66.5667ZM53.34 53.8867H54.66V64.6667H53.34V53.8867ZM50.9 60.6867V61.9067H57.22V60.6867H50.9ZM50.9 58.5467V59.7667H57.22V58.5467H50.9ZM49.66 57.6067H58.5V62.8667H49.66V57.6067ZM49 64.2267C51.24 64.2067 54.64 64.1467 58.04 64.0667L58.02 65.1667C54.76 65.2667 51.4 65.3267 49.1 65.3867L49 64.2267ZM55.36 65.4867H56.76V70.8067C56.76 71.5467 56.62 71.9067 56.06 72.1067C55.48 72.3067 54.62 72.3067 53.26 72.3067C53.2 71.9267 53 71.4267 52.82 71.0667C53.84 71.1067 54.76 71.1067 55.02 71.0867C55.3 71.0667 55.36 71.0067 55.36 70.7867V65.4867ZM50.16 68.5267L51.18 67.9067C51.98 68.5867 52.78 69.5467 53.16 70.2467L52.04 70.9667C51.7 70.2467 50.92 69.2267 50.16 68.5267ZM55.92 63.2267L56.92 62.7067C57.84 63.5067 58.84 64.6067 59.32 65.3667L58.26 65.9867C57.82 65.2067 56.82 64.0467 55.92 63.2267ZM41.02 56.0467H48.78V57.3867H41.02V56.0467ZM40.76 67.4467H49.06V68.7867H40.76V67.4467ZM44.3 53.8867H45.68V59.3467H44.3V53.8867ZM44.44 59.4267H45.54V65.2467H45.68V72.3067H44.3V65.2467H44.44V59.4267ZM42.62 62.8667V64.7067H47.4V62.8667H42.62ZM42.62 59.9867V61.7867H47.4V59.9867H42.62ZM41.46 58.8667H48.56V65.8267H41.46V58.8667Z" fill="#ACA7A1"/>
</svg>
