<svg width="80" height="80" viewBox="0 0 80 80" fill="none" xmlns="http://www.w3.org/2000/svg">
<path d="M16.8727 29.6838L16.8703 29.6693L16.8672 29.655C16.8098 29.3969 16.842 29.1919 16.9409 29.0116C17.0281 28.8528 17.1395 28.7769 17.3163 28.7532C17.4958 28.7292 17.6093 28.7741 17.7156 28.8901C17.8669 29.0553 17.9609 29.2508 17.9972 29.4914L17.9978 29.4953C18.8438 34.8138 21.2966 39.2355 25.3469 42.7407C29.3953 46.2469 34.1621 48.0483 39.6253 48.1427L40.8623 48.1641L39.9875 47.2892L36.562 43.8637C36.451 43.7528 36.3915 43.6225 36.3828 43.4454L36.3828 43.4452C36.3761 43.3098 36.4181 43.1807 36.562 43.0368C36.7161 42.8827 36.8499 42.8366 36.9754 42.8366C37.101 42.8366 37.2347 42.8827 37.3889 43.0368L43.4559 49.106C42.9092 49.2105 42.3678 49.2741 41.8313 49.2969C41.2623 49.3212 40.6816 49.3333 40.0846 49.3333C34.2619 49.3333 29.175 47.4764 24.8019 43.7584C20.4278 40.0394 17.7883 35.3543 16.8727 29.6838ZM34.8326 34.1666C33.997 34.1666 33.2988 33.8781 32.7096 33.2904L34.8338 33H54.0834C54.2685 33 54.3965 33.0564 54.5034 33.1633C54.6103 33.2702 54.6667 33.3982 54.6667 33.5833C54.6667 33.7684 54.6103 33.8963 54.5034 34.0032C54.3965 34.1101 54.2685 34.1666 54.0834 34.1666H48.6667H48.1667V34.6666V37.9166C48.1667 38.1017 48.1103 38.2297 48.0034 38.3366C47.8965 38.4435 47.7685 38.5 47.5834 38.5C47.3983 38.5 47.2704 38.4435 47.1635 38.3366C47.0566 38.2297 47.0001 38.1017 47.0001 37.9166V34.6666V34.1666H46.5001H34.8326ZM43.6173 8.55244C43.6241 8.69212 43.581 8.82112 43.4393 8.96197C43.2849 9.11539 43.1499 9.16264 43.0222 9.1633C42.8988 9.16394 42.7664 9.11914 42.6124 8.96417L42.6114 8.96314L36.546 2.89563C37.0921 2.78992 37.633 2.72584 38.1689 2.70301C38.7378 2.67877 39.3207 2.66663 39.9177 2.66663C45.7385 2.66663 50.8253 4.52833 55.1999 8.25631C59.5727 11.9838 62.2118 16.6784 63.1274 22.3594L63.1298 22.3739L63.133 22.3883C63.1908 22.6487 63.1563 22.8413 63.0644 23.0007C62.9818 23.144 62.8713 23.2216 62.6839 23.2467C62.5047 23.2706 62.3912 23.226 62.2852 23.1105C62.1364 22.9467 62.0413 22.7499 62.0024 22.5047L62.0024 22.5046C61.1563 17.1861 58.7036 12.7646 54.6534 9.25933C50.6049 5.7531 45.8381 3.95162 40.3749 3.8572L39.1378 3.83582L40.0127 4.71068L43.4382 8.13618C43.5496 8.24761 43.6088 8.37745 43.6173 8.55244ZM47.0001 29.8333V20.8346L45.1676 19.5V19H45.1664H36.1667V17.8333H45.1676C46.0033 17.8333 46.7017 18.1219 47.2909 18.7099C47.8779 19.2971 48.1667 19.9957 48.1667 20.8346V29.8333H47.0001Z" fill="#3F1A09" stroke="#3F1A09"/>
<path d="M20.86 61.48H28.88V62.88H20.86V61.48ZM23.72 65.52H27.18V66.9H23.72V65.52ZM33.2 65.04H34.58V75.02H33.2V65.04ZM23.02 62.28H24.44C24.38 68.68 24.18 73.62 21.64 76.6C21.4 76.26 20.9 75.82 20.54 75.6C22.88 72.9 22.98 68.26 23.02 62.28ZM26.68 65.52H28.06C28.06 65.52 28.06 66 28.04 66.2C27.92 72.86 27.78 75.08 27.28 75.76C26.98 76.2 26.64 76.36 26.12 76.42C25.64 76.48 24.88 76.46 24.08 76.42C24.04 76.02 23.9 75.44 23.72 75.06C24.46 75.12 25.16 75.12 25.46 75.12C25.74 75.14 25.9 75.08 26.06 74.86C26.4 74.38 26.54 72.2 26.68 65.82V65.52ZM30.7 60.8H39.16V62.18H30.7V60.8ZM29.74 64.32H37.88V65.66H29.74V64.32ZM33.84 69.18H38.4V70.48H33.84V69.18ZM31.02 58.2L32.5 58.48C31.84 61.04 30.7 63.46 29.32 65.02C29.06 64.76 28.46 64.3 28.12 64.08C29.46 62.66 30.46 60.48 31.02 58.2ZM37.58 64.32H37.82L38.04 64.26L39.02 64.58C38.54 65.82 37.98 67.24 37.48 68.12L36.3 67.68C36.72 66.86 37.22 65.62 37.58 64.54V64.32ZM30.1 67.56H31.44C31.28 71.22 30.88 74.6 28.96 76.54C28.76 76.24 28.32 75.78 28 75.58C29.66 73.88 30 70.78 30.1 67.56ZM31.14 70.34C32.02 74.16 33.9 74.86 36.34 74.86C36.72 74.86 38.8 74.86 39.38 74.84C39.16 75.18 38.98 75.84 38.92 76.22H36.24C33.24 76.22 31.18 75.3 30.1 70.7L31.14 70.34ZM23.38 58.74L24.74 58.3C25.3 59.2 25.96 60.34 26.26 61.08L24.84 61.6C24.54 60.84 23.92 59.62 23.38 58.74ZM49.2 59.68H58.96V60.86H49.2V59.68ZM48.98 70.9H59.2V72.06H48.98V70.9ZM53.34 58.22H54.66V69H53.34V58.22ZM50.9 65.02V66.24H57.22V65.02H50.9ZM50.9 62.88V64.1H57.22V62.88H50.9ZM49.66 61.94H58.5V67.2H49.66V61.94ZM49 68.56C51.24 68.54 54.64 68.48 58.04 68.4L58.02 69.5C54.76 69.6 51.4 69.66 49.1 69.72L49 68.56ZM55.36 69.82H56.76V75.14C56.76 75.88 56.62 76.24 56.06 76.44C55.48 76.64 54.62 76.64 53.26 76.64C53.2 76.26 53 75.76 52.82 75.4C53.84 75.44 54.76 75.44 55.02 75.42C55.3 75.4 55.36 75.34 55.36 75.12V69.82ZM50.16 72.86L51.18 72.24C51.98 72.92 52.78 73.88 53.16 74.58L52.04 75.3C51.7 74.58 50.92 73.56 50.16 72.86ZM55.92 67.56L56.92 67.04C57.84 67.84 58.84 68.94 59.32 69.7L58.26 70.32C57.82 69.54 56.82 68.38 55.92 67.56ZM41.02 60.38H48.78V61.72H41.02V60.38ZM40.76 71.78H49.06V73.12H40.76V71.78ZM44.3 58.22H45.68V63.68H44.3V58.22ZM44.44 63.76H45.54V69.58H45.68V76.64H44.3V69.58H44.44V63.76ZM42.62 67.2V69.04H47.4V67.2H42.62ZM42.62 64.32V66.12H47.4V64.32H42.62ZM41.46 63.2H48.56V70.16H41.46V63.2Z" fill="#3F1A09"/>
</svg>
