<svg width="80" height="80" viewBox="0 0 80 80" fill="none" xmlns="http://www.w3.org/2000/svg">
<path d="M52.4901 37.8086L52.4586 37.8395C49.2713 40.9699 44.9792 42.7188 40.5118 42.7074H40.4164H40.4163C35.9108 42.6937 31.595 40.8924 28.4166 37.6991L52.4901 37.8086ZM52.4901 37.8086C52.5551 37.752 52.6292 37.7067 52.7094 37.6745C52.8037 37.6366 52.9045 37.6176 53.0062 37.6187C53.1078 37.6198 53.2082 37.6409 53.3017 37.6808C53.3952 37.7206 53.4799 37.7786 53.551 37.8512C53.6221 37.9238 53.6782 38.0097 53.7161 38.104C53.754 38.1983 53.7729 38.2992 53.7719 38.4008C53.7708 38.5024 53.7497 38.6029 53.7098 38.6963C53.6699 38.7898 53.612 38.8745 53.5394 38.9456L53.5394 38.9457C50.0626 42.3587 45.382 44.2658 40.5099 44.2543H40.5098H40.4064C35.494 44.2392 30.7886 42.2744 27.3243 38.7916L27.3242 38.7915L22.9651 34.4345L22.8984 34.3679V34.4621V42.2499C22.8984 42.4551 22.817 42.6518 22.6719 42.7968C22.5269 42.9419 22.3301 43.0234 22.125 43.0234C21.9199 43.0234 21.7231 42.9419 21.5781 42.7968C21.433 42.6518 21.3516 42.4551 21.3516 42.2499V32.4999C21.3516 32.2948 21.433 32.0981 21.5781 31.953C21.7231 31.808 21.9199 31.7265 22.125 31.7265H31.875C32.0801 31.7265 32.2769 31.808 32.4219 31.953C32.567 32.0981 32.6484 32.2948 32.6484 32.4999C32.6484 32.7051 32.567 32.9018 32.4219 33.0468C32.2769 33.1919 32.0801 33.2734 31.875 33.2734H24.0872H23.9929L24.0596 33.3401L28.4165 37.6991L52.4901 37.8086ZM55.9128 18.7265H56.0071L55.9404 18.6598L51.5834 14.3008L51.5574 14.3268L51.5834 14.3008C48.4008 11.1184 44.0919 9.31901 39.5913 9.29271C35.0906 9.26641 30.7611 11.0154 27.5415 14.1603L27.5414 14.1603C27.4688 14.2314 27.3829 14.2875 27.2886 14.3254C27.1943 14.3633 27.0934 14.3823 26.9918 14.3812C26.8902 14.3801 26.7897 14.359 26.6963 14.3191C26.6028 14.2792 26.5181 14.2213 26.447 14.1487C26.3759 14.0761 26.3198 13.9902 26.2819 13.8959C26.244 13.8016 26.225 13.7007 26.2261 13.5991C26.2272 13.4975 26.2483 13.397 26.2882 13.3036C26.328 13.2101 26.386 13.1254 26.4586 13.0543C29.9695 9.62481 34.6909 7.7177 39.5988 7.74654C44.5067 7.77538 49.2054 9.73785 52.6758 13.2084L52.7034 13.1807L52.6758 13.2084L57.0349 17.5654L57.1016 17.632V17.5378V9.74995C57.1016 9.54482 57.183 9.34809 57.3281 9.20305C57.4731 9.058 57.6699 8.97651 57.875 8.97651C58.0801 8.97651 58.2769 9.058 58.4219 9.20305C58.567 9.34809 58.6484 9.54482 58.6484 9.74995V19.4999C58.6484 19.7051 58.567 19.9018 58.4219 20.0469C58.2769 20.1919 58.0801 20.2734 57.875 20.2734H48.125C47.9199 20.2734 47.7231 20.1919 47.5781 20.0469C47.433 19.9018 47.3516 19.7051 47.3516 19.4999C47.3516 19.2948 47.433 19.0981 47.5781 18.953C47.7231 18.808 47.9199 18.7265 48.125 18.7265H55.9128Z" fill="#3F1A09" stroke="#3F1A09" stroke-width="0.078125"/>
<path d="M21.04 74.74H38.98V75.98H21.04V74.74ZM21.14 61.76H38.86V63H21.14V61.76ZM22.52 71.82H37.7V73.02H22.52V71.82ZM29.16 59.74H30.66V75.34H29.16V59.74ZM36.12 58.32L36.92 59.48C33.34 60.14 27.64 60.48 22.96 60.58C22.96 60.22 22.78 59.7 22.64 59.38C27.3 59.26 32.96 58.9 36.12 58.32ZM24.62 67.8V69.34H35.44V67.8H24.62ZM24.62 65.28V66.8H35.44V65.28H24.62ZM23.16 64.2H36.96V70.42H23.16V64.2ZM49.22 69.58L50.4 70.14C48.38 71.92 44.72 73.42 41.6 74.08C41.42 73.74 41.04 73.24 40.76 72.96C43.84 72.4 47.4 71.12 49.22 69.58ZM50.94 69.46C52.2 72.52 55.06 74.46 59.16 75.14C58.88 75.44 58.5 75.98 58.32 76.36C54.02 75.5 51.16 73.32 49.7 69.76L50.94 69.46ZM56.82 70.54L57.92 71.32C56.64 72.22 54.96 73.08 53.64 73.66L52.7 72.9C54 72.3 55.78 71.3 56.82 70.54ZM41.1 69.14H58.9V70.36H41.1V69.14ZM52.66 59.24H54.02V65.8H52.66V59.24ZM56.46 58.4H57.82V66.7C57.82 67.48 57.66 67.82 57.1 68.04C56.54 68.24 55.62 68.26 54.2 68.26C54.14 67.88 53.92 67.38 53.72 67C54.82 67.04 55.8 67.04 56.08 67.02C56.38 67.02 56.46 66.94 56.46 66.68V58.4ZM45.56 58.2H46.86V68.36H45.56V58.2ZM49.34 64.08H50.58V66.52C50.58 67.08 50.5 67.36 50.08 67.54C49.66 67.72 49.06 67.72 48.18 67.72C48.12 67.4 47.92 67.04 47.78 66.76C48.42 66.78 48.94 66.78 49.1 66.76C49.28 66.74 49.34 66.7 49.34 66.54V64.08ZM42.06 64.08H49.9V65.1H43.26V67.84H42.06V64.08ZM41.02 61.92H51.12V63.02H41.02V61.92ZM43.1 59.64H50.42V60.7H42.66L43.1 59.64ZM42.92 58.28L44.1 58.56C43.68 59.76 43.02 61.06 42.38 61.9C42.14 61.72 41.6 61.46 41.3 61.32C42 60.5 42.56 59.36 42.92 58.28ZM44.76 76.62L44.7 75.56L45.32 75.06L51.1 73.82C51.06 74.18 51.04 74.68 51.06 74.96C45.74 76.22 45.14 76.38 44.76 76.62ZM44.78 76.62C44.68 76.3 44.42 75.74 44.22 75.5C44.54 75.3 45.06 74.9 45.06 73.98V72.08L46.48 72.06V75.02C46.48 75.02 44.78 76.04 44.78 76.62ZM48.98 67.88L50.36 67.48C50.76 68.1 51.18 68.96 51.36 69.48L49.88 69.96C49.74 69.42 49.34 68.52 48.98 67.88Z" fill="#3F1A09"/>
</svg>
