<svg width="80" height="80" viewBox="0 0 80 80" fill="none" xmlns="http://www.w3.org/2000/svg">
<path d="M52.4901 37.8087L52.4586 37.8397C49.2713 40.9701 44.9792 42.7189 40.5118 42.7076H40.4164H40.4163C35.9108 42.6938 31.595 40.8925 28.4166 37.6992L52.4901 37.8087ZM52.4901 37.8087C52.5551 37.7522 52.6292 37.7068 52.7094 37.6746C52.8037 37.6367 52.9045 37.6178 53.0062 37.6188C53.1078 37.6199 53.2082 37.641 53.3017 37.6809C53.3952 37.7208 53.4799 37.7787 53.551 37.8513C53.6221 37.9239 53.6782 38.0098 53.7161 38.1041C53.754 38.1985 53.7729 38.2993 53.7719 38.4009C53.7708 38.5026 53.7497 38.603 53.7098 38.6965C53.6699 38.7899 53.612 38.8746 53.5394 38.9457L53.5394 38.9458C50.0626 42.3588 45.382 44.2659 40.5099 44.2544H40.5098H40.4064C35.494 44.2393 30.7886 42.2745 27.3243 38.7917L27.3242 38.7917L22.9651 34.4346L22.8984 34.368V34.4623V42.2501C22.8984 42.4552 22.817 42.6519 22.6719 42.797C22.5269 42.942 22.3301 43.0235 22.125 43.0235C21.9199 43.0235 21.7231 42.942 21.5781 42.797C21.433 42.6519 21.3516 42.4552 21.3516 42.2501V32.5001C21.3516 32.2949 21.433 32.0982 21.5781 31.9532C21.7231 31.8081 21.9199 31.7266 22.125 31.7266H31.875C32.0801 31.7266 32.2769 31.8081 32.4219 31.9532C32.567 32.0982 32.6484 32.2949 32.6484 32.5001C32.6484 32.7052 32.567 32.9019 32.4219 33.047C32.2769 33.192 32.0801 33.2735 31.875 33.2735H24.0872H23.9929L24.0596 33.3402L28.4165 37.6992L52.4901 37.8087ZM55.9128 18.7266H56.0071L55.9404 18.66L51.5834 14.3009L51.5574 14.3269L51.5834 14.3009C48.4008 11.1186 44.0919 9.31913 39.5913 9.29283C35.0906 9.26653 30.7611 11.0155 27.5415 14.1604L27.5414 14.1604C27.4688 14.2315 27.3829 14.2876 27.2886 14.3255C27.1943 14.3634 27.0934 14.3824 26.9918 14.3813C26.8902 14.3802 26.7897 14.3591 26.6963 14.3193C26.6028 14.2794 26.5181 14.2215 26.447 14.1488C26.3759 14.0762 26.3198 13.9903 26.2819 13.896C26.244 13.8017 26.225 13.7008 26.2261 13.5992C26.2272 13.4976 26.2483 13.3972 26.2882 13.3037C26.328 13.2102 26.386 13.1255 26.4586 13.0544C29.9695 9.62493 34.6909 7.71782 39.5988 7.74666C44.5067 7.7755 49.2054 9.73797 52.6758 13.2085L52.7034 13.1809L52.6758 13.2085L57.0349 17.5655L57.1016 17.6322V17.5379V9.75007C57.1016 9.54494 57.183 9.34822 57.3281 9.20317C57.4731 9.05812 57.6699 8.97663 57.875 8.97663C58.0801 8.97663 58.2769 9.05812 58.4219 9.20317C58.567 9.34822 58.6484 9.54494 58.6484 9.75007V19.5001C58.6484 19.7052 58.567 19.9019 58.4219 20.047C58.2769 20.192 58.0801 20.2735 57.875 20.2735H48.125C47.9199 20.2735 47.7231 20.192 47.5781 20.047C47.433 19.9019 47.3516 19.7052 47.3516 19.5001C47.3516 19.2949 47.433 19.0982 47.5781 18.9532C47.7231 18.8081 47.9199 18.7266 48.125 18.7266H55.9128Z" fill="#3F1A09" stroke="#3F1A09" stroke-width="0.078125"/>
<path d="M21.04 74.74H38.98V75.98H21.04V74.74ZM21.14 61.76H38.86V63H21.14V61.76ZM22.52 71.82H37.7V73.02H22.52V71.82ZM29.16 59.74H30.66V75.34H29.16V59.74ZM36.12 58.32L36.92 59.48C33.34 60.14 27.64 60.48 22.96 60.58C22.96 60.22 22.78 59.7 22.64 59.38C27.3 59.26 32.96 58.9 36.12 58.32ZM24.62 67.8V69.34H35.44V67.8H24.62ZM24.62 65.28V66.8H35.44V65.28H24.62ZM23.16 64.2H36.96V70.42H23.16V64.2ZM49.22 69.58L50.4 70.14C48.38 71.92 44.72 73.42 41.6 74.08C41.42 73.74 41.04 73.24 40.76 72.96C43.84 72.4 47.4 71.12 49.22 69.58ZM50.94 69.46C52.2 72.52 55.06 74.46 59.16 75.14C58.88 75.44 58.5 75.98 58.32 76.36C54.02 75.5 51.16 73.32 49.7 69.76L50.94 69.46ZM56.82 70.54L57.92 71.32C56.64 72.22 54.96 73.08 53.64 73.66L52.7 72.9C54 72.3 55.78 71.3 56.82 70.54ZM41.1 69.14H58.9V70.36H41.1V69.14ZM52.66 59.24H54.02V65.8H52.66V59.24ZM56.46 58.4H57.82V66.7C57.82 67.48 57.66 67.82 57.1 68.04C56.54 68.24 55.62 68.26 54.2 68.26C54.14 67.88 53.92 67.38 53.72 67C54.82 67.04 55.8 67.04 56.08 67.02C56.38 67.02 56.46 66.94 56.46 66.68V58.4ZM45.56 58.2H46.86V68.36H45.56V58.2ZM49.34 64.08H50.58V66.52C50.58 67.08 50.5 67.36 50.08 67.54C49.66 67.72 49.06 67.72 48.18 67.72C48.12 67.4 47.92 67.04 47.78 66.76C48.42 66.78 48.94 66.78 49.1 66.76C49.28 66.74 49.34 66.7 49.34 66.54V64.08ZM42.06 64.08H49.9V65.1H43.26V67.84H42.06V64.08ZM41.02 61.92H51.12V63.02H41.02V61.92ZM43.1 59.64H50.42V60.7H42.66L43.1 59.64ZM42.92 58.28L44.1 58.56C43.68 59.76 43.02 61.06 42.38 61.9C42.14 61.72 41.6 61.46 41.3 61.32C42 60.5 42.56 59.36 42.92 58.28ZM44.76 76.62L44.7 75.56L45.32 75.06L51.1 73.82C51.06 74.18 51.04 74.68 51.06 74.96C45.74 76.22 45.14 76.38 44.76 76.62ZM44.78 76.62C44.68 76.3 44.42 75.74 44.22 75.5C44.54 75.3 45.06 74.9 45.06 73.98V72.08L46.48 72.06V75.02C46.48 75.02 44.78 76.04 44.78 76.62ZM48.98 67.88L50.36 67.48C50.76 68.1 51.18 68.96 51.36 69.48L49.88 69.96C49.74 69.42 49.34 68.52 48.98 67.88Z" fill="#3F1A09"/>
</svg>
