<svg width="80" height="80" viewBox="0 0 80 80" fill="none" xmlns="http://www.w3.org/2000/svg">
<path d="M25.1279 39.9274L32.6333 32.422L33.578 33.3667L26.0727 40.8721L25.3614 41.5834H26.3673H33.0833V42.9167H23.0833V32.9167H24.4166V39.6327V40.6387L25.1279 39.9274ZM53.9273 40.8721L46.4219 33.3667L47.3666 32.422L54.872 39.9274L55.5833 40.6387V39.6327V32.9167H56.9166V42.9167H46.9166V41.5834H53.6326H54.6385L53.9273 40.8721ZM32.6333 19.5782L25.1279 12.0728L24.4166 11.3615V12.3674V19.0834H23.0833V9.08341H33.0833V10.4167H26.3673H25.3614L26.0727 11.128L33.578 18.6334L32.6333 19.5782ZM47.3666 19.5782L46.4219 18.6334L53.9273 11.128L54.6385 10.4167H53.6326H46.9166V9.08341H56.9166V19.0834H55.5833V12.3674V11.3615L54.872 12.0728L47.3666 19.5782Z" fill="#3F1A09" stroke="#3F1A09" stroke-width="0.833333"/>
<path d="M25.26 66.08L26.28 65.7C26.82 66.86 27.36 68.36 27.54 69.28L26.44 69.72C26.28 68.78 25.78 67.24 25.26 66.08ZM23.64 71.22L24.7 71C24.94 72.34 25.18 74.08 25.22 75.26L24.14 75.52C24.1 74.36 23.86 72.58 23.64 71.22ZM21.56 71.08L22.72 71.28C22.5 73.02 22.12 74.9 21.72 76.14C21.46 76 20.92 75.8 20.64 75.72C21.08 74.5 21.38 72.7 21.56 71.08ZM21.1 65.7C21.04 65.42 20.84 64.76 20.68 64.4C21.02 64.32 21.34 63.9 21.74 63.3C22.16 62.7 23.5 60.4 24.3 58.22L25.52 58.78C24.54 61 23.24 63.34 21.96 64.94V64.96C21.96 64.96 21.1 65.4 21.1 65.7ZM21.1 65.7L21.08 64.66L21.74 64.24L25.12 63.94C25.06 64.3 25.02 64.8 25.02 65.08C21.92 65.44 21.4 65.54 21.1 65.7ZM21.24 70.2C21.18 69.92 20.98 69.26 20.82 68.9C21.22 68.82 21.64 68.3 22.22 67.54C22.86 66.8 24.86 63.92 26.1 61.18L27.26 61.88C25.78 64.64 23.94 67.46 22.1 69.46V69.5C22.1 69.5 21.24 69.92 21.24 70.2ZM21.24 70.2L21.18 69.16L21.84 68.7L26.88 68C26.84 68.34 26.82 68.84 26.84 69.12C22.22 69.84 21.6 70 21.24 70.2ZM25.78 70.82L26.76 70.48C27.24 71.72 27.72 73.32 27.94 74.36L26.9 74.74C26.7 73.66 26.22 72.04 25.78 70.82ZM34.48 64.1L36 64.38C35.7 65.6 35.34 66.94 35.04 67.84L33.78 67.56C34.06 66.62 34.36 65.12 34.48 64.1ZM27.74 60.14H38.86V63.18H37.46V61.42H29.12V63.46H27.74V60.14ZM30.06 62.78L31.38 63.08C30.74 65.64 29.58 68.7 27.96 70.68C27.78 70.38 27.4 69.9 27.16 69.66C28.56 67.86 29.58 65.02 30.06 62.78ZM31.36 63.66H38.92V64.9H31.36V63.66ZM32.5 70.6H37.82V71.8H32.5V70.6ZM31.8 66.94H38.56V76.48H37.22V68.16H33.08V76.58H31.8V66.94ZM28.94 67.12L30.14 65.92L30.22 65.96V76.58H28.94V67.12ZM32 58.64L33.18 58.12C33.7 58.78 34.18 59.72 34.4 60.34L33.12 60.94C32.94 60.3 32.46 59.34 32 58.64ZM32.54 74.44H37.82V75.66H32.54V74.44ZM44.12 58.56L45.42 58.18C45.84 59.02 46.3 60.14 46.52 60.84L45.14 61.3C44.96 60.56 44.5 59.4 44.12 58.56ZM40.86 61.44H49.76V62.86H40.86V61.44ZM44.1 65.52H47.94V66.9H44.1V65.52ZM47.42 65.52H48.86C48.86 65.52 48.86 66 48.84 66.2C48.7 72.8 48.58 75.04 48.06 75.72C47.74 76.16 47.4 76.32 46.86 76.38C46.38 76.44 45.54 76.44 44.68 76.38C44.66 75.98 44.52 75.38 44.3 74.98C45.12 75.06 45.88 75.08 46.18 75.08C46.48 75.08 46.64 75.02 46.8 74.8C47.14 74.32 47.3 72.16 47.42 65.82V65.52ZM51.78 61.94H59.22V63.34H51.78V61.94ZM52.22 58.2L53.76 58.44C53.02 62.26 51.8 65.9 50.04 68.24C49.8 67.94 49.22 67.38 48.88 67.12C50.52 65 51.62 61.66 52.22 58.2ZM56.36 62.7L57.84 62.86C56.78 69.76 54.58 74.04 49.5 76.66C49.34 76.32 48.9 75.66 48.62 75.34C53.42 73.1 55.48 69.04 56.36 62.7ZM52.38 63.22C53.32 68.8 55.36 73.4 59.42 75.28C59.06 75.58 58.6 76.16 58.36 76.56C54.14 74.36 52.12 69.58 51.06 63.46L52.38 63.22ZM43.24 62.14H44.66V67.02C44.66 70.34 44.26 73.76 41.6 76.58C41.34 76.28 40.86 75.88 40.48 75.62C42.94 73.02 43.24 69.84 43.24 67.02V62.14Z" fill="#3F1A09"/>
</svg>
