<svg width="80" height="80" viewBox="0 0 80 80" fill="none" xmlns="http://www.w3.org/2000/svg">
<path d="M27.5287 6.7469L54.1744 25.5102C54.4021 25.6725 54.58 25.8951 54.688 26.1531C54.796 26.411 54.8298 26.694 54.7857 26.9701C54.7416 27.2462 54.6212 27.5045 54.4381 27.7159C54.2551 27.9273 54.0167 28.0834 53.7497 28.1666L43.7397 30.0667C43.5626 30.1184 43.3994 30.2094 43.2624 30.3329C43.1255 30.4564 43.0181 30.6094 42.9486 30.7802C42.879 30.9511 42.8489 31.1354 42.8606 31.3195C42.8723 31.5036 42.9254 31.6827 43.016 31.8434L48.021 41.3269C48.1346 41.4961 48.2125 41.6867 48.25 41.887C48.2875 42.0873 48.2839 42.2932 48.2393 42.4921C48.1947 42.6909 48.1101 42.8786 47.9906 43.0437C47.8711 43.2088 47.7193 43.3479 47.5444 43.4524L43.9412 45.3287C43.5894 45.5138 43.1786 45.5517 42.7989 45.4344C42.4191 45.317 42.1014 45.0538 41.9154 44.7026L36.9104 35.1974C36.8346 35.0274 36.7218 34.8764 36.5802 34.7556C36.4386 34.6347 36.2718 34.547 36.092 34.4988C35.9122 34.4506 35.7239 34.4432 35.5409 34.4771C35.3578 34.511 35.1847 34.5854 35.034 34.6947L27.7042 41.7516C27.4834 41.9513 27.2082 42.0807 26.9136 42.1234C26.619 42.1662 26.3184 42.1202 26.05 41.9915C25.7816 41.8628 25.5576 41.657 25.4065 41.4005C25.2555 41.1441 25.1842 40.8484 25.2017 40.5512V8.02307C25.1977 7.75019 25.2681 7.48138 25.4054 7.24553C25.5428 7.00969 25.7418 6.81572 25.981 6.68449C26.2203 6.55327 26.4909 6.48974 26.7635 6.50073C27.0362 6.51173 27.3008 6.59684 27.5287 6.7469Z" stroke="#3F1A09" stroke-width="1.16667" stroke-linecap="round" stroke-linejoin="round"/>
<path d="M26.7 66.74H38.32V67.9H26.7V66.74ZM25.86 69.76H38.96V70.92H25.86V69.76ZM29.48 65.3H30.88V70.4H29.48V65.3ZM34 65.3H35.4V70.4H34V65.3ZM33.48 71.76L34.48 71.08C35.98 71.78 37.66 72.72 38.62 73.46L37.3 74.16C36.44 73.4 34.94 72.46 33.48 71.76ZM30.14 71.1L31.48 71.56C30.42 72.56 28.78 73.58 27.42 74.2C27.14 73.96 26.6 73.5 26.26 73.28C27.66 72.74 29.2 71.92 30.14 71.1ZM27.14 59H31.9V62.4H27.14V61.36H30.6V60.02H27.14V59ZM33.52 59.02H38.38V62.42H33.52V61.38H37.06V60.04H33.52V59.02ZM32.94 59.02H34.18V63.1C34.18 63.66 34.26 63.84 34.72 63.84C35.12 63.84 37.02 63.84 37.42 63.84C37.8 63.84 38.4 63.82 38.74 63.76C38.76 64.08 38.8 64.54 38.86 64.84C38.56 64.9 38.02 64.94 37.48 64.94C37.02 64.94 34.98 64.94 34.66 64.94C33.28 64.94 32.94 64.44 32.94 63.08V59.02ZM26.58 65.44L26.54 64.46L27.16 64.04L32.08 63.26C32.02 63.58 31.96 64.08 31.96 64.34C27.52 65.14 26.92 65.26 26.58 65.44ZM26.58 65.44C26.5 65.12 26.22 64.54 26.04 64.24C26.28 64.12 26.56 63.86 26.56 63.1V59H27.78V64.32C27.78 64.32 26.58 65 26.58 65.44ZM21.34 59L22.44 58.32C23.36 59.3 24.48 60.58 25.04 61.38L23.86 62.2C23.34 61.38 22.22 59.98 21.34 59ZM20.94 62.84H24.58V64.1H20.94V62.84ZM24.38 72C25.62 74.62 28.26 74.98 32.28 74.98C34.4 74.98 37.36 74.88 39.42 74.7C39.18 75.04 39 75.74 38.92 76.16C37.02 76.26 34.48 76.32 32.26 76.32C27.54 76.32 24.9 75.78 23.38 72.46L24.38 72ZM24.36 67.82H24.72L24.98 67.78L25.74 68.06C25.12 72.26 23.62 75.1 21.58 76.66C21.38 76.34 20.88 75.84 20.58 75.62C22.52 74.24 23.86 71.68 24.36 68.08V67.82ZM21.26 69.32V68.18L21.98 67.82H24.76V69.04H22.4C21.94 69.04 21.42 69.18 21.26 69.32ZM21.26 69.32C21.18 68.98 20.88 68.28 20.72 67.98C21 67.9 21.3 67.78 21.6 67.38C22.12 66.82 23.7 64.02 24.24 62.98V62.92L24.66 62.74L25.66 63.12C24.88 64.48 23.34 67.12 22.38 68.38C22.38 68.38 21.26 68.92 21.26 69.32ZM50.22 60.96H57.6V62.42H50.22V60.96ZM40.94 59.46H50.72V60.86H40.94V59.46ZM43.28 63.52H48.48V64.9H43.28V63.52ZM43.28 67.68H48.48V69.04H43.28V67.68ZM57.16 60.96H57.42L57.7 60.92L58.66 61.18C57.7 69.14 54.64 73.84 50.36 76.32C50.12 75.94 49.7 75.38 49.36 75.1C53.32 73.04 56.3 68.34 57.16 61.32V60.96ZM52.04 62.5C53.1 68.28 55.42 73.02 59.54 75.14C59.2 75.44 58.72 76 58.48 76.4C54.14 73.94 51.84 69.06 50.6 62.78L52.04 62.5ZM42.5 60H43.94V72.98H42.5V60ZM47.86 60H49.3V76.56H47.86V60ZM40.54 72.54C42.5 72.3 45.52 71.88 48.44 71.44L48.52 72.82C45.78 73.26 42.9 73.72 40.82 74.04L40.54 72.54Z" fill="#3F1A09"/>
</svg>
