<svg width="80" height="77" viewBox="0 0 80 77" fill="none" xmlns="http://www.w3.org/2000/svg">
<path d="M16.8727 27.5171L16.8703 27.5027L16.8672 27.4884C16.8098 27.2303 16.842 27.0253 16.9409 26.845C17.0281 26.6861 17.1395 26.6102 17.3163 26.5866C17.4958 26.5626 17.6093 26.6075 17.7156 26.7234C17.8669 26.8886 17.9609 27.0842 17.9972 27.3248L17.9978 27.3287C18.8438 32.6472 21.2966 37.0688 25.3469 40.5741C29.3953 44.0802 34.1621 45.8817 39.6253 45.9761L40.8623 45.9975L39.9875 45.1226L36.562 41.6971C36.451 41.5862 36.3915 41.4559 36.3828 41.2788L36.3828 41.2786C36.3761 41.1432 36.4181 41.0141 36.562 40.8702C36.7161 40.716 36.8499 40.67 36.9754 40.67C37.101 40.67 37.2347 40.716 37.3889 40.8702L43.4559 46.9394C42.9092 47.0439 42.3678 47.1074 41.8313 47.1303C41.2623 47.1545 40.6816 47.1667 40.0846 47.1667C34.2619 47.1667 29.175 45.3097 24.8019 41.5917C20.4278 37.8728 17.7883 33.1877 16.8727 27.5171ZM34.8326 32C33.997 32 33.2988 31.7115 32.7096 31.1238L34.8338 30.8333H54.0834C54.2685 30.8333 54.3965 30.8898 54.5034 30.9967C54.6103 31.1036 54.6667 31.2316 54.6667 31.4167C54.6667 31.6017 54.6103 31.7297 54.5034 31.8366C54.3965 31.9435 54.2685 32 54.0834 32H48.6667H48.1667V32.5V35.75C48.1667 35.9351 48.1103 36.0631 48.0034 36.1699C47.8965 36.2768 47.7685 36.3333 47.5834 36.3333C47.3983 36.3333 47.2704 36.2768 47.1635 36.1699C47.0566 36.0631 47.0001 35.9351 47.0001 35.75V32.5V32H46.5001H34.8326ZM43.6173 6.38581C43.6241 6.52549 43.581 6.65449 43.4393 6.79534C43.2849 6.94876 43.1499 6.99602 43.0222 6.99667C42.8988 6.99731 42.7664 6.95251 42.6124 6.79755L42.6114 6.79651L36.546 0.729007C37.0921 0.623292 37.633 0.559211 38.1689 0.53638C38.7378 0.51214 39.3207 0.5 39.9177 0.5C45.7385 0.5 50.8253 2.3617 55.1999 6.08968C59.5727 9.8172 62.2118 14.5118 63.1274 20.1927L63.1298 20.2073L63.133 20.2216C63.1908 20.482 63.1563 20.6747 63.0644 20.8341C62.9818 20.9774 62.8713 21.055 62.6839 21.0801C62.5047 21.104 62.3912 21.0594 62.2852 20.9439C62.1364 20.7801 62.0413 20.5833 62.0024 20.3381L62.0024 20.3379C61.1563 15.0195 58.7036 10.5979 54.6534 7.09271C50.6049 3.58647 45.8381 1.785 40.3749 1.69057L39.1378 1.66919L40.0127 2.54405L43.4382 5.96955C43.5496 6.08099 43.6088 6.21082 43.6173 6.38581ZM47.0001 27.6667V18.668L45.1676 17.3333V16.8333H45.1664H36.1667V15.6667H45.1676C46.0033 15.6667 46.7017 15.9553 47.2909 16.5433C47.8779 17.1305 48.1667 17.8291 48.1667 18.668V27.6667H47.0001Z" fill="#3F1A09" stroke="#ACA7A1"/>
<path d="M20.86 57.1467H28.88V58.5467H20.86V57.1467ZM23.72 61.1867H27.18V62.5667H23.72V61.1867ZM33.2 60.7067H34.58V70.6867H33.2V60.7067ZM23.02 57.9467H24.44C24.38 64.3467 24.18 69.2867 21.64 72.2667C21.4 71.9267 20.9 71.4867 20.54 71.2667C22.88 68.5667 22.98 63.9267 23.02 57.9467ZM26.68 61.1867H28.06C28.06 61.1867 28.06 61.6667 28.04 61.8667C27.92 68.5267 27.78 70.7467 27.28 71.4267C26.98 71.8667 26.64 72.0267 26.12 72.0867C25.64 72.1467 24.88 72.1267 24.08 72.0867C24.04 71.6867 23.9 71.1067 23.72 70.7267C24.46 70.7867 25.16 70.7867 25.46 70.7867C25.74 70.8067 25.9 70.7467 26.06 70.5267C26.4 70.0467 26.54 67.8667 26.68 61.4867V61.1867ZM30.7 56.4667H39.16V57.8467H30.7V56.4667ZM29.74 59.9867H37.88V61.3267H29.74V59.9867ZM33.84 64.8467H38.4V66.1467H33.84V64.8467ZM31.02 53.8667L32.5 54.1467C31.84 56.7067 30.7 59.1267 29.32 60.6867C29.06 60.4267 28.46 59.9667 28.12 59.7467C29.46 58.3267 30.46 56.1467 31.02 53.8667ZM37.58 59.9867H37.82L38.04 59.9267L39.02 60.2467C38.54 61.4867 37.98 62.9067 37.48 63.7867L36.3 63.3467C36.72 62.5267 37.22 61.2867 37.58 60.2067V59.9867ZM30.1 63.2267H31.44C31.28 66.8867 30.88 70.2667 28.96 72.2067C28.76 71.9067 28.32 71.4467 28 71.2467C29.66 69.5467 30 66.4467 30.1 63.2267ZM31.14 66.0067C32.02 69.8267 33.9 70.5267 36.34 70.5267C36.72 70.5267 38.8 70.5267 39.38 70.5067C39.16 70.8467 38.98 71.5067 38.92 71.8867H36.24C33.24 71.8867 31.18 70.9667 30.1 66.3667L31.14 66.0067ZM23.38 54.4067L24.74 53.9667C25.3 54.8667 25.96 56.0067 26.26 56.7467L24.84 57.2667C24.54 56.5067 23.92 55.2867 23.38 54.4067ZM49.2 55.3467H58.96V56.5267H49.2V55.3467ZM48.98 66.5667H59.2V67.7267H48.98V66.5667ZM53.34 53.8867H54.66V64.6667H53.34V53.8867ZM50.9 60.6867V61.9067H57.22V60.6867H50.9ZM50.9 58.5467V59.7667H57.22V58.5467H50.9ZM49.66 57.6067H58.5V62.8667H49.66V57.6067ZM49 64.2267C51.24 64.2067 54.64 64.1467 58.04 64.0667L58.02 65.1667C54.76 65.2667 51.4 65.3267 49.1 65.3867L49 64.2267ZM55.36 65.4867H56.76V70.8067C56.76 71.5467 56.62 71.9067 56.06 72.1067C55.48 72.3067 54.62 72.3067 53.26 72.3067C53.2 71.9267 53 71.4267 52.82 71.0667C53.84 71.1067 54.76 71.1067 55.02 71.0867C55.3 71.0667 55.36 71.0067 55.36 70.7867V65.4867ZM50.16 68.5267L51.18 67.9067C51.98 68.5867 52.78 69.5467 53.16 70.2467L52.04 70.9667C51.7 70.2467 50.92 69.2267 50.16 68.5267ZM55.92 63.2267L56.92 62.7067C57.84 63.5067 58.84 64.6067 59.32 65.3667L58.26 65.9867C57.82 65.2067 56.82 64.0467 55.92 63.2267ZM41.02 56.0467H48.78V57.3867H41.02V56.0467ZM40.76 67.4467H49.06V68.7867H40.76V67.4467ZM44.3 53.8867H45.68V59.3467H44.3V53.8867ZM44.44 59.4267H45.54V65.2467H45.68V72.3067H44.3V65.2467H44.44V59.4267ZM42.62 62.8667V64.7067H47.4V62.8667H42.62ZM42.62 59.9867V61.7867H47.4V59.9867H42.62ZM41.46 58.8667H48.56V65.8267H41.46V58.8667Z" fill="#ACA7A1"/>
</svg>
