<svg width="539" height="114" viewBox="0 0 539 114" fill="none" xmlns="http://www.w3.org/2000/svg">
<path d="M178 40L392.22 40L411 67.5L392.22 95L178 95V40Z" fill="white"/>
<path d="M178 40L392.22 40L411 67.5L392.22 95L178 95V40Z" fill="#EDB8B8" fill-opacity="0.5"/>
<path d="M318.56 93.07C318.35 93.37 317.75 93.58 316.85 93.07L317.75 92.98C316.34 94.12 313.31 95.86 310.85 96.7L310.82 96.37H311.84C311.72 97.57 311.3 98.2 310.85 98.38L309.74 96.01C309.74 96.01 310.19 95.89 310.43 95.8C312.38 94.96 314.84 92.35 315.77 91.03L318.56 93.07ZM315.71 91.06C315.53 91.36 314.99 91.66 314 91.24L314.93 91.12C313.91 92.02 311.99 93.28 310.52 93.88V93.52H311.54C311.42 94.72 311 95.32 310.55 95.5L309.47 93.16C309.47 93.16 309.83 93.07 310.04 92.98C311.06 92.41 312.26 90.34 312.65 89.38L315.71 91.06ZM310.25 96.01C311.51 96.01 314.36 95.86 317.15 95.68L317.18 96.16C315.98 96.58 313.43 97.45 310.97 98.17L310.25 96.01ZM309.8 93.19C310.85 93.22 313.16 93.22 315.29 93.19V93.67C314.48 93.97 312.38 94.57 310.55 95.05L309.8 93.19ZM315.98 94.51C320.18 96.55 317.93 99.52 316.37 97.96C316.37 96.88 315.98 95.5 315.62 94.66L315.98 94.51ZM318.68 98.71C318.62 99.04 318.44 99.28 317.81 99.4V103.45C317.81 103.66 316.61 104.08 315.62 104.08H315.14V98.38L318.68 98.71ZM316.55 102.04V102.88H312.17V102.04H316.55ZM308.39 102.01V102.85H304.16V102.01H308.39ZM314.57 98.62C314.51 99.04 314.24 99.34 313.46 99.46V106.72C313.46 106.96 312.17 107.41 311.03 107.41H310.52V98.26L314.57 98.62ZM310.73 98.65C310.67 99.04 310.46 99.31 309.77 99.4V101.14C309.68 103.54 308.54 106.3 302.54 107.71L302.3 107.38C306.2 105.7 306.92 103.24 306.92 101.08V98.29L310.73 98.65ZM306.32 98.89C306.26 99.28 306.02 99.52 305.36 99.64V100.81H302.66V98.5L306.32 98.89ZM304.73 99.88L305.36 100.27V102.85H305.6L304.61 104.23L301.55 102.49C301.91 102.1 302.66 101.62 303.17 101.44L302.66 102.52V99.88H304.73ZM310.07 93.1C309.89 93.4 309.29 93.61 308.39 93.1L309.29 93.01C307.94 94.27 305.15 96.16 302.9 97.15L302.87 96.79H303.89C303.8 97.99 303.35 98.62 302.9 98.8L301.82 96.43C301.82 96.43 302.27 96.34 302.48 96.22C304.22 95.29 306.44 92.5 307.25 91.09L310.07 93.1ZM308.21 90.97C308.06 91.3 307.52 91.57 306.53 91.15L307.43 91.03C306.35 91.96 304.28 93.22 302.69 93.82L302.66 93.46H303.68C303.59 94.66 303.14 95.26 302.72 95.44L301.64 93.1C301.64 93.1 302 93.01 302.21 92.92C303.35 92.32 304.73 90.25 305.18 89.29L308.21 90.97ZM302.39 96.43C303.56 96.43 306.17 96.31 308.66 96.13L308.69 96.61C307.67 97 305.3 97.84 303.11 98.53L302.39 96.43ZM302.09 93.16C303.11 93.19 305.33 93.19 307.34 93.16V93.64C306.59 93.91 304.55 94.54 302.84 95.02L302.09 93.16ZM307.43 94.48C311.78 96.34 309.65 99.4 308.06 97.93C308 96.82 307.52 95.47 307.07 94.63L307.43 94.48ZM320.87 88.54V89.38H312.77V88.54H320.87ZM320.87 85.54V86.38H312.77V85.54H320.87ZM307.55 88.57V89.41H299.18V88.57H307.55ZM307.55 85.54V86.38H299.18V85.54H307.55ZM304.73 82.51L306.35 80.77L309.74 83.29C309.56 83.5 309.2 83.77 308.63 83.86V89.89C308.6 90.1 306.8 90.73 305.66 90.73H305.03V82.51H304.73ZM318.59 82.51L320.33 80.5L323.99 83.35C323.78 83.59 323.39 83.86 322.79 83.98V104.17C322.79 106.81 322.19 108.25 317.81 108.64C317.69 107.38 317.51 106.45 317 105.88C316.46 105.31 315.8 104.86 314.18 104.59V104.17C314.18 104.17 317.54 104.38 318.23 104.38C318.74 104.38 318.89 104.17 318.89 103.75V82.51H318.59ZM314.72 89.53C314.72 89.86 313.04 90.67 311.51 90.67H310.97V81.01L314.87 82.51H320.99V83.35H314.72V89.53ZM301.28 107.41C301.28 107.92 299.84 108.88 298.1 108.88H297.44V80.83L301.43 82.51H307.49V83.35H301.28V107.41ZM351.8 81.91C352.88 85.93 355.67 88.81 358.4 90.58L358.34 91C356.69 91.99 355.64 93.28 355.43 94.87C353.12 91.75 351.92 86.89 351.32 82.21L351.8 81.91ZM351.95 82.36C350.42 86.86 347.15 92.14 342.74 95.35L342.5 95.17C345.14 91.03 347.06 84.37 347.51 80.2L353.18 81.61C353.06 82.03 352.76 82.27 351.95 82.36ZM344.21 99.52C358.94 100.6 356.99 110.38 351.98 108.16C350.24 105.1 346.94 101.77 344 99.73L344.21 99.52ZM346.61 92.08C355.88 91.39 353.78 98.62 349.85 96.82C349.16 95.17 347.63 93.37 346.4 92.26L346.61 92.08ZM333.47 80.41C342.68 81.52 338.87 88.57 335.24 85.72C335.09 83.86 334.22 81.88 333.26 80.56L333.47 80.41ZM337.04 86.86C336.92 94.87 336.2 103.78 329.36 108.94L329.12 108.7C332.66 102.4 332.69 94.03 332.36 86.86H337.04ZM338.42 91.72L340.46 89.71L343.91 92.65C343.67 92.92 343.31 93.13 342.65 93.25C342.38 102.97 341.93 105.94 340.28 107.35C339.26 108.22 338.03 108.61 336.38 108.61C336.38 107.38 336.29 106.45 335.93 105.94C335.54 105.37 334.94 104.95 333.92 104.68V104.32C334.67 104.38 335.9 104.44 336.47 104.44C336.89 104.44 337.13 104.35 337.37 104.14C338.21 103.39 338.54 99.88 338.75 91.72H338.42ZM339.95 91.72V92.56H334.85V91.72H339.95ZM341.57 83.98C341.57 83.98 343.82 85.81 345.14 87.04C345.05 87.37 344.72 87.52 344.3 87.52H329.78L329.54 86.68H339.56L341.57 83.98ZM363.08 90.1H385.58L387.74 87.52C387.74 87.52 390.17 89.26 391.67 90.46C391.58 90.79 391.25 90.94 390.83 90.94H363.32L363.08 90.1ZM378.11 80.92L383.45 81.43C383.42 81.82 383.18 82.18 382.4 82.3C382.25 90.76 382.79 98.65 387.98 102.7C388.43 103.09 388.67 103.09 388.97 102.61C389.51 101.8 390.44 100.12 391.07 98.77L391.34 98.86L390.62 104.05C391.79 106.03 391.94 107.11 391.37 107.71C389.81 109.3 387.05 107.98 385.61 106.75C378.83 100.9 378.14 91.63 378.11 80.92ZM383.96 81.97C392.72 83.05 389.03 89.8 385.58 87.04C385.55 85.27 384.71 83.35 383.72 82.12L383.96 81.97ZM385.73 91.54L390.74 93.82C390.56 94.15 390.26 94.36 389.54 94.27C386.75 99.55 381.89 105.07 373.73 107.71L373.52 107.38C379.97 103.57 383.99 97.09 385.73 91.54ZM363.05 96.25C365.66 96.04 372.23 95.2 378.74 94.27L378.77 94.6C376.16 96.04 372.05 97.93 365.78 100.39C365.6 100.78 365.24 101.05 364.88 101.14L363.05 96.25ZM374.21 80.53L378.71 84.43C378.32 84.76 377.6 84.82 376.52 84.46C373.19 85.39 367.82 86.17 363.11 86.41L363.05 86.11C366.98 84.73 371.81 82.27 374.21 80.53ZM369.59 83.95H373.85V103.75C373.85 106.54 373.13 108.49 368.51 108.82C368.45 107.44 368.24 106.39 367.73 105.76C367.22 105.13 366.56 104.65 364.79 104.35V103.99C364.79 103.99 368.21 104.2 368.96 104.2C369.44 104.2 369.59 103.96 369.59 103.6V83.95ZM406.7 87.19H411.65V88.03H406.7V87.19ZM406.7 92.05H411.65V92.89H406.7V92.05ZM410.36 82.72H410.09L411.59 81.16L414.62 83.44C414.47 83.65 414.14 83.86 413.66 83.95V93.73C413.63 93.94 412.01 94.6 410.93 94.6H410.36V82.72ZM417.14 87.19H422.09V88.03H417.14V87.19ZM417.14 92.05H422.09V92.89H417.14V92.05ZM419.72 82.72H419.42L421.28 80.59L425.06 83.59C424.88 83.83 424.49 84.1 423.89 84.22V104.17C423.89 106.93 423.26 108.43 418.73 108.85C418.64 107.5 418.46 106.48 417.98 105.91C417.47 105.28 416.87 104.83 415.28 104.53V104.14C415.28 104.14 418.43 104.32 419.09 104.32C419.6 104.32 419.72 104.11 419.72 103.72V82.72ZM404.78 82.72V80.98L408.92 82.72H412.19V83.56H408.83V107.32C408.83 107.86 407.3 108.85 405.47 108.85H404.78V82.72ZM414.8 82.72V81.34L418.25 82.72H421.16V83.56H418.13V93.46C418.13 93.76 416.72 94.51 415.28 94.51H414.8V82.72ZM398.87 90.28L400.25 88.45L403.73 89.74C403.61 90.01 403.34 90.22 402.77 90.31V107.8C402.74 108.07 401.09 108.85 399.59 108.85H398.87V90.28ZM400.22 80.35L405.5 82C405.38 82.39 404.99 82.63 404.3 82.63C402.59 88.42 400.1 93.07 396.56 96.34L396.2 96.13C397.97 92.11 399.59 86.02 400.22 80.35Z" fill="#3F1A09"/>
<path d="M136.632 57V55.504L141.032 54.844H141.868L146.664 55.504V57H136.632ZM139.624 57L150.668 24H155.244L166.508 57H158.896L149.832 28.532H150.756L150.624 29.148L141.956 57H139.624ZM144.552 46.572L144.948 45.032H159.204L159.6 46.572H144.552ZM153.968 57V55.46L159.952 54.8H162.68L168.972 55.46V57H153.968ZM176.444 57V55.504L183.528 54.8H184.232V57H176.444ZM180.36 57C180.492 51.764 180.492 46.396 180.492 40.984V39.4C180.492 34.296 180.492 29.236 180.36 24.132H188.016C187.84 29.148 187.84 34.208 187.84 39.488V40.456C187.84 46.352 187.84 51.72 188.016 57H180.36ZM184.232 57V55.372H190.172C194.88 55.372 197.74 52.82 197.74 47.98C197.74 42.876 195.232 40.588 189.908 40.588H184.232V39.004H189.556C194.044 39.004 196.288 36.496 196.288 32.052C196.288 28.092 194.44 25.804 189.996 25.804H184.232V24.132H191.932C200.38 24.132 203.46 27.388 203.46 31.832C203.46 35.484 200.864 38.74 192.196 39.708L192.284 39.268C201.656 39.796 205.396 42.92 205.396 47.848C205.396 52.16 202.272 57 190.392 57H184.232ZM176.444 25.628V24.132H184.232V26.288H183.528L176.444 25.628ZM229.401 57.88C221.129 57.88 213.781 52.028 213.781 40.544C213.781 29.192 221.129 23.252 229.401 23.252C237.673 23.252 244.977 29.148 244.977 40.544C244.977 51.984 237.717 57.88 229.401 57.88ZM229.401 56.208C234.769 56.208 237.145 49.608 237.145 40.544C237.145 31.568 234.769 24.924 229.401 24.924C224.033 24.924 221.613 31.568 221.613 40.544C221.613 49.608 224.033 56.208 229.401 56.208ZM269.634 57.88C262.066 57.88 256.786 54.316 256.786 43.932V39.136C256.786 34.208 256.786 29.148 256.61 24.132H264.354C264.266 29.104 264.266 34.12 264.266 39.136V43.272C264.266 51.324 266.906 54.272 271.966 54.272C277.07 54.272 280.018 51.06 279.93 43.096L279.754 24.132H282.042L281.866 43.184C281.734 53.304 277.466 57.88 269.634 57.88ZM252.87 25.628V24.132H268.534V25.628L261.318 26.288H259.998L252.87 25.628ZM274.738 25.628V24.132H286.574V25.628L281.602 26.332H280.194L274.738 25.628ZM300.01 57V55.504L307.182 54.8H309.206L316.598 55.504V57H300.01ZM304.41 57C304.542 51.984 304.542 46.792 304.542 41.556V39.62C304.542 34.428 304.542 29.28 304.41 24.132H312.154C312.022 29.192 312.022 34.384 312.022 39.62V41.512C312.022 46.66 312.022 51.852 312.154 57H304.41ZM293.586 33.636L293.762 24.132H322.802L322.978 33.636H320.426L317.698 24.132L321.218 25.848H295.302L298.866 24.132L296.182 33.636H293.586Z" fill="#CFB286"/>
</svg>
