<svg width="599" height="400" viewBox="0 0 599 400" fill="none" xmlns="http://www.w3.org/2000/svg">
<path d="M560.979 14.4463H240.509C228.254 14.4463 218.32 24.3939 218.32 36.6648V276.874C218.32 289.144 228.254 299.092 240.509 299.092H560.979C573.234 299.092 583.168 289.144 583.168 276.874V36.6648C583.168 24.3939 573.234 14.4463 560.979 14.4463Z" fill="#D8E9F1"/>
<path d="M583.171 185.854H474.263L396.027 140.263C394.629 139.449 393.469 138.282 392.662 136.878C391.856 135.475 391.431 133.884 391.431 132.264V92.3359" stroke="white" stroke-width="10" stroke-miterlimit="10"/>
<path d="M391.431 80.5013V14.4463" stroke="white" stroke-width="10" stroke-miterlimit="10"/>
<path d="M339.125 186.644V60.4346" stroke="white" stroke-width="10" stroke-miterlimit="10"/>
<path d="M218.319 129.542H264.816C267.312 129.542 269.784 129.05 272.091 128.093C274.397 127.137 276.493 125.734 278.258 123.967C280.023 122.199 281.424 120.101 282.379 117.791C283.334 115.482 283.826 113.006 283.826 110.507V60.8506" stroke="white" stroke-width="10" stroke-miterlimit="10"/>
<path d="M283.824 72.9092C283.824 76.4793 285.241 79.9032 287.762 82.4277C290.283 84.9521 293.702 86.3703 297.268 86.3703H385.478" stroke="white" stroke-width="10" stroke-miterlimit="10"/>
<path d="M397.305 86.3714H487.663C491.466 86.371 495.138 84.9798 497.989 82.4592L522.409 60.8515L570.995 17.8086" stroke="white" stroke-width="10" stroke-miterlimit="10" stroke-linecap="round"/>
<path d="M397.305 86.3712V86.419C397.306 87.982 396.688 89.4818 395.588 90.5905C394.488 91.6993 392.994 92.3269 391.433 92.3362H391.396C390.619 92.3376 389.849 92.1855 389.131 91.8887C388.413 91.5919 387.761 91.1563 387.211 90.6066C386.661 90.057 386.225 89.4042 385.928 88.6857C385.631 87.9671 385.478 87.1968 385.478 86.419V86.3712C385.49 84.8106 386.118 83.318 387.224 82.2189C388.331 81.1198 389.827 80.5033 391.385 80.5039H391.423C392.977 80.5099 394.466 81.1292 395.567 82.2276C396.669 83.326 397.293 84.8149 397.305 86.3712Z" stroke="white" stroke-width="10" stroke-miterlimit="10"/>
<path d="M583.17 60.8564H522.409" stroke="white" stroke-width="10" stroke-miterlimit="10"/>
<path d="M583.17 152.008H474.263" stroke="white" stroke-width="10" stroke-miterlimit="10"/>
<path d="M474.263 14.4463V218.028C474.262 220.634 473.228 223.133 471.388 224.976C469.547 226.818 467.051 227.853 464.448 227.853H218.319" stroke="white" stroke-width="10" stroke-miterlimit="10"/>
<path d="M510.169 300.024L440.701 227.853" stroke="white" stroke-width="10" stroke-miterlimit="10"/>
<path d="M268.758 185.836L243.606 129.542" stroke="white" stroke-width="10" stroke-miterlimit="10"/>
<path d="M218.319 60.8564H391.393" stroke="white" stroke-width="10" stroke-miterlimit="10"/>
<path d="M473.472 13.9814L397.604 85.9038" stroke="white" stroke-width="5" stroke-miterlimit="10"/>
<path d="M474.263 21.0859L405.891 85.9027" stroke="white" stroke-width="5" stroke-miterlimit="10"/>
<path d="M474.263 28.9404L414.176 85.9016" stroke="white" stroke-width="5" stroke-miterlimit="10"/>
<path d="M474.263 36.7959L422.461 85.9035" stroke="white" stroke-width="5" stroke-miterlimit="10"/>
<path d="M474.263 52.5059L439.031 85.9042" stroke="white" stroke-width="5" stroke-miterlimit="10"/>
<path d="M474.263 44.6504L430.746 85.9023" stroke="white" stroke-width="5" stroke-miterlimit="10"/>
<path d="M474.263 60.3604L447.316 85.9031" stroke="white" stroke-width="5" stroke-miterlimit="10"/>
<path d="M474.263 68.2139L455.603 85.9031" stroke="white" stroke-width="5" stroke-miterlimit="10"/>
<path d="M474.263 76.0693L463.888 85.9029" stroke="white" stroke-width="5" stroke-miterlimit="10"/>
<path d="M407.19 13.9814L391.431 28.9198" stroke="white" stroke-width="5" stroke-miterlimit="10"/>
<path d="M398.905 13.9814L391.431 21.0663" stroke="white" stroke-width="5" stroke-miterlimit="10"/>
<path d="M415.475 13.9814L391.431 36.7755" stroke="white" stroke-width="5" stroke-miterlimit="10"/>
<path d="M423.76 13.9814L391.393 44.6643" stroke="white" stroke-width="5" stroke-miterlimit="10"/>
<path d="M440.332 13.9814L391.393 60.3735" stroke="white" stroke-width="5" stroke-miterlimit="10"/>
<path d="M432.047 13.9814L391.393 52.5179" stroke="white" stroke-width="5" stroke-miterlimit="10"/>
<path d="M448.617 13.9814L391.431 68.1918" stroke="white" stroke-width="5" stroke-miterlimit="10"/>
<path d="M456.902 13.9814L391.431 76.0474" stroke="white" stroke-width="5" stroke-miterlimit="10"/>
<path d="M465.187 13.9814L394.244 81.2353" stroke="white" stroke-width="5" stroke-miterlimit="10"/>
<path d="M442.878 227.979L367.009 299.901" stroke="white" stroke-width="5" stroke-miterlimit="10"/>
<path d="M445.756 233.102L375.295 299.898" stroke="white" stroke-width="5" stroke-miterlimit="10"/>
<path d="M449.709 237.211L383.579 299.9" stroke="white" stroke-width="5" stroke-miterlimit="10"/>
<path d="M453.661 241.317L391.865 299.899" stroke="white" stroke-width="5" stroke-miterlimit="10"/>
<path d="M461.566 249.531L408.437 299.9" stroke="white" stroke-width="5" stroke-miterlimit="10"/>
<path d="M457.614 245.426L400.149 299.9" stroke="white" stroke-width="5" stroke-miterlimit="10"/>
<path d="M465.521 253.639L416.722 299.9" stroke="white" stroke-width="5" stroke-miterlimit="10"/>
<path d="M469.475 257.746L425.007 299.9" stroke="white" stroke-width="5" stroke-miterlimit="10"/>
<path d="M473.427 261.854L433.292 299.9" stroke="white" stroke-width="5" stroke-miterlimit="10"/>
<path d="M477.139 265.708L441.071 299.9" stroke="white" stroke-width="5" stroke-miterlimit="10"/>
<path d="M481.092 269.816L449.356 299.901" stroke="white" stroke-width="5" stroke-miterlimit="10"/>
<path d="M485.026 273.902L457.602 299.9" stroke="white" stroke-width="5" stroke-miterlimit="10"/>
<path d="M488.978 278.008L465.887 299.898" stroke="white" stroke-width="5" stroke-miterlimit="10"/>
<path d="M492.912 282.094L474.13 299.899" stroke="white" stroke-width="5" stroke-miterlimit="10"/>
<path d="M496.865 286.202L482.415 299.9" stroke="white" stroke-width="5" stroke-miterlimit="10"/>
<path d="M500.798 290.288L490.66 299.899" stroke="white" stroke-width="5" stroke-miterlimit="10"/>
<path d="M504.752 294.396L498.946 299.9" stroke="white" stroke-width="5" stroke-miterlimit="10"/>
<path d="M376.593 227.979L360.836 242.917" stroke="white" stroke-width="5" stroke-miterlimit="10"/>
<path d="M368.308 227.979L360.836 235.063" stroke="white" stroke-width="5" stroke-miterlimit="10"/>
<path d="M384.88 227.979L360.836 250.773" stroke="white" stroke-width="5" stroke-miterlimit="10"/>
<path d="M393.165 227.979L360.799 258.661" stroke="white" stroke-width="5" stroke-miterlimit="10"/>
<path d="M409.735 227.979L360.799 274.371" stroke="white" stroke-width="5" stroke-miterlimit="10"/>
<path d="M401.45 227.979L360.799 266.517" stroke="white" stroke-width="5" stroke-miterlimit="10"/>
<path d="M418.02 227.979L360.836 282.189" stroke="white" stroke-width="5" stroke-miterlimit="10"/>
<path d="M426.305 227.979L360.836 290.044" stroke="white" stroke-width="5" stroke-miterlimit="10"/>
<path d="M434.593 227.979L360.836 297.898" stroke="white" stroke-width="5" stroke-miterlimit="10"/>
<path d="M361.237 299.092L360.787 197.418C360.742 194.28 359.466 191.286 357.234 189.083C355.002 186.88 351.994 185.645 348.86 185.646H218.129" stroke="white" stroke-width="10" stroke-miterlimit="10"/>
<path d="M232.732 80.5375C233.331 80.5375 233.817 80.051 233.817 79.4509C233.817 78.8507 233.331 78.3643 232.732 78.3643C232.133 78.3643 231.647 78.8507 231.647 79.4509C231.647 80.051 232.133 80.5375 232.732 80.5375Z" fill="#98C8DB"/>
<path d="M239.571 80.5375C240.17 80.5375 240.656 80.051 240.656 79.4509C240.656 78.8507 240.17 78.3643 239.571 78.3643C238.972 78.3643 238.486 78.8507 238.486 79.4509C238.486 80.051 238.972 80.5375 239.571 80.5375Z" fill="#98C8DB"/>
<path d="M246.409 80.5375C247.009 80.5375 247.495 80.051 247.495 79.4509C247.495 78.8507 247.009 78.3643 246.409 78.3643C245.81 78.3643 245.324 78.8507 245.324 79.4509C245.324 80.051 245.81 80.5375 246.409 80.5375Z" fill="#98C8DB"/>
<path d="M253.246 80.5375C253.846 80.5375 254.331 80.051 254.331 79.4509C254.331 78.8507 253.846 78.3643 253.246 78.3643C252.647 78.3643 252.161 78.8507 252.161 79.4509C252.161 80.051 252.647 80.5375 253.246 80.5375Z" fill="#98C8DB"/>
<path d="M260.085 80.5375C260.685 80.5375 261.17 80.051 261.17 79.4509C261.17 78.8507 260.685 78.3643 260.085 78.3643C259.486 78.3643 259 78.8507 259 79.4509C259 80.051 259.486 80.5375 260.085 80.5375Z" fill="#98C8DB"/>
<path d="M266.922 80.5375C267.522 80.5375 268.007 80.051 268.007 79.4509C268.007 78.8507 267.522 78.3643 266.922 78.3643C266.323 78.3643 265.837 78.8507 265.837 79.4509C265.837 80.051 266.323 80.5375 266.922 80.5375Z" fill="#98C8DB"/>
<path d="M225.895 80.5375C226.495 80.5375 226.98 80.051 226.98 79.4509C226.98 78.8507 226.495 78.3643 225.895 78.3643C225.296 78.3643 224.81 78.8507 224.81 79.4509C224.81 80.051 225.296 80.5375 225.895 80.5375Z" fill="#98C8DB"/>
<path d="M229.315 84.1049C229.914 84.1049 230.4 83.6184 230.4 83.0183C230.4 82.4181 229.914 81.9316 229.315 81.9316C228.715 81.9316 228.229 82.4181 228.229 83.0183C228.229 83.6184 228.715 84.1049 229.315 84.1049Z" fill="#98C8DB"/>
<path d="M236.151 84.1049C236.751 84.1049 237.237 83.6184 237.237 83.0183C237.237 82.4181 236.751 81.9316 236.151 81.9316C235.552 81.9316 235.066 82.4181 235.066 83.0183C235.066 83.6184 235.552 84.1049 236.151 84.1049Z" fill="#98C8DB"/>
<path d="M242.99 84.1049C243.59 84.1049 244.076 83.6184 244.076 83.0183C244.076 82.4181 243.59 81.9316 242.99 81.9316C242.391 81.9316 241.905 82.4181 241.905 83.0183C241.905 83.6184 242.391 84.1049 242.99 84.1049Z" fill="#98C8DB"/>
<path d="M249.827 84.1049C250.426 84.1049 250.912 83.6184 250.912 83.0183C250.912 82.4181 250.426 81.9316 249.827 81.9316C249.228 81.9316 248.742 82.4181 248.742 83.0183C248.742 83.6184 249.228 84.1049 249.827 84.1049Z" fill="#98C8DB"/>
<path d="M256.666 84.1049C257.265 84.1049 257.751 83.6184 257.751 83.0183C257.751 82.4181 257.265 81.9316 256.666 81.9316C256.067 81.9316 255.581 82.4181 255.581 83.0183C255.581 83.6184 256.067 84.1049 256.666 84.1049Z" fill="#98C8DB"/>
<path d="M263.505 84.1049C264.104 84.1049 264.59 83.6184 264.59 83.0183C264.59 82.4181 264.104 81.9316 263.505 81.9316C262.906 81.9316 262.42 82.4181 262.42 83.0183C262.42 83.6184 262.906 84.1049 263.505 84.1049Z" fill="#98C8DB"/>
<path d="M270.342 84.1049C270.941 84.1049 271.427 83.6184 271.427 83.0183C271.427 82.4181 270.941 81.9316 270.342 81.9316C269.742 81.9316 269.256 82.4181 269.256 83.0183C269.256 83.6184 269.742 84.1049 270.342 84.1049Z" fill="#98C8DB"/>
<path d="M222.476 84.1049C223.075 84.1049 223.561 83.6184 223.561 83.0183C223.561 82.4181 223.075 81.9316 222.476 81.9316C221.876 81.9316 221.39 82.4181 221.39 83.0183C221.39 83.6184 221.876 84.1049 222.476 84.1049Z" fill="#98C8DB"/>
<path d="M232.732 87.6723C233.331 87.6723 233.817 87.1858 233.817 86.5856C233.817 85.9855 233.331 85.499 232.732 85.499C232.133 85.499 231.647 85.9855 231.647 86.5856C231.647 87.1858 232.133 87.6723 232.732 87.6723Z" fill="#98C8DB"/>
<path d="M239.571 87.6723C240.17 87.6723 240.656 87.1858 240.656 86.5856C240.656 85.9855 240.17 85.499 239.571 85.499C238.972 85.499 238.486 85.9855 238.486 86.5856C238.486 87.1858 238.972 87.6723 239.571 87.6723Z" fill="#98C8DB"/>
<path d="M246.409 87.6723C247.009 87.6723 247.495 87.1858 247.495 86.5856C247.495 85.9855 247.009 85.499 246.409 85.499C245.81 85.499 245.324 85.9855 245.324 86.5856C245.324 87.1858 245.81 87.6723 246.409 87.6723Z" fill="#98C8DB"/>
<path d="M253.246 87.6723C253.846 87.6723 254.331 87.1858 254.331 86.5856C254.331 85.9855 253.846 85.499 253.246 85.499C252.647 85.499 252.161 85.9855 252.161 86.5856C252.161 87.1858 252.647 87.6723 253.246 87.6723Z" fill="#98C8DB"/>
<path d="M260.085 87.6723C260.685 87.6723 261.17 87.1858 261.17 86.5856C261.17 85.9855 260.685 85.499 260.085 85.499C259.486 85.499 259 85.9855 259 86.5856C259 87.1858 259.486 87.6723 260.085 87.6723Z" fill="#98C8DB"/>
<path d="M266.922 87.6723C267.522 87.6723 268.007 87.1858 268.007 86.5856C268.007 85.9855 267.522 85.499 266.922 85.499C266.323 85.499 265.837 85.9855 265.837 86.5856C265.837 87.1858 266.323 87.6723 266.922 87.6723Z" fill="#98C8DB"/>
<path d="M273.761 87.6723C274.361 87.6723 274.846 87.1858 274.846 86.5856C274.846 85.9855 274.361 85.499 273.761 85.499C273.162 85.499 272.676 85.9855 272.676 86.5856C272.676 87.1858 273.162 87.6723 273.761 87.6723Z" fill="#98C8DB"/>
<path d="M273.761 80.5375C274.361 80.5375 274.846 80.051 274.846 79.4509C274.846 78.8507 274.361 78.3643 273.761 78.3643C273.162 78.3643 272.676 78.8507 272.676 79.4509C272.676 80.051 273.162 80.5375 273.761 80.5375Z" fill="#98C8DB"/>
<path d="M225.895 87.6723C226.495 87.6723 226.98 87.1858 226.98 86.5856C226.98 85.9855 226.495 85.499 225.895 85.499C225.296 85.499 224.81 85.9855 224.81 86.5856C224.81 87.1858 225.296 87.6723 225.895 87.6723Z" fill="#98C8DB"/>
<path d="M229.315 91.2396C229.914 91.2396 230.4 90.7531 230.4 90.153C230.4 89.5529 229.914 89.0664 229.315 89.0664C228.715 89.0664 228.229 89.5529 228.229 90.153C228.229 90.7531 228.715 91.2396 229.315 91.2396Z" fill="#98C8DB"/>
<path d="M236.151 91.2396C236.751 91.2396 237.237 90.7531 237.237 90.153C237.237 89.5529 236.751 89.0664 236.151 89.0664C235.552 89.0664 235.066 89.5529 235.066 90.153C235.066 90.7531 235.552 91.2396 236.151 91.2396Z" fill="#98C8DB"/>
<path d="M242.99 91.2396C243.59 91.2396 244.076 90.7531 244.076 90.153C244.076 89.5529 243.59 89.0664 242.99 89.0664C242.391 89.0664 241.905 89.5529 241.905 90.153C241.905 90.7531 242.391 91.2396 242.99 91.2396Z" fill="#98C8DB"/>
<path d="M249.827 91.2396C250.426 91.2396 250.912 90.7531 250.912 90.153C250.912 89.5529 250.426 89.0664 249.827 89.0664C249.228 89.0664 248.742 89.5529 248.742 90.153C248.742 90.7531 249.228 91.2396 249.827 91.2396Z" fill="#98C8DB"/>
<path d="M256.666 91.2396C257.265 91.2396 257.751 90.7531 257.751 90.153C257.751 89.5529 257.265 89.0664 256.666 89.0664C256.067 89.0664 255.581 89.5529 255.581 90.153C255.581 90.7531 256.067 91.2396 256.666 91.2396Z" fill="#98C8DB"/>
<path d="M263.505 91.2396C264.104 91.2396 264.59 90.7531 264.59 90.153C264.59 89.5529 264.104 89.0664 263.505 89.0664C262.906 89.0664 262.42 89.5529 262.42 90.153C262.42 90.7531 262.906 91.2396 263.505 91.2396Z" fill="#98C8DB"/>
<path d="M270.342 91.2396C270.941 91.2396 271.427 90.7531 271.427 90.153C271.427 89.5529 270.941 89.0664 270.342 89.0664C269.742 89.0664 269.256 89.5529 269.256 90.153C269.256 90.7531 269.742 91.2396 270.342 91.2396Z" fill="#98C8DB"/>
<path d="M222.476 91.2396C223.075 91.2396 223.561 90.7531 223.561 90.153C223.561 89.5529 223.075 89.0664 222.476 89.0664C221.876 89.0664 221.39 89.5529 221.39 90.153C221.39 90.7531 221.876 91.2396 222.476 91.2396Z" fill="#98C8DB"/>
<path d="M232.732 94.8051C233.331 94.8051 233.817 94.3186 233.817 93.7184C233.817 93.1183 233.331 92.6318 232.732 92.6318C232.133 92.6318 231.647 93.1183 231.647 93.7184C231.647 94.3186 232.133 94.8051 232.732 94.8051Z" fill="#98C8DB"/>
<path d="M239.571 94.8051C240.17 94.8051 240.656 94.3186 240.656 93.7184C240.656 93.1183 240.17 92.6318 239.571 92.6318C238.972 92.6318 238.486 93.1183 238.486 93.7184C238.486 94.3186 238.972 94.8051 239.571 94.8051Z" fill="#98C8DB"/>
<path d="M246.409 94.8051C247.009 94.8051 247.495 94.3186 247.495 93.7184C247.495 93.1183 247.009 92.6318 246.409 92.6318C245.81 92.6318 245.324 93.1183 245.324 93.7184C245.324 94.3186 245.81 94.8051 246.409 94.8051Z" fill="#98C8DB"/>
<path d="M253.246 94.8051C253.846 94.8051 254.331 94.3186 254.331 93.7184C254.331 93.1183 253.846 92.6318 253.246 92.6318C252.647 92.6318 252.161 93.1183 252.161 93.7184C252.161 94.3186 252.647 94.8051 253.246 94.8051Z" fill="#98C8DB"/>
<path d="M260.085 94.8051C260.685 94.8051 261.17 94.3186 261.17 93.7184C261.17 93.1183 260.685 92.6318 260.085 92.6318C259.486 92.6318 259 93.1183 259 93.7184C259 94.3186 259.486 94.8051 260.085 94.8051Z" fill="#98C8DB"/>
<path d="M266.922 94.8051C267.522 94.8051 268.007 94.3186 268.007 93.7184C268.007 93.1183 267.522 92.6318 266.922 92.6318C266.323 92.6318 265.837 93.1183 265.837 93.7184C265.837 94.3186 266.323 94.8051 266.922 94.8051Z" fill="#98C8DB"/>
<path d="M273.761 94.8051C274.361 94.8051 274.846 94.3186 274.846 93.7184C274.846 93.1183 274.361 92.6318 273.761 92.6318C273.162 92.6318 272.676 93.1183 272.676 93.7184C272.676 94.3186 273.162 94.8051 273.761 94.8051Z" fill="#98C8DB"/>
<path d="M225.895 94.8051C226.495 94.8051 226.98 94.3186 226.98 93.7184C226.98 93.1183 226.495 92.6318 225.895 92.6318C225.296 92.6318 224.81 93.1183 224.81 93.7184C224.81 94.3186 225.296 94.8051 225.895 94.8051Z" fill="#98C8DB"/>
<path d="M229.315 98.3734C229.914 98.3734 230.4 97.8869 230.4 97.2868C230.4 96.6867 229.914 96.2002 229.315 96.2002C228.715 96.2002 228.229 96.6867 228.229 97.2868C228.229 97.8869 228.715 98.3734 229.315 98.3734Z" fill="#98C8DB"/>
<path d="M236.151 98.3734C236.751 98.3734 237.237 97.8869 237.237 97.2868C237.237 96.6867 236.751 96.2002 236.151 96.2002C235.552 96.2002 235.066 96.6867 235.066 97.2868C235.066 97.8869 235.552 98.3734 236.151 98.3734Z" fill="#98C8DB"/>
<path d="M242.99 98.3734C243.59 98.3734 244.076 97.8869 244.076 97.2868C244.076 96.6867 243.59 96.2002 242.99 96.2002C242.391 96.2002 241.905 96.6867 241.905 97.2868C241.905 97.8869 242.391 98.3734 242.99 98.3734Z" fill="#98C8DB"/>
<path d="M249.827 98.3734C250.426 98.3734 250.912 97.8869 250.912 97.2868C250.912 96.6867 250.426 96.2002 249.827 96.2002C249.228 96.2002 248.742 96.6867 248.742 97.2868C248.742 97.8869 249.228 98.3734 249.827 98.3734Z" fill="#98C8DB"/>
<path d="M256.666 98.3734C257.265 98.3734 257.751 97.8869 257.751 97.2868C257.751 96.6867 257.265 96.2002 256.666 96.2002C256.067 96.2002 255.581 96.6867 255.581 97.2868C255.581 97.8869 256.067 98.3734 256.666 98.3734Z" fill="#98C8DB"/>
<path d="M263.505 98.3734C264.104 98.3734 264.59 97.8869 264.59 97.2868C264.59 96.6867 264.104 96.2002 263.505 96.2002C262.906 96.2002 262.42 96.6867 262.42 97.2868C262.42 97.8869 262.906 98.3734 263.505 98.3734Z" fill="#98C8DB"/>
<path d="M270.342 98.3734C270.941 98.3734 271.427 97.8869 271.427 97.2868C271.427 96.6867 270.941 96.2002 270.342 96.2002C269.742 96.2002 269.256 96.6867 269.256 97.2868C269.256 97.8869 269.742 98.3734 270.342 98.3734Z" fill="#98C8DB"/>
<path d="M222.476 98.3734C223.075 98.3734 223.561 97.8869 223.561 97.2868C223.561 96.6867 223.075 96.2002 222.476 96.2002C221.876 96.2002 221.39 96.6867 221.39 97.2868C221.39 97.8869 221.876 98.3734 222.476 98.3734Z" fill="#98C8DB"/>
<path d="M232.732 101.942C233.331 101.942 233.817 101.455 233.817 100.855C233.817 100.255 233.331 99.7686 232.732 99.7686C232.133 99.7686 231.647 100.255 231.647 100.855C231.647 101.455 232.133 101.942 232.732 101.942Z" fill="#98C8DB"/>
<path d="M239.571 101.942C240.17 101.942 240.656 101.455 240.656 100.855C240.656 100.255 240.17 99.7686 239.571 99.7686C238.972 99.7686 238.486 100.255 238.486 100.855C238.486 101.455 238.972 101.942 239.571 101.942Z" fill="#98C8DB"/>
<path d="M246.409 101.942C247.009 101.942 247.495 101.455 247.495 100.855C247.495 100.255 247.009 99.7686 246.409 99.7686C245.81 99.7686 245.324 100.255 245.324 100.855C245.324 101.455 245.81 101.942 246.409 101.942Z" fill="#98C8DB"/>
<path d="M253.246 101.942C253.846 101.942 254.331 101.455 254.331 100.855C254.331 100.255 253.846 99.7686 253.246 99.7686C252.647 99.7686 252.161 100.255 252.161 100.855C252.161 101.455 252.647 101.942 253.246 101.942Z" fill="#98C8DB"/>
<path d="M260.085 101.942C260.685 101.942 261.17 101.455 261.17 100.855C261.17 100.255 260.685 99.7686 260.085 99.7686C259.486 99.7686 259 100.255 259 100.855C259 101.455 259.486 101.942 260.085 101.942Z" fill="#98C8DB"/>
<path d="M266.922 101.942C267.522 101.942 268.007 101.455 268.007 100.855C268.007 100.255 267.522 99.7686 266.922 99.7686C266.323 99.7686 265.837 100.255 265.837 100.855C265.837 101.455 266.323 101.942 266.922 101.942Z" fill="#98C8DB"/>
<path d="M273.761 101.942C274.361 101.942 274.846 101.455 274.846 100.855C274.846 100.255 274.361 99.7686 273.761 99.7686C273.162 99.7686 272.676 100.255 272.676 100.855C272.676 101.455 273.162 101.942 273.761 101.942Z" fill="#98C8DB"/>
<path d="M225.895 101.942C226.495 101.942 226.98 101.455 226.98 100.855C226.98 100.255 226.495 99.7686 225.895 99.7686C225.296 99.7686 224.81 100.255 224.81 100.855C224.81 101.455 225.296 101.942 225.895 101.942Z" fill="#98C8DB"/>
<path d="M229.315 105.509C229.914 105.509 230.4 105.023 230.4 104.423C230.4 103.822 229.914 103.336 229.315 103.336C228.715 103.336 228.229 103.822 228.229 104.423C228.229 105.023 228.715 105.509 229.315 105.509Z" fill="#98C8DB"/>
<path d="M236.151 105.509C236.751 105.509 237.237 105.023 237.237 104.423C237.237 103.822 236.751 103.336 236.151 103.336C235.552 103.336 235.066 103.822 235.066 104.423C235.066 105.023 235.552 105.509 236.151 105.509Z" fill="#98C8DB"/>
<path d="M242.99 105.509C243.59 105.509 244.076 105.023 244.076 104.423C244.076 103.822 243.59 103.336 242.99 103.336C242.391 103.336 241.905 103.822 241.905 104.423C241.905 105.023 242.391 105.509 242.99 105.509Z" fill="#98C8DB"/>
<path d="M249.827 105.509C250.426 105.509 250.912 105.023 250.912 104.423C250.912 103.822 250.426 103.336 249.827 103.336C249.228 103.336 248.742 103.822 248.742 104.423C248.742 105.023 249.228 105.509 249.827 105.509Z" fill="#98C8DB"/>
<path d="M256.666 105.509C257.265 105.509 257.751 105.023 257.751 104.423C257.751 103.822 257.265 103.336 256.666 103.336C256.067 103.336 255.581 103.822 255.581 104.423C255.581 105.023 256.067 105.509 256.666 105.509Z" fill="#98C8DB"/>
<path d="M263.505 105.509C264.104 105.509 264.59 105.023 264.59 104.423C264.59 103.822 264.104 103.336 263.505 103.336C262.906 103.336 262.42 103.822 262.42 104.423C262.42 105.023 262.906 105.509 263.505 105.509Z" fill="#98C8DB"/>
<path d="M270.342 105.509C270.941 105.509 271.427 105.023 271.427 104.423C271.427 103.822 270.941 103.336 270.342 103.336C269.742 103.336 269.256 103.822 269.256 104.423C269.256 105.023 269.742 105.509 270.342 105.509Z" fill="#98C8DB"/>
<path d="M222.476 105.509C223.075 105.509 223.561 105.023 223.561 104.423C223.561 103.822 223.075 103.336 222.476 103.336C221.876 103.336 221.39 103.822 221.39 104.423C221.39 105.023 221.876 105.509 222.476 105.509Z" fill="#98C8DB"/>
<path d="M232.732 109.078C233.331 109.078 233.817 108.591 233.817 107.991C233.817 107.391 233.331 106.904 232.732 106.904C232.133 106.904 231.647 107.391 231.647 107.991C231.647 108.591 232.133 109.078 232.732 109.078Z" fill="#98C8DB"/>
<path d="M239.571 109.078C240.17 109.078 240.656 108.591 240.656 107.991C240.656 107.391 240.17 106.904 239.571 106.904C238.972 106.904 238.486 107.391 238.486 107.991C238.486 108.591 238.972 109.078 239.571 109.078Z" fill="#98C8DB"/>
<path d="M246.409 109.078C247.009 109.078 247.495 108.591 247.495 107.991C247.495 107.391 247.009 106.904 246.409 106.904C245.81 106.904 245.324 107.391 245.324 107.991C245.324 108.591 245.81 109.078 246.409 109.078Z" fill="#98C8DB"/>
<path d="M253.246 109.078C253.846 109.078 254.331 108.591 254.331 107.991C254.331 107.391 253.846 106.904 253.246 106.904C252.647 106.904 252.161 107.391 252.161 107.991C252.161 108.591 252.647 109.078 253.246 109.078Z" fill="#98C8DB"/>
<path d="M260.085 109.078C260.685 109.078 261.17 108.591 261.17 107.991C261.17 107.391 260.685 106.904 260.085 106.904C259.486 106.904 259 107.391 259 107.991C259 108.591 259.486 109.078 260.085 109.078Z" fill="#98C8DB"/>
<path d="M266.922 109.078C267.522 109.078 268.007 108.591 268.007 107.991C268.007 107.391 267.522 106.904 266.922 106.904C266.323 106.904 265.837 107.391 265.837 107.991C265.837 108.591 266.323 109.078 266.922 109.078Z" fill="#98C8DB"/>
<path d="M273.761 109.078C274.361 109.078 274.846 108.591 274.846 107.991C274.846 107.391 274.361 106.904 273.761 106.904C273.162 106.904 272.676 107.391 272.676 107.991C272.676 108.591 273.162 109.078 273.761 109.078Z" fill="#98C8DB"/>
<path d="M225.895 109.078C226.495 109.078 226.98 108.591 226.98 107.991C226.98 107.391 226.495 106.904 225.895 106.904C225.296 106.904 224.81 107.391 224.81 107.991C224.81 108.591 225.296 109.078 225.895 109.078Z" fill="#98C8DB"/>
<path d="M229.315 112.644C229.914 112.644 230.4 112.157 230.4 111.557C230.4 110.957 229.914 110.471 229.315 110.471C228.715 110.471 228.229 110.957 228.229 111.557C228.229 112.157 228.715 112.644 229.315 112.644Z" fill="#98C8DB"/>
<path d="M236.151 112.644C236.751 112.644 237.237 112.157 237.237 111.557C237.237 110.957 236.751 110.471 236.151 110.471C235.552 110.471 235.066 110.957 235.066 111.557C235.066 112.157 235.552 112.644 236.151 112.644Z" fill="#98C8DB"/>
<path d="M242.99 112.644C243.59 112.644 244.076 112.157 244.076 111.557C244.076 110.957 243.59 110.471 242.99 110.471C242.391 110.471 241.905 110.957 241.905 111.557C241.905 112.157 242.391 112.644 242.99 112.644Z" fill="#98C8DB"/>
<path d="M249.827 112.644C250.426 112.644 250.912 112.157 250.912 111.557C250.912 110.957 250.426 110.471 249.827 110.471C249.228 110.471 248.742 110.957 248.742 111.557C248.742 112.157 249.228 112.644 249.827 112.644Z" fill="#98C8DB"/>
<path d="M256.666 112.644C257.265 112.644 257.751 112.157 257.751 111.557C257.751 110.957 257.265 110.471 256.666 110.471C256.067 110.471 255.581 110.957 255.581 111.557C255.581 112.157 256.067 112.644 256.666 112.644Z" fill="#98C8DB"/>
<path d="M263.505 112.644C264.104 112.644 264.59 112.157 264.59 111.557C264.59 110.957 264.104 110.471 263.505 110.471C262.906 110.471 262.42 110.957 262.42 111.557C262.42 112.157 262.906 112.644 263.505 112.644Z" fill="#98C8DB"/>
<path d="M270.342 112.644C270.941 112.644 271.427 112.157 271.427 111.557C271.427 110.957 270.941 110.471 270.342 110.471C269.742 110.471 269.256 110.957 269.256 111.557C269.256 112.157 269.742 112.644 270.342 112.644Z" fill="#98C8DB"/>
<path d="M277.326 84.1049C277.925 84.1049 278.411 83.6184 278.411 83.0183C278.411 82.4181 277.925 81.9316 277.326 81.9316C276.727 81.9316 276.241 82.4181 276.241 83.0183C276.241 83.6184 276.727 84.1049 277.326 84.1049Z" fill="#98C8DB"/>
<path d="M277.326 91.2396C277.925 91.2396 278.411 90.7531 278.411 90.153C278.411 89.5529 277.925 89.0664 277.326 89.0664C276.727 89.0664 276.241 89.5529 276.241 90.153C276.241 90.7531 276.727 91.2396 277.326 91.2396Z" fill="#98C8DB"/>
<path d="M229.315 69.6498C229.914 69.6498 230.4 69.1633 230.4 68.5632C230.4 67.9631 229.914 67.4766 229.315 67.4766C228.715 67.4766 228.229 67.9631 228.229 68.5632C228.229 69.1633 228.715 69.6498 229.315 69.6498Z" fill="#98C8DB"/>
<path d="M236.151 69.6498C236.751 69.6498 237.237 69.1633 237.237 68.5632C237.237 67.9631 236.751 67.4766 236.151 67.4766C235.552 67.4766 235.066 67.9631 235.066 68.5632C235.066 69.1633 235.552 69.6498 236.151 69.6498Z" fill="#98C8DB"/>
<path d="M242.99 69.6498C243.59 69.6498 244.076 69.1633 244.076 68.5632C244.076 67.9631 243.59 67.4766 242.99 67.4766C242.391 67.4766 241.905 67.9631 241.905 68.5632C241.905 69.1633 242.391 69.6498 242.99 69.6498Z" fill="#98C8DB"/>
<path d="M249.827 69.6498C250.426 69.6498 250.912 69.1633 250.912 68.5632C250.912 67.9631 250.426 67.4766 249.827 67.4766C249.228 67.4766 248.742 67.9631 248.742 68.5632C248.742 69.1633 249.228 69.6498 249.827 69.6498Z" fill="#98C8DB"/>
<path d="M256.666 69.6498C257.265 69.6498 257.751 69.1633 257.751 68.5632C257.751 67.9631 257.265 67.4766 256.666 67.4766C256.067 67.4766 255.581 67.9631 255.581 68.5632C255.581 69.1633 256.067 69.6498 256.666 69.6498Z" fill="#98C8DB"/>
<path d="M263.505 69.6498C264.104 69.6498 264.59 69.1633 264.59 68.5632C264.59 67.9631 264.104 67.4766 263.505 67.4766C262.906 67.4766 262.42 67.9631 262.42 68.5632C262.42 69.1633 262.906 69.6498 263.505 69.6498Z" fill="#98C8DB"/>
<path d="M270.342 69.6498C270.941 69.6498 271.427 69.1633 271.427 68.5632C271.427 67.9631 270.941 67.4766 270.342 67.4766C269.742 67.4766 269.256 67.9631 269.256 68.5632C269.256 69.1633 269.742 69.6498 270.342 69.6498Z" fill="#98C8DB"/>
<path d="M222.476 69.6498C223.075 69.6498 223.561 69.1633 223.561 68.5632C223.561 67.9631 223.075 67.4766 222.476 67.4766C221.876 67.4766 221.39 67.9631 221.39 68.5632C221.39 69.1633 221.876 69.6498 222.476 69.6498Z" fill="#98C8DB"/>
<path d="M232.732 73.2172C233.331 73.2172 233.817 72.7307 233.817 72.1306C233.817 71.5304 233.331 71.0439 232.732 71.0439C232.133 71.0439 231.647 71.5304 231.647 72.1306C231.647 72.7307 232.133 73.2172 232.732 73.2172Z" fill="#98C8DB"/>
<path d="M239.571 73.2172C240.17 73.2172 240.656 72.7307 240.656 72.1306C240.656 71.5304 240.17 71.0439 239.571 71.0439C238.972 71.0439 238.486 71.5304 238.486 72.1306C238.486 72.7307 238.972 73.2172 239.571 73.2172Z" fill="#98C8DB"/>
<path d="M246.409 73.2172C247.009 73.2172 247.495 72.7307 247.495 72.1306C247.495 71.5304 247.009 71.0439 246.409 71.0439C245.81 71.0439 245.324 71.5304 245.324 72.1306C245.324 72.7307 245.81 73.2172 246.409 73.2172Z" fill="#98C8DB"/>
<path d="M253.246 73.2172C253.846 73.2172 254.331 72.7307 254.331 72.1306C254.331 71.5304 253.846 71.0439 253.246 71.0439C252.647 71.0439 252.161 71.5304 252.161 72.1306C252.161 72.7307 252.647 73.2172 253.246 73.2172Z" fill="#98C8DB"/>
<path d="M260.085 73.2172C260.685 73.2172 261.17 72.7307 261.17 72.1306C261.17 71.5304 260.685 71.0439 260.085 71.0439C259.486 71.0439 259 71.5304 259 72.1306C259 72.7307 259.486 73.2172 260.085 73.2172Z" fill="#98C8DB"/>
<path d="M266.922 73.2172C267.522 73.2172 268.007 72.7307 268.007 72.1306C268.007 71.5304 267.522 71.0439 266.922 71.0439C266.323 71.0439 265.837 71.5304 265.837 72.1306C265.837 72.7307 266.323 73.2172 266.922 73.2172Z" fill="#98C8DB"/>
<path d="M273.761 73.2172C274.361 73.2172 274.846 72.7307 274.846 72.1306C274.846 71.5304 274.361 71.0439 273.761 71.0439C273.162 71.0439 272.676 71.5304 272.676 72.1306C272.676 72.7307 273.162 73.2172 273.761 73.2172Z" fill="#98C8DB"/>
<path d="M225.895 73.2172C226.495 73.2172 226.98 72.7307 226.98 72.1306C226.98 71.5304 226.495 71.0439 225.895 71.0439C225.296 71.0439 224.81 71.5304 224.81 72.1306C224.81 72.7307 225.296 73.2172 225.895 73.2172Z" fill="#98C8DB"/>
<path d="M229.315 76.7846C229.914 76.7846 230.4 76.2981 230.4 75.6979C230.4 75.0978 229.914 74.6113 229.315 74.6113C228.715 74.6113 228.229 75.0978 228.229 75.6979C228.229 76.2981 228.715 76.7846 229.315 76.7846Z" fill="#98C8DB"/>
<path d="M236.151 76.7846C236.751 76.7846 237.237 76.2981 237.237 75.6979C237.237 75.0978 236.751 74.6113 236.151 74.6113C235.552 74.6113 235.066 75.0978 235.066 75.6979C235.066 76.2981 235.552 76.7846 236.151 76.7846Z" fill="#98C8DB"/>
<path d="M242.99 76.7846C243.59 76.7846 244.076 76.2981 244.076 75.6979C244.076 75.0978 243.59 74.6113 242.99 74.6113C242.391 74.6113 241.905 75.0978 241.905 75.6979C241.905 76.2981 242.391 76.7846 242.99 76.7846Z" fill="#98C8DB"/>
<path d="M249.827 76.7846C250.426 76.7846 250.912 76.2981 250.912 75.6979C250.912 75.0978 250.426 74.6113 249.827 74.6113C249.228 74.6113 248.742 75.0978 248.742 75.6979C248.742 76.2981 249.228 76.7846 249.827 76.7846Z" fill="#98C8DB"/>
<path d="M256.666 76.7846C257.265 76.7846 257.751 76.2981 257.751 75.6979C257.751 75.0978 257.265 74.6113 256.666 74.6113C256.067 74.6113 255.581 75.0978 255.581 75.6979C255.581 76.2981 256.067 76.7846 256.666 76.7846Z" fill="#98C8DB"/>
<path d="M263.505 76.7846C264.104 76.7846 264.59 76.2981 264.59 75.6979C264.59 75.0978 264.104 74.6113 263.505 74.6113C262.906 74.6113 262.42 75.0978 262.42 75.6979C262.42 76.2981 262.906 76.7846 263.505 76.7846Z" fill="#98C8DB"/>
<path d="M270.342 76.7846C270.941 76.7846 271.427 76.2981 271.427 75.6979C271.427 75.0978 270.941 74.6113 270.342 74.6113C269.742 74.6113 269.256 75.0978 269.256 75.6979C269.256 76.2981 269.742 76.7846 270.342 76.7846Z" fill="#98C8DB"/>
<path d="M222.476 76.7846C223.075 76.7846 223.561 76.2981 223.561 75.6979C223.561 75.0978 223.075 74.6113 222.476 74.6113C221.876 74.6113 221.39 75.0978 221.39 75.6979C221.39 76.2981 221.876 76.7846 222.476 76.7846Z" fill="#98C8DB"/>
<path d="M277.326 69.6498C277.925 69.6498 278.411 69.1633 278.411 68.5632C278.411 67.9631 277.925 67.4766 277.326 67.4766C276.727 67.4766 276.241 67.9631 276.241 68.5632C276.241 69.1633 276.727 69.6498 277.326 69.6498Z" fill="#98C8DB"/>
<path d="M277.326 76.7846C277.925 76.7846 278.411 76.2981 278.411 75.6979C278.411 75.0978 277.925 74.6113 277.326 74.6113C276.727 74.6113 276.241 75.0978 276.241 75.6979C276.241 76.2981 276.727 76.7846 277.326 76.7846Z" fill="#98C8DB"/>
<path d="M277.326 98.3734C277.925 98.3734 278.411 97.8869 278.411 97.2868C278.411 96.6867 277.925 96.2002 277.326 96.2002C276.727 96.2002 276.241 96.6867 276.241 97.2868C276.241 97.8869 276.727 98.3734 277.326 98.3734Z" fill="#98C8DB"/>
<path d="M277.326 105.509C277.925 105.509 278.411 105.023 278.411 104.423C278.411 103.822 277.925 103.336 277.326 103.336C276.727 103.336 276.241 103.822 276.241 104.423C276.241 105.023 276.727 105.509 277.326 105.509Z" fill="#98C8DB"/>
<path d="M277.326 112.644C277.925 112.644 278.411 112.157 278.411 111.557C278.411 110.957 277.925 110.471 277.326 110.471C276.727 110.471 276.241 110.957 276.241 111.557C276.241 112.157 276.727 112.644 277.326 112.644Z" fill="#98C8DB"/>
<path d="M222.476 112.644C223.075 112.644 223.561 112.157 223.561 111.557C223.561 110.957 223.075 110.471 222.476 110.471C221.876 110.471 221.39 110.957 221.39 111.557C221.39 112.157 221.876 112.644 222.476 112.644Z" fill="#98C8DB"/>
<path d="M232.732 116.212C233.331 116.212 233.817 115.726 233.817 115.126C233.817 114.526 233.331 114.039 232.732 114.039C232.133 114.039 231.647 114.526 231.647 115.126C231.647 115.726 232.133 116.212 232.732 116.212Z" fill="#98C8DB"/>
<path d="M239.571 116.212C240.17 116.212 240.656 115.726 240.656 115.126C240.656 114.526 240.17 114.039 239.571 114.039C238.972 114.039 238.486 114.526 238.486 115.126C238.486 115.726 238.972 116.212 239.571 116.212Z" fill="#98C8DB"/>
<path d="M246.409 116.212C247.009 116.212 247.495 115.726 247.495 115.126C247.495 114.526 247.009 114.039 246.409 114.039C245.81 114.039 245.324 114.526 245.324 115.126C245.324 115.726 245.81 116.212 246.409 116.212Z" fill="#98C8DB"/>
<path d="M253.246 116.212C253.846 116.212 254.331 115.726 254.331 115.126C254.331 114.526 253.846 114.039 253.246 114.039C252.647 114.039 252.161 114.526 252.161 115.126C252.161 115.726 252.647 116.212 253.246 116.212Z" fill="#98C8DB"/>
<path d="M260.085 116.212C260.685 116.212 261.17 115.726 261.17 115.126C261.17 114.526 260.685 114.039 260.085 114.039C259.486 114.039 259 114.526 259 115.126C259 115.726 259.486 116.212 260.085 116.212Z" fill="#98C8DB"/>
<path d="M266.922 116.212C267.522 116.212 268.007 115.726 268.007 115.126C268.007 114.526 267.522 114.039 266.922 114.039C266.323 114.039 265.837 114.526 265.837 115.126C265.837 115.726 266.323 116.212 266.922 116.212Z" fill="#98C8DB"/>
<path d="M273.761 116.212C274.361 116.212 274.846 115.726 274.846 115.126C274.846 114.526 274.361 114.039 273.761 114.039C273.162 114.039 272.676 114.526 272.676 115.126C272.676 115.726 273.162 116.212 273.761 116.212Z" fill="#98C8DB"/>
<path d="M225.895 116.212C226.495 116.212 226.98 115.726 226.98 115.126C226.98 114.526 226.495 114.039 225.895 114.039C225.296 114.039 224.81 114.526 224.81 115.126C224.81 115.726 225.296 116.212 225.895 116.212Z" fill="#98C8DB"/>
<path d="M229.315 119.94C229.914 119.94 230.4 119.453 230.4 118.853C230.4 118.253 229.914 117.767 229.315 117.767C228.715 117.767 228.229 118.253 228.229 118.853C228.229 119.453 228.715 119.94 229.315 119.94Z" fill="#98C8DB"/>
<path d="M236.151 119.94C236.751 119.94 237.237 119.453 237.237 118.853C237.237 118.253 236.751 117.767 236.151 117.767C235.552 117.767 235.066 118.253 235.066 118.853C235.066 119.453 235.552 119.94 236.151 119.94Z" fill="#98C8DB"/>
<path d="M242.99 119.94C243.59 119.94 244.076 119.453 244.076 118.853C244.076 118.253 243.59 117.767 242.99 117.767C242.391 117.767 241.905 118.253 241.905 118.853C241.905 119.453 242.391 119.94 242.99 119.94Z" fill="#98C8DB"/>
<path d="M249.827 119.94C250.426 119.94 250.912 119.453 250.912 118.853C250.912 118.253 250.426 117.767 249.827 117.767C249.228 117.767 248.742 118.253 248.742 118.853C248.742 119.453 249.228 119.94 249.827 119.94Z" fill="#98C8DB"/>
<path d="M256.666 119.94C257.265 119.94 257.751 119.453 257.751 118.853C257.751 118.253 257.265 117.767 256.666 117.767C256.067 117.767 255.581 118.253 255.581 118.853C255.581 119.453 256.067 119.94 256.666 119.94Z" fill="#98C8DB"/>
<path d="M263.505 119.94C264.104 119.94 264.59 119.453 264.59 118.853C264.59 118.253 264.104 117.767 263.505 117.767C262.906 117.767 262.42 118.253 262.42 118.853C262.42 119.453 262.906 119.94 263.505 119.94Z" fill="#98C8DB"/>
<path d="M270.342 119.94C270.941 119.94 271.427 119.453 271.427 118.853C271.427 118.253 270.941 117.767 270.342 117.767C269.742 117.767 269.256 118.253 269.256 118.853C269.256 119.453 269.742 119.94 270.342 119.94Z" fill="#98C8DB"/>
<path d="M222.476 119.94C223.075 119.94 223.561 119.453 223.561 118.853C223.561 118.253 223.075 117.767 222.476 117.767C221.876 117.767 221.39 118.253 221.39 118.853C221.39 119.453 221.876 119.94 222.476 119.94Z" fill="#98C8DB"/>
<path d="M232.732 123.488C233.331 123.488 233.817 123.001 233.817 122.401C233.817 121.801 233.331 121.314 232.732 121.314C232.133 121.314 231.647 121.801 231.647 122.401C231.647 123.001 232.133 123.488 232.732 123.488Z" fill="#98C8DB"/>
<path d="M239.571 123.488C240.17 123.488 240.656 123.001 240.656 122.401C240.656 121.801 240.17 121.314 239.571 121.314C238.972 121.314 238.486 121.801 238.486 122.401C238.486 123.001 238.972 123.488 239.571 123.488Z" fill="#98C8DB"/>
<path d="M246.409 123.488C247.009 123.488 247.495 123.001 247.495 122.401C247.495 121.801 247.009 121.314 246.409 121.314C245.81 121.314 245.324 121.801 245.324 122.401C245.324 123.001 245.81 123.488 246.409 123.488Z" fill="#98C8DB"/>
<path d="M253.246 123.488C253.846 123.488 254.331 123.001 254.331 122.401C254.331 121.801 253.846 121.314 253.246 121.314C252.647 121.314 252.161 121.801 252.161 122.401C252.161 123.001 252.647 123.488 253.246 123.488Z" fill="#98C8DB"/>
<path d="M260.085 123.488C260.685 123.488 261.17 123.001 261.17 122.401C261.17 121.801 260.685 121.314 260.085 121.314C259.486 121.314 259 121.801 259 122.401C259 123.001 259.486 123.488 260.085 123.488Z" fill="#98C8DB"/>
<path d="M266.922 123.488C267.522 123.488 268.007 123.001 268.007 122.401C268.007 121.801 267.522 121.314 266.922 121.314C266.323 121.314 265.837 121.801 265.837 122.401C265.837 123.001 266.323 123.488 266.922 123.488Z" fill="#98C8DB"/>
<path d="M225.895 123.488C226.495 123.488 226.98 123.001 226.98 122.401C226.98 121.801 226.495 121.314 225.895 121.314C225.296 121.314 224.81 121.801 224.81 122.401C224.81 123.001 225.296 123.488 225.895 123.488Z" fill="#98C8DB"/>
<path d="M491.495 170.133C492.094 170.133 492.58 169.647 492.58 169.047C492.58 168.446 492.094 167.96 491.495 167.96C490.896 167.96 490.41 168.446 490.41 169.047C490.41 169.647 490.896 170.133 491.495 170.133Z" fill="#98C8DB"/>
<path d="M498.334 170.133C498.933 170.133 499.419 169.647 499.419 169.047C499.419 168.446 498.933 167.96 498.334 167.96C497.735 167.96 497.249 168.446 497.249 169.047C497.249 169.647 497.735 170.133 498.334 170.133Z" fill="#98C8DB"/>
<path d="M505.171 170.133C505.77 170.133 506.256 169.647 506.256 169.047C506.256 168.446 505.77 167.96 505.171 167.96C504.572 167.96 504.086 168.446 504.086 169.047C504.086 169.647 504.572 170.133 505.171 170.133Z" fill="#98C8DB"/>
<path d="M512.01 170.133C512.609 170.133 513.095 169.647 513.095 169.047C513.095 168.446 512.609 167.96 512.01 167.96C511.41 167.96 510.925 168.446 510.925 169.047C510.925 169.647 511.41 170.133 512.01 170.133Z" fill="#98C8DB"/>
<path d="M518.847 170.133C519.446 170.133 519.932 169.647 519.932 169.047C519.932 168.446 519.446 167.96 518.847 167.96C518.248 167.96 517.762 168.446 517.762 169.047C517.762 169.647 518.248 170.133 518.847 170.133Z" fill="#98C8DB"/>
<path d="M525.685 170.133C526.285 170.133 526.77 169.647 526.77 169.047C526.77 168.446 526.285 167.96 525.685 167.96C525.086 167.96 524.6 168.446 524.6 169.047C524.6 169.647 525.086 170.133 525.685 170.133Z" fill="#98C8DB"/>
<path d="M484.656 170.133C485.256 170.133 485.742 169.647 485.742 169.047C485.742 168.446 485.256 167.96 484.656 167.96C484.057 167.96 483.571 168.446 483.571 169.047C483.571 169.647 484.057 170.133 484.656 170.133Z" fill="#98C8DB"/>
<path d="M488.076 173.701C488.675 173.701 489.161 173.214 489.161 172.614C489.161 172.014 488.675 171.527 488.076 171.527C487.477 171.527 486.991 172.014 486.991 172.614C486.991 173.214 487.477 173.701 488.076 173.701Z" fill="#98C8DB"/>
<path d="M494.914 173.701C495.514 173.701 495.999 173.214 495.999 172.614C495.999 172.014 495.514 171.527 494.914 171.527C494.315 171.527 493.829 172.014 493.829 172.614C493.829 173.214 494.315 173.701 494.914 173.701Z" fill="#98C8DB"/>
<path d="M501.751 173.701C502.351 173.701 502.836 173.214 502.836 172.614C502.836 172.014 502.351 171.527 501.751 171.527C501.152 171.527 500.666 172.014 500.666 172.614C500.666 173.214 501.152 173.701 501.751 173.701Z" fill="#98C8DB"/>
<path d="M508.59 173.701C509.189 173.701 509.675 173.214 509.675 172.614C509.675 172.014 509.189 171.527 508.59 171.527C507.991 171.527 507.505 172.014 507.505 172.614C507.505 173.214 507.991 173.701 508.59 173.701Z" fill="#98C8DB"/>
<path d="M515.429 173.701C516.029 173.701 516.515 173.214 516.515 172.614C516.515 172.014 516.029 171.527 515.429 171.527C514.83 171.527 514.344 172.014 514.344 172.614C514.344 173.214 514.83 173.701 515.429 173.701Z" fill="#98C8DB"/>
<path d="M522.266 173.701C522.865 173.701 523.351 173.214 523.351 172.614C523.351 172.014 522.865 171.527 522.266 171.527C521.667 171.527 521.181 172.014 521.181 172.614C521.181 173.214 521.667 173.701 522.266 173.701Z" fill="#98C8DB"/>
<path d="M529.105 173.701C529.705 173.701 530.19 173.214 530.19 172.614C530.19 172.014 529.705 171.527 529.105 171.527C528.506 171.527 528.02 172.014 528.02 172.614C528.02 173.214 528.506 173.701 529.105 173.701Z" fill="#98C8DB"/>
<path d="M481.239 173.701C481.838 173.701 482.324 173.214 482.324 172.614C482.324 172.014 481.838 171.527 481.239 171.527C480.64 171.527 480.154 172.014 480.154 172.614C480.154 173.214 480.64 173.701 481.239 173.701Z" fill="#98C8DB"/>
<path d="M491.495 177.268C492.094 177.268 492.58 176.781 492.58 176.181C492.58 175.581 492.094 175.095 491.495 175.095C490.896 175.095 490.41 175.581 490.41 176.181C490.41 176.781 490.896 177.268 491.495 177.268Z" fill="#98C8DB"/>
<path d="M498.334 177.268C498.933 177.268 499.419 176.781 499.419 176.181C499.419 175.581 498.933 175.095 498.334 175.095C497.735 175.095 497.249 175.581 497.249 176.181C497.249 176.781 497.735 177.268 498.334 177.268Z" fill="#98C8DB"/>
<path d="M505.171 177.268C505.77 177.268 506.256 176.781 506.256 176.181C506.256 175.581 505.77 175.095 505.171 175.095C504.572 175.095 504.086 175.581 504.086 176.181C504.086 176.781 504.572 177.268 505.171 177.268Z" fill="#98C8DB"/>
<path d="M512.01 177.268C512.609 177.268 513.095 176.781 513.095 176.181C513.095 175.581 512.609 175.095 512.01 175.095C511.41 175.095 510.925 175.581 510.925 176.181C510.925 176.781 511.41 177.268 512.01 177.268Z" fill="#98C8DB"/>
<path d="M518.847 177.268C519.446 177.268 519.932 176.781 519.932 176.181C519.932 175.581 519.446 175.095 518.847 175.095C518.248 175.095 517.762 175.581 517.762 176.181C517.762 176.781 518.248 177.268 518.847 177.268Z" fill="#98C8DB"/>
<path d="M525.685 177.268C526.285 177.268 526.77 176.781 526.77 176.181C526.77 175.581 526.285 175.095 525.685 175.095C525.086 175.095 524.6 175.581 524.6 176.181C524.6 176.781 525.086 177.268 525.685 177.268Z" fill="#98C8DB"/>
<path d="M532.524 177.268C533.123 177.268 533.609 176.781 533.609 176.181C533.609 175.581 533.123 175.095 532.524 175.095C531.925 175.095 531.439 175.581 531.439 176.181C531.439 176.781 531.925 177.268 532.524 177.268Z" fill="#98C8DB"/>
<path d="M532.524 170.133C533.123 170.133 533.609 169.647 533.609 169.047C533.609 168.446 533.123 167.96 532.524 167.96C531.925 167.96 531.439 168.446 531.439 169.047C531.439 169.647 531.925 170.133 532.524 170.133Z" fill="#98C8DB"/>
<path d="M484.656 177.268C485.256 177.268 485.742 176.781 485.742 176.181C485.742 175.581 485.256 175.095 484.656 175.095C484.057 175.095 483.571 175.581 483.571 176.181C483.571 176.781 484.057 177.268 484.656 177.268Z" fill="#98C8DB"/>
<path d="M488.076 180.837C488.675 180.837 489.161 180.351 489.161 179.751C489.161 179.151 488.675 178.664 488.076 178.664C487.477 178.664 486.991 179.151 486.991 179.751C486.991 180.351 487.477 180.837 488.076 180.837Z" fill="#98C8DB"/>
<path d="M494.914 180.837C495.514 180.837 495.999 180.351 495.999 179.751C495.999 179.151 495.514 178.664 494.914 178.664C494.315 178.664 493.829 179.151 493.829 179.751C493.829 180.351 494.315 180.837 494.914 180.837Z" fill="#98C8DB"/>
<path d="M501.751 180.837C502.351 180.837 502.836 180.351 502.836 179.751C502.836 179.151 502.351 178.664 501.751 178.664C501.152 178.664 500.666 179.151 500.666 179.751C500.666 180.351 501.152 180.837 501.751 180.837Z" fill="#98C8DB"/>
<path d="M508.59 180.837C509.189 180.837 509.675 180.351 509.675 179.751C509.675 179.151 509.189 178.664 508.59 178.664C507.991 178.664 507.505 179.151 507.505 179.751C507.505 180.351 507.991 180.837 508.59 180.837Z" fill="#98C8DB"/>
<path d="M515.429 180.837C516.029 180.837 516.515 180.351 516.515 179.751C516.515 179.151 516.029 178.664 515.429 178.664C514.83 178.664 514.344 179.151 514.344 179.751C514.344 180.351 514.83 180.837 515.429 180.837Z" fill="#98C8DB"/>
<path d="M522.266 180.837C522.865 180.837 523.351 180.351 523.351 179.751C523.351 179.151 522.865 178.664 522.266 178.664C521.667 178.664 521.181 179.151 521.181 179.751C521.181 180.351 521.667 180.837 522.266 180.837Z" fill="#98C8DB"/>
<path d="M529.105 180.837C529.705 180.837 530.19 180.351 530.19 179.751C530.19 179.151 529.705 178.664 529.105 178.664C528.506 178.664 528.02 179.151 528.02 179.751C528.02 180.351 528.506 180.837 529.105 180.837Z" fill="#98C8DB"/>
<path d="M481.239 180.837C481.838 180.837 482.324 180.351 482.324 179.751C482.324 179.151 481.838 178.664 481.239 178.664C480.64 178.664 480.154 179.151 480.154 179.751C480.154 180.351 480.64 180.837 481.239 180.837Z" fill="#98C8DB"/>
<path d="M536.089 173.701C536.688 173.701 537.174 173.214 537.174 172.614C537.174 172.014 536.688 171.527 536.089 171.527C535.49 171.527 535.004 172.014 535.004 172.614C535.004 173.214 535.49 173.701 536.089 173.701Z" fill="#98C8DB"/>
<path d="M536.089 180.837C536.688 180.837 537.174 180.351 537.174 179.751C537.174 179.151 536.688 178.664 536.089 178.664C535.49 178.664 535.004 179.151 535.004 179.751C535.004 180.351 535.49 180.837 536.089 180.837Z" fill="#98C8DB"/>
<path d="M488.076 159.246C488.675 159.246 489.161 158.76 489.161 158.16C489.161 157.56 488.675 157.073 488.076 157.073C487.477 157.073 486.991 157.56 486.991 158.16C486.991 158.76 487.477 159.246 488.076 159.246Z" fill="#98C8DB"/>
<path d="M494.914 159.246C495.514 159.246 495.999 158.76 495.999 158.16C495.999 157.56 495.514 157.073 494.914 157.073C494.315 157.073 493.829 157.56 493.829 158.16C493.829 158.76 494.315 159.246 494.914 159.246Z" fill="#98C8DB"/>
<path d="M501.751 159.246C502.351 159.246 502.836 158.76 502.836 158.16C502.836 157.56 502.351 157.073 501.751 157.073C501.152 157.073 500.666 157.56 500.666 158.16C500.666 158.76 501.152 159.246 501.751 159.246Z" fill="#98C8DB"/>
<path d="M508.59 159.246C509.189 159.246 509.675 158.76 509.675 158.16C509.675 157.56 509.189 157.073 508.59 157.073C507.991 157.073 507.505 157.56 507.505 158.16C507.505 158.76 507.991 159.246 508.59 159.246Z" fill="#98C8DB"/>
<path d="M515.429 159.246C516.029 159.246 516.515 158.76 516.515 158.16C516.515 157.56 516.029 157.073 515.429 157.073C514.83 157.073 514.344 157.56 514.344 158.16C514.344 158.76 514.83 159.246 515.429 159.246Z" fill="#98C8DB"/>
<path d="M522.266 159.246C522.865 159.246 523.351 158.76 523.351 158.16C523.351 157.56 522.865 157.073 522.266 157.073C521.667 157.073 521.181 157.56 521.181 158.16C521.181 158.76 521.667 159.246 522.266 159.246Z" fill="#98C8DB"/>
<path d="M529.105 159.246C529.705 159.246 530.19 158.76 530.19 158.16C530.19 157.56 529.705 157.073 529.105 157.073C528.506 157.073 528.02 157.56 528.02 158.16C528.02 158.76 528.506 159.246 529.105 159.246Z" fill="#98C8DB"/>
<path d="M481.239 159.246C481.838 159.246 482.324 158.76 482.324 158.16C482.324 157.56 481.838 157.073 481.239 157.073C480.64 157.073 480.154 157.56 480.154 158.16C480.154 158.76 480.64 159.246 481.239 159.246Z" fill="#98C8DB"/>
<path d="M491.495 162.815C492.094 162.815 492.58 162.328 492.58 161.728C492.58 161.128 492.094 160.642 491.495 160.642C490.896 160.642 490.41 161.128 490.41 161.728C490.41 162.328 490.896 162.815 491.495 162.815Z" fill="#98C8DB"/>
<path d="M498.334 162.815C498.933 162.815 499.419 162.328 499.419 161.728C499.419 161.128 498.933 160.642 498.334 160.642C497.735 160.642 497.249 161.128 497.249 161.728C497.249 162.328 497.735 162.815 498.334 162.815Z" fill="#98C8DB"/>
<path d="M505.171 162.815C505.77 162.815 506.256 162.328 506.256 161.728C506.256 161.128 505.77 160.642 505.171 160.642C504.572 160.642 504.086 161.128 504.086 161.728C504.086 162.328 504.572 162.815 505.171 162.815Z" fill="#98C8DB"/>
<path d="M512.01 162.815C512.609 162.815 513.095 162.328 513.095 161.728C513.095 161.128 512.609 160.642 512.01 160.642C511.41 160.642 510.925 161.128 510.925 161.728C510.925 162.328 511.41 162.815 512.01 162.815Z" fill="#98C8DB"/>
<path d="M518.847 162.815C519.446 162.815 519.932 162.328 519.932 161.728C519.932 161.128 519.446 160.642 518.847 160.642C518.248 160.642 517.762 161.128 517.762 161.728C517.762 162.328 518.248 162.815 518.847 162.815Z" fill="#98C8DB"/>
<path d="M525.685 162.815C526.285 162.815 526.77 162.328 526.77 161.728C526.77 161.128 526.285 160.642 525.685 160.642C525.086 160.642 524.6 161.128 524.6 161.728C524.6 162.328 525.086 162.815 525.685 162.815Z" fill="#98C8DB"/>
<path d="M532.524 162.815C533.123 162.815 533.609 162.328 533.609 161.728C533.609 161.128 533.123 160.642 532.524 160.642C531.925 160.642 531.439 161.128 531.439 161.728C531.439 162.328 531.925 162.815 532.524 162.815Z" fill="#98C8DB"/>
<path d="M484.656 162.815C485.256 162.815 485.742 162.328 485.742 161.728C485.742 161.128 485.256 160.642 484.656 160.642C484.057 160.642 483.571 161.128 483.571 161.728C483.571 162.328 484.057 162.815 484.656 162.815Z" fill="#98C8DB"/>
<path d="M488.076 166.382C488.675 166.382 489.161 165.896 489.161 165.296C489.161 164.695 488.675 164.209 488.076 164.209C487.477 164.209 486.991 164.695 486.991 165.296C486.991 165.896 487.477 166.382 488.076 166.382Z" fill="#98C8DB"/>
<path d="M494.914 166.382C495.514 166.382 495.999 165.896 495.999 165.296C495.999 164.695 495.514 164.209 494.914 164.209C494.315 164.209 493.829 164.695 493.829 165.296C493.829 165.896 494.315 166.382 494.914 166.382Z" fill="#98C8DB"/>
<path d="M501.751 166.382C502.351 166.382 502.836 165.896 502.836 165.296C502.836 164.695 502.351 164.209 501.751 164.209C501.152 164.209 500.666 164.695 500.666 165.296C500.666 165.896 501.152 166.382 501.751 166.382Z" fill="#98C8DB"/>
<path d="M508.59 166.382C509.189 166.382 509.675 165.896 509.675 165.296C509.675 164.695 509.189 164.209 508.59 164.209C507.991 164.209 507.505 164.695 507.505 165.296C507.505 165.896 507.991 166.382 508.59 166.382Z" fill="#98C8DB"/>
<path d="M515.429 166.382C516.029 166.382 516.515 165.896 516.515 165.296C516.515 164.695 516.029 164.209 515.429 164.209C514.83 164.209 514.344 164.695 514.344 165.296C514.344 165.896 514.83 166.382 515.429 166.382Z" fill="#98C8DB"/>
<path d="M522.266 166.382C522.865 166.382 523.351 165.896 523.351 165.296C523.351 164.695 522.865 164.209 522.266 164.209C521.667 164.209 521.181 164.695 521.181 165.296C521.181 165.896 521.667 166.382 522.266 166.382Z" fill="#98C8DB"/>
<path d="M529.105 166.382C529.705 166.382 530.19 165.896 530.19 165.296C530.19 164.695 529.705 164.209 529.105 164.209C528.506 164.209 528.02 164.695 528.02 165.296C528.02 165.896 528.506 166.382 529.105 166.382Z" fill="#98C8DB"/>
<path d="M481.239 166.382C481.838 166.382 482.324 165.896 482.324 165.296C482.324 164.695 481.838 164.209 481.239 164.209C480.64 164.209 480.154 164.695 480.154 165.296C480.154 165.896 480.64 166.382 481.239 166.382Z" fill="#98C8DB"/>
<path d="M536.089 159.246C536.688 159.246 537.174 158.76 537.174 158.16C537.174 157.56 536.688 157.073 536.089 157.073C535.49 157.073 535.004 157.56 535.004 158.16C535.004 158.76 535.49 159.246 536.089 159.246Z" fill="#98C8DB"/>
<path d="M536.089 166.382C536.688 166.382 537.174 165.896 537.174 165.296C537.174 164.695 536.688 164.209 536.089 164.209C535.49 164.209 535.004 164.695 535.004 165.296C535.004 165.896 535.49 166.382 536.089 166.382Z" fill="#98C8DB"/>
<path d="M546.438 170.133C547.038 170.133 547.523 169.647 547.523 169.047C547.523 168.446 547.038 167.96 546.438 167.96C545.839 167.96 545.353 168.446 545.353 169.047C545.353 169.647 545.839 170.133 546.438 170.133Z" fill="#98C8DB"/>
<path d="M553.278 170.133C553.877 170.133 554.363 169.647 554.363 169.047C554.363 168.446 553.877 167.96 553.278 167.96C552.678 167.96 552.192 168.446 552.192 169.047C552.192 169.647 552.678 170.133 553.278 170.133Z" fill="#98C8DB"/>
<path d="M560.114 170.133C560.714 170.133 561.199 169.647 561.199 169.047C561.199 168.446 560.714 167.96 560.114 167.96C559.515 167.96 559.029 168.446 559.029 169.047C559.029 169.647 559.515 170.133 560.114 170.133Z" fill="#98C8DB"/>
<path d="M566.953 170.133C567.553 170.133 568.039 169.647 568.039 169.047C568.039 168.446 567.553 167.96 566.953 167.96C566.354 167.96 565.868 168.446 565.868 169.047C565.868 169.647 566.354 170.133 566.953 170.133Z" fill="#98C8DB"/>
<path d="M573.792 170.133C574.391 170.133 574.877 169.647 574.877 169.047C574.877 168.446 574.391 167.96 573.792 167.96C573.192 167.96 572.707 168.446 572.707 169.047C572.707 169.647 573.192 170.133 573.792 170.133Z" fill="#98C8DB"/>
<path d="M539.602 170.133C540.201 170.133 540.687 169.647 540.687 169.047C540.687 168.446 540.201 167.96 539.602 167.96C539.003 167.96 538.517 168.446 538.517 169.047C538.517 169.647 539.003 170.133 539.602 170.133Z" fill="#98C8DB"/>
<path d="M543.019 173.701C543.618 173.701 544.104 173.214 544.104 172.614C544.104 172.014 543.618 171.527 543.019 171.527C542.42 171.527 541.934 172.014 541.934 172.614C541.934 173.214 542.42 173.701 543.019 173.701Z" fill="#98C8DB"/>
<path d="M549.858 173.701C550.457 173.701 550.943 173.214 550.943 172.614C550.943 172.014 550.457 171.527 549.858 171.527C549.259 171.527 548.773 172.014 548.773 172.614C548.773 173.214 549.259 173.701 549.858 173.701Z" fill="#98C8DB"/>
<path d="M556.697 173.701C557.296 173.701 557.782 173.214 557.782 172.614C557.782 172.014 557.296 171.527 556.697 171.527C556.097 171.527 555.612 172.014 555.612 172.614C555.612 173.214 556.097 173.701 556.697 173.701Z" fill="#98C8DB"/>
<path d="M563.534 173.701C564.133 173.701 564.619 173.214 564.619 172.614C564.619 172.014 564.133 171.527 563.534 171.527C562.934 171.527 562.448 172.014 562.448 172.614C562.448 173.214 562.934 173.701 563.534 173.701Z" fill="#98C8DB"/>
<path d="M570.373 173.701C570.972 173.701 571.458 173.214 571.458 172.614C571.458 172.014 570.972 171.527 570.373 171.527C569.774 171.527 569.288 172.014 569.288 172.614C569.288 173.214 569.774 173.701 570.373 173.701Z" fill="#98C8DB"/>
<path d="M577.209 173.701C577.809 173.701 578.295 173.214 578.295 172.614C578.295 172.014 577.809 171.527 577.209 171.527C576.61 171.527 576.124 172.014 576.124 172.614C576.124 173.214 576.61 173.701 577.209 173.701Z" fill="#98C8DB"/>
<path d="M546.438 177.268C547.038 177.268 547.523 176.781 547.523 176.181C547.523 175.581 547.038 175.095 546.438 175.095C545.839 175.095 545.353 175.581 545.353 176.181C545.353 176.781 545.839 177.268 546.438 177.268Z" fill="#98C8DB"/>
<path d="M553.278 177.268C553.877 177.268 554.363 176.781 554.363 176.181C554.363 175.581 553.877 175.095 553.278 175.095C552.678 175.095 552.192 175.581 552.192 176.181C552.192 176.781 552.678 177.268 553.278 177.268Z" fill="#98C8DB"/>
<path d="M560.114 177.268C560.714 177.268 561.199 176.781 561.199 176.181C561.199 175.581 560.714 175.095 560.114 175.095C559.515 175.095 559.029 175.581 559.029 176.181C559.029 176.781 559.515 177.268 560.114 177.268Z" fill="#98C8DB"/>
<path d="M566.953 177.268C567.553 177.268 568.039 176.781 568.039 176.181C568.039 175.581 567.553 175.095 566.953 175.095C566.354 175.095 565.868 175.581 565.868 176.181C565.868 176.781 566.354 177.268 566.953 177.268Z" fill="#98C8DB"/>
<path d="M573.792 177.268C574.391 177.268 574.877 176.781 574.877 176.181C574.877 175.581 574.391 175.095 573.792 175.095C573.192 175.095 572.707 175.581 572.707 176.181C572.707 176.781 573.192 177.268 573.792 177.268Z" fill="#98C8DB"/>
<path d="M539.602 177.268C540.201 177.268 540.687 176.781 540.687 176.181C540.687 175.581 540.201 175.095 539.602 175.095C539.003 175.095 538.517 175.581 538.517 176.181C538.517 176.781 539.003 177.268 539.602 177.268Z" fill="#98C8DB"/>
<path d="M543.019 180.837C543.618 180.837 544.104 180.351 544.104 179.751C544.104 179.151 543.618 178.664 543.019 178.664C542.42 178.664 541.934 179.151 541.934 179.751C541.934 180.351 542.42 180.837 543.019 180.837Z" fill="#98C8DB"/>
<path d="M549.858 180.837C550.457 180.837 550.943 180.351 550.943 179.751C550.943 179.151 550.457 178.664 549.858 178.664C549.259 178.664 548.773 179.151 548.773 179.751C548.773 180.351 549.259 180.837 549.858 180.837Z" fill="#98C8DB"/>
<path d="M556.697 180.837C557.296 180.837 557.782 180.351 557.782 179.751C557.782 179.151 557.296 178.664 556.697 178.664C556.097 178.664 555.612 179.151 555.612 179.751C555.612 180.351 556.097 180.837 556.697 180.837Z" fill="#98C8DB"/>
<path d="M563.534 180.837C564.133 180.837 564.619 180.351 564.619 179.751C564.619 179.151 564.133 178.664 563.534 178.664C562.934 178.664 562.448 179.151 562.448 179.751C562.448 180.351 562.934 180.837 563.534 180.837Z" fill="#98C8DB"/>
<path d="M570.373 180.837C570.972 180.837 571.458 180.351 571.458 179.751C571.458 179.151 570.972 178.664 570.373 178.664C569.774 178.664 569.288 179.151 569.288 179.751C569.288 180.351 569.774 180.837 570.373 180.837Z" fill="#98C8DB"/>
<path d="M577.209 180.837C577.809 180.837 578.295 180.351 578.295 179.751C578.295 179.151 577.809 178.664 577.209 178.664C576.61 178.664 576.124 179.151 576.124 179.751C576.124 180.351 576.61 180.837 577.209 180.837Z" fill="#98C8DB"/>
<path d="M543.019 159.246C543.618 159.246 544.104 158.76 544.104 158.16C544.104 157.56 543.618 157.073 543.019 157.073C542.42 157.073 541.934 157.56 541.934 158.16C541.934 158.76 542.42 159.246 543.019 159.246Z" fill="#98C8DB"/>
<path d="M549.858 159.246C550.457 159.246 550.943 158.76 550.943 158.16C550.943 157.56 550.457 157.073 549.858 157.073C549.259 157.073 548.773 157.56 548.773 158.16C548.773 158.76 549.259 159.246 549.858 159.246Z" fill="#98C8DB"/>
<path d="M556.697 159.246C557.296 159.246 557.782 158.76 557.782 158.16C557.782 157.56 557.296 157.073 556.697 157.073C556.097 157.073 555.612 157.56 555.612 158.16C555.612 158.76 556.097 159.246 556.697 159.246Z" fill="#98C8DB"/>
<path d="M563.534 159.246C564.133 159.246 564.619 158.76 564.619 158.16C564.619 157.56 564.133 157.073 563.534 157.073C562.934 157.073 562.448 157.56 562.448 158.16C562.448 158.76 562.934 159.246 563.534 159.246Z" fill="#98C8DB"/>
<path d="M570.373 159.246C570.972 159.246 571.458 158.76 571.458 158.16C571.458 157.56 570.972 157.073 570.373 157.073C569.774 157.073 569.288 157.56 569.288 158.16C569.288 158.76 569.774 159.246 570.373 159.246Z" fill="#98C8DB"/>
<path d="M577.209 159.246C577.809 159.246 578.295 158.76 578.295 158.16C578.295 157.56 577.809 157.073 577.209 157.073C576.61 157.073 576.124 157.56 576.124 158.16C576.124 158.76 576.61 159.246 577.209 159.246Z" fill="#98C8DB"/>
<path d="M546.438 162.815C547.038 162.815 547.523 162.328 547.523 161.728C547.523 161.128 547.038 160.642 546.438 160.642C545.839 160.642 545.353 161.128 545.353 161.728C545.353 162.328 545.839 162.815 546.438 162.815Z" fill="#98C8DB"/>
<path d="M553.278 162.815C553.877 162.815 554.363 162.328 554.363 161.728C554.363 161.128 553.877 160.642 553.278 160.642C552.678 160.642 552.192 161.128 552.192 161.728C552.192 162.328 552.678 162.815 553.278 162.815Z" fill="#98C8DB"/>
<path d="M560.114 162.815C560.714 162.815 561.199 162.328 561.199 161.728C561.199 161.128 560.714 160.642 560.114 160.642C559.515 160.642 559.029 161.128 559.029 161.728C559.029 162.328 559.515 162.815 560.114 162.815Z" fill="#98C8DB"/>
<path d="M566.953 162.815C567.553 162.815 568.039 162.328 568.039 161.728C568.039 161.128 567.553 160.642 566.953 160.642C566.354 160.642 565.868 161.128 565.868 161.728C565.868 162.328 566.354 162.815 566.953 162.815Z" fill="#98C8DB"/>
<path d="M573.792 162.815C574.391 162.815 574.877 162.328 574.877 161.728C574.877 161.128 574.391 160.642 573.792 160.642C573.192 160.642 572.707 161.128 572.707 161.728C572.707 162.328 573.192 162.815 573.792 162.815Z" fill="#98C8DB"/>
<path d="M539.602 162.815C540.201 162.815 540.687 162.328 540.687 161.728C540.687 161.128 540.201 160.642 539.602 160.642C539.003 160.642 538.517 161.128 538.517 161.728C538.517 162.328 539.003 162.815 539.602 162.815Z" fill="#98C8DB"/>
<path d="M543.019 166.382C543.618 166.382 544.104 165.896 544.104 165.296C544.104 164.695 543.618 164.209 543.019 164.209C542.42 164.209 541.934 164.695 541.934 165.296C541.934 165.896 542.42 166.382 543.019 166.382Z" fill="#98C8DB"/>
<path d="M549.858 166.382C550.457 166.382 550.943 165.896 550.943 165.296C550.943 164.695 550.457 164.209 549.858 164.209C549.259 164.209 548.773 164.695 548.773 165.296C548.773 165.896 549.259 166.382 549.858 166.382Z" fill="#98C8DB"/>
<path d="M556.697 166.382C557.296 166.382 557.782 165.896 557.782 165.296C557.782 164.695 557.296 164.209 556.697 164.209C556.097 164.209 555.612 164.695 555.612 165.296C555.612 165.896 556.097 166.382 556.697 166.382Z" fill="#98C8DB"/>
<path d="M563.534 166.382C564.133 166.382 564.619 165.896 564.619 165.296C564.619 164.695 564.133 164.209 563.534 164.209C562.934 164.209 562.448 164.695 562.448 165.296C562.448 165.896 562.934 166.382 563.534 166.382Z" fill="#98C8DB"/>
<path d="M570.373 166.382C570.972 166.382 571.458 165.896 571.458 165.296C571.458 164.695 570.972 164.209 570.373 164.209C569.774 164.209 569.288 164.695 569.288 165.296C569.288 165.896 569.774 166.382 570.373 166.382Z" fill="#98C8DB"/>
<path d="M577.209 166.382C577.809 166.382 578.295 165.896 578.295 165.296C578.295 164.695 577.809 164.209 577.209 164.209C576.61 164.209 576.124 164.695 576.124 165.296C576.124 165.896 576.61 166.382 577.209 166.382Z" fill="#98C8DB"/>
<path d="M534.898 221.161C534.898 226.263 544.127 242.976 544.127 242.976C544.127 242.976 553.356 226.257 553.356 221.161C553.356 218.709 552.383 216.357 550.652 214.623C548.92 212.889 546.572 211.915 544.123 211.915C541.674 211.915 539.326 212.889 537.594 214.623C535.862 216.357 534.89 218.709 534.89 221.161H534.898ZM541.287 221.3C541.286 220.737 541.452 220.187 541.763 219.718C542.075 219.25 542.518 218.885 543.037 218.669C543.556 218.453 544.127 218.396 544.679 218.506C545.23 218.615 545.737 218.885 546.134 219.283C546.532 219.681 546.803 220.187 546.913 220.739C547.023 221.291 546.967 221.863 546.752 222.383C546.537 222.903 546.173 223.348 545.706 223.66C545.238 223.973 544.689 224.14 544.127 224.14C543.374 224.14 542.653 223.841 542.12 223.308C541.587 222.776 541.288 222.053 541.287 221.3Z" fill="#F1BFC1"/>
<path d="M553.23 284.298H582.915V267.932H553.23V284.298Z" fill="#BDDCE8"/>
<path d="M537.145 252.899H566.831L582.915 267.929H553.23L537.145 252.899Z" fill="#98C8DB"/>
<path d="M521.042 267.929L537.126 252.899L553.229 267.929V284.295L569.314 299.325H521.042V267.929Z" fill="white"/>
<path d="M553.229 284.294H582.915L599 299.324H569.314L553.229 284.294Z" fill="#98C8DB"/>
<path d="M537.492 269.042H540.177V266.354H537.492V269.042Z" fill="#F1BFC1"/>
<path d="M533.526 269.042H536.211V266.354H533.526V269.042Z" fill="#F1BFC1"/>
<path d="M537.492 272.867H540.177V270.179H537.492V272.867Z" fill="#F1BFC1"/>
<path d="M533.526 272.867H536.211V270.179H533.526V272.867Z" fill="#F1BFC1"/>
<path d="M537.492 284.122H540.177V281.434H537.492V284.122Z" fill="#98C8DB"/>
<path d="M533.526 284.122H536.211V281.434H533.526V284.122Z" fill="#98C8DB"/>
<path d="M537.492 287.944H540.177V285.256H537.492V287.944Z" fill="#98C8DB"/>
<path d="M533.526 287.944H536.211V285.256H533.526V287.944Z" fill="#98C8DB"/>
<path d="M285.493 35.9502L262.718 43.3591V59.6895H238.826V43.3591L261.6 35.9502H285.493Z" fill="#98C8DB"/>
<path d="M262.718 59.6916V43.3591L285.295 35.9502L308.069 43.3591V59.6916H262.718Z" fill="white"/>
<path d="M269.954 45.4717H301.003C301.097 45.4717 301.191 45.4904 301.279 45.5267C301.367 45.5631 301.446 45.6163 301.513 45.6834C301.58 45.7506 301.633 45.8303 301.67 45.918C301.706 46.0057 301.725 46.0998 301.725 46.1947V59.6995H269.232V46.1947C269.232 46.0998 269.25 46.0057 269.287 45.918C269.323 45.8303 269.376 45.7506 269.443 45.6834C269.51 45.6163 269.59 45.5631 269.677 45.5267C269.765 45.4904 269.859 45.4717 269.954 45.4717Z" fill="#98C8DB"/>
<path d="M269.232 48.1123H301.727" stroke="white" stroke-width="3" stroke-miterlimit="10"/>
<path d="M269.232 51.165H301.727" stroke="white" stroke-width="3" stroke-miterlimit="10"/>
<path d="M269.232 54.2188H301.727" stroke="white" stroke-width="3" stroke-miterlimit="10"/>
<path d="M269.232 57.2725H301.727" stroke="white" stroke-width="3" stroke-miterlimit="10"/>
<path d="M285.086 4.03393e-06C282.82 0.0027565 280.648 0.905756 279.047 2.5107C277.446 4.11565 276.546 6.29133 276.545 8.55997C276.545 13.2866 285.096 28.7735 285.096 28.7735C285.096 28.7735 293.645 13.2866 293.645 8.55997C293.644 7.43506 293.423 6.32123 292.992 5.28213C292.562 4.24304 291.931 3.29904 291.137 2.50409C290.342 1.70915 289.398 1.07883 288.36 0.649165C287.322 0.219501 286.209 -0.00108788 285.086 4.03393e-06ZM285.086 11.3212C284.565 11.3216 284.056 11.1674 283.623 10.8781C283.19 10.5887 282.853 10.1773 282.653 9.69583C282.454 9.21436 282.402 8.68448 282.503 8.17325C282.605 7.66202 282.855 7.19241 283.223 6.82385C283.591 6.45529 284.06 6.20433 284.571 6.10275C285.081 6.00116 285.611 6.05351 286.091 6.25316C286.572 6.45282 286.983 6.79081 287.272 7.22436C287.561 7.65792 287.715 8.16755 287.715 8.68878C287.715 9.03455 287.647 9.37698 287.515 9.69648C287.383 10.016 287.189 10.3063 286.945 10.5508C286.701 10.7953 286.411 10.9892 286.092 11.1214C285.773 11.2535 285.431 11.3215 285.086 11.3212Z" fill="#F1BFC1"/>
<path d="M224.847 50.6133H218.32V59.6885H224.847V50.6133Z" fill="#A74602"/>
<path d="M238.376 50.6133H224.847V59.6885H238.376V50.6133Z" fill="#F1BFC1"/>
<path d="M242.349 50.6133H238.375V59.6885H242.349V50.6133Z" fill="#A74602"/>
<path d="M255.784 50.6133H242.349V59.6885H255.784V50.6133Z" fill="#F1BFC1"/>
<path d="M236.216 43.4766H230.4V50.6133H236.216V43.4766Z" fill="#A74602"/>
<path d="M248.136 43.4766H236.213V50.6133H248.136V43.4766Z" fill="#F1BFC1"/>
<path opacity="0.5" d="M448.727 184.149C456.576 184.149 462.94 177.777 462.94 169.917C462.94 162.056 456.576 155.685 448.727 155.685C440.877 155.685 434.513 162.056 434.513 169.917C434.513 177.777 440.877 184.149 448.727 184.149Z" fill="white"/>
<path d="M448.727 184.149C456.576 184.149 462.94 177.777 462.94 169.917C462.94 162.056 456.576 155.685 448.727 155.685C440.877 155.685 434.513 162.056 434.513 169.917C434.513 177.777 440.877 184.149 448.727 184.149Z" stroke="#F1BFC1" stroke-width="5" stroke-miterlimit="10"/>
<path d="M283.826 62.0225V73.1442C283.826 76.6517 285.217 80.0155 287.694 82.4959C290.171 84.9763 293.53 86.37 297.033 86.3706H385.478V86.381C385.478 87.9599 386.104 89.4741 387.219 90.5907C388.333 91.7074 389.845 92.335 391.422 92.3355V132.38C391.423 133.918 391.825 135.428 392.589 136.762C393.354 138.095 394.454 139.205 395.779 139.98L448.347 170.707" stroke="#F1BFC1" stroke-width="5" stroke-linejoin="round"/>
<path d="M439.302 175.122H455.91L448.181 159.502V170.061L439.302 175.122Z" fill="#F1BFC1"/>
<path d="M395.101 382.315L474.189 378.797L492.61 374.464L413.522 377.982L395.101 382.315Z" fill="#E1CBAA"/>
<path d="M268.85 387.931L347.937 384.414L366.359 380.081L287.273 383.598L268.85 387.931Z" fill="#E1CBAA"/>
<path d="M142.6 393.549L221.686 390.031L240.109 385.698L161.022 389.216L142.6 393.549Z" fill="#E1CBAA"/>
<path d="M16.3482 399.165L95.4339 395.646L113.857 391.313L34.7696 394.832L16.3482 399.165Z" fill="#E1CBAA"/>
<path d="M429.506 376.692C442.278 376.124 452.172 365.295 451.604 352.505C451.036 339.715 440.222 329.808 427.45 330.376C414.677 330.944 404.783 341.772 405.351 354.562C405.919 367.352 416.733 377.26 429.506 376.692Z" fill="#3F1A09"/>
<path d="M465.102 281.813L424.989 254.185L380.745 161.816C378.249 156.606 374.279 152.245 369.327 149.276C364.376 146.306 358.663 144.86 352.898 145.116L63.739 157.971C58.7438 158.194 54.0416 160.394 50.6667 164.089C47.2919 167.783 45.5207 172.669 45.7428 177.671L53.8244 359.675L474.39 340.977L472.344 294.895C472.231 292.302 471.518 289.771 470.261 287.501C469.004 285.23 467.238 283.283 465.102 281.813Z" fill="#EACEB1" stroke="#6B3B20" stroke-width="2" stroke-miterlimit="10"/>
<path d="M472.341 294.882L474.387 340.962L359.183 346.084L357.137 300.003C357.022 297.412 356.309 294.882 355.052 292.614C353.796 290.345 352.031 288.399 349.896 286.929L309.786 259.302L265.54 166.941C263.045 161.73 259.074 157.368 254.123 154.399C249.172 151.429 243.459 149.982 237.693 150.238L352.899 145.116C358.665 144.86 364.378 146.307 369.329 149.277C374.28 152.246 378.251 156.608 380.746 161.819L424.99 254.181L465.102 281.808C467.236 283.278 469.001 285.223 470.257 287.492C471.513 289.761 472.227 292.29 472.341 294.882Z" fill="white" stroke="#6B3B20" stroke-width="2" stroke-miterlimit="10"/>
<path d="M46.0606 360.014L480.981 340.669C482.058 340.622 483.109 341.004 483.904 341.733C484.699 342.461 485.172 343.477 485.22 344.555L485.506 350.993L42.4682 370.698L42.1824 364.26C42.1587 363.726 42.2402 363.193 42.4223 362.691C42.6044 362.188 42.8834 361.727 43.2436 361.332C43.6037 360.938 44.0378 360.619 44.5212 360.392C45.0045 360.166 45.5276 360.038 46.0606 360.014Z" fill="white" stroke="#6B3B20" stroke-width="2" stroke-miterlimit="10"/>
<path d="M442.06 314.062L392.758 316.254C391.728 316.3 390.931 317.172 390.977 318.203L391.494 329.844C391.54 330.875 392.411 331.673 393.44 331.628L442.743 329.436C443.772 329.39 444.569 328.517 444.523 327.487L444.006 315.845C443.961 314.815 443.089 314.016 442.06 314.062Z" fill="#98C8DB"/>
<path d="M444.503 312.11L395.201 314.302C394.172 314.348 393.375 315.22 393.42 316.251L393.937 327.892C393.983 328.923 394.854 329.721 395.883 329.676L445.186 327.484C446.215 327.438 447.012 326.565 446.967 325.534L446.45 313.893C446.404 312.863 445.532 312.064 444.503 312.11Z" stroke="#6B3B20" stroke-width="2" stroke-miterlimit="10"/>
<path d="M429.267 316.639C429.807 316.615 430.226 316.156 430.202 315.615C430.178 315.074 429.72 314.655 429.18 314.679C428.639 314.703 428.221 315.161 428.245 315.702C428.269 316.243 428.726 316.663 429.267 316.639Z" fill="#3F1A09"/>
<path d="M435.43 316.365C435.97 316.341 436.389 315.883 436.365 315.342C436.34 314.801 435.883 314.382 435.343 314.406C434.802 314.43 434.384 314.888 434.408 315.429C434.432 315.97 434.889 316.389 435.43 316.365Z" fill="#3F1A09"/>
<path d="M441.592 316.091C442.133 316.067 442.551 315.609 442.527 315.068C442.503 314.526 442.046 314.107 441.505 314.131C440.965 314.155 440.546 314.613 440.57 315.155C440.594 315.696 441.052 316.115 441.592 316.091Z" fill="#3F1A09"/>
<path d="M398.454 318.008C398.994 317.984 399.412 317.526 399.388 316.985C399.364 316.443 398.907 316.024 398.367 316.048C397.826 316.072 397.408 316.53 397.432 317.072C397.456 317.613 397.913 318.032 398.454 318.008Z" fill="#3F1A09"/>
<path d="M404.616 317.735C405.157 317.711 405.575 317.253 405.551 316.712C405.527 316.171 405.07 315.752 404.529 315.776C403.989 315.8 403.571 316.258 403.595 316.799C403.619 317.34 404.076 317.759 404.616 317.735Z" fill="#3F1A09"/>
<path d="M410.779 317.46C411.319 317.436 411.738 316.978 411.714 316.437C411.69 315.896 411.232 315.476 410.692 315.5C410.152 315.524 409.733 315.983 409.757 316.524C409.781 317.065 410.239 317.484 410.779 317.46Z" fill="#3F1A09"/>
<path d="M416.942 317.186C417.482 317.162 417.9 316.704 417.876 316.163C417.852 315.622 417.395 315.203 416.855 315.227C416.314 315.251 415.896 315.709 415.92 316.25C415.944 316.791 416.401 317.21 416.942 317.186Z" fill="#3F1A09"/>
<path d="M423.104 316.912C423.644 316.888 424.063 316.43 424.039 315.889C424.015 315.348 423.557 314.929 423.017 314.953C422.477 314.977 422.058 315.435 422.082 315.976C422.106 316.517 422.564 316.936 423.104 316.912Z" fill="#3F1A09"/>
<path d="M426.327 319.991C426.868 319.967 427.286 319.509 427.262 318.968C427.238 318.427 426.781 318.008 426.24 318.032C425.7 318.056 425.281 318.514 425.305 319.055C425.329 319.596 425.787 320.015 426.327 319.991Z" fill="#3F1A09"/>
<path d="M432.49 319.716C433.03 319.692 433.449 319.234 433.425 318.693C433.401 318.151 432.943 317.732 432.403 317.756C431.863 317.78 431.444 318.238 431.468 318.78C431.492 319.321 431.95 319.74 432.49 319.716Z" fill="#3F1A09"/>
<path d="M438.653 319.443C439.193 319.419 439.611 318.961 439.587 318.42C439.563 317.879 439.106 317.46 438.566 317.484C438.025 317.508 437.607 317.966 437.631 318.507C437.655 319.048 438.112 319.467 438.653 319.443Z" fill="#3F1A09"/>
<path d="M401.677 321.087C402.217 321.063 402.636 320.605 402.612 320.064C402.588 319.523 402.13 319.103 401.59 319.127C401.049 319.151 400.631 319.61 400.655 320.151C400.679 320.692 401.136 321.111 401.677 321.087Z" fill="#3F1A09"/>
<path d="M407.839 320.813C408.379 320.789 408.798 320.331 408.774 319.79C408.75 319.249 408.292 318.83 407.752 318.854C407.212 318.878 406.793 319.336 406.817 319.877C406.841 320.418 407.299 320.837 407.839 320.813Z" fill="#3F1A09"/>
<path d="M414.002 320.539C414.542 320.515 414.961 320.057 414.937 319.516C414.913 318.975 414.455 318.556 413.915 318.58C413.375 318.604 412.956 319.062 412.98 319.603C413.004 320.144 413.462 320.563 414.002 320.539Z" fill="#3F1A09"/>
<path d="M420.165 320.265C420.705 320.241 421.123 319.782 421.099 319.241C421.075 318.7 420.618 318.281 420.077 318.305C419.537 318.329 419.119 318.787 419.143 319.328C419.167 319.869 419.624 320.289 420.165 320.265Z" fill="#3F1A09"/>
<path d="M429.552 323.068C430.093 323.044 430.511 322.586 430.487 322.045C430.463 321.504 430.005 321.085 429.465 321.109C428.925 321.133 428.506 321.591 428.53 322.132C428.554 322.673 429.012 323.092 429.552 323.068Z" fill="#3F1A09"/>
<path d="M435.715 322.793C436.255 322.769 436.673 322.311 436.649 321.77C436.625 321.229 436.168 320.809 435.628 320.833C435.087 320.857 434.669 321.316 434.693 321.857C434.717 322.398 435.174 322.817 435.715 322.793Z" fill="#3F1A09"/>
<path d="M441.877 322.52C442.418 322.496 442.836 322.038 442.812 321.497C442.788 320.956 442.331 320.537 441.79 320.561C441.25 320.585 440.831 321.043 440.856 321.584C440.88 322.125 441.337 322.544 441.877 322.52Z" fill="#3F1A09"/>
<path d="M398.739 324.439C399.279 324.415 399.698 323.957 399.674 323.416C399.65 322.875 399.192 322.456 398.652 322.48C398.112 322.504 397.693 322.962 397.717 323.503C397.741 324.044 398.199 324.463 398.739 324.439Z" fill="#3F1A09"/>
<path d="M404.902 324.165C405.442 324.141 405.861 323.683 405.837 323.142C405.813 322.601 405.355 322.182 404.815 322.206C404.274 322.23 403.856 322.688 403.88 323.229C403.904 323.77 404.361 324.189 404.902 324.165Z" fill="#3F1A09"/>
<path d="M411.065 323.892C411.605 323.868 412.024 323.409 411.999 322.868C411.975 322.327 411.518 321.908 410.978 321.932C410.437 321.956 410.019 322.414 410.043 322.955C410.067 323.496 410.524 323.916 411.065 323.892Z" fill="#3F1A09"/>
<path d="M417.227 323.617C417.767 323.593 418.185 323.135 418.161 322.594C418.137 322.053 417.68 321.634 417.14 321.658C416.599 321.682 416.181 322.14 416.205 322.681C416.229 323.222 416.686 323.641 417.227 323.617Z" fill="#3F1A09"/>
<path d="M423.389 323.344C423.93 323.32 424.348 322.862 424.324 322.32C424.3 321.779 423.843 321.36 423.302 321.384C422.762 321.408 422.343 321.866 422.367 322.407C422.392 322.949 422.849 323.368 423.389 323.344Z" fill="#3F1A09"/>
<path d="M426.612 326.421C427.153 326.397 427.571 325.939 427.547 325.398C427.523 324.857 427.066 324.437 426.525 324.461C425.985 324.485 425.567 324.944 425.591 325.485C425.615 326.026 426.072 326.445 426.612 326.421Z" fill="#3F1A09"/>
<path d="M432.775 326.145C433.315 326.121 433.734 325.663 433.71 325.122C433.686 324.581 433.228 324.162 432.688 324.186C432.148 324.21 431.729 324.668 431.753 325.209C431.777 325.75 432.235 326.169 432.775 326.145Z" fill="#3F1A09"/>
<path d="M438.938 325.872C439.478 325.848 439.897 325.39 439.873 324.849C439.849 324.308 439.391 323.889 438.851 323.913C438.311 323.937 437.892 324.395 437.916 324.936C437.94 325.477 438.398 325.896 438.938 325.872Z" fill="#3F1A09"/>
<path d="M401.962 327.518C402.502 327.494 402.921 327.036 402.897 326.495C402.873 325.954 402.415 325.535 401.875 325.559C401.335 325.583 400.916 326.041 400.94 326.582C400.964 327.123 401.422 327.542 401.962 327.518Z" fill="#3F1A09"/>
<path d="M408.125 327.242C408.665 327.218 409.084 326.76 409.06 326.219C409.036 325.678 408.578 325.259 408.038 325.283C407.497 325.307 407.079 325.765 407.103 326.306C407.127 326.847 407.584 327.266 408.125 327.242Z" fill="#3F1A09"/>
<path d="M414.287 326.97C414.828 326.946 415.246 326.488 415.222 325.946C415.198 325.405 414.741 324.986 414.2 325.01C413.66 325.034 413.241 325.492 413.265 326.033C413.289 326.575 413.747 326.994 414.287 326.97Z" fill="#3F1A09"/>
<path d="M420.45 326.694C420.99 326.67 421.409 326.212 421.385 325.671C421.36 325.13 420.903 324.711 420.363 324.735C419.822 324.759 419.404 325.217 419.428 325.758C419.452 326.299 419.909 326.718 420.45 326.694Z" fill="#3F1A09"/>
<path d="M245.978 262.218L242.182 176.734C242.125 175.456 242.32 174.18 242.756 172.979C243.192 171.777 243.86 170.673 244.722 169.73C245.584 168.787 246.623 168.023 247.779 167.482C248.936 166.941 250.188 166.633 251.463 166.577L363.479 161.597C365.734 161.496 367.97 162.062 369.907 163.224C371.845 164.385 373.398 166.091 374.375 168.13L414.422 254.655L245.978 262.218Z" fill="white"/>
<path d="M250.799 262.004L247.146 179.739C247.032 177.159 247.945 174.639 249.686 172.734C251.426 170.829 253.851 169.694 256.428 169.58L368.443 164.6C370.699 164.5 372.934 165.066 374.872 166.228C376.809 167.39 378.363 169.096 379.34 171.135L419.243 254.441L250.799 262.004Z" fill="#98C8DB"/>
<path d="M316.141 198.859C314.867 198.915 313.617 199.222 312.463 199.763C311.308 200.303 310.271 201.066 309.41 202.007C308.55 202.949 307.883 204.051 307.448 205.251C307.013 206.451 306.819 207.725 306.876 209L309.114 259.409L300.353 259.798L298.115 209.39C298.058 208.114 298.252 206.84 298.687 205.641C299.122 204.441 299.789 203.339 300.649 202.397C301.509 201.455 302.547 200.692 303.701 200.152C304.856 199.612 306.106 199.305 307.379 199.249L316.141 198.859Z" fill="#3F1A09"/>
<path d="M362.052 206.546L364.291 256.956L309.115 259.409L306.877 208.999C306.82 207.724 307.015 206.45 307.449 205.25C307.884 204.05 308.551 202.948 309.411 202.006C310.272 201.064 311.309 200.302 312.464 199.762C313.619 199.221 314.869 198.914 316.142 198.858L351.925 197.267C354.496 197.153 357.008 198.066 358.907 199.806C360.807 201.546 361.938 203.971 362.052 206.546Z" fill="#A74602"/>
<path d="M419.287 254.505L435.587 253.78C437.037 253.716 438.401 253.077 439.381 252.005C440.36 250.933 440.874 249.515 440.81 248.064L439.986 229.501C439.947 228.65 439.573 227.849 438.945 227.274C438.317 226.699 437.487 226.397 436.637 226.435L431.442 226.666C430.592 226.703 429.792 227.078 429.217 227.706C428.643 228.335 428.341 229.166 428.378 230.017L429.203 248.596C429.267 250.028 428.763 251.426 427.801 252.488C426.84 253.549 425.498 254.186 424.069 254.261L419.287 254.505Z" fill="white"/>
<path d="M307.382 259.486L280.057 260.701C278.607 260.765 277.191 260.25 276.12 259.269C275.05 258.288 274.412 256.922 274.348 255.47L273.523 236.907C273.486 236.056 273.787 235.225 274.361 234.596C274.935 233.968 275.736 233.594 276.585 233.556L281.782 233.325C282.632 233.287 283.462 233.589 284.09 234.164C284.717 234.739 285.091 235.54 285.129 236.391L285.954 254.971C286.018 256.402 286.644 257.751 287.697 258.722C288.749 259.694 290.142 260.21 291.572 260.158L307.382 259.486Z" fill="white"/>
<path d="M416.99 254.608L433.307 253.883C434.756 253.819 436.121 253.18 437.1 252.108C438.08 251.036 438.594 249.618 438.53 248.166L437.705 229.604C437.668 228.753 437.294 227.952 436.666 227.376C436.038 226.801 435.208 226.5 434.358 226.537L429.154 226.769C428.304 226.806 427.504 227.181 426.929 227.809C426.355 228.438 426.054 229.269 426.092 230.12L426.917 248.699C426.98 250.131 426.476 251.53 425.515 252.591C424.553 253.652 423.212 254.289 421.783 254.364L416.99 254.608Z" fill="white"/>
<path d="M163.617 232.906L166.024 287.123L111.576 289.543C110.552 289.589 109.529 289.432 108.565 289.081C107.601 288.731 106.716 288.193 105.96 287.5C105.204 286.806 104.591 285.971 104.158 285.04C103.724 284.11 103.478 283.103 103.433 282.077L101.373 235.673L163.617 232.906Z" fill="white"/>
<path d="M163.499 230.865L100.822 233.652C100.777 233.653 100.733 233.661 100.69 233.675L86.7681 221.687L149.596 218.893L163.499 230.865Z" fill="white"/>
<path d="M202.651 216.535L189.854 229.711C189.811 229.701 189.766 229.697 189.721 229.7L165.829 230.762L178.616 217.604L202.651 216.535Z" fill="white"/>
<path d="M189.341 231.76L191.4 278.136C191.492 280.215 190.755 282.246 189.352 283.782C187.949 285.317 185.994 286.232 183.918 286.324L168.292 287.019L165.884 232.803L189.341 231.76Z" fill="white"/>
<path d="M81.2362 369.404C81.0289 365.474 81.6008 361.542 82.9188 357.834C84.2369 354.126 86.2751 350.717 88.9158 347.802C91.5565 344.888 94.7474 342.525 98.3045 340.852C101.862 339.179 105.714 338.227 109.641 338.053C113.567 337.878 117.489 338.484 121.18 339.835C124.872 341.186 128.259 343.256 131.148 345.925C134.037 348.593 136.369 351.809 138.01 355.385C139.652 358.961 140.57 362.827 140.712 366.76L81.2362 369.404Z" fill="#3F1A09"/>
<path d="M111.984 390.817C124.756 390.249 134.649 379.42 134.082 366.63C133.514 353.84 122.699 343.932 109.927 344.5C97.155 345.068 87.2614 355.897 87.8293 368.687C88.3972 381.477 99.2115 391.385 111.984 390.817Z" fill="#F1BFC1"/>
<path d="M111.808 386.846C122.39 386.375 130.587 377.403 130.117 366.806C129.646 356.209 120.686 348 110.104 348.47C99.5215 348.941 91.3243 357.913 91.7948 368.51C92.2654 379.107 101.225 387.316 111.808 386.846Z" stroke="white" stroke-width="2" stroke-miterlimit="10"/>
<path d="M111.114 371.241C113.232 371.147 114.872 369.351 114.778 367.23C114.684 365.11 112.891 363.467 110.773 363.561C108.655 363.655 107.015 365.451 107.109 367.571C107.203 369.692 108.996 371.335 111.114 371.241Z" stroke="#6B3B20" stroke-width="2" stroke-miterlimit="10"/>
<path d="M280.815 360.525C280.608 356.595 281.179 352.663 282.497 348.955C283.815 345.248 285.854 341.838 288.494 338.923C291.135 336.009 294.326 333.647 297.883 331.973C301.44 330.3 305.293 329.348 309.219 329.174C313.146 328.999 317.067 329.605 320.759 330.956C324.45 332.307 327.838 334.377 330.727 337.046C333.615 339.715 335.948 342.93 337.589 346.506C339.23 350.082 340.149 353.948 340.29 357.881L280.815 360.525Z" fill="#3F1A09"/>
<path d="M311.901 381.922C324.673 381.354 334.566 370.526 333.999 357.736C333.431 344.946 322.616 335.038 309.844 335.606C297.072 336.173 287.178 347.002 287.746 359.792C288.314 372.582 299.129 382.49 311.901 381.922Z" fill="#F1BFC1"/>
<path d="M311.724 377.95C322.306 377.48 330.504 368.508 330.033 357.911C329.563 347.314 320.603 339.104 310.02 339.575C299.438 340.045 291.241 349.017 291.711 359.614C292.182 370.211 301.142 378.421 311.724 377.95Z" stroke="white" stroke-width="2" stroke-miterlimit="10"/>
<path d="M311.003 362.696C313.121 362.602 314.762 360.806 314.667 358.686C314.573 356.565 312.78 354.922 310.662 355.016C308.544 355.11 306.904 356.906 306.998 359.027C307.092 361.147 308.885 362.79 311.003 362.696Z" stroke="#6B3B20" stroke-width="2" stroke-miterlimit="10"/>
<path d="M460.648 309.355C465.72 309.13 469.648 304.83 469.422 299.752C469.197 294.673 464.903 290.739 459.832 290.965C454.76 291.19 450.832 295.49 451.057 300.568C451.283 305.647 455.577 309.581 460.648 309.355Z" fill="white"/>
<path d="M461.189 316.667C462.456 316.611 463.437 315.537 463.381 314.268C463.325 312.999 462.252 312.015 460.985 312.072C459.717 312.128 458.736 313.203 458.792 314.472C458.848 315.741 459.921 316.724 461.189 316.667Z" stroke="#6B3B20" stroke-width="2" stroke-miterlimit="10"/>
<path d="M372.539 313.276C377.611 313.051 381.539 308.751 381.314 303.673C381.088 298.594 376.794 294.66 371.723 294.886C366.651 295.111 362.723 299.411 362.949 304.489C363.174 309.568 367.468 313.502 372.539 313.276Z" fill="white"/>
<path d="M372.414 320.617C373.681 320.56 374.663 319.486 374.607 318.217C374.55 316.948 373.477 315.965 372.21 316.021C370.943 316.077 369.961 317.152 370.018 318.421C370.074 319.69 371.147 320.673 372.414 320.617Z" stroke="#6B3B20" stroke-width="2" stroke-miterlimit="10"/>
<path d="M404.776 255.155L314.338 259.176L316.761 244.32C317.676 238.71 320.491 233.587 324.734 229.812C328.976 226.036 334.387 223.837 340.057 223.586L376.006 221.987C381.676 221.735 387.26 223.445 391.82 226.829C396.38 230.214 399.638 235.067 401.046 240.573L404.776 255.155Z" fill="#F1BFC1"/>
<path d="M356.021 229.992L357.24 257.431L335.04 258.262L338.558 236.892C338.819 235.321 338.761 233.713 338.388 232.165C336.806 225.58 328.801 225.66 324.597 229.952L324.826 229.345C325.463 227.646 326.585 226.173 328.051 225.107C329.517 224.041 331.264 223.429 333.074 223.348L348.035 222.683C350.062 222.593 352.042 223.312 353.539 224.682C355.037 226.053 355.93 227.963 356.021 229.992Z" fill="#3F1A09"/>
<path d="M338.525 237.589L355.856 236.818" stroke="white" stroke-width="2" stroke-linecap="round" stroke-linejoin="round"/>
<path d="M336.695 248.872L356.352 247.998" stroke="white" stroke-width="2" stroke-linecap="round" stroke-linejoin="round"/>
<path d="M386.441 227.946L387.657 255.32L374.413 255.908L373.227 229.226C373.073 225.745 370.655 222.755 367.408 222.353L367.495 221.5L378.851 220.996C380.778 220.91 382.66 221.594 384.083 222.897C385.506 224.201 386.354 226.016 386.441 227.946Z" fill="#3F1A09"/>
<path d="M373.878 236.017L386.325 235.463" stroke="white" stroke-width="2" stroke-linecap="round" stroke-linejoin="round"/>
<path d="M349.259 223.077L355.427 213.443L366.906 212.933L367.321 222.274C367.321 222.274 363.901 226.172 349.259 223.077Z" fill="white" stroke="#3F1A09" stroke-width="2" stroke-linejoin="round"/>
<path d="M362.631 223.998C366.101 223.428 367.331 222.273 367.331 222.273L366.916 212.932L355.438 213.442L355.49 214.632C355.557 216.134 356.185 217.555 357.25 218.616L362.631 223.998Z" fill="#3F1A09"/>
<path d="M367.511 203.101L367.564 204.303L355.805 207.709L355.696 205.263C355.643 204.065 356.067 202.894 356.876 202.009C357.684 201.124 358.811 200.597 360.008 200.544L364.503 200.344C364.882 200.327 365.26 200.385 365.615 200.515C365.971 200.644 366.298 200.843 366.578 201.099C366.857 201.355 367.083 201.663 367.243 202.007C367.403 202.351 367.494 202.723 367.511 203.101Z" fill="white"/>
<path d="M356.037 207.697L373.799 202.427" stroke="#3F1A09" stroke-width="2" stroke-linecap="round" stroke-linejoin="round"/>
<path d="M367.564 204.303L368.903 212.992C368.982 213.502 368.952 214.023 368.816 214.521C368.681 215.019 368.442 215.483 368.115 215.882C367.788 216.281 367.381 216.607 366.92 216.839C366.459 217.07 365.955 217.201 365.44 217.224L360.95 217.424C360.297 217.451 359.647 217.307 359.067 217.004C358.487 216.701 357.996 216.251 357.644 215.699L356.305 213.593L354.261 213.684C353.51 213.697 352.784 213.416 352.237 212.901C351.689 212.386 351.364 211.677 351.331 210.926C351.298 210.175 351.558 209.44 352.058 208.879C352.557 208.317 353.256 207.973 354.005 207.919L354.494 207.898C354.825 207.884 355.153 207.968 355.436 208.141C355.719 208.313 355.945 208.566 356.084 208.867L356.032 207.698L367.564 204.303Z" fill="white" stroke="#3F1A09" stroke-width="2" stroke-linejoin="round"/>
<path d="M355.703 207.713L360.553 206.547L358.473 207.147C358.154 207.24 357.875 207.437 357.681 207.707C357.487 207.978 357.389 208.305 357.404 208.638L357.442 209.508C357.477 210.292 356.631 210.969 355.847 211.003L355.703 207.713Z" fill="#3F1A09"/>
<path d="M353.588 209.297C353.789 209.288 353.991 209.318 354.18 209.387C354.37 209.456 354.544 209.561 354.693 209.697C354.841 209.833 354.962 209.998 355.047 210.18C355.133 210.363 355.181 210.561 355.19 210.763" stroke="#3F1A09" stroke-width="2" stroke-linecap="round" stroke-linejoin="round"/>
<path d="M364.09 214.136C363.707 214.271 363.285 214.249 362.918 214.073C362.551 213.898 362.269 213.583 362.134 213.199" stroke="#3F1A09" stroke-width="2" stroke-linecap="round" stroke-linejoin="round"/>
<path d="M367.666 206.601L365.015 206.719C364.878 206.726 364.744 206.762 364.622 206.825C364.501 206.888 364.394 206.977 364.31 207.086C364.225 207.194 364.165 207.32 364.134 207.453C364.102 207.587 364.1 207.726 364.127 207.861C364.462 209.51 364.915 212.46 363.918 212.504" stroke="#3F1A09" stroke-width="2" stroke-linecap="round" stroke-linejoin="round"/>
<path d="M361.686 210.091C362.008 210.077 362.25 209.648 362.227 209.133C362.205 208.618 361.925 208.213 361.604 208.227C361.282 208.241 361.04 208.67 361.063 209.185C361.086 209.7 361.365 210.105 361.686 210.091Z" fill="#3F1A09"/>
<path d="M366.333 209.768C366.613 209.756 366.824 209.38 366.804 208.93C366.784 208.479 366.541 208.124 366.26 208.137C365.98 208.149 365.769 208.524 365.789 208.975C365.809 209.425 366.052 209.781 366.333 209.768Z" fill="#3F1A09"/>
<path d="M422.706 254.356L415.168 248.291C410.584 244.599 404.815 242.707 398.939 242.968L377.112 243.938C373.084 244.117 369.165 245.303 365.711 247.386L356.542 252.93C351.389 256.037 345.541 257.804 339.532 258.071L422.706 254.356Z" fill="#A74602"/>
<path d="M339.535 258.054C345.545 257.787 351.392 256.02 356.546 252.913L365.715 247.386C369.169 245.303 373.088 244.117 377.116 243.938L398.947 242.968C404.823 242.707 410.592 244.599 415.176 248.291L421.653 253.186" stroke="white" stroke-width="2" stroke-linecap="round" stroke-linejoin="round"/>
<path d="M309.785 259.363L312.27 313.304C311.584 313.301 310.893 313.317 310.195 313.348C293.998 314.068 280.212 323.144 273.101 336.07C272.664 336.865 272.029 337.534 271.259 338.013C270.488 338.492 269.608 338.765 268.702 338.805L248.952 339.683L241.699 176.327C241.59 173.874 242.458 171.478 244.113 169.667C245.768 167.855 248.074 166.776 250.524 166.668L380.427 160.892" stroke="#6B3B20" stroke-width="2" stroke-miterlimit="10"/>
<path d="M139.172 371.071C139.423 376.723 137.163 381.958 133.265 385.892" stroke="#6B3B20" stroke-width="2" stroke-miterlimit="10" stroke-linecap="round"/>
<path d="M339.437 361.745C339.688 367.395 337.429 372.63 333.533 376.566" stroke="#6B3B20" stroke-width="2" stroke-miterlimit="10" stroke-linecap="round"/>
<path d="M265.098 166.342C259.996 155.69 249.477 149.72 237.693 150.244" stroke="#6B3B20" stroke-width="2" stroke-miterlimit="10"/>
<path d="M359.18 346.091L357.134 300.012C357.019 297.42 356.306 294.891 355.049 292.622C353.793 290.354 352.028 288.408 349.893 286.938L309.784 259.312" stroke="#6B3B20" stroke-width="2" stroke-miterlimit="10"/>
<path d="M256.167 273.138C256.122 272.134 256.477 271.154 257.154 270.412C257.832 269.671 258.775 269.229 259.777 269.184L272.245 268.629C273.248 268.585 274.228 268.941 274.968 269.619C275.709 270.298 276.15 271.243 276.194 272.248" stroke="#6B3B20" stroke-width="2" stroke-miterlimit="10" stroke-linecap="round"/>
<path d="M457.86 276.815L464.811 281.572C467.133 283.162 466.1 286.798 463.287 286.923L365.241 291.283C359.783 291.525 354.394 289.985 349.885 286.896L342.649 281.938" stroke="#6B3B20" stroke-width="2" stroke-miterlimit="10"/>
<path d="M106.402 185.514L20.2998 189.345" stroke="#6B3B20" stroke-width="2" stroke-miterlimit="10" stroke-linecap="round"/>
<path d="M85.8915 195.995L2.11694 199.722" stroke="#6B3B20" stroke-width="2" stroke-miterlimit="10" stroke-linecap="round"/>
<path d="M85.2761 148.234L322.112 137.701C324.183 137.609 326.205 138.344 327.734 139.746C329.263 141.147 330.174 143.1 330.266 145.174L330.308 146.129L77.8592 157.356L77.8168 156.401C77.7248 154.327 78.4589 152.302 79.8578 150.77C81.2567 149.238 83.2057 148.326 85.2761 148.234Z" stroke="#6B3B20" stroke-width="2" stroke-miterlimit="10"/>
<path d="M386.772 294.273L447.043 291.592" stroke="#6B3B20" stroke-width="2" stroke-miterlimit="10" stroke-linecap="round"/>
<path d="M309.68 259.383L282.352 260.598C280.903 260.662 279.487 260.147 278.417 259.166C277.347 258.185 276.709 256.819 276.645 255.368L275.821 236.805C275.783 235.954 276.084 235.122 276.659 234.494C277.233 233.865 278.033 233.491 278.883 233.453L284.079 233.222C284.929 233.184 285.759 233.486 286.387 234.061C287.015 234.636 287.389 235.438 287.426 236.289L288.251 254.868C288.315 256.3 288.941 257.648 289.993 258.62C291.044 259.591 292.437 260.107 293.867 260.055L309.68 259.383Z" stroke="#6B3B20" stroke-width="2" stroke-miterlimit="10"/>
<path d="M419.287 254.508L435.587 253.783C437.037 253.719 438.401 253.08 439.381 252.008C440.36 250.936 440.874 249.518 440.81 248.067L439.986 229.504C439.947 228.653 439.573 227.852 438.945 227.277C438.317 226.702 437.487 226.4 436.636 226.438L431.442 226.669C430.592 226.706 429.792 227.081 429.217 227.709C428.643 228.338 428.341 229.169 428.378 230.02L429.203 248.599C429.267 250.031 428.763 251.429 427.801 252.491C426.84 253.552 425.498 254.189 424.069 254.264L419.287 254.508Z" stroke="#6B3B20" stroke-width="2" stroke-miterlimit="10"/>
<path d="M309.679 259.389L425.1 254.254" stroke="#6B3B20" stroke-width="2" stroke-miterlimit="10"/>
<path d="M354.111 187.551L366.791 174.23" stroke="white" stroke-width="2" stroke-linecap="round" stroke-linejoin="round"/>
<path d="M347.962 194.006L350.998 190.818" stroke="white" stroke-width="2" stroke-linecap="round" stroke-linejoin="round"/>
<path d="M310.316 233.547L341.135 201.177" stroke="white" stroke-width="2" stroke-linecap="round" stroke-linejoin="round"/>
<path d="M345.467 184.383L350.479 179.117" stroke="white" stroke-width="2" stroke-linecap="round" stroke-linejoin="round"/>
<path d="M312.714 218.783L341.513 188.536" stroke="white" stroke-width="2" stroke-linecap="round" stroke-linejoin="round"/>
<path d="M310.323 259.045L309.244 259.565L265.938 169.158L267.24 169.1L310.323 259.045Z" fill="white"/>
</svg>
