<svg width="48" height="48" viewBox="0 0 48 48" fill="none" xmlns="http://www.w3.org/2000/svg">
<path d="M24 15.375C22.2941 15.375 20.6266 15.8808 19.2082 16.8286C17.7898 17.7763 16.6843 19.1233 16.0315 20.6994C15.3787 22.2754 15.2079 24.0096 15.5407 25.6827C15.8735 27.3557 16.695 28.8926 17.9012 30.0988C19.1074 31.305 20.6443 32.1265 22.3173 32.4593C23.9904 32.7921 25.7246 32.6213 27.3006 31.9685C28.8767 31.3157 30.2237 30.2102 31.1714 28.7918C32.1192 27.3734 32.625 25.7059 32.625 24C32.622 21.7134 31.7124 19.5213 30.0955 17.9045C28.4787 16.2876 26.2866 15.378 24 15.375ZM24 30.375C22.7391 30.375 21.5066 30.0011 20.4582 29.3006C19.4099 28.6001 18.5928 27.6045 18.1103 26.4396C17.6278 25.2747 17.5015 23.9929 17.7475 22.7563C17.9935 21.5197 18.6006 20.3838 19.4922 19.4922C20.3838 18.6006 21.5197 17.9935 22.7563 17.7475C23.9929 17.5015 25.2747 17.6278 26.4396 18.1103C27.6045 18.5928 28.6001 19.4099 29.3006 20.4582C30.0011 21.5066 30.375 22.7391 30.375 24C30.375 25.6908 29.7033 27.3123 28.5078 28.5078C27.3123 29.7033 25.6908 30.375 24 30.375ZM33 4.875H15C12.3156 4.87798 9.74199 5.94567 7.84383 7.84383C5.94567 9.74199 4.87798 12.3156 4.875 15V33C4.87798 35.6844 5.94567 38.258 7.84383 40.1562C9.74199 42.0543 12.3156 43.122 15 43.125H33C35.6844 43.122 38.258 42.0543 40.1562 40.1562C42.0543 38.258 43.122 35.6844 43.125 33V15C43.122 12.3156 42.0543 9.74199 40.1562 7.84383C38.258 5.94567 35.6844 4.87798 33 4.875ZM40.875 33C40.875 35.0886 40.0453 37.0916 38.5685 38.5685C37.0916 40.0453 35.0886 40.875 33 40.875H15C12.9114 40.875 10.9084 40.0453 9.43153 38.5685C7.95468 37.0916 7.125 35.0886 7.125 33V15C7.125 12.9114 7.95468 10.9084 9.43153 9.43153C10.9084 7.95468 12.9114 7.125 15 7.125H33C35.0886 7.125 37.0916 7.95468 38.5685 9.43153C40.0453 10.9084 40.875 12.9114 40.875 15V33ZM35.625 14.25C35.625 14.6208 35.515 14.9834 35.309 15.2917C35.103 15.6 34.8101 15.8404 34.4675 15.9823C34.1249 16.1242 33.7479 16.1613 33.3842 16.089C33.0205 16.0166 32.6864 15.838 32.4242 15.5758C32.1619 15.3136 31.9834 14.9795 31.911 14.6158C31.8387 14.2521 31.8758 13.8751 32.0177 13.5325C32.1596 13.1899 32.4 12.897 32.7083 12.691C33.0166 12.485 33.3792 12.375 33.75 12.375C34.2473 12.375 34.7242 12.5725 35.0758 12.9242C35.4275 13.2758 35.625 13.7527 35.625 14.25Z" fill="white"/>
</svg>
