<svg width="179" height="64" viewBox="0 0 179 64" fill="none" xmlns="http://www.w3.org/2000/svg">
<path d="M38.8148 42.68C38.0895 42.68 37.4321 42.5213 36.8428 42.204C36.2535 41.932 35.9588 41.2973 35.9588 40.3C35.9588 39.4387 36.4121 38.192 37.3188 36.56C38.2255 34.928 39.4495 33.0693 40.9908 30.984C42.5321 28.8533 44.2321 26.632 46.0908 24.32C47.9948 22.008 49.9441 19.764 51.9388 17.588C53.9335 15.3667 55.8375 13.3267 57.6508 11.468C59.4641 9.564 61.0735 7.97733 62.4788 6.708C63.8841 5.43866 64.9268 4.64533 65.6068 4.328C65.8335 4.23733 65.9921 4.23733 66.0828 4.328C66.1735 4.37333 66.0601 4.464 65.7428 4.6C64.3828 5.23467 62.7281 6.32267 60.7788 7.864C58.8748 9.36 56.7895 11.1507 54.5228 13.236C52.3015 15.3213 50.0121 17.5427 47.6548 19.9C45.2975 22.2573 43.0081 24.6147 40.7868 26.972C38.6108 29.284 36.5708 31.46 34.6668 33.5C32.8081 35.4947 31.2215 37.2173 29.9068 38.668C28.5921 40.1187 27.6855 41.116 27.1868 41.66C26.5975 42.2493 26.0988 42.476 25.6908 42.34C25.2828 42.204 25.0788 41.7053 25.0788 40.844C25.0788 39.6653 25.4415 38.192 26.1668 36.424C26.8921 34.656 27.8668 32.7293 29.0908 30.644C30.3148 28.5587 31.6748 26.428 33.1708 24.252C34.6668 22.076 36.1628 19.968 37.6588 17.928C39.2001 15.8427 40.6508 13.9613 42.0108 12.284C43.4161 10.6067 44.5948 9.224 45.5468 8.136C46.5441 7.00267 47.2015 6.3 47.5188 6.028C47.7001 5.892 47.9948 5.80133 48.4028 5.756C48.8108 5.71066 48.8335 5.80133 48.4708 6.028C47.5641 6.48133 46.3175 7.47866 44.7308 9.02C43.1441 10.5613 41.3308 12.4427 39.2908 14.664C37.2508 16.84 35.0521 19.1973 32.6948 21.736C30.3828 24.2747 27.9801 26.768 25.4868 29.216C22.9935 31.664 20.5228 33.908 18.0748 35.948C15.6721 37.9427 13.3601 39.552 11.1388 40.776C8.91746 42 6.90013 42.612 5.0868 42.612C3.27346 42.612 2.00413 42.2947 1.2788 41.66C0.553463 40.98 0.190796 40.3 0.190796 39.62C0.190796 38.7133 0.44013 38.056 0.938797 37.648C1.43746 37.1947 1.91346 36.968 2.3668 36.968C3.40946 36.968 3.9308 37.3307 3.9308 38.056C3.9308 38.6 3.74946 38.9853 3.3868 39.212C3.02413 39.3933 2.72946 39.484 2.5028 39.484C2.0948 39.484 1.77746 39.4387 1.5508 39.348C1.32413 39.212 1.2108 39.144 1.2108 39.144C1.2108 39.2347 1.25613 39.5067 1.3468 39.96C1.39213 40.4133 1.6868 40.8667 2.2308 41.32C2.72946 41.728 3.63613 41.932 4.9508 41.932C6.80946 41.932 8.87213 41.2747 11.1388 39.96C13.4508 38.6 15.8761 36.832 18.4148 34.656C20.9988 32.48 23.5828 30.0773 26.1668 27.448C28.7961 24.7733 31.3348 22.0987 33.7828 19.424C36.2308 16.7493 38.5201 14.2787 40.6508 12.012C42.7815 9.74533 44.6401 7.88667 46.2268 6.436C47.8135 4.94 49.0148 4.10133 49.8308 3.92C50.4655 3.784 50.7828 3.784 50.7828 3.92C50.7828 4.056 50.6695 4.23733 50.4428 4.464C49.8535 4.91733 49.0375 5.824 47.9948 7.184C46.9521 8.49867 45.7735 10.1307 44.4588 12.08C43.1441 13.984 41.7388 16.0693 40.2428 18.336C38.7921 20.6027 37.3415 22.892 35.8908 25.204C34.4401 27.516 33.0801 29.7373 31.8108 31.868C30.5868 33.9533 29.5215 35.812 28.6148 37.444C27.7081 39.076 27.0735 40.3227 26.7108 41.184C26.6655 41.2747 26.4841 41.4107 26.1668 41.592C25.8495 41.7733 25.7135 41.8413 25.7588 41.796C25.8041 41.7507 26.3028 41.184 27.2548 40.096C28.2068 39.008 29.4761 37.58 31.0628 35.812C32.6948 33.9987 34.5535 32.004 36.6388 29.828C38.7241 27.6067 40.9228 25.3173 43.2348 22.96C45.5468 20.6027 47.8361 18.3133 50.1028 16.092C52.4148 13.8253 54.6135 11.808 56.6988 10.04C58.7841 8.22666 60.6201 6.75333 62.2068 5.62C63.8388 4.48667 65.1081 3.87467 66.0148 3.784C66.5135 3.69333 66.7401 3.76133 66.6948 3.988C66.6948 4.16933 66.6041 4.30533 66.4228 4.396C65.4255 4.98533 64.1788 6.07333 62.6828 7.66C61.1868 9.20133 59.5548 11.0373 57.7868 13.168C56.0188 15.2987 54.2055 17.5653 52.3468 19.968C50.4881 22.3707 48.6975 24.7507 46.9748 27.108C45.2975 29.4653 43.7788 31.6413 42.4188 33.636C41.1041 35.5853 40.0388 37.2173 39.2228 38.532C38.4521 39.8013 38.0668 40.572 38.0668 40.844C38.0668 41.1613 38.2255 41.4333 38.5428 41.66C38.9055 41.8867 39.3135 42 39.7668 42C40.8095 42 41.8295 41.7507 42.8268 41.252C43.8695 40.7533 44.7535 40.2547 45.4788 39.756C46.2041 39.212 46.5895 38.9173 46.6348 38.872C46.8615 38.5547 47.0881 38.5773 47.3148 38.94C47.5415 39.3027 47.4055 39.5973 46.9068 39.824C46.9068 39.824 46.4988 40.0733 45.6828 40.572C44.9121 41.0253 43.9148 41.5013 42.6908 42C41.4668 42.4533 40.1748 42.68 38.8148 42.68ZM58.3425 42.612C56.2118 42.612 54.8065 42.136 54.1265 41.184C53.4465 40.1867 53.1065 39.144 53.1065 38.056C53.1065 36.1973 53.5825 34.4747 54.5345 32.888C55.4865 31.256 56.7105 29.8053 58.2065 28.536C59.7025 27.2667 61.2438 26.292 62.8305 25.612C64.4625 24.8867 65.9132 24.524 67.1825 24.524C68.0892 24.524 68.8145 24.66 69.3585 24.932C69.9025 25.1587 70.1745 25.6573 70.1745 26.428C70.1745 27.1533 69.7438 27.924 68.8825 28.74C68.0212 29.556 66.9332 30.3493 65.6185 31.12C64.3038 31.8453 62.9212 32.5253 61.4705 33.16C60.0652 33.7493 58.7732 34.2253 57.5945 34.588C56.4158 34.9507 55.5545 35.132 55.0105 35.132C55.0105 35.132 55.0105 35.0187 55.0105 34.792C55.0105 34.52 55.0105 34.384 55.0105 34.384C55.4185 34.4293 56.1212 34.2933 57.1185 33.976C58.1612 33.6587 59.3172 33.2507 60.5865 32.752C61.8558 32.208 63.0798 31.596 64.2585 30.916C65.4825 30.236 66.4798 29.5107 67.2505 28.74C68.0665 27.9693 68.4745 27.2213 68.4745 26.496C68.4745 26.1333 68.3612 25.816 68.1345 25.544C67.9532 25.272 67.6132 25.136 67.1145 25.136C66.3892 25.136 65.5052 25.4987 64.4625 26.224C63.4652 26.904 62.4452 27.8107 61.4025 28.944C60.3598 30.0773 59.3852 31.2787 58.4785 32.548C57.5718 33.8173 56.8238 35.0413 56.2345 36.22C55.6905 37.3533 55.4185 38.3053 55.4185 39.076C55.4185 39.9827 55.6905 40.6627 56.2345 41.116C56.7785 41.5693 57.5718 41.796 58.6145 41.796C60.4278 41.796 62.1278 41.3653 63.7145 40.504C65.3465 39.5973 66.8198 38.5547 68.1345 37.376C69.4492 36.152 70.5598 35.0187 71.4665 33.976C72.3732 32.888 72.9852 32.1853 73.3025 31.868C73.3025 31.868 73.3705 31.936 73.5065 32.072C73.6878 32.208 73.7785 32.276 73.7785 32.276C73.4612 32.6387 72.8492 33.364 71.9425 34.452C71.0358 35.54 69.9025 36.7187 68.5425 37.988C67.1825 39.2573 65.6412 40.3453 63.9185 41.252C62.1958 42.1587 60.3372 42.612 58.3425 42.612ZM71.2625 19.764C70.9452 19.9453 70.7412 19.9453 70.6505 19.764C70.5598 19.5827 70.6732 19.4013 70.9905 19.22C72.3958 18.4493 73.4158 17.5653 74.0505 16.568C74.7305 15.5253 75.1385 14.5733 75.2745 13.712C75.3652 13.1227 75.5238 12.6693 75.7505 12.352C75.9772 12.0347 76.3172 11.876 76.7705 11.876C77.0878 11.876 77.3372 11.9893 77.5185 12.216C77.7452 12.4427 77.8585 12.8507 77.8585 13.44C77.8585 13.984 77.5185 14.6413 76.8385 15.412C76.1585 16.1827 75.2972 16.9533 74.2545 17.724C73.2572 18.4947 72.2598 19.1747 71.2625 19.764ZM94.9026 0.792C95.4012 0.882665 96.0132 0.927998 96.7386 0.927998C97.5092 0.927998 98.1212 0.882665 98.5746 0.792L74.9106 33.772C74.1852 34.86 73.4826 35.88 72.8026 36.832C72.1226 37.784 71.5786 38.6227 71.1706 39.348C70.7172 40.028 70.4906 40.572 70.4906 40.98C70.4906 41.2973 70.6266 41.524 70.8986 41.66C71.1252 41.796 71.4652 41.864 71.9186 41.864C72.9612 41.864 74.1172 41.5013 75.3866 40.776C76.6559 40.0053 77.9026 39.0533 79.1266 37.92C80.3959 36.7867 81.5519 35.676 82.5946 34.588C83.6826 33.5 84.5439 32.616 85.1786 31.936L85.6546 32.344C85.0652 32.9787 84.2492 33.8627 83.2066 34.996C82.1639 36.1293 80.9626 37.2853 79.6026 38.464C78.2879 39.5973 76.9052 40.572 75.4546 41.388C74.0492 42.204 72.6666 42.612 71.3066 42.612C70.5812 42.612 69.9692 42.408 69.4706 42C68.9266 41.592 68.6546 41.0027 68.6546 40.232C68.6546 39.7333 68.8359 39.0987 69.1986 38.328C69.5612 37.5573 70.0146 36.764 70.5586 35.948C71.0572 35.0867 71.5559 34.316 72.0546 33.636C72.5079 32.9107 72.8706 32.3667 73.1426 32.004L94.9026 0.792ZM99.9197 30.1C99.7384 30.4627 99.4664 30.78 99.1037 31.052C98.7864 31.324 98.537 31.5053 98.3557 31.596C98.2197 31.6413 98.265 31.5053 98.4917 31.188C99.3077 30.1907 99.829 29.2613 100.056 28.4C100.328 27.5387 100.328 26.8587 100.056 26.36C99.829 25.816 99.3757 25.544 98.6957 25.544C97.789 25.544 96.7237 25.9067 95.4997 26.632C94.2757 27.3573 93.0064 28.3093 91.6917 29.488C90.4224 30.6667 89.221 31.936 88.0877 33.296C86.9997 34.6107 86.1157 35.9027 85.4357 37.172C84.7557 38.396 84.4157 39.4613 84.4157 40.368C84.4157 41.048 84.5517 41.4787 84.8237 41.66C85.0957 41.8413 85.3677 41.932 85.6397 41.932C86.6824 41.932 87.8837 41.456 89.2437 40.504C90.649 39.5067 92.077 38.26 93.5277 36.764C94.9784 35.268 96.361 33.7493 97.6757 32.208C98.9904 30.6213 100.124 29.1933 101.076 27.924C102.073 26.6547 102.753 25.7933 103.116 25.34C103.614 25.5213 104.204 25.5893 104.884 25.544C105.609 25.4987 106.221 25.4533 106.72 25.408C106.629 25.544 106.153 26.1107 105.292 27.108C104.476 28.1053 103.478 29.3067 102.3 30.712C101.166 32.072 100.01 33.4773 98.8317 34.928C97.6984 36.3787 96.7464 37.648 95.9757 38.736C95.205 39.824 94.8197 40.5493 94.8197 40.912C94.8197 41.3653 94.9104 41.66 95.0917 41.796C95.3184 41.8867 95.6584 41.932 96.1117 41.932C96.6557 41.8867 97.449 41.6373 98.4917 41.184C99.5344 40.6853 100.872 39.7333 102.504 38.328C104.136 36.9227 106.108 34.8373 108.42 32.072C108.42 32.072 108.51 32.14 108.692 32.276C108.918 32.412 109.032 32.48 109.032 32.48C106.312 35.6533 103.796 38.1467 101.484 39.96C99.1717 41.728 97.0637 42.612 95.1597 42.612C94.1624 42.612 93.4824 42.4533 93.1197 42.136C92.8024 41.8187 92.6437 41.3653 92.6437 40.776C92.6437 40.3227 92.825 39.7787 93.1877 39.144C93.5957 38.464 94.049 37.8067 94.5477 37.172C95.0464 36.5373 95.4544 36.0387 95.7717 35.676C95.7717 35.676 95.7264 35.6533 95.6357 35.608C95.545 35.5627 95.4997 35.54 95.4997 35.54C94.457 36.8093 93.3464 37.988 92.1677 39.076C90.989 40.164 89.8104 41.0253 88.6317 41.66C87.4984 42.2947 86.3877 42.612 85.2997 42.612C84.1664 42.612 83.373 42.34 82.9197 41.796C82.4664 41.2067 82.2397 40.3227 82.2397 39.144C82.2397 38.0107 82.6024 36.6507 83.3277 35.064C84.053 33.432 85.0957 31.8453 86.4557 30.304C87.8157 28.7173 89.4477 27.4027 91.3517 26.36C93.301 25.3173 95.477 24.796 97.8797 24.796C99.0584 24.796 99.8744 25.0227 100.328 25.476C100.781 25.884 100.985 26.3827 100.94 26.972C100.894 27.5613 100.758 28.1507 100.532 28.74C100.305 29.3293 100.101 29.7827 99.9197 30.1ZM122.752 42.612C120.35 42.612 119.148 41.9093 119.148 40.504C119.148 39.5973 119.443 38.6227 120.032 37.58C120.667 36.5373 121.438 35.4947 122.344 34.452C123.251 33.364 124.158 32.2987 125.064 31.256C126.016 30.2133 126.787 29.2613 127.376 28.4C128.011 27.4933 128.328 26.7227 128.328 26.088C128.328 25.8613 128.215 25.68 127.988 25.544C127.807 25.3627 127.535 25.272 127.172 25.272C126.628 25.272 125.858 25.544 124.86 26.088C123.908 26.632 122.684 27.5613 121.188 28.876C119.738 30.1453 118.015 31.868 116.02 34.044C114.026 36.1747 111.736 38.8493 109.152 42.068C108.744 41.9773 108.132 41.932 107.316 41.932C106.5 41.932 105.798 42.0227 105.208 42.204C106.523 40.3 107.815 38.4413 109.084 36.628C110.354 34.8147 111.51 33.16 112.552 31.664C113.64 30.168 114.502 28.944 115.136 27.992C115.771 26.9947 116.088 26.3827 116.088 26.156C116.088 25.748 115.884 25.544 115.476 25.544C115.023 25.544 114.456 25.9067 113.776 26.632C113.096 27.312 112.348 28.196 111.532 29.284C110.716 30.3267 109.878 31.392 109.016 32.48L108.404 32.072C109.311 31.0293 110.195 29.9413 111.056 28.808C111.918 27.6747 112.802 26.7 113.708 25.884C114.615 25.068 115.567 24.66 116.564 24.66C117.063 24.66 117.516 24.796 117.924 25.068C118.378 25.2947 118.604 25.68 118.604 26.224C118.604 26.7227 118.4 27.3347 117.992 28.06C117.63 28.74 117.131 29.5333 116.496 30.44C115.862 31.3013 115.136 32.276 114.32 33.364C113.55 34.4067 112.734 35.54 111.872 36.764L111.94 37.172C114.343 34.5427 116.36 32.412 117.992 30.78C119.67 29.148 121.052 27.9013 122.14 27.04C123.274 26.1333 124.248 25.5213 125.064 25.204C125.926 24.8413 126.742 24.66 127.512 24.66C128.555 24.66 129.303 24.8867 129.756 25.34C130.21 25.748 130.436 26.3147 130.436 27.04C130.436 28.128 130.119 29.284 129.484 30.508C128.85 31.6867 128.056 32.8653 127.104 34.044C126.198 35.1773 125.268 36.2427 124.316 37.24C123.41 38.192 122.639 39.008 122.004 39.688C121.37 40.368 121.052 40.8213 121.052 41.048C121.052 41.32 121.12 41.524 121.256 41.66C121.438 41.796 121.868 41.864 122.548 41.864C124.226 41.864 125.812 41.3427 127.308 40.3C128.85 39.2573 130.323 37.988 131.728 36.492C133.134 34.9507 134.448 33.432 135.672 31.936L136.216 32.412C134.992 33.8627 133.655 35.3813 132.204 36.968C130.754 38.5547 129.235 39.892 127.648 40.98C126.062 42.068 124.43 42.612 122.752 42.612ZM148.348 24.66C149.708 24.66 150.638 24.864 151.136 25.272C151.68 25.68 151.952 26.224 151.952 26.904C151.952 27.5387 151.794 28.196 151.476 28.876C151.159 29.5107 150.819 30.1 150.456 30.644C150.139 31.188 149.935 31.5507 149.844 31.732C149.572 32.1853 149.255 32.48 148.892 32.616C148.53 32.7067 148.643 32.344 149.232 31.528C150.003 30.5307 150.57 29.5787 150.932 28.672C151.295 27.72 151.318 26.9493 151 26.36C150.728 25.7253 149.958 25.408 148.688 25.408C147.827 25.408 146.807 25.7933 145.628 26.564C144.495 27.2893 143.316 28.264 142.092 29.488C140.868 30.6667 139.712 31.9587 138.624 33.364C137.582 34.724 136.72 36.0387 136.04 37.308C135.406 38.532 135.088 39.5747 135.088 40.436C135.088 41.0707 135.224 41.456 135.496 41.592C135.768 41.728 136.108 41.796 136.516 41.796C137.559 41.796 138.76 41.3427 140.12 40.436C141.48 39.484 142.886 38.2827 144.336 36.832C145.787 35.3813 147.17 33.8853 148.484 32.344C149.844 30.7573 151.023 29.3293 152.02 28.06C153.018 26.7453 153.72 25.7933 154.128 25.204C154.627 25.34 155.126 25.4307 155.624 25.476C156.168 25.476 156.871 25.408 157.732 25.272C154.74 28.7173 151.952 32.2307 149.368 35.812C146.784 39.3933 144.314 42.816 141.956 46.08C139.599 49.344 137.287 52.2453 135.02 54.784C132.708 57.368 130.374 59.408 128.016 60.904C125.659 62.4 123.188 63.148 120.604 63.148C119.743 63.148 119.063 62.9667 118.564 62.604C118.02 62.2413 117.748 61.7653 117.748 61.176C117.748 60.1787 118.27 59.136 119.312 58.048C120.355 57.0053 121.715 55.9853 123.392 54.988C125.07 53.9907 126.883 53.016 128.832 52.064C130.736 51.1573 132.595 50.3413 134.408 49.616C136.176 48.8907 137.672 48.2787 138.896 47.78C141.027 46.9187 143.158 45.8307 145.288 44.516C147.419 43.2013 149.414 41.7733 151.272 40.232C153.176 38.6907 154.854 37.1947 156.304 35.744C157.8 34.2933 158.956 33.0013 159.772 31.868C159.772 31.868 159.84 31.9587 159.976 32.14C160.158 32.3213 160.248 32.412 160.248 32.412C159.115 33.908 157.551 35.6307 155.556 37.58C153.562 39.484 151.182 41.388 148.416 43.292C145.651 45.196 142.546 46.8733 139.1 48.324C137.922 48.8227 136.471 49.4347 134.748 50.16C133.026 50.8853 131.235 51.6787 129.376 52.54C127.518 53.4467 125.772 54.376 124.14 55.328C122.508 56.3253 121.194 57.3 120.196 58.252C119.154 59.2493 118.632 60.2013 118.632 61.108C118.632 61.4253 118.791 61.7427 119.108 62.06C119.426 62.3773 119.924 62.536 120.604 62.536C121.874 62.536 123.279 61.992 124.82 60.904C126.362 59.816 127.994 58.388 129.716 56.62C131.394 54.852 133.094 52.9253 134.816 50.84C136.494 48.8 138.103 46.76 139.644 44.72C141.186 42.68 142.568 40.844 143.792 39.212C145.062 37.58 146.082 36.356 146.852 35.54C146.852 35.54 146.807 35.5173 146.716 35.472C146.671 35.4267 146.648 35.404 146.648 35.404C146.467 35.6307 146.014 36.1293 145.288 36.9C144.608 37.6253 143.747 38.4413 142.704 39.348C141.662 40.2093 140.551 40.98 139.372 41.66C138.194 42.2947 137.038 42.612 135.904 42.612C134.726 42.612 133.932 42.272 133.524 41.592C133.071 40.912 132.844 40.1413 132.844 39.28C132.844 37.8293 133.252 36.2653 134.068 34.588C134.839 32.9107 135.927 31.324 137.332 29.828C138.783 28.332 140.438 27.108 142.296 26.156C144.2 25.1587 146.218 24.66 148.348 24.66ZM162.733 42.612C160.602 42.612 159.197 42.136 158.517 41.184C157.837 40.1867 157.497 39.144 157.497 38.056C157.497 36.1973 157.973 34.4747 158.925 32.888C159.877 31.256 161.101 29.8053 162.597 28.536C164.093 27.2667 165.634 26.292 167.221 25.612C168.853 24.8867 170.304 24.524 171.573 24.524C172.48 24.524 173.205 24.66 173.749 24.932C174.293 25.1587 174.565 25.6573 174.565 26.428C174.565 27.1533 174.134 27.924 173.273 28.74C172.412 29.556 171.324 30.3493 170.009 31.12C168.694 31.8453 167.312 32.5253 165.861 33.16C164.456 33.7493 163.164 34.2253 161.985 34.588C160.806 34.9507 159.945 35.132 159.401 35.132C159.401 35.132 159.401 35.0187 159.401 34.792C159.401 34.52 159.401 34.384 159.401 34.384C159.809 34.4293 160.512 34.2933 161.509 33.976C162.552 33.6587 163.708 33.2507 164.977 32.752C166.246 32.208 167.47 31.596 168.649 30.916C169.873 30.236 170.87 29.5107 171.641 28.74C172.457 27.9693 172.865 27.2213 172.865 26.496C172.865 26.1333 172.752 25.816 172.525 25.544C172.344 25.272 172.004 25.136 171.505 25.136C170.78 25.136 169.896 25.4987 168.853 26.224C167.856 26.904 166.836 27.8107 165.793 28.944C164.75 30.0773 163.776 31.2787 162.869 32.548C161.962 33.8173 161.214 35.0413 160.625 36.22C160.081 37.3533 159.809 38.3053 159.809 39.076C159.809 39.9827 160.081 40.6627 160.625 41.116C161.169 41.5693 161.962 41.796 163.005 41.796C164.818 41.796 166.518 41.3653 168.105 40.504C169.737 39.5973 171.21 38.5547 172.525 37.376C173.84 36.152 174.95 35.0187 175.857 33.976C176.764 32.888 177.376 32.1853 177.693 31.868C177.693 31.868 177.761 31.936 177.897 32.072C178.078 32.208 178.169 32.276 178.169 32.276C177.852 32.6387 177.24 33.364 176.333 34.452C175.426 35.54 174.293 36.7187 172.933 37.988C171.573 39.2573 170.032 40.3453 168.309 41.252C166.586 42.1587 164.728 42.612 162.733 42.612Z" fill="white"/>
</svg>
