<svg width="127" height="41" viewBox="0 0 127 41" fill="none" xmlns="http://www.w3.org/2000/svg">
<path d="M6.04 11.552H30.96V13.68H6.04V11.552ZM16.82 13.232H19.032V35.212H16.82V13.232ZM18.052 19.868L19.424 18.244C22.784 19.868 27.208 22.416 29.448 24.096L27.964 26C25.808 24.264 21.44 21.604 18.052 19.868ZM33.732 20.932H59.352V23.228H33.732V20.932ZM67.612 21.268V23.844H81.752V21.268H67.612ZM67.612 25.468V28.044H81.752V25.468H67.612ZM67.612 17.124V19.644H81.752V17.124H67.612ZM65.428 15.444H83.992V29.724H65.428V15.444ZM76.572 31.572L78.056 30.2C81.36 31.292 84.944 32.748 87.128 33.84L85.168 35.268C83.18 34.176 79.848 32.692 76.572 31.572ZM62.768 10.936H86.148V12.868H62.768V10.936ZM73.436 11.748L75.9 12.056C75.424 13.652 74.892 15.36 74.444 16.508L72.456 16.144C72.848 14.912 73.268 13.036 73.436 11.748ZM70.552 30.06L72.456 31.432C70.02 32.916 66.212 34.4 63.216 35.24C62.88 34.792 62.236 34.064 61.76 33.616C64.784 32.804 68.62 31.348 70.552 30.06Z" fill="#3F1A09"/>
<path d="M100.083 29.4445V11.5555C100.082 10.8493 100.283 10.1572 100.663 9.55933C101.042 8.9615 101.585 8.48237 102.228 8.1774C102.991 7.8204 103.84 7.6829 104.678 7.78056C105.516 7.87823 106.31 8.20713 106.968 8.72979L117.906 17.6743C118.315 18.0253 118.643 18.4593 118.867 18.9468C119.092 19.4344 119.208 19.964 119.208 20.5C119.208 21.036 119.092 21.5656 118.867 22.0532C118.643 22.5407 118.315 22.9747 117.906 23.3257L106.968 32.2702C106.31 32.7929 105.516 33.1218 104.678 33.2194C103.84 33.3171 102.991 33.1796 102.228 32.8226C101.585 32.5176 101.042 32.0385 100.663 31.4407C100.283 30.8428 100.082 30.1507 100.083 29.4445ZM104.373 12.0017V28.7859L114.71 20.5L104.373 12.0017Z" fill="#F1BFC1"/>
</svg>
