<svg width="48" height="48" viewBox="0 0 48 48" fill="none" xmlns="http://www.w3.org/2000/svg">
<path d="M24 4.875C20.2174 4.875 16.5198 5.99666 13.3747 8.09814C10.2296 10.1996 7.77834 13.1865 6.33081 16.6812C4.88329 20.1758 4.50455 24.0212 5.24249 27.7311C5.98043 31.441 7.80191 34.8487 10.4766 37.5234C13.1513 40.1981 16.559 42.0196 20.2689 42.7575C23.9788 43.4955 27.8242 43.1167 31.3188 41.6692C34.8135 40.2217 37.8004 37.7704 39.9019 34.6253C42.0033 31.4802 43.125 27.7826 43.125 24C43.1191 18.9296 41.1022 14.0685 37.5168 10.4832C33.9315 6.89782 29.0704 4.88095 24 4.875ZM25.125 40.8375V28.125H30C30.2984 28.125 30.5845 28.0065 30.7955 27.7955C31.0065 27.5845 31.125 27.2984 31.125 27C31.125 26.7016 31.0065 26.4155 30.7955 26.2045C30.5845 25.9935 30.2984 25.875 30 25.875H25.125V21C25.125 20.1049 25.4806 19.2465 26.1135 18.6135C26.7465 17.9806 27.6049 17.625 28.5 17.625H31.5C31.7984 17.625 32.0845 17.5065 32.2955 17.2955C32.5065 17.0845 32.625 16.7984 32.625 16.5C32.625 16.2016 32.5065 15.9155 32.2955 15.7045C32.0845 15.4935 31.7984 15.375 31.5 15.375H28.5C27.0082 15.375 25.5774 15.9676 24.5225 17.0225C23.4676 18.0774 22.875 19.5082 22.875 21V25.875H18C17.7016 25.875 17.4155 25.9935 17.2045 26.2045C16.9935 26.4155 16.875 26.7016 16.875 27C16.875 27.2984 16.9935 27.5845 17.2045 27.7955C17.4155 28.0065 17.7016 28.125 18 28.125H22.875V40.8375C18.5067 40.5456 14.4228 38.5675 11.4857 35.3207C8.54865 32.074 6.98838 27.8129 7.1344 23.4372C7.28041 19.0616 9.12128 14.914 12.2683 11.8703C15.4152 8.82656 19.6219 7.12504 24 7.12504C28.3781 7.12504 32.5848 8.82656 35.7318 11.8703C38.8787 14.914 40.7196 19.0616 40.8656 23.4372C41.0116 27.8129 39.4514 32.074 36.5143 35.3207C33.5773 38.5675 29.4933 40.5456 25.125 40.8375Z" fill="white"/>
</svg>
