<svg width="539" height="114" viewBox="0 0 539 114" fill="none" xmlns="http://www.w3.org/2000/svg">
<path d="M178 41L392.22 41L411 68.5L392.22 96L178 96V41Z" fill="white"/>
<path d="M178 41L392.22 41L411 68.5L392.22 96L178 96V41Z" fill="#EDB8B8" fill-opacity="0.5"/>
<path d="M305.72 87.97H310.4L312.05 85.81C312.05 85.81 313.91 87.28 315.02 88.33C314.93 88.66 314.63 88.81 314.21 88.81H305.96L305.72 87.97ZM308.18 90.37H311.75V96.58H308.18V90.37ZM304.31 91.48C310.34 93.37 306.86 97.66 304.64 95.35C304.79 94.06 304.43 92.56 304.01 91.6L304.31 91.48ZM303.35 106.3H316.61V107.14H303.35V106.3ZM303.35 102.7H316.61V103.54H303.35V102.7ZM301.55 96.34H318.23V97.18H301.55V96.34ZM301.55 90.37H318.23V91.21H301.55V90.37ZM313.76 99.07H313.52L315.29 97.27L318.8 99.85C318.68 100 318.47 100.15 318.11 100.24V107.53C318.08 107.83 316.04 108.79 314.54 108.79H313.76V99.07ZM302.03 99.07V97.36L306.5 99.07H316.43V99.91H306.29V107.62C306.29 108.01 304.4 108.94 302.63 108.94H302.03V99.07ZM316.4 90.37H316.19L317.78 88.78L320.93 91.12C320.84 91.24 320.6 91.39 320.27 91.48V97C320.24 97.24 318.32 97.96 317.09 97.96H316.4V90.37ZM313.19 91.48L317.3 92.77C317.18 93.13 316.82 93.37 316.19 93.31C315.29 94.33 313.91 95.71 312.59 96.76H312.14C312.56 95.29 312.98 93.04 313.19 91.48ZM303.65 90.37V97.24C303.65 97.57 302.48 98.62 300.53 98.62H299.84V89.83L300.53 89.05L304.04 90.37H303.65ZM311.39 82.87C308.6 86.53 302.06 90.25 296.15 91.9L296 91.57C301.1 88.84 306.23 83.68 307.34 80.26L313.4 81.82C313.28 82.21 312.92 82.42 311.81 82.54C314.63 84.97 320.42 86.05 324.38 86.32V86.8C322.64 87.4 321.56 89.35 321.35 91C317.09 89.47 313.22 86.71 311.39 82.87ZM336.5 93.64H352.49V94.48H336.5V93.64ZM337.22 87.13H350.48V87.97H337.22V87.13ZM336.5 97.21H352.61V98.05H336.5V97.21ZM336.5 100.87H352.76V101.71H336.5V100.87ZM350 90.25H349.7L351.65 88.09L355.64 91.15C355.46 91.39 355.1 91.66 354.47 91.78V101.86C354.44 102.1 352.22 102.88 350.75 102.88H350V90.25ZM333.26 90.25V88.48L337.91 90.25H351.59V91.09H337.64V102.34C337.64 102.79 335.72 103.75 333.89 103.75H333.26V90.25ZM348.86 82.42H348.56L350.42 80.38L354.38 83.29C354.2 83.53 353.81 83.83 353.18 83.95V87.79C353.15 87.97 350.96 88.63 349.61 88.63H348.86V82.42ZM334.31 82.42V80.74L338.81 82.42H350.84V83.26H338.57V88.12C338.57 88.48 336.62 89.38 334.88 89.38H334.31V82.42ZM342.83 105.04C339.71 106.78 334.82 108.37 329.48 108.79L329.33 108.55C333.32 107.02 337.04 104.23 338.69 102.07L344.69 104.44C344.51 104.86 344 105.1 342.83 105.04ZM345.5 102.91C358.28 101.65 358.67 109.36 354.26 108.94C352.1 107.05 348.14 104.5 345.32 103.21L345.5 102.91ZM366.05 82.63H375.29V83.47H366.32L366.05 82.63ZM363.8 106.99H384.77L387.08 103.9C387.08 103.9 389.69 105.97 391.25 107.35C391.16 107.68 390.8 107.83 390.35 107.83H364.04L363.8 106.99ZM372.44 90.43H377.15L379.1 87.88C379.1 87.88 381.35 89.59 382.7 90.79C382.61 91.12 382.28 91.27 381.86 91.27H372.68L372.44 90.43ZM372.74 82.63H372.38L374.63 80.44L378.38 83.65C378.2 83.98 377.9 84.07 377.21 84.16C374.93 89.5 370.34 93.64 362.93 95.59L362.75 95.26C368 92.47 371.42 87.79 372.74 82.63ZM365.54 85.27C374.81 84.94 370.49 92.08 366.65 89.14C366.71 87.73 366.14 86.26 365.36 85.42L365.54 85.27ZM378.56 80.23C380.75 86.44 386.57 89.77 392.03 91.66L391.94 92.02C390.17 92.29 388.88 93.58 388.19 95.62C383.21 92.41 379.79 88.06 378.2 80.41L378.56 80.23ZM383.93 80.98L388.01 83.74C387.86 84.01 387.56 84.16 386.87 84.04C385.37 84.82 383.18 85.69 381.2 86.29L380.9 85.96C382.04 84.55 383.36 82.3 383.93 80.98ZM387.68 84.52L391.7 87.34C391.52 87.64 391.25 87.79 390.56 87.64C388.94 88.27 386.6 88.93 384.53 89.32L384.26 88.99C385.52 87.73 387.02 85.72 387.68 84.52ZM370.25 101.14C379.52 102.1 375.26 109.15 371.6 106.09C371.6 104.35 370.91 102.49 370.04 101.29L370.25 101.14ZM380.12 100.99L385.55 102.64C385.43 103 385.1 103.24 384.41 103.21C383.03 104.32 380.84 106.09 378.95 107.29H378.65C379.16 105.52 379.79 102.79 380.12 100.99ZM370.97 98.92H383.78V99.76H370.97V98.92ZM368.45 93.97V92.26L372.98 93.97H382.31V94.81H372.8V100.36C372.8 100.72 370.82 101.65 369.05 101.65H368.45V93.97ZM381.62 93.97H381.32L383.24 91.93L387.17 94.84C387.02 95.05 386.69 95.32 386.12 95.44V100.27C386.09 100.48 383.84 101.17 382.43 101.17H381.62V93.97ZM408.86 83.38L410.54 80.71L414.95 83.89C414.32 84.64 412.67 85.06 410.66 85.24V86.05C411.53 95.11 416.36 100.69 425.27 104.41L425.18 104.71C423.02 105.04 421.67 106.42 420.89 108.85C417.47 106.78 413.27 101.38 411.71 96.01C409.34 101.26 403.82 106.3 396.83 108.79L396.68 108.55C403.19 104.86 409.1 95.29 409.73 85.78L409.7 84.22H402.65L402.41 83.38H408.86Z" fill="#3F1A09"/>
<path d="M144.824 57L144.868 55.504L151.908 54.8H152.656L152.612 57H144.824ZM148.74 57C148.872 51.984 148.872 46.792 148.872 42.744V39.62C148.872 34.428 148.872 29.236 148.74 24.132H156.484C156.352 29.192 156.352 34.384 156.352 38.916V41.776C156.352 46.66 156.352 51.852 156.484 57H148.74ZM152.612 57L152.656 55.284H168.892L165.152 56.912L167.748 47.144H170.168L170.256 57H152.612ZM144.824 25.628V24.132H160.752V25.628L153.58 26.288H151.908L144.824 25.628ZM194.043 57.88C185.771 57.88 178.423 52.028 178.423 40.544C178.423 29.192 185.771 23.252 194.043 23.252C202.315 23.252 209.619 29.148 209.619 40.544C209.619 51.984 202.359 57.88 194.043 57.88ZM194.043 56.208C199.411 56.208 201.787 49.608 201.787 40.544C201.787 31.568 199.411 24.924 194.043 24.924C188.675 24.924 186.255 31.568 186.255 40.544C186.255 49.608 188.675 56.208 194.043 56.208ZM237.008 57.88C226.58 57.88 219.496 51.368 219.496 40.456C219.496 29.852 226.712 23.252 237.316 23.252C241.1 23.252 244.136 24.132 246.864 25.628L246.688 33.68H243.96L241.32 24.308L244.972 25.672V27.52C242.552 25.628 240.792 24.924 238.284 24.924C232.124 24.924 227.328 29.984 227.328 40.544C227.328 50.356 231.948 56.208 237.844 56.208C239.736 56.208 241.452 55.856 243.168 55.24L240.704 56.604V52.6C240.704 48.64 240.616 44.9 240.528 40.852H247.92C247.832 44.68 247.744 48.508 247.744 52.82V54.976C244.312 57 241.188 57.88 237.008 57.88ZM235.908 42.348V40.852H250.604V42.348L245.06 43.096H242.024L235.908 42.348ZM257.988 57V55.504L265.072 54.8H266.436L273.564 55.504V57H257.988ZM261.904 57C262.08 51.984 262.08 46.792 262.08 41.556V39.62C262.08 34.428 262.08 29.28 261.904 24.132H269.692C269.56 29.192 269.56 34.384 269.56 39.62V41.512C269.56 46.66 269.56 51.852 269.692 57H261.904ZM257.988 25.628V24.132H273.564V25.628L266.436 26.288H265.072L257.988 25.628ZM282.211 57V55.504L286.831 54.8H288.195L294.399 55.504V57H282.211ZM286.523 57V25.408H288.195L288.811 46.88V57H286.523ZM303.287 25.628V24.132H315.519V25.628L310.899 26.288H309.579L303.287 25.628ZM307.291 57.088L287.667 28.752L287.535 28.576L285.819 25.98L282.475 25.628V24.132H293.299L310.283 48.684L309.403 48.992L309.227 35.968V24.132H311.163V57.088H307.291Z" fill="#CFB286"/>
</svg>
