<svg width="538" height="114" viewBox="0 0 538 114" fill="none" xmlns="http://www.w3.org/2000/svg">
<path d="M177 40L391.22 40L410 67.5L391.22 95L177 95V40Z" fill="white"/>
<path d="M177 40L391.22 40L410 67.5L391.22 95L177 95V40Z" fill="#EDB8B8" fill-opacity="0.5"/>
<path d="M311.68 87.19C311.68 87.19 313.18 88.27 314.17 89.11C314.08 89.44 313.81 89.59 313.39 89.59H304.9L304.66 88.75H310.33L311.68 87.19ZM311.68 84.1C311.68 84.1 313.18 85.18 314.17 86.02C314.08 86.35 313.81 86.5 313.39 86.5H304.9L304.66 85.66H310.33L311.68 84.1ZM311.92 95.8C313.66 101.62 318.55 103.54 323.92 104.62V104.98C322.18 105.4 320.98 106.78 320.44 108.88C315.55 106.51 312.76 103.45 311.59 95.98L311.92 95.8ZM316.48 95.71L318.73 93.43L322.63 96.64C322.45 96.97 322.21 97.09 321.52 97.18C319.99 102.25 316.48 106.63 309.91 108.91L309.73 108.61C313.93 105.58 316.09 100.66 316.84 95.71H316.48ZM295.24 103.06C297.67 103 303.31 102.67 309.13 102.25L309.16 102.61C306.85 103.66 303.37 104.98 298.03 106.75C297.85 107.14 297.49 107.38 297.16 107.44L295.24 103.06ZM302.29 92.29V104.26L298.21 105.04V92.29H302.29ZM309.82 107.98C309.82 108.19 308.59 108.91 306.46 108.91H305.71V92.29H309.82V107.98ZM319.03 95.71V96.55H310.33L310.06 95.71H319.03ZM319.36 89.32C319.36 89.32 321.79 91.33 323.2 92.65C323.11 92.98 322.78 93.13 322.33 93.13H295.36L295.12 92.29H317.2L319.36 89.32ZM303.88 90.4C303.88 90.79 301.96 91.69 300.22 91.69H299.62V80.74L304.12 82.45H316.36V83.29H303.88V90.4ZM314.38 82.45L316.27 80.38L320.2 83.32C320.02 83.56 319.66 83.86 319.03 83.98V90.16C319 90.37 316.81 91.03 315.43 91.03H314.68V82.45H314.38ZM307.21 99.22V100.06H300.7V99.22H307.21ZM307.21 95.71V96.55H300.7V95.71H307.21ZM338.14 107.86C338.14 108.07 336.91 108.79 334.78 108.79H334.03V91.78H338.14V107.86ZM335.71 99.52C335.59 99.85 335.32 100.06 334.6 100C333.4 102.19 331.57 104.86 329.11 106.63L328.81 106.33C330.16 103.81 331 100 331.27 97.54L335.71 99.52ZM332.86 80.35C341.29 81.07 337.3 87.34 333.97 84.61C333.97 83.11 333.34 81.52 332.65 80.5L332.86 80.35ZM354.28 107.74C354.25 107.95 352.99 108.82 350.8 108.82H350.02V92.08H354.28V107.74ZM356.77 84.19C356.41 84.52 355.78 84.61 354.76 84.31C352.72 84.97 349.39 85.57 346.36 85.81L346.27 85.48C348.49 84.28 351.13 82.15 352.42 80.74L356.77 84.19ZM349.39 84.79C349.3 85.03 348.97 85.15 348.52 85.21V93.4C348.52 98.68 348.07 104.95 341.02 108.88L340.75 108.55C344.08 104.17 344.35 98.62 344.35 93.31V83.23L349.39 84.79ZM353.23 88.75C353.23 88.75 355.69 90.79 357.1 92.14C357.04 92.47 356.68 92.62 356.26 92.62H345.52V91.78H351.07L353.23 88.75ZM342.7 87.07C342.58 87.43 342.25 87.67 341.59 87.61C340.51 88.93 338.77 90.73 337.09 92.08H336.7C337.24 90.25 337.75 87.52 337.99 85.63L342.7 87.07ZM331.3 85.75C338.29 88.39 334.48 93.55 331.87 90.82C331.96 89.14 331.48 87.25 331 85.87L331.3 85.75ZM338.23 97.9C345.91 100.3 342.67 106.18 339.79 103.63C339.73 101.74 338.86 99.55 337.93 98.05L338.23 97.9ZM341.47 89.02C341.47 89.02 343.48 90.73 344.65 91.87C344.56 92.2 344.26 92.35 343.84 92.35H328.66L328.42 91.51H339.7L341.47 89.02ZM340.75 93.49C340.75 93.49 342.64 95.11 343.75 96.22C343.66 96.55 343.36 96.7 342.94 96.7H329.29L329.05 95.86H339.07L340.75 93.49ZM340.51 82.66C340.51 82.66 342.46 84.28 343.6 85.39C343.51 85.72 343.21 85.87 342.79 85.87H329.14L328.9 85.03H338.8L340.51 82.66ZM374.5 93.67C385.69 90.1 385.12 97.84 381.19 97.18C380.08 96.31 377.44 94.87 374.47 94L374.5 93.67ZM372.25 89.68V88.39L376.96 89.98H376.36V95.2C376.36 99.28 375.88 105.19 370 108.76L369.76 108.52C372.13 104.53 372.25 99.43 372.25 95.2V89.68ZM385.93 89.98V90.82H374.11V89.98H385.93ZM374.77 99.19C377.11 98.92 381.88 98.02 386.05 96.85L386.11 97.15C384.22 98.68 381.58 100.66 377.56 102.94C377.41 103.33 377.11 103.66 376.72 103.75L374.77 99.19ZM383.68 89.98L385.51 87.91L389.35 90.85C389.17 91.09 388.78 91.36 388.15 91.48V104.02C388.15 106.72 387.58 108.22 383.23 108.61C383.14 107.26 383.02 106.33 382.63 105.7C382.21 105.1 381.7 104.62 380.32 104.35V103.99C380.32 103.99 382.72 104.14 383.41 104.14C383.86 104.14 383.98 103.93 383.98 103.57V89.98H383.68ZM389.68 84.49C389.53 84.79 389.23 84.97 388.51 84.88C386.95 86.08 384.73 87.76 382.66 89.02L382.36 88.78C383.32 86.59 384.52 83.29 384.97 81.49L389.68 84.49ZM383.41 80.77C383.35 81.16 383.17 81.43 382.42 81.55V90.46H378.25V80.35L383.41 80.77ZM371.89 82.3C381.16 83.92 377.71 90.97 374.08 88.21C373.81 86.2 372.73 83.98 371.65 82.45L371.89 82.3ZM364.18 99.4C364.69 99.4 364.81 99.4 365.17 98.77C365.92 97.57 365.92 97.57 371.74 84.88L372.19 85C371.02 88.78 369.07 95.74 368.68 97.51C368.41 98.59 368.2 99.76 368.2 100.57C368.29 102.34 369.7 103.24 369.61 106.03C369.58 107.68 368.35 108.79 366.64 108.79C365.86 108.79 364.96 108.43 364.63 107.2C365.29 104.02 365.17 100.96 364.42 100.45C363.97 100.15 363.43 100 362.8 99.94V99.4C362.8 99.4 363.85 99.4 364.18 99.4ZM362.23 87.58C371.23 87.85 368.23 94.75 364.54 92.44C364.15 90.76 363.01 88.93 362.02 87.73L362.23 87.58ZM364.99 80.77C374.38 81.34 371.05 88.48 367.24 85.93C366.85 84.13 365.74 82.21 364.78 80.92L364.99 80.77ZM408.07 98.56C408.01 98.98 407.74 99.22 407.11 99.31V103.75C407.11 104.14 407.23 104.26 408.19 104.26H411.61C412.57 104.26 413.62 104.26 414.1 104.23C414.61 104.2 414.82 104.11 415.09 103.81C415.51 103.3 416.05 102.19 416.83 100.42H417.1L417.19 103.9C418.42 104.32 418.72 104.8 418.72 105.58C418.72 107.35 417.07 107.92 411.1 107.92H407.44C403.69 107.92 402.76 107.29 402.76 104.56V98.17L408.07 98.56ZM400.39 99.28C402.04 103.03 400.99 105.73 399.34 106.57C398.23 107.2 396.73 106.81 396.34 105.55C395.98 104.32 396.73 103.42 397.75 102.94C398.89 102.43 400.09 100.96 400 99.28H400.39ZM416.77 98.98C427.21 100.63 423.91 108.73 419.95 105.85C419.62 103.45 418.18 100.84 416.53 99.16L416.77 98.98ZM408.25 97.6C416.47 99.37 412.6 105.58 409.42 102.76C409.48 100.99 408.82 99.07 407.98 97.75L408.25 97.6ZM414.25 81.16C414.13 81.73 413.68 81.97 412.99 82.06C412 82.75 410.26 83.89 409.24 84.52H407.47C407.59 83.41 407.77 81.52 407.86 80.23L414.25 81.16ZM414.64 83.98L416.56 81.85L420.46 84.85C420.28 85.09 419.89 85.39 419.29 85.51V97.33C419.23 97.57 417.13 98.38 415.66 98.38H414.94V83.98H414.64ZM417.01 95.71V96.55H402.46V95.71H417.01ZM417.01 87.82V88.66H402.46V87.82H417.01ZM417.01 91.75V92.59H402.46V91.75H417.01ZM404.83 97.42C404.83 97.84 403 98.8 401.2 98.8H400.57V82.24L405.07 83.98H417.19V84.82H404.83V97.42Z" fill="#3F1A09"/>
<path d="M152.559 57V55.504L157.179 54.8H158.543L164.747 55.504V57H152.559ZM156.871 57V25.408H158.543L159.159 46.88V57H156.871ZM173.635 25.628V24.132H185.867V25.628L181.247 26.288H179.927L173.635 25.628ZM177.639 57.088L158.015 28.752L157.883 28.576L156.167 25.98L152.823 25.628V24.132H163.647L180.631 48.684L179.751 48.992L179.575 35.968V24.132H181.511V57.088H177.639ZM194.025 57V55.504L201.109 54.8H201.813V57H194.025ZM197.941 57C198.073 51.984 198.073 46.792 198.073 41.556V39.62C198.073 34.428 198.073 29.28 197.941 24.132H205.685C205.553 29.192 205.553 34.384 205.553 39.796V41.16C205.553 46.66 205.553 51.852 205.685 57H197.941ZM201.813 57V55.284H218.841L215.057 56.956L217.565 47.892H220.029L220.117 57H201.813ZM201.813 41.028V39.444H212.769V41.028H201.813ZM212.197 45.428L211.493 40.544V39.62L212.197 34.78H214.397V45.428H212.197ZM194.025 25.628V24.132H201.813V26.288H201.109L194.025 25.628ZM216.597 32.888L214.177 24.132L217.873 25.848H201.813V24.132H219.193L219.149 32.888H216.597ZM239.345 57.088L229.621 24.132H237.585L244.405 50.62H243.613L243.789 49.96L251.181 24.132H255.669L263.193 50.84H262.401L262.533 50.092L269.617 24.132H272.169L262.313 57.088H258.221L250.345 31.04H251.225L251.049 31.656L243.437 57.088H239.345ZM227.245 25.628V24.132H242.117V25.628L235.473 26.288H233.933L227.245 25.628ZM246.473 25.628V24.132H260.905V25.628L254.877 26.288H252.017L246.473 25.628ZM264.997 25.628V24.132H275.601V25.628L270.937 26.288H269.661L264.997 25.628ZM292.535 57.88C288.927 57.88 284.923 56.956 282.283 55.24L282.591 47.672H285.143L287.827 56.56L284.747 55.284L284.131 53.524C287.035 55.504 288.883 55.988 291.787 55.988C296.143 55.988 298.519 53.92 298.519 50.488C298.519 47.54 297.287 46 293.767 44.416L291.655 43.492C285.759 40.808 282.635 37.86 282.635 32.58C282.635 26.64 287.475 23.252 294.647 23.252C298.123 23.252 301.247 24.176 303.579 25.76L303.227 32.976H300.675L298.123 24.528L301.467 25.892L301.907 27.828C299.311 25.804 297.947 25.1 295.571 25.1C291.743 25.1 289.191 27.036 289.191 30.336C289.191 33.372 290.863 35 293.987 36.408L296.275 37.464C302.875 40.412 305.295 43.052 305.295 48.024C305.295 53.876 300.807 57.88 292.535 57.88Z" fill="#CFB286"/>
</svg>
