<svg width="306" height="310" viewBox="0 0 306 310" fill="none" xmlns="http://www.w3.org/2000/svg">
<rect width="306" height="310" rx="8" fill="white"/>
<rect x="1" y="1" width="304" height="308" rx="7" stroke="#F1BFC1" stroke-opacity="0.6" stroke-width="2"/>
<g clip-path="url(#clip0_1128_5843)">
<path d="M34.1831 28.175L30.3581 32L34.1831 35.825L32.9998 37L27.9998 32L32.9998 27L34.1831 28.175Z" fill="#E1CBAA"/>
<path d="M105.347 25.9C104.591 25.186 103.457 24.836 102.463 24.836C100.671 24.836 98.8367 25.732 98.8367 27.748C98.8367 29.596 100.139 30.184 101.343 30.562C102.589 30.954 103.625 31.248 103.625 32.284C103.625 33.348 102.659 33.754 101.833 33.754C101.049 33.754 100.153 33.334 99.6627 32.662L98.4027 33.838C99.1867 34.762 100.517 35.252 101.805 35.252C103.751 35.252 105.417 34.216 105.417 32.088C105.417 30.142 103.793 29.582 102.519 29.19C101.399 28.84 100.629 28.574 100.629 27.664C100.629 26.698 101.567 26.306 102.379 26.306C103.079 26.306 103.821 26.67 104.199 27.16L105.347 25.9ZM108.388 30.968C108.458 30.03 109.256 29.344 110.25 29.344C111.342 29.344 111.832 30.1 111.832 30.968H108.388ZM113.512 31.724C113.512 29.302 112.14 28.084 110.264 28.084C108.234 28.084 106.708 29.512 106.708 31.682C106.708 33.866 108.248 35.196 110.32 35.196C111.594 35.196 112.546 34.748 113.204 33.852L112.084 32.956C111.706 33.488 111.146 33.824 110.306 33.824C109.326 33.824 108.458 33.124 108.388 32.172H113.498C113.512 32.018 113.512 31.878 113.512 31.724ZM115.139 28.28V38.36H116.819V34.104H116.847C117.281 34.776 118.135 35.196 119.073 35.196C121.117 35.196 122.377 33.572 122.377 31.612C122.377 29.624 121.033 28.084 119.115 28.084C117.883 28.084 117.127 28.686 116.791 29.218H116.749V28.28H115.139ZM120.669 31.612C120.669 32.662 120.039 33.796 118.737 33.796C117.505 33.796 116.763 32.69 116.763 31.64C116.763 30.59 117.505 29.456 118.737 29.456C120.039 29.456 120.669 30.562 120.669 31.612ZM124.208 29.624V32.76C124.208 34.048 124.614 35.14 126.392 35.14C126.77 35.14 127.218 35.07 127.512 34.958L127.456 33.642C127.26 33.74 126.966 33.782 126.742 33.782C126 33.782 125.86 33.348 125.86 32.746V29.624H127.54V28.28H125.86V26.334H124.208V28.28H123.032V29.624H124.208ZM130.044 30.968C130.114 30.03 130.912 29.344 131.906 29.344C132.998 29.344 133.488 30.1 133.488 30.968H130.044ZM135.168 31.724C135.168 29.302 133.796 28.084 131.92 28.084C129.89 28.084 128.364 29.512 128.364 31.682C128.364 33.866 129.904 35.196 131.976 35.196C133.25 35.196 134.202 34.748 134.86 33.852L133.74 32.956C133.362 33.488 132.802 33.824 131.962 33.824C130.982 33.824 130.114 33.124 130.044 32.172H135.154C135.168 32.018 135.168 31.878 135.168 31.724ZM144.817 28.084C143.809 28.084 143.053 28.546 142.605 29.358C142.227 28.602 141.541 28.084 140.505 28.084C139.427 28.084 138.713 28.7 138.419 29.358H138.391V28.28H136.795V35H138.475V31.304C138.475 30.408 138.937 29.484 139.945 29.484C140.799 29.484 141.191 30.114 141.191 30.94V35H142.871V31.332C142.871 30.464 143.305 29.484 144.355 29.484C145.433 29.484 145.615 30.478 145.615 31.276V35H147.295V30.8C147.295 29.428 146.567 28.084 144.817 28.084ZM149.278 24.416V35H150.874V33.992H150.902C151.364 34.762 152.274 35.196 153.212 35.196C155.256 35.196 156.516 33.572 156.516 31.612C156.516 29.624 155.172 28.084 153.254 28.084C152.022 28.084 151.35 28.7 151 29.134H150.958V24.416H149.278ZM154.808 31.612C154.808 32.662 154.178 33.796 152.876 33.796C151.644 33.796 150.902 32.69 150.902 31.64C150.902 30.59 151.644 29.456 152.876 29.456C154.178 29.456 154.808 30.562 154.808 31.612ZM159.425 30.968C159.495 30.03 160.293 29.344 161.287 29.344C162.379 29.344 162.869 30.1 162.869 30.968H159.425ZM164.549 31.724C164.549 29.302 163.177 28.084 161.301 28.084C159.271 28.084 157.745 29.512 157.745 31.682C157.745 33.866 159.285 35.196 161.357 35.196C162.631 35.196 163.583 34.748 164.241 33.852L163.121 32.956C162.743 33.488 162.183 33.824 161.343 33.824C160.363 33.824 159.495 33.124 159.425 32.172H164.535C164.549 32.018 164.549 31.878 164.549 31.724ZM166.176 35H167.856V31.402C167.856 30.912 168.15 29.596 169.662 29.596C169.816 29.596 169.956 29.61 170.18 29.666V28.126C170.068 28.098 169.9 28.084 169.774 28.084C168.892 28.084 168.178 28.63 167.814 29.4H167.786V28.28H166.176V35ZM174.734 35H181.328V33.46H176.862L179.718 30.73C180.6 29.89 181.314 29.008 181.314 27.734C181.314 25.83 179.732 24.836 178.01 24.836C176.19 24.836 174.86 26.04 174.664 27.678L176.302 27.93C176.428 26.964 177.03 26.236 177.982 26.236C178.878 26.236 179.564 26.838 179.564 27.762C179.564 28.532 179.172 29.106 178.556 29.708L174.734 33.46V35ZM190.083 30.044C190.083 26.838 188.837 24.836 186.597 24.836C184.343 24.836 183.083 26.838 183.083 30.044C183.083 33.25 184.343 35.252 186.597 35.252C188.837 35.252 190.083 33.25 190.083 30.044ZM188.361 30.044C188.361 31.43 188.095 33.824 186.597 33.824C185.085 33.824 184.805 31.43 184.805 30.044C184.805 28.658 185.085 26.236 186.597 26.236C188.095 26.236 188.361 28.658 188.361 30.044ZM191.823 35H198.417V33.46H193.951L196.807 30.73C197.689 29.89 198.403 29.008 198.403 27.734C198.403 25.83 196.821 24.836 195.099 24.836C193.279 24.836 191.949 26.04 191.753 27.678L193.391 27.93C193.517 26.964 194.119 26.236 195.071 26.236C195.967 26.236 196.653 26.838 196.653 27.762C196.653 28.532 196.261 29.106 195.645 29.708L191.823 33.46V35ZM203.308 35H204.988V25.088H203.462L200.368 27.58L201.348 28.742L203.308 27.132V35Z" fill="#3F1A09"/>
<path d="M271 35.825L274.825 32L271 28.175L272.183 27L277.183 32L272.183 37L271 35.825Z" fill="#E1CBAA"/>
</g>
<path d="M32.0259 70.5455C31.9833 70.1856 31.8105 69.9062 31.5075 69.7074C31.2044 69.5085 30.8327 69.4091 30.3924 69.4091C30.0704 69.4091 29.7887 69.4612 29.5472 69.5653C29.3081 69.6695 29.1211 69.8127 28.9862 69.995C28.8536 70.1773 28.7873 70.3845 28.7873 70.6165C28.7873 70.8106 28.8335 70.9775 28.9258 71.1172C29.0205 71.2545 29.1412 71.3693 29.288 71.4616C29.4348 71.5516 29.5887 71.6262 29.7496 71.6854C29.9106 71.7422 30.0586 71.7884 30.1935 71.8239L30.9322 72.0227C31.1216 72.0724 31.3323 72.1411 31.5643 72.2287C31.7987 72.3163 32.0224 72.4358 32.2354 72.5874C32.4509 72.7365 32.6284 72.9283 32.7681 73.1626C32.9078 73.397 32.9776 73.6847 32.9776 74.0256C32.9776 74.4186 32.8746 74.7737 32.6687 75.0909C32.4651 75.4081 32.1668 75.6603 31.7738 75.8473C31.3832 76.0343 30.9085 76.1278 30.3498 76.1278C29.829 76.1278 29.378 76.0438 28.9968 75.8757C28.618 75.7076 28.3197 75.4732 28.1019 75.1726C27.8865 74.8719 27.7646 74.5227 27.7362 74.125H28.6452C28.6689 74.3996 28.7612 74.6269 28.9222 74.8068C29.0856 74.9844 29.2915 75.117 29.5401 75.2045C29.7911 75.2898 30.061 75.3324 30.3498 75.3324C30.686 75.3324 30.9878 75.2779 31.2553 75.169C31.5228 75.0578 31.7347 74.9039 31.891 74.7074C32.0472 74.5085 32.1254 74.2765 32.1254 74.0114C32.1254 73.7699 32.0579 73.5734 31.9229 73.4219C31.788 73.2704 31.6104 73.1473 31.3903 73.0526C31.1701 72.9579 30.9322 72.875 30.6765 72.804L29.7816 72.5483C29.2134 72.3849 28.7636 72.1518 28.4322 71.8487C28.1007 71.5457 27.935 71.1491 27.935 70.6591C27.935 70.2519 28.0451 69.8968 28.2653 69.5938C28.4878 69.2884 28.7861 69.0516 29.1602 68.8835C29.5366 68.7131 29.9568 68.6278 30.4208 68.6278C30.8896 68.6278 31.3062 68.7119 31.6708 68.88C32.0354 69.0457 32.3242 69.273 32.5373 69.5618C32.7527 69.8506 32.8664 70.1785 32.8782 70.5455H32.0259ZM36.2239 76H35.3006L37.9711 68.7273H38.8801L41.5506 76H40.6273L38.454 69.8778H38.3972L36.2239 76ZM36.5648 73.1591H40.2864V73.9403H36.5648V73.1591ZM49.9505 68.7273V76H49.0982L45.1351 70.2898H45.0641V76H44.1834V68.7273H45.0357L49.013 74.4517H49.084V68.7273H49.9505Z" fill="#ACA7A1"/>
<path d="M63.6092 68.7273H64.6603L67.1319 74.7642H67.2172L69.6887 68.7273H70.7399V76H69.916V70.4744H69.845L67.5723 76H66.7768L64.5041 70.4744H64.4331V76H63.6092V68.7273ZM80.142 72.3636C80.142 73.1307 80.0036 73.7936 79.7266 74.3523C79.4496 74.911 79.0696 75.3419 78.5866 75.6449C78.1037 75.9479 77.5521 76.0994 76.9318 76.0994C76.3116 76.0994 75.7599 75.9479 75.277 75.6449C74.794 75.3419 74.4141 74.911 74.1371 74.3523C73.8601 73.7936 73.7216 73.1307 73.7216 72.3636C73.7216 71.5966 73.8601 70.9337 74.1371 70.375C74.4141 69.8163 74.794 69.3854 75.277 69.0824C75.7599 68.7794 76.3116 68.6278 76.9318 68.6278C77.5521 68.6278 78.1037 68.7794 78.5866 69.0824C79.0696 69.3854 79.4496 69.8163 79.7266 70.375C80.0036 70.9337 80.142 71.5966 80.142 72.3636ZM79.2898 72.3636C79.2898 71.7339 79.1844 71.2024 78.9737 70.7692C78.7654 70.3359 78.4825 70.008 78.125 69.7855C77.7699 69.563 77.3722 69.4517 76.9318 69.4517C76.4915 69.4517 76.0926 69.563 75.7351 69.7855C75.38 70.008 75.0971 70.3359 74.8864 70.7692C74.678 71.2024 74.5739 71.7339 74.5739 72.3636C74.5739 72.9934 74.678 73.5249 74.8864 73.9581C75.0971 74.3913 75.38 74.7192 75.7351 74.9418C76.0926 75.1643 76.4915 75.2756 76.9318 75.2756C77.3722 75.2756 77.7699 75.1643 78.125 74.9418C78.4825 74.7192 78.7654 74.3913 78.9737 73.9581C79.1844 73.5249 79.2898 72.9934 79.2898 72.3636ZM88.8899 68.7273V76H88.0376L84.0746 70.2898H84.0036V76H83.1229V68.7273H83.9751L87.9524 74.4517H88.0234V68.7273H88.8899Z" fill="#ACA7A1"/>
<path d="M104.081 69.5085V68.7273H109.535V69.5085H107.248V76H106.368V69.5085H104.081ZM117.167 68.7273H118.048V73.5426C118.048 74.0398 117.931 74.4837 117.696 74.8743C117.464 75.2625 117.136 75.5691 116.713 75.794C116.289 76.0166 115.792 76.1278 115.221 76.1278C114.651 76.1278 114.153 76.0166 113.73 75.794C113.306 75.5691 112.977 75.2625 112.742 74.8743C112.51 74.4837 112.394 74.0398 112.394 73.5426V68.7273H113.275V73.4716C113.275 73.8267 113.353 74.1428 113.509 74.4197C113.666 74.6944 113.888 74.911 114.177 75.0696C114.468 75.2259 114.816 75.304 115.221 75.304C115.626 75.304 115.974 75.2259 116.265 75.0696C116.556 74.911 116.779 74.6944 116.933 74.4197C117.089 74.1428 117.167 73.8267 117.167 73.4716V68.7273ZM121.306 76V68.7273H125.696V69.5085H122.187V71.9659H125.468V72.7472H122.187V75.2188H125.752V76H121.306Z" fill="#ACA7A1"/>
<path d="M142.374 76L140.385 68.7273H141.28L142.8 74.6506H142.871L144.419 68.7273H145.413L146.962 74.6506H147.033L148.553 68.7273H149.447L147.459 76H146.55L144.945 70.2045H144.888L143.283 76H142.374ZM152.045 76V68.7273H156.434V69.5085H152.925V71.9659H156.207V72.7472H152.925V75.2188H156.491V76H152.045ZM161.766 76H159.521V68.7273H161.865C162.571 68.7273 163.174 68.8729 163.676 69.1641C164.178 69.4529 164.563 69.8684 164.83 70.4105C165.098 70.9503 165.232 71.5966 165.232 72.3494C165.232 73.107 165.097 73.7592 164.827 74.3061C164.557 74.8506 164.164 75.2696 163.648 75.5632C163.132 75.8544 162.504 76 161.766 76ZM160.402 75.2188H161.709C162.31 75.2188 162.808 75.1027 163.204 74.8707C163.599 74.6387 163.894 74.3085 164.088 73.88C164.282 73.4515 164.379 72.9413 164.379 72.3494C164.379 71.7623 164.283 71.2569 164.092 70.8331C163.9 70.407 163.613 70.0803 163.232 69.853C162.851 69.6233 162.376 69.5085 161.808 69.5085H160.402V75.2188Z" fill="#ACA7A1"/>
<path d="M179.368 69.5085V68.7273H184.822V69.5085H182.535V76H181.655V69.5085H179.368ZM187.681 76V68.7273H188.562V71.9659H192.44V68.7273H193.321V76H192.44V72.7472H188.562V76H187.681ZM201.357 68.7273H202.237V73.5426C202.237 74.0398 202.12 74.4837 201.886 74.8743C201.654 75.2625 201.326 75.5691 200.902 75.794C200.478 76.0166 199.981 76.1278 199.411 76.1278C198.84 76.1278 198.343 76.0166 197.919 75.794C197.495 75.5691 197.166 75.2625 196.932 74.8743C196.7 74.4837 196.584 74.0398 196.584 73.5426V68.7273H197.464V73.4716C197.464 73.8267 197.543 74.1428 197.699 74.4197C197.855 74.6944 198.078 74.911 198.366 75.0696C198.658 75.2259 199.006 75.304 199.411 75.304C199.815 75.304 200.163 75.2259 200.455 75.0696C200.746 74.911 200.968 74.6944 201.122 74.4197C201.278 74.1428 201.357 73.8267 201.357 73.4716V68.7273Z" fill="#ACA7A1"/>
<path d="M220.925 76V68.7273H225.285V69.5085H221.805V71.9659H224.959V72.7472H221.805V76H220.925ZM228.294 76V68.7273H230.751C231.319 68.7273 231.786 68.8243 232.15 69.0185C232.515 69.2102 232.785 69.4742 232.96 69.8104C233.135 70.1465 233.223 70.5289 233.223 70.9574C233.223 71.3859 233.135 71.7659 232.96 72.0973C232.785 72.4287 232.516 72.6892 232.154 72.8786C231.792 73.0656 231.329 73.1591 230.765 73.1591H228.777V72.3636H230.737C231.125 72.3636 231.438 72.3068 231.674 72.1932C231.914 72.0795 232.086 71.9186 232.193 71.7102C232.302 71.4995 232.356 71.2486 232.356 70.9574C232.356 70.6662 232.302 70.4117 232.193 70.1939C232.084 69.9761 231.91 69.808 231.671 69.6896C231.432 69.5689 231.116 69.5085 230.723 69.5085H229.174V76H228.294ZM231.717 72.733L233.507 76H232.484L230.723 72.733H231.717ZM237.071 68.7273V76H236.19V68.7273H237.071Z" fill="#ACA7A1"/>
<path d="M261.007 70.5455C260.965 70.1856 260.792 69.9062 260.489 69.7074C260.186 69.5085 259.814 69.4091 259.374 69.4091C259.052 69.4091 258.77 69.4612 258.529 69.5653C258.29 69.6695 258.103 69.8127 257.968 69.995C257.835 70.1773 257.769 70.3845 257.769 70.6165C257.769 70.8106 257.815 70.9775 257.907 71.1172C258.002 71.2545 258.123 71.3693 258.269 71.4616C258.416 71.5516 258.57 71.6262 258.731 71.6854C258.892 71.7422 259.04 71.7884 259.175 71.8239L259.914 72.0227C260.103 72.0724 260.314 72.1411 260.546 72.2287C260.78 72.3163 261.004 72.4358 261.217 72.5874C261.432 72.7365 261.61 72.9283 261.75 73.1626C261.889 73.397 261.959 73.6847 261.959 74.0256C261.959 74.4186 261.856 74.7737 261.65 75.0909C261.447 75.4081 261.148 75.6603 260.755 75.8473C260.365 76.0343 259.89 76.1278 259.331 76.1278C258.81 76.1278 258.359 76.0438 257.978 75.8757C257.599 75.7076 257.301 75.4732 257.083 75.1726C256.868 74.8719 256.746 74.5227 256.718 74.125H257.627C257.65 74.3996 257.743 74.6269 257.904 74.8068C258.067 74.9844 258.273 75.117 258.522 75.2045C258.773 75.2898 259.042 75.3324 259.331 75.3324C259.667 75.3324 259.969 75.2779 260.237 75.169C260.504 75.0578 260.716 74.9039 260.872 74.7074C261.029 74.5085 261.107 74.2765 261.107 74.0114C261.107 73.7699 261.039 73.5734 260.904 73.4219C260.769 73.2704 260.592 73.1473 260.372 73.0526C260.152 72.9579 259.914 72.875 259.658 72.804L258.763 72.5483C258.195 72.3849 257.745 72.1518 257.414 71.8487C257.082 71.5457 256.916 71.1491 256.916 70.6591C256.916 70.2519 257.027 69.8968 257.247 69.5938C257.469 69.2884 257.768 69.0516 258.142 68.8835C258.518 68.7131 258.938 68.6278 259.402 68.6278C259.871 68.6278 260.288 68.7119 260.652 68.88C261.017 69.0457 261.306 69.273 261.519 69.5618C261.734 69.8506 261.848 70.1785 261.86 70.5455H261.007ZM265.205 76H264.282L266.953 68.7273H267.862L270.532 76H269.609L267.435 69.8778H267.379L265.205 76ZM265.546 73.1591H269.268V73.9403H265.546V73.1591ZM271.918 69.5085V68.7273H277.372V69.5085H275.085V76H274.204V69.5085H271.918Z" fill="#ACA7A1"/>
<path d="M40.5767 114.864V126.5H39.1676V116.341H39.0994L36.2585 118.227V116.795L39.1676 114.864H40.5767Z" fill="#6B3B20"/>
<path d="M73.3608 126.5V125.477L77.2017 121.273C77.6525 120.78 78.0237 120.352 78.3153 119.989C78.607 119.621 78.8229 119.277 78.9631 118.955C79.107 118.629 79.179 118.288 79.179 117.932C79.179 117.523 79.0805 117.169 78.8835 116.869C78.6903 116.57 78.4252 116.339 78.0881 116.176C77.7509 116.013 77.3722 115.932 76.9517 115.932C76.5047 115.932 76.1146 116.025 75.7812 116.21C75.4517 116.392 75.196 116.648 75.0142 116.977C74.8362 117.307 74.7472 117.693 74.7472 118.136H73.4062C73.4062 117.455 73.5634 116.856 73.8778 116.341C74.1922 115.826 74.6203 115.424 75.1619 115.136C75.7074 114.848 76.3191 114.705 76.9972 114.705C77.679 114.705 78.2831 114.848 78.8097 115.136C79.3362 115.424 79.7491 115.812 80.0483 116.301C80.3475 116.79 80.4972 117.333 80.4972 117.932C80.4972 118.36 80.4195 118.778 80.2642 119.188C80.1127 119.593 79.8475 120.045 79.4688 120.545C79.0938 121.042 78.5729 121.648 77.9062 122.364L75.2926 125.159V125.25H80.7017V126.5H73.3608Z" fill="#6B3B20"/>
<path d="M115.043 126.659C114.293 126.659 113.624 126.53 113.037 126.273C112.454 126.015 111.99 125.657 111.645 125.199C111.304 124.737 111.118 124.201 111.088 123.591H112.52C112.55 123.966 112.679 124.29 112.906 124.562C113.134 124.831 113.431 125.04 113.798 125.188C114.166 125.335 114.573 125.409 115.02 125.409C115.52 125.409 115.963 125.322 116.349 125.148C116.736 124.973 117.039 124.731 117.259 124.42C117.478 124.11 117.588 123.75 117.588 123.341C117.588 122.913 117.482 122.536 117.27 122.21C117.058 121.881 116.747 121.623 116.338 121.438C115.929 121.252 115.429 121.159 114.838 121.159H113.906V119.909H114.838C115.3 119.909 115.705 119.826 116.054 119.659C116.406 119.492 116.681 119.258 116.878 118.955C117.079 118.652 117.179 118.295 117.179 117.886C117.179 117.492 117.092 117.15 116.918 116.858C116.743 116.566 116.497 116.339 116.179 116.176C115.865 116.013 115.493 115.932 115.065 115.932C114.664 115.932 114.285 116.006 113.929 116.153C113.577 116.297 113.289 116.508 113.065 116.784C112.842 117.057 112.721 117.386 112.702 117.773H111.338C111.361 117.163 111.545 116.629 111.889 116.17C112.234 115.708 112.685 115.348 113.241 115.091C113.802 114.833 114.418 114.705 115.088 114.705C115.808 114.705 116.425 114.85 116.94 115.142C117.455 115.43 117.851 115.811 118.128 116.284C118.404 116.758 118.543 117.269 118.543 117.818C118.543 118.473 118.37 119.032 118.026 119.494C117.685 119.956 117.221 120.277 116.634 120.455V120.545C117.368 120.667 117.942 120.979 118.355 121.483C118.768 121.983 118.974 122.602 118.974 123.341C118.974 123.973 118.802 124.542 118.457 125.045C118.116 125.545 117.651 125.939 117.06 126.227C116.469 126.515 115.796 126.659 115.043 126.659Z" fill="#6B3B20"/>
<path d="M148.799 124.114V122.955L153.913 114.864H154.754V116.659H154.185L150.322 122.773V122.864H157.208V124.114H148.799ZM154.276 126.5V123.761V123.222V114.864H155.617V126.5H154.276Z" fill="#6B3B20"/>
<path d="M190.974 126.659C190.307 126.659 189.707 126.527 189.173 126.261C188.638 125.996 188.21 125.633 187.888 125.17C187.567 124.708 187.39 124.182 187.36 123.591H188.724C188.777 124.117 189.015 124.553 189.44 124.898C189.868 125.239 190.379 125.409 190.974 125.409C191.451 125.409 191.875 125.297 192.246 125.074C192.621 124.85 192.915 124.544 193.127 124.153C193.343 123.759 193.451 123.314 193.451 122.818C193.451 122.311 193.339 121.858 193.116 121.46C192.896 121.059 192.593 120.742 192.207 120.511C191.82 120.28 191.379 120.163 190.883 120.159C190.527 120.155 190.161 120.21 189.786 120.324C189.411 120.434 189.103 120.576 188.86 120.75L187.542 120.591L188.246 114.864H194.292V116.114H189.428L189.019 119.545H189.087C189.326 119.356 189.625 119.199 189.985 119.074C190.345 118.949 190.72 118.886 191.11 118.886C191.822 118.886 192.457 119.057 193.013 119.398C193.574 119.735 194.013 120.197 194.332 120.784C194.654 121.371 194.815 122.042 194.815 122.795C194.815 123.538 194.648 124.201 194.315 124.784C193.985 125.364 193.531 125.822 192.951 126.159C192.371 126.492 191.712 126.659 190.974 126.659Z" fill="#6B3B20"/>
<path d="M229.076 126.659C228.599 126.652 228.121 126.561 227.644 126.386C227.167 126.212 226.731 125.919 226.337 125.506C225.943 125.089 225.627 124.527 225.388 123.818C225.15 123.106 225.031 122.212 225.031 121.136C225.031 120.106 225.127 119.193 225.32 118.398C225.513 117.598 225.794 116.926 226.161 116.381C226.529 115.831 226.972 115.415 227.491 115.131C228.013 114.847 228.603 114.705 229.258 114.705C229.909 114.705 230.489 114.835 230.996 115.097C231.508 115.354 231.924 115.714 232.246 116.176C232.568 116.638 232.777 117.17 232.871 117.773H231.485C231.356 117.25 231.106 116.816 230.735 116.472C230.364 116.127 229.871 115.955 229.258 115.955C228.356 115.955 227.646 116.347 227.127 117.131C226.612 117.915 226.353 119.015 226.349 120.432H226.44C226.652 120.11 226.904 119.835 227.195 119.608C227.491 119.377 227.817 119.199 228.173 119.074C228.529 118.949 228.906 118.886 229.303 118.886C229.97 118.886 230.58 119.053 231.133 119.386C231.686 119.716 232.129 120.172 232.462 120.756C232.796 121.335 232.962 122 232.962 122.75C232.962 123.47 232.801 124.129 232.479 124.727C232.157 125.322 231.705 125.795 231.121 126.148C230.542 126.496 229.86 126.667 229.076 126.659ZM229.076 125.409C229.553 125.409 229.981 125.29 230.36 125.051C230.743 124.812 231.044 124.492 231.263 124.091C231.487 123.689 231.599 123.242 231.599 122.75C231.599 122.269 231.491 121.831 231.275 121.438C231.063 121.04 230.769 120.723 230.394 120.489C230.023 120.254 229.599 120.136 229.121 120.136C228.762 120.136 228.426 120.208 228.116 120.352C227.805 120.492 227.532 120.686 227.298 120.932C227.067 121.178 226.885 121.46 226.752 121.778C226.62 122.093 226.553 122.424 226.553 122.773C226.553 123.235 226.661 123.667 226.877 124.068C227.097 124.47 227.396 124.794 227.775 125.04C228.157 125.286 228.591 125.409 229.076 125.409Z" fill="#6B3B20"/>
<path d="M263.998 126.5L269.202 116.205V116.114H263.202V114.864H270.657V116.182L265.475 126.5H263.998Z" fill="#6B3B20"/>
<path d="M39.0021 164.659C38.2218 164.659 37.5324 164.521 36.9339 164.244C36.3393 163.964 35.8752 163.58 35.5419 163.091C35.2086 162.598 35.0438 162.038 35.0476 161.409C35.0438 160.917 35.1404 160.462 35.3374 160.045C35.5343 159.625 35.8033 159.275 36.1442 158.994C36.4889 158.71 36.8733 158.53 37.2976 158.455V158.386C36.7408 158.242 36.2976 157.93 35.968 157.449C35.6385 156.964 35.4756 156.413 35.4794 155.795C35.4756 155.205 35.6252 154.676 35.9283 154.21C36.2313 153.744 36.648 153.377 37.1783 153.108C37.7124 152.839 38.3203 152.705 39.0021 152.705C39.6764 152.705 40.2786 152.839 40.8089 153.108C41.3393 153.377 41.7559 153.744 42.0589 154.21C42.3658 154.676 42.5211 155.205 42.5249 155.795C42.5211 156.413 42.3525 156.964 42.0192 157.449C41.6896 157.93 41.2521 158.242 40.7067 158.386V158.455C41.1271 158.53 41.5059 158.71 41.843 158.994C42.1802 159.275 42.4491 159.625 42.6499 160.045C42.8506 160.462 42.9529 160.917 42.9567 161.409C42.9529 162.038 42.7824 162.598 42.4453 163.091C42.112 163.58 41.648 163.964 41.0533 164.244C40.4624 164.521 39.7786 164.659 39.0021 164.659ZM39.0021 163.409C39.5286 163.409 39.9832 163.324 40.3658 163.153C40.7483 162.983 41.0438 162.742 41.2521 162.432C41.4605 162.121 41.5665 161.758 41.5703 161.341C41.5665 160.902 41.4529 160.513 41.2294 160.176C41.0059 159.839 40.701 159.574 40.3146 159.381C39.9321 159.187 39.4946 159.091 39.0021 159.091C38.5059 159.091 38.0627 159.187 37.6726 159.381C37.2862 159.574 36.9813 159.839 36.7578 160.176C36.5381 160.513 36.4302 160.902 36.4339 161.341C36.4302 161.758 36.5305 162.121 36.7351 162.432C36.9434 162.742 37.2408 162.983 37.6271 163.153C38.0135 163.324 38.4718 163.409 39.0021 163.409ZM39.0021 157.886C39.4188 157.886 39.7881 157.803 40.1101 157.636C40.4358 157.47 40.6915 157.237 40.8771 156.938C41.0627 156.638 41.1574 156.288 41.1612 155.886C41.1574 155.492 41.0646 155.15 40.8828 154.858C40.701 154.562 40.4491 154.335 40.1271 154.176C39.8052 154.013 39.4302 153.932 39.0021 153.932C38.5665 153.932 38.1858 154.013 37.8601 154.176C37.5343 154.335 37.2824 154.562 37.1044 154.858C36.9264 155.15 36.8393 155.492 36.843 155.886C36.8393 156.288 36.9283 156.638 37.1101 156.938C37.2957 157.237 37.5514 157.47 37.8771 157.636C38.2029 157.803 38.5779 157.886 39.0021 157.886Z" fill="#6B3B20"/>
<path d="M76.9169 152.705C77.3942 152.708 77.8714 152.799 78.3487 152.977C78.826 153.155 79.2616 153.451 79.6555 153.864C80.0495 154.273 80.3658 154.831 80.6044 155.54C80.843 156.248 80.9624 157.136 80.9624 158.205C80.9624 159.239 80.8639 160.157 80.6669 160.96C80.4737 161.759 80.1934 162.434 79.826 162.983C79.4624 163.532 79.0192 163.949 78.4964 164.233C77.9775 164.517 77.3904 164.659 76.7351 164.659C76.0836 164.659 75.5021 164.53 74.9908 164.273C74.4832 164.011 74.0665 163.65 73.7408 163.188C73.4188 162.722 73.2124 162.182 73.1214 161.568H74.5078C74.6328 162.102 74.8809 162.544 75.2521 162.892C75.6271 163.237 76.1214 163.409 76.7351 163.409C77.6328 163.409 78.3411 163.017 78.8601 162.233C79.3828 161.449 79.6442 160.341 79.6442 158.909H79.5533C79.3411 159.227 79.0893 159.502 78.7976 159.733C78.5059 159.964 78.1821 160.142 77.826 160.267C77.4699 160.392 77.0911 160.455 76.6896 160.455C76.023 160.455 75.4112 160.29 74.8544 159.96C74.3014 159.627 73.8582 159.17 73.5249 158.591C73.1953 158.008 73.0305 157.341 73.0305 156.591C73.0305 155.879 73.1896 155.227 73.5078 154.636C73.8298 154.042 74.2805 153.568 74.8601 153.216C75.4434 152.864 76.129 152.693 76.9169 152.705ZM76.9169 153.955C76.4396 153.955 76.0097 154.074 75.6271 154.312C75.2483 154.547 74.9472 154.866 74.7237 155.267C74.504 155.665 74.3942 156.106 74.3942 156.591C74.3942 157.076 74.5002 157.517 74.7124 157.915C74.9283 158.309 75.2218 158.623 75.593 158.858C75.968 159.089 76.3942 159.205 76.8714 159.205C77.2313 159.205 77.5665 159.134 77.8771 158.994C78.1877 158.85 78.4586 158.655 78.6896 158.409C78.9245 158.159 79.1082 157.877 79.2408 157.562C79.3733 157.244 79.4396 156.913 79.4396 156.568C79.4396 156.114 79.3298 155.687 79.1101 155.29C78.8942 154.892 78.5949 154.57 78.2124 154.324C77.8336 154.078 77.4018 153.955 76.9169 153.955Z" fill="#6B3B20"/>
<path d="M111.577 152.864V164.5H110.168V154.341H110.099L107.259 156.227V154.795L110.168 152.864H111.577ZM118.719 164.659C117.863 164.659 117.134 164.426 116.531 163.96C115.929 163.491 115.469 162.811 115.151 161.92C114.832 161.027 114.673 159.947 114.673 158.682C114.673 157.424 114.832 156.35 115.151 155.46C115.473 154.566 115.935 153.884 116.537 153.415C117.143 152.941 117.87 152.705 118.719 152.705C119.567 152.705 120.293 152.941 120.895 153.415C121.501 153.884 121.963 154.566 122.281 155.46C122.603 156.35 122.764 157.424 122.764 158.682C122.764 159.947 122.605 161.027 122.287 161.92C121.969 162.811 121.509 163.491 120.906 163.96C120.304 164.426 119.575 164.659 118.719 164.659ZM118.719 163.409C119.567 163.409 120.226 163 120.696 162.182C121.166 161.364 121.401 160.197 121.401 158.682C121.401 157.674 121.293 156.816 121.077 156.108C120.865 155.4 120.558 154.86 120.156 154.489C119.759 154.117 119.279 153.932 118.719 153.932C117.878 153.932 117.221 154.347 116.747 155.176C116.274 156.002 116.037 157.17 116.037 158.682C116.037 159.689 116.143 160.545 116.355 161.25C116.567 161.955 116.872 162.491 117.27 162.858C117.671 163.225 118.154 163.409 118.719 163.409Z" fill="#6B3B20"/>
<path d="M150.858 152.864V164.5H149.449V154.341H149.381L146.54 156.227V154.795L149.449 152.864H150.858ZM158.295 152.864V164.5H156.886V154.341H156.818L153.977 156.227V154.795L156.886 152.864H158.295Z" fill="#6B3B20"/>
<path d="M187.733 152.864V164.5H186.324V154.341H186.256L183.415 156.227V154.795L186.324 152.864H187.733ZM191.08 164.5V163.477L194.92 159.273C195.371 158.78 195.742 158.352 196.034 157.989C196.326 157.621 196.542 157.277 196.682 156.955C196.826 156.629 196.898 156.288 196.898 155.932C196.898 155.523 196.799 155.169 196.602 154.869C196.409 154.57 196.144 154.339 195.807 154.176C195.47 154.013 195.091 153.932 194.67 153.932C194.223 153.932 193.833 154.025 193.5 154.21C193.17 154.392 192.915 154.648 192.733 154.977C192.555 155.307 192.466 155.693 192.466 156.136H191.125C191.125 155.455 191.282 154.856 191.597 154.341C191.911 153.826 192.339 153.424 192.881 153.136C193.426 152.848 194.038 152.705 194.716 152.705C195.398 152.705 196.002 152.848 196.528 153.136C197.055 153.424 197.468 153.812 197.767 154.301C198.066 154.79 198.216 155.333 198.216 155.932C198.216 156.36 198.138 156.778 197.983 157.188C197.831 157.593 197.566 158.045 197.188 158.545C196.812 159.042 196.292 159.648 195.625 160.364L193.011 163.159V163.25H198.42V164.5H191.08Z" fill="#6B3B20"/>
<path d="M225.483 152.864V164.5H224.074V154.341H224.006L221.165 156.227V154.795L224.074 152.864H225.483ZM232.761 164.659C232.011 164.659 231.343 164.53 230.756 164.273C230.172 164.015 229.708 163.657 229.364 163.199C229.023 162.737 228.837 162.201 228.807 161.591H230.239C230.269 161.966 230.398 162.29 230.625 162.562C230.852 162.831 231.15 163.04 231.517 163.188C231.884 163.335 232.292 163.409 232.739 163.409C233.239 163.409 233.682 163.322 234.068 163.148C234.455 162.973 234.758 162.731 234.977 162.42C235.197 162.11 235.307 161.75 235.307 161.341C235.307 160.913 235.201 160.536 234.989 160.21C234.777 159.881 234.466 159.623 234.057 159.438C233.648 159.252 233.148 159.159 232.557 159.159H231.625V157.909H232.557C233.019 157.909 233.424 157.826 233.773 157.659C234.125 157.492 234.4 157.258 234.597 156.955C234.797 156.652 234.898 156.295 234.898 155.886C234.898 155.492 234.811 155.15 234.636 154.858C234.462 154.566 234.216 154.339 233.898 154.176C233.583 154.013 233.212 153.932 232.784 153.932C232.383 153.932 232.004 154.006 231.648 154.153C231.295 154.297 231.008 154.508 230.784 154.784C230.561 155.057 230.439 155.386 230.42 155.773H229.057C229.08 155.163 229.263 154.629 229.608 154.17C229.953 153.708 230.403 153.348 230.96 153.091C231.521 152.833 232.136 152.705 232.807 152.705C233.527 152.705 234.144 152.85 234.659 153.142C235.174 153.43 235.57 153.811 235.847 154.284C236.123 154.758 236.261 155.269 236.261 155.818C236.261 156.473 236.089 157.032 235.744 157.494C235.403 157.956 234.939 158.277 234.352 158.455V158.545C235.087 158.667 235.661 158.979 236.074 159.483C236.487 159.983 236.693 160.602 236.693 161.341C236.693 161.973 236.521 162.542 236.176 163.045C235.835 163.545 235.369 163.939 234.778 164.227C234.188 164.515 233.515 164.659 232.761 164.659Z" fill="#6B3B20"/>
<path d="M263.444 152.864V164.5H262.035V154.341H261.967L259.126 156.227V154.795L262.035 152.864H263.444ZM266.518 162.114V160.955L271.631 152.864H272.472V154.659H271.904L268.04 160.773V160.864H274.927V162.114H266.518ZM271.995 164.5V161.761V161.222V152.864H273.336V164.5H271.995Z" fill="#6B3B20"/>
<path d="M35.7095 190.864V202.5H34.3004V192.341H34.2322L31.3913 194.227V192.795L34.3004 190.864H35.7095ZM42.6925 202.659C42.0258 202.659 41.4254 202.527 40.8913 202.261C40.3572 201.996 39.9292 201.633 39.6072 201.17C39.2853 200.708 39.1091 200.182 39.0788 199.591H40.4425C40.4955 200.117 40.7341 200.553 41.1584 200.898C41.5864 201.239 42.0978 201.409 42.6925 201.409C43.1697 201.409 43.594 201.297 43.9652 201.074C44.3402 200.85 44.6338 200.544 44.8459 200.153C45.0618 199.759 45.1697 199.314 45.1697 198.818C45.1697 198.311 45.058 197.858 44.8345 197.46C44.6148 197.059 44.3118 196.742 43.9254 196.511C43.5391 196.28 43.0978 196.163 42.6016 196.159C42.2455 196.155 41.88 196.21 41.505 196.324C41.13 196.434 40.8213 196.576 40.5788 196.75L39.2607 196.591L39.9652 190.864H46.0107V192.114H41.147L40.7379 195.545H40.8061C41.0447 195.356 41.344 195.199 41.7038 195.074C42.0637 194.949 42.4387 194.886 42.8288 194.886C43.541 194.886 44.1754 195.057 44.7322 195.398C45.2929 195.735 45.7322 196.197 46.0504 196.784C46.3724 197.371 46.5334 198.042 46.5334 198.795C46.5334 199.538 46.3667 200.201 46.0334 200.784C45.7038 201.364 45.2493 201.822 44.6697 202.159C44.0902 202.492 43.4311 202.659 42.6925 202.659Z" fill="#6B3B20"/>
<path d="M73.5845 190.864V202.5H72.1754V192.341H72.1072L69.2663 194.227V192.795L72.1754 190.864H73.5845ZM80.7947 202.659C80.3175 202.652 79.8402 202.561 79.3629 202.386C78.8857 202.212 78.45 201.919 78.0561 201.506C77.6622 201.089 77.3459 200.527 77.1072 199.818C76.8686 199.106 76.7493 198.212 76.7493 197.136C76.7493 196.106 76.8459 195.193 77.0391 194.398C77.2322 193.598 77.5125 192.926 77.88 192.381C78.2474 191.831 78.6906 191.415 79.2095 191.131C79.7322 190.847 80.3213 190.705 80.9766 190.705C81.6281 190.705 82.2076 190.835 82.7152 191.097C83.2266 191.354 83.6432 191.714 83.9652 192.176C84.2872 192.638 84.4955 193.17 84.5902 193.773H83.2038C83.075 193.25 82.825 192.816 82.4538 192.472C82.0826 192.127 81.5902 191.955 80.9766 191.955C80.075 191.955 79.3648 192.347 78.8459 193.131C78.3307 193.915 78.0713 195.015 78.0675 196.432H78.1584C78.3705 196.11 78.6224 195.835 78.9141 195.608C79.2095 195.377 79.5353 195.199 79.8913 195.074C80.2474 194.949 80.6243 194.886 81.022 194.886C81.6887 194.886 82.2985 195.053 82.8516 195.386C83.4046 195.716 83.8478 196.172 84.1811 196.756C84.5144 197.335 84.6811 198 84.6811 198.75C84.6811 199.47 84.5201 200.129 84.1982 200.727C83.8762 201.322 83.4235 201.795 82.8402 202.148C82.2607 202.496 81.5788 202.667 80.7947 202.659ZM80.7947 201.409C81.272 201.409 81.7 201.29 82.0788 201.051C82.4614 200.812 82.7625 200.492 82.9822 200.091C83.2057 199.689 83.3175 199.242 83.3175 198.75C83.3175 198.269 83.2095 197.831 82.9936 197.438C82.7815 197.04 82.4879 196.723 82.1129 196.489C81.7417 196.254 81.3175 196.136 80.8402 196.136C80.4804 196.136 80.1451 196.208 79.8345 196.352C79.5239 196.492 79.2512 196.686 79.0163 196.932C78.7853 197.178 78.6035 197.46 78.4709 197.778C78.3383 198.093 78.272 198.424 78.272 198.773C78.272 199.235 78.38 199.667 78.5959 200.068C78.8156 200.47 79.1148 200.794 79.4936 201.04C79.8762 201.286 80.3099 201.409 80.7947 201.409Z" fill="#6B3B20"/>
<path d="M112.006 190.864V202.5H110.597V192.341H110.529L107.688 194.227V192.795L110.597 190.864H112.006ZM115.717 202.5L120.921 192.205V192.114H114.921V190.864H122.376V192.182L117.194 202.5H115.717Z" fill="#6B3B20"/>
<path d="M149.647 190.864V202.5H148.238V192.341H148.17L145.329 194.227V192.795L148.238 190.864H149.647ZM156.721 202.659C155.941 202.659 155.251 202.521 154.653 202.244C154.058 201.964 153.594 201.58 153.261 201.091C152.927 200.598 152.763 200.038 152.766 199.409C152.763 198.917 152.859 198.462 153.056 198.045C153.253 197.625 153.522 197.275 153.863 196.994C154.208 196.71 154.592 196.53 155.016 196.455V196.386C154.46 196.242 154.016 195.93 153.687 195.449C153.357 194.964 153.194 194.413 153.198 193.795C153.194 193.205 153.344 192.676 153.647 192.21C153.95 191.744 154.367 191.377 154.897 191.108C155.431 190.839 156.039 190.705 156.721 190.705C157.395 190.705 157.997 190.839 158.528 191.108C159.058 191.377 159.475 191.744 159.778 192.21C160.085 192.676 160.24 193.205 160.244 193.795C160.24 194.413 160.071 194.964 159.738 195.449C159.408 195.93 158.971 196.242 158.425 196.386V196.455C158.846 196.53 159.225 196.71 159.562 196.994C159.899 197.275 160.168 197.625 160.369 198.045C160.569 198.462 160.672 198.917 160.675 199.409C160.672 200.038 160.501 200.598 160.164 201.091C159.831 201.58 159.367 201.964 158.772 202.244C158.181 202.521 157.497 202.659 156.721 202.659ZM156.721 201.409C157.247 201.409 157.702 201.324 158.085 201.153C158.467 200.983 158.763 200.742 158.971 200.432C159.179 200.121 159.285 199.758 159.289 199.341C159.285 198.902 159.172 198.513 158.948 198.176C158.725 197.839 158.42 197.574 158.033 197.381C157.651 197.187 157.213 197.091 156.721 197.091C156.225 197.091 155.781 197.187 155.391 197.381C155.005 197.574 154.7 197.839 154.477 198.176C154.257 198.513 154.149 198.902 154.153 199.341C154.149 199.758 154.249 200.121 154.454 200.432C154.662 200.742 154.96 200.983 155.346 201.153C155.732 201.324 156.191 201.409 156.721 201.409ZM156.721 195.886C157.138 195.886 157.507 195.803 157.829 195.636C158.155 195.47 158.41 195.237 158.596 194.938C158.781 194.638 158.876 194.288 158.88 193.886C158.876 193.492 158.783 193.15 158.602 192.858C158.42 192.562 158.168 192.335 157.846 192.176C157.524 192.013 157.149 191.932 156.721 191.932C156.285 191.932 155.905 192.013 155.579 192.176C155.253 192.335 155.001 192.562 154.823 192.858C154.645 193.15 154.558 193.492 154.562 193.886C154.558 194.288 154.647 194.638 154.829 194.938C155.014 195.237 155.27 195.47 155.596 195.636C155.922 195.803 156.297 195.886 156.721 195.886Z" fill="#6B3B20"/>
<rect x="176" y="180" width="30" height="30" rx="15" fill="#EACEB1"/>
<path d="M187.585 190.864V202.5H186.175V192.341H186.107L183.266 194.227V192.795L186.175 190.864H187.585ZM194.636 190.705C195.113 190.708 195.59 190.799 196.067 190.977C196.545 191.155 196.98 191.451 197.374 191.864C197.768 192.273 198.085 192.831 198.323 193.54C198.562 194.248 198.681 195.136 198.681 196.205C198.681 197.239 198.583 198.157 198.386 198.96C198.192 199.759 197.912 200.434 197.545 200.983C197.181 201.532 196.738 201.949 196.215 202.233C195.696 202.517 195.109 202.659 194.454 202.659C193.802 202.659 193.221 202.53 192.71 202.273C192.202 202.011 191.785 201.65 191.46 201.188C191.138 200.722 190.931 200.182 190.84 199.568H192.227C192.352 200.102 192.6 200.544 192.971 200.892C193.346 201.237 193.84 201.409 194.454 201.409C195.352 201.409 196.06 201.017 196.579 200.233C197.102 199.449 197.363 198.341 197.363 196.909H197.272C197.06 197.227 196.808 197.502 196.516 197.733C196.225 197.964 195.901 198.142 195.545 198.267C195.189 198.392 194.81 198.455 194.408 198.455C193.742 198.455 193.13 198.29 192.573 197.96C192.02 197.627 191.577 197.17 191.244 196.591C190.914 196.008 190.749 195.341 190.749 194.591C190.749 193.879 190.908 193.227 191.227 192.636C191.549 192.042 191.999 191.568 192.579 191.216C193.162 190.864 193.848 190.693 194.636 190.705ZM194.636 191.955C194.158 191.955 193.728 192.074 193.346 192.312C192.967 192.547 192.666 192.866 192.442 193.267C192.223 193.665 192.113 194.106 192.113 194.591C192.113 195.076 192.219 195.517 192.431 195.915C192.647 196.309 192.941 196.623 193.312 196.858C193.687 197.089 194.113 197.205 194.59 197.205C194.95 197.205 195.285 197.134 195.596 196.994C195.906 196.85 196.177 196.655 196.408 196.409C196.643 196.159 196.827 195.877 196.96 195.562C197.092 195.244 197.158 194.913 197.158 194.568C197.158 194.114 197.049 193.687 196.829 193.29C196.613 192.892 196.314 192.57 195.931 192.324C195.552 192.078 195.121 191.955 194.636 191.955Z" fill="white"/>
<path d="M220.361 202.5V201.477L224.202 197.273C224.652 196.78 225.024 196.352 225.315 195.989C225.607 195.621 225.823 195.277 225.963 194.955C226.107 194.629 226.179 194.288 226.179 193.932C226.179 193.523 226.08 193.169 225.884 192.869C225.69 192.57 225.425 192.339 225.088 192.176C224.751 192.013 224.372 191.932 223.952 191.932C223.505 191.932 223.115 192.025 222.781 192.21C222.452 192.392 222.196 192.648 222.014 192.977C221.836 193.307 221.747 193.693 221.747 194.136H220.406C220.406 193.455 220.563 192.856 220.878 192.341C221.192 191.826 221.62 191.424 222.162 191.136C222.707 190.848 223.319 190.705 223.997 190.705C224.679 190.705 225.283 190.848 225.81 191.136C226.336 191.424 226.749 191.812 227.048 192.301C227.348 192.79 227.497 193.333 227.497 193.932C227.497 194.36 227.42 194.778 227.264 195.188C227.113 195.593 226.848 196.045 226.469 196.545C226.094 197.042 225.573 197.648 224.906 198.364L222.293 201.159V201.25H227.702V202.5H220.361ZM233.844 202.659C232.988 202.659 232.259 202.426 231.656 201.96C231.054 201.491 230.594 200.811 230.276 199.92C229.957 199.027 229.798 197.947 229.798 196.682C229.798 195.424 229.957 194.35 230.276 193.46C230.598 192.566 231.06 191.884 231.662 191.415C232.268 190.941 232.995 190.705 233.844 190.705C234.692 190.705 235.418 190.941 236.02 191.415C236.626 191.884 237.088 192.566 237.406 193.46C237.728 194.35 237.889 195.424 237.889 196.682C237.889 197.947 237.73 199.027 237.412 199.92C237.094 200.811 236.634 201.491 236.031 201.96C235.429 202.426 234.7 202.659 233.844 202.659ZM233.844 201.409C234.692 201.409 235.351 201 235.821 200.182C236.291 199.364 236.526 198.197 236.526 196.682C236.526 195.674 236.418 194.816 236.202 194.108C235.99 193.4 235.683 192.86 235.281 192.489C234.884 192.117 234.404 191.932 233.844 191.932C233.003 191.932 232.346 192.347 231.872 193.176C231.399 194.002 231.162 195.17 231.162 196.682C231.162 197.689 231.268 198.545 231.48 199.25C231.692 199.955 231.997 200.491 232.395 200.858C232.796 201.225 233.279 201.409 233.844 201.409Z" fill="#6B3B20"/>
<path d="M259.642 202.5V201.477L263.483 197.273C263.934 196.78 264.305 196.352 264.597 195.989C264.888 195.621 265.104 195.277 265.244 194.955C265.388 194.629 265.46 194.288 265.46 193.932C265.46 193.523 265.362 193.169 265.165 192.869C264.972 192.57 264.706 192.339 264.369 192.176C264.032 192.013 263.653 191.932 263.233 191.932C262.786 191.932 262.396 192.025 262.062 192.21C261.733 192.392 261.477 192.648 261.295 192.977C261.117 193.307 261.028 193.693 261.028 194.136H259.688C259.688 193.455 259.845 192.856 260.159 192.341C260.473 191.826 260.902 191.424 261.443 191.136C261.989 190.848 262.6 190.705 263.278 190.705C263.96 190.705 264.564 190.848 265.091 191.136C265.617 191.424 266.03 191.812 266.33 192.301C266.629 192.79 266.778 193.333 266.778 193.932C266.778 194.36 266.701 194.778 266.545 195.188C266.394 195.593 266.129 196.045 265.75 196.545C265.375 197.042 264.854 197.648 264.188 198.364L261.574 201.159V201.25H266.983V202.5H259.642ZM273.42 190.864V202.5H272.011V192.341H271.943L269.102 194.227V192.795L272.011 190.864H273.42Z" fill="#6B3B20"/>
<path d="M30.517 240.5V239.477L34.358 235.273C34.8087 234.78 35.1799 234.352 35.4716 233.989C35.7633 233.621 35.9792 233.277 36.1193 232.955C36.2633 232.629 36.3352 232.288 36.3352 231.932C36.3352 231.523 36.2367 231.169 36.0398 230.869C35.8466 230.57 35.5814 230.339 35.2443 230.176C34.9072 230.013 34.5284 229.932 34.108 229.932C33.661 229.932 33.2708 230.025 32.9375 230.21C32.608 230.392 32.3523 230.648 32.1705 230.977C31.9924 231.307 31.9034 231.693 31.9034 232.136H30.5625C30.5625 231.455 30.7197 230.856 31.0341 230.341C31.3485 229.826 31.7765 229.424 32.3182 229.136C32.8636 228.848 33.4754 228.705 34.1534 228.705C34.8352 228.705 35.4394 228.848 35.9659 229.136C36.4924 229.424 36.9053 229.812 37.2045 230.301C37.5038 230.79 37.6534 231.333 37.6534 231.932C37.6534 232.36 37.5758 232.778 37.4205 233.188C37.2689 233.593 37.0038 234.045 36.625 234.545C36.25 235.042 35.7292 235.648 35.0625 236.364L32.4489 239.159V239.25H37.858V240.5H30.517ZM40.2045 240.5V239.477L44.0455 235.273C44.4962 234.78 44.8674 234.352 45.1591 233.989C45.4508 233.621 45.6667 233.277 45.8068 232.955C45.9508 232.629 46.0227 232.288 46.0227 231.932C46.0227 231.523 45.9242 231.169 45.7273 230.869C45.5341 230.57 45.2689 230.339 44.9318 230.176C44.5947 230.013 44.2159 229.932 43.7955 229.932C43.3485 229.932 42.9583 230.025 42.625 230.21C42.2955 230.392 42.0398 230.648 41.858 230.977C41.6799 231.307 41.5909 231.693 41.5909 232.136H40.25C40.25 231.455 40.4072 230.856 40.7216 230.341C41.036 229.826 41.464 229.424 42.0057 229.136C42.5511 228.848 43.1629 228.705 43.8409 228.705C44.5227 228.705 45.1269 228.848 45.6534 229.136C46.1799 229.424 46.5928 229.812 46.892 230.301C47.1913 230.79 47.3409 231.333 47.3409 231.932C47.3409 232.36 47.2633 232.778 47.108 233.188C46.9564 233.593 46.6913 234.045 46.3125 234.545C45.9375 235.042 45.4167 235.648 44.75 236.364L42.1364 239.159V239.25H47.5455V240.5H40.2045Z" fill="#6B3B20"/>
<path d="M68.267 240.5V239.477L72.108 235.273C72.5587 234.78 72.9299 234.352 73.2216 233.989C73.5133 233.621 73.7292 233.277 73.8693 232.955C74.0133 232.629 74.0852 232.288 74.0852 231.932C74.0852 231.523 73.9867 231.169 73.7898 230.869C73.5966 230.57 73.3314 230.339 72.9943 230.176C72.6572 230.013 72.2784 229.932 71.858 229.932C71.411 229.932 71.0208 230.025 70.6875 230.21C70.358 230.392 70.1023 230.648 69.9205 230.977C69.7424 231.307 69.6534 231.693 69.6534 232.136H68.3125C68.3125 231.455 68.4697 230.856 68.7841 230.341C69.0985 229.826 69.5265 229.424 70.0682 229.136C70.6136 228.848 71.2254 228.705 71.9034 228.705C72.5852 228.705 73.1894 228.848 73.7159 229.136C74.2424 229.424 74.6553 229.812 74.9545 230.301C75.2538 230.79 75.4034 231.333 75.4034 231.932C75.4034 232.36 75.3258 232.778 75.1705 233.188C75.0189 233.593 74.7538 234.045 74.375 234.545C74 235.042 73.4792 235.648 72.8125 236.364L70.1989 239.159V239.25H75.608V240.5H68.267ZM81.8864 240.659C81.1364 240.659 80.4678 240.53 79.8807 240.273C79.2973 240.015 78.8333 239.657 78.4886 239.199C78.1477 238.737 77.9621 238.201 77.9318 237.591H79.3636C79.3939 237.966 79.5227 238.29 79.75 238.562C79.9773 238.831 80.2746 239.04 80.642 239.188C81.0095 239.335 81.4167 239.409 81.8636 239.409C82.3636 239.409 82.8068 239.322 83.1932 239.148C83.5795 238.973 83.8826 238.731 84.1023 238.42C84.322 238.11 84.4318 237.75 84.4318 237.341C84.4318 236.913 84.3258 236.536 84.1136 236.21C83.9015 235.881 83.5909 235.623 83.1818 235.438C82.7727 235.252 82.2727 235.159 81.6818 235.159H80.75V233.909H81.6818C82.1439 233.909 82.5492 233.826 82.8977 233.659C83.25 233.492 83.5246 233.258 83.7216 232.955C83.9223 232.652 84.0227 232.295 84.0227 231.886C84.0227 231.492 83.9356 231.15 83.7614 230.858C83.5871 230.566 83.3409 230.339 83.0227 230.176C82.7083 230.013 82.3371 229.932 81.9091 229.932C81.5076 229.932 81.1288 230.006 80.7727 230.153C80.4205 230.297 80.1326 230.508 79.9091 230.784C79.6856 231.057 79.5644 231.386 79.5455 231.773H78.1818C78.2045 231.163 78.3883 230.629 78.733 230.17C79.0777 229.708 79.5284 229.348 80.0852 229.091C80.6458 228.833 81.2614 228.705 81.9318 228.705C82.6515 228.705 83.2689 228.85 83.7841 229.142C84.2992 229.43 84.6951 229.811 84.9716 230.284C85.2481 230.758 85.3864 231.269 85.3864 231.818C85.3864 232.473 85.214 233.032 84.8693 233.494C84.5284 233.956 84.0644 234.277 83.4773 234.455V234.545C84.2121 234.667 84.786 234.979 85.1989 235.483C85.6117 235.983 85.8182 236.602 85.8182 237.341C85.8182 237.973 85.6458 238.542 85.3011 239.045C84.9602 239.545 84.4943 239.939 83.9034 240.227C83.3125 240.515 82.6402 240.659 81.8864 240.659Z" fill="#6B3B20"/>
<path d="M106.353 240.5V239.477L110.194 235.273C110.645 234.78 111.016 234.352 111.308 233.989C111.599 233.621 111.815 233.277 111.955 232.955C112.099 232.629 112.171 232.288 112.171 231.932C112.171 231.523 112.073 231.169 111.876 230.869C111.683 230.57 111.417 230.339 111.08 230.176C110.743 230.013 110.364 229.932 109.944 229.932C109.497 229.932 109.107 230.025 108.773 230.21C108.444 230.392 108.188 230.648 108.006 230.977C107.828 231.307 107.739 231.693 107.739 232.136H106.398C106.398 231.455 106.556 230.856 106.87 230.341C107.184 229.826 107.612 229.424 108.154 229.136C108.7 228.848 109.311 228.705 109.989 228.705C110.671 228.705 111.275 228.848 111.802 229.136C112.328 229.424 112.741 229.812 113.04 230.301C113.34 230.79 113.489 231.333 113.489 231.932C113.489 232.36 113.412 232.778 113.256 233.188C113.105 233.593 112.84 234.045 112.461 234.545C112.086 235.042 111.565 235.648 110.898 236.364L108.285 239.159V239.25H113.694V240.5H106.353ZM115.518 238.114V236.955L120.631 228.864H121.472V230.659H120.904L117.04 236.773V236.864H123.927V238.114H115.518ZM120.995 240.5V237.761V237.222V228.864H122.336V240.5H120.995Z" fill="#6B3B20"/>
<path d="M144.494 240.5V239.477L148.335 235.273C148.785 234.78 149.156 234.352 149.448 233.989C149.74 233.621 149.956 233.277 150.096 232.955C150.24 232.629 150.312 232.288 150.312 231.932C150.312 231.523 150.213 231.169 150.016 230.869C149.823 230.57 149.558 230.339 149.221 230.176C148.884 230.013 148.505 229.932 148.085 229.932C147.638 229.932 147.247 230.025 146.914 230.21C146.585 230.392 146.329 230.648 146.147 230.977C145.969 231.307 145.88 231.693 145.88 232.136H144.539C144.539 231.455 144.696 230.856 145.011 230.341C145.325 229.826 145.753 229.424 146.295 229.136C146.84 228.848 147.452 228.705 148.13 228.705C148.812 228.705 149.416 228.848 149.942 229.136C150.469 229.424 150.882 229.812 151.181 230.301C151.48 230.79 151.63 231.333 151.63 231.932C151.63 232.36 151.552 232.778 151.397 233.188C151.246 233.593 150.98 234.045 150.602 234.545C150.227 235.042 149.706 235.648 149.039 236.364L146.425 239.159V239.25H151.835V240.5H144.494ZM157.817 240.659C157.151 240.659 156.55 240.527 156.016 240.261C155.482 239.996 155.054 239.633 154.732 239.17C154.41 238.708 154.234 238.182 154.204 237.591H155.567C155.621 238.117 155.859 238.553 156.283 238.898C156.711 239.239 157.223 239.409 157.817 239.409C158.295 239.409 158.719 239.297 159.09 239.074C159.465 238.85 159.759 238.544 159.971 238.153C160.187 237.759 160.295 237.314 160.295 236.818C160.295 236.311 160.183 235.858 159.96 235.46C159.74 235.059 159.437 234.742 159.05 234.511C158.664 234.28 158.223 234.163 157.727 234.159C157.371 234.155 157.005 234.21 156.63 234.324C156.255 234.434 155.946 234.576 155.704 234.75L154.386 234.591L155.09 228.864H161.136V230.114H156.272L155.863 233.545H155.931C156.17 233.356 156.469 233.199 156.829 233.074C157.189 232.949 157.564 232.886 157.954 232.886C158.666 232.886 159.3 233.057 159.857 233.398C160.418 233.735 160.857 234.197 161.175 234.784C161.497 235.371 161.658 236.042 161.658 236.795C161.658 237.538 161.492 238.201 161.158 238.784C160.829 239.364 160.374 239.822 159.795 240.159C159.215 240.492 158.556 240.659 157.817 240.659Z" fill="#6B3B20"/>
<path d="M182.369 240.5V239.477L186.21 235.273C186.66 234.78 187.031 234.352 187.323 233.989C187.615 233.621 187.831 233.277 187.971 232.955C188.115 232.629 188.187 232.288 188.187 231.932C188.187 231.523 188.088 231.169 187.891 230.869C187.698 230.57 187.433 230.339 187.096 230.176C186.759 230.013 186.38 229.932 185.96 229.932C185.513 229.932 185.122 230.025 184.789 230.21C184.46 230.392 184.204 230.648 184.022 230.977C183.844 231.307 183.755 231.693 183.755 232.136H182.414C182.414 231.455 182.571 230.856 182.886 230.341C183.2 229.826 183.628 229.424 184.17 229.136C184.715 228.848 185.327 228.705 186.005 228.705C186.687 228.705 187.291 228.848 187.817 229.136C188.344 229.424 188.757 229.812 189.056 230.301C189.355 230.79 189.505 231.333 189.505 231.932C189.505 232.36 189.427 232.778 189.272 233.188C189.121 233.593 188.855 234.045 188.477 234.545C188.102 235.042 187.581 235.648 186.914 236.364L184.3 239.159V239.25H189.71V240.5H182.369ZM195.92 240.659C195.442 240.652 194.965 240.561 194.488 240.386C194.011 240.212 193.575 239.919 193.181 239.506C192.787 239.089 192.471 238.527 192.232 237.818C191.994 237.106 191.874 236.212 191.874 235.136C191.874 234.106 191.971 233.193 192.164 232.398C192.357 231.598 192.638 230.926 193.005 230.381C193.372 229.831 193.816 229.415 194.335 229.131C194.857 228.847 195.446 228.705 196.102 228.705C196.753 228.705 197.333 228.835 197.84 229.097C198.352 229.354 198.768 229.714 199.09 230.176C199.412 230.638 199.621 231.17 199.715 231.773H198.329C198.2 231.25 197.95 230.816 197.579 230.472C197.208 230.127 196.715 229.955 196.102 229.955C195.2 229.955 194.49 230.347 193.971 231.131C193.456 231.915 193.196 233.015 193.192 234.432H193.283C193.496 234.11 193.747 233.835 194.039 233.608C194.335 233.377 194.66 233.199 195.016 233.074C195.372 232.949 195.749 232.886 196.147 232.886C196.814 232.886 197.424 233.053 197.977 233.386C198.53 233.716 198.973 234.172 199.306 234.756C199.639 235.335 199.806 236 199.806 236.75C199.806 237.47 199.645 238.129 199.323 238.727C199.001 239.322 198.549 239.795 197.965 240.148C197.386 240.496 196.704 240.667 195.92 240.659ZM195.92 239.409C196.397 239.409 196.825 239.29 197.204 239.051C197.586 238.812 197.888 238.492 198.107 238.091C198.331 237.689 198.442 237.242 198.442 236.75C198.442 236.269 198.335 235.831 198.119 235.438C197.906 235.04 197.613 234.723 197.238 234.489C196.867 234.254 196.442 234.136 195.965 234.136C195.605 234.136 195.27 234.208 194.96 234.352C194.649 234.492 194.376 234.686 194.141 234.932C193.91 235.178 193.728 235.46 193.596 235.778C193.463 236.093 193.397 236.424 193.397 236.773C193.397 237.235 193.505 237.667 193.721 238.068C193.941 238.47 194.24 238.794 194.619 239.04C195.001 239.286 195.435 239.409 195.92 239.409Z" fill="#6B3B20"/>
<path d="M220.79 240.5V239.477L224.631 235.273C225.082 234.78 225.453 234.352 225.745 233.989C226.037 233.621 226.253 233.277 226.393 232.955C226.537 232.629 226.609 232.288 226.609 231.932C226.609 231.523 226.51 231.169 226.313 230.869C226.12 230.57 225.855 230.339 225.518 230.176C225.181 230.013 224.802 229.932 224.381 229.932C223.934 229.932 223.544 230.025 223.211 230.21C222.881 230.392 222.626 230.648 222.444 230.977C222.266 231.307 222.177 231.693 222.177 232.136H220.836C220.836 231.455 220.993 230.856 221.308 230.341C221.622 229.826 222.05 229.424 222.592 229.136C223.137 228.848 223.749 228.705 224.427 228.705C225.109 228.705 225.713 228.848 226.239 229.136C226.766 229.424 227.179 229.812 227.478 230.301C227.777 230.79 227.927 231.333 227.927 231.932C227.927 232.36 227.849 232.778 227.694 233.188C227.542 233.593 227.277 234.045 226.898 234.545C226.523 235.042 226.003 235.648 225.336 236.364L222.722 239.159V239.25H228.131V240.5H220.79ZM230.842 240.5L236.046 230.205V230.114H230.046V228.864H237.501V230.182L232.319 240.5H230.842Z" fill="#6B3B20"/>
<path d="M258.431 240.5V239.477L262.272 235.273C262.723 234.78 263.094 234.352 263.386 233.989C263.677 233.621 263.893 233.277 264.033 232.955C264.177 232.629 264.249 232.288 264.249 231.932C264.249 231.523 264.151 231.169 263.954 230.869C263.761 230.57 263.496 230.339 263.158 230.176C262.821 230.013 262.442 229.932 262.022 229.932C261.575 229.932 261.185 230.025 260.852 230.21C260.522 230.392 260.266 230.648 260.085 230.977C259.906 231.307 259.817 231.693 259.817 232.136H258.477C258.477 231.455 258.634 230.856 258.948 230.341C259.263 229.826 259.691 229.424 260.232 229.136C260.778 228.848 261.389 228.705 262.067 228.705C262.749 228.705 263.353 228.848 263.88 229.136C264.406 229.424 264.819 229.812 265.119 230.301C265.418 230.79 265.567 231.333 265.567 231.932C265.567 232.36 265.49 232.778 265.335 233.188C265.183 233.593 264.918 234.045 264.539 234.545C264.164 235.042 263.643 235.648 262.977 236.364L260.363 239.159V239.25H265.772V240.5H258.431ZM271.846 240.659C271.066 240.659 270.376 240.521 269.778 240.244C269.183 239.964 268.719 239.58 268.386 239.091C268.052 238.598 267.888 238.038 267.891 237.409C267.888 236.917 267.984 236.462 268.181 236.045C268.378 235.625 268.647 235.275 268.988 234.994C269.333 234.71 269.717 234.53 270.141 234.455V234.386C269.585 234.242 269.141 233.93 268.812 233.449C268.482 232.964 268.319 232.413 268.323 231.795C268.319 231.205 268.469 230.676 268.772 230.21C269.075 229.744 269.492 229.377 270.022 229.108C270.556 228.839 271.164 228.705 271.846 228.705C272.52 228.705 273.122 228.839 273.653 229.108C274.183 229.377 274.6 229.744 274.903 230.21C275.21 230.676 275.365 231.205 275.369 231.795C275.365 232.413 275.196 232.964 274.863 233.449C274.533 233.93 274.096 234.242 273.55 234.386V234.455C273.971 234.53 274.35 234.71 274.687 234.994C275.024 235.275 275.293 235.625 275.494 236.045C275.694 236.462 275.797 236.917 275.8 237.409C275.797 238.038 275.626 238.598 275.289 239.091C274.956 239.58 274.492 239.964 273.897 240.244C273.306 240.521 272.622 240.659 271.846 240.659ZM271.846 239.409C272.372 239.409 272.827 239.324 273.21 239.153C273.592 238.983 273.888 238.742 274.096 238.432C274.304 238.121 274.41 237.758 274.414 237.341C274.41 236.902 274.297 236.513 274.073 236.176C273.85 235.839 273.545 235.574 273.158 235.381C272.776 235.187 272.338 235.091 271.846 235.091C271.35 235.091 270.906 235.187 270.516 235.381C270.13 235.574 269.825 235.839 269.602 236.176C269.382 236.513 269.274 236.902 269.278 237.341C269.274 237.758 269.374 238.121 269.579 238.432C269.787 238.742 270.085 238.983 270.471 239.153C270.857 239.324 271.316 239.409 271.846 239.409ZM271.846 233.886C272.263 233.886 272.632 233.803 272.954 233.636C273.28 233.47 273.535 233.237 273.721 232.938C273.906 232.638 274.001 232.288 274.005 231.886C274.001 231.492 273.908 231.15 273.727 230.858C273.545 230.562 273.293 230.335 272.971 230.176C272.649 230.013 272.274 229.932 271.846 229.932C271.41 229.932 271.03 230.013 270.704 230.176C270.378 230.335 270.126 230.562 269.948 230.858C269.77 231.15 269.683 231.492 269.687 231.886C269.683 232.288 269.772 232.638 269.954 232.938C270.139 233.237 270.395 233.47 270.721 233.636C271.047 233.803 271.422 233.886 271.846 233.886Z" fill="#6B3B20"/>
<path d="M30.3686 278.5V277.477L34.2095 273.273C34.6603 272.78 35.0315 272.352 35.3232 271.989C35.6148 271.621 35.8307 271.277 35.9709 270.955C36.1148 270.629 36.1868 270.288 36.1868 269.932C36.1868 269.523 36.0883 269.169 35.8913 268.869C35.6982 268.57 35.433 268.339 35.0959 268.176C34.7588 268.013 34.38 267.932 33.9595 267.932C33.5125 267.932 33.1224 268.025 32.7891 268.21C32.4595 268.392 32.2038 268.648 32.022 268.977C31.844 269.307 31.755 269.693 31.755 270.136H30.4141C30.4141 269.455 30.5713 268.856 30.8857 268.341C31.2 267.826 31.6281 267.424 32.1697 267.136C32.7152 266.848 33.3269 266.705 34.005 266.705C34.6868 266.705 35.291 266.848 35.8175 267.136C36.344 267.424 36.7569 267.812 37.0561 268.301C37.3554 268.79 37.505 269.333 37.505 269.932C37.505 270.36 37.4273 270.778 37.272 271.188C37.1205 271.593 36.8554 272.045 36.4766 272.545C36.1016 273.042 35.5807 273.648 34.9141 274.364L32.3004 277.159V277.25H37.7095V278.5H30.3686ZM43.7607 266.705C44.2379 266.708 44.7152 266.799 45.1925 266.977C45.6697 267.155 46.1054 267.451 46.4993 267.864C46.8932 268.273 47.2095 268.831 47.4482 269.54C47.6868 270.248 47.8061 271.136 47.8061 272.205C47.8061 273.239 47.7076 274.157 47.5107 274.96C47.3175 275.759 47.0372 276.434 46.6697 276.983C46.3061 277.532 45.8629 277.949 45.3402 278.233C44.8213 278.517 44.2341 278.659 43.5788 278.659C42.9273 278.659 42.3459 278.53 41.8345 278.273C41.3269 278.011 40.9103 277.65 40.5845 277.188C40.2625 276.722 40.0561 276.182 39.9652 275.568H41.3516C41.4766 276.102 41.7247 276.544 42.0959 276.892C42.4709 277.237 42.9652 277.409 43.5788 277.409C44.4766 277.409 45.1849 277.017 45.7038 276.233C46.2266 275.449 46.4879 274.341 46.4879 272.909H46.397C46.1849 273.227 45.933 273.502 45.6413 273.733C45.3497 273.964 45.0258 274.142 44.6697 274.267C44.3137 274.392 43.9349 274.455 43.5334 274.455C42.8667 274.455 42.255 274.29 41.6982 273.96C41.1451 273.627 40.7019 273.17 40.3686 272.591C40.0391 272.008 39.8743 271.341 39.8743 270.591C39.8743 269.879 40.0334 269.227 40.3516 268.636C40.6735 268.042 41.1243 267.568 41.7038 267.216C42.2872 266.864 42.9728 266.693 43.7607 266.705ZM43.7607 267.955C43.2834 267.955 42.8535 268.074 42.4709 268.312C42.0921 268.547 41.791 268.866 41.5675 269.267C41.3478 269.665 41.2379 270.106 41.2379 270.591C41.2379 271.076 41.344 271.517 41.5561 271.915C41.772 272.309 42.0656 272.623 42.4368 272.858C42.8118 273.089 43.2379 273.205 43.7152 273.205C44.075 273.205 44.4103 273.134 44.7209 272.994C45.0315 272.85 45.3023 272.655 45.5334 272.409C45.7682 272.159 45.9519 271.877 46.0845 271.562C46.2171 271.244 46.2834 270.913 46.2834 270.568C46.2834 270.114 46.1735 269.687 45.9538 269.29C45.7379 268.892 45.4387 268.57 45.0561 268.324C44.6773 268.078 44.2455 267.955 43.7607 267.955Z" fill="#6B3B20"/>
<path d="M73.3239 278.659C72.5739 278.659 71.9053 278.53 71.3182 278.273C70.7348 278.015 70.2708 277.657 69.9261 277.199C69.5852 276.737 69.3996 276.201 69.3693 275.591H70.8011C70.8314 275.966 70.9602 276.29 71.1875 276.562C71.4148 276.831 71.7121 277.04 72.0795 277.188C72.447 277.335 72.8542 277.409 73.3011 277.409C73.8011 277.409 74.2443 277.322 74.6307 277.148C75.017 276.973 75.3201 276.731 75.5398 276.42C75.7595 276.11 75.8693 275.75 75.8693 275.341C75.8693 274.913 75.7633 274.536 75.5511 274.21C75.339 273.881 75.0284 273.623 74.6193 273.438C74.2102 273.252 73.7102 273.159 73.1193 273.159H72.1875V271.909H73.1193C73.5814 271.909 73.9867 271.826 74.3352 271.659C74.6875 271.492 74.9621 271.258 75.1591 270.955C75.3598 270.652 75.4602 270.295 75.4602 269.886C75.4602 269.492 75.3731 269.15 75.1989 268.858C75.0246 268.566 74.7784 268.339 74.4602 268.176C74.1458 268.013 73.7746 267.932 73.3466 267.932C72.9451 267.932 72.5663 268.006 72.2102 268.153C71.858 268.297 71.5701 268.508 71.3466 268.784C71.1231 269.057 71.0019 269.386 70.983 269.773H69.6193C69.642 269.163 69.8258 268.629 70.1705 268.17C70.5152 267.708 70.9659 267.348 71.5227 267.091C72.0833 266.833 72.6989 266.705 73.3693 266.705C74.089 266.705 74.7064 266.85 75.2216 267.142C75.7367 267.43 76.1326 267.811 76.4091 268.284C76.6856 268.758 76.8239 269.269 76.8239 269.818C76.8239 270.473 76.6515 271.032 76.3068 271.494C75.9659 271.956 75.5019 272.277 74.9148 272.455V272.545C75.6496 272.667 76.2235 272.979 76.6364 273.483C77.0492 273.983 77.2557 274.602 77.2557 275.341C77.2557 275.973 77.0833 276.542 76.7386 277.045C76.3977 277.545 75.9318 277.939 75.3409 278.227C74.75 278.515 74.0777 278.659 73.3239 278.659ZM83.6705 266.864V278.5H82.2614V268.341H82.1932L79.3523 270.227V268.795L82.2614 266.864H83.6705Z" fill="#6B3B20"/>
<path d="M111.324 278.659C110.574 278.659 109.905 278.53 109.318 278.273C108.735 278.015 108.271 277.657 107.926 277.199C107.585 276.737 107.4 276.201 107.369 275.591H108.801C108.831 275.966 108.96 276.29 109.188 276.562C109.415 276.831 109.712 277.04 110.08 277.188C110.447 277.335 110.854 277.409 111.301 277.409C111.801 277.409 112.244 277.322 112.631 277.148C113.017 276.973 113.32 276.731 113.54 276.42C113.759 276.11 113.869 275.75 113.869 275.341C113.869 274.913 113.763 274.536 113.551 274.21C113.339 273.881 113.028 273.623 112.619 273.438C112.21 273.252 111.71 273.159 111.119 273.159H110.188V271.909H111.119C111.581 271.909 111.987 271.826 112.335 271.659C112.688 271.492 112.962 271.258 113.159 270.955C113.36 270.652 113.46 270.295 113.46 269.886C113.46 269.492 113.373 269.15 113.199 268.858C113.025 268.566 112.778 268.339 112.46 268.176C112.146 268.013 111.775 267.932 111.347 267.932C110.945 267.932 110.566 268.006 110.21 268.153C109.858 268.297 109.57 268.508 109.347 268.784C109.123 269.057 109.002 269.386 108.983 269.773H107.619C107.642 269.163 107.826 268.629 108.17 268.17C108.515 267.708 108.966 267.348 109.523 267.091C110.083 266.833 110.699 266.705 111.369 266.705C112.089 266.705 112.706 266.85 113.222 267.142C113.737 267.43 114.133 267.811 114.409 268.284C114.686 268.758 114.824 269.269 114.824 269.818C114.824 270.473 114.652 271.032 114.307 271.494C113.966 271.956 113.502 272.277 112.915 272.455V272.545C113.65 272.667 114.223 272.979 114.636 273.483C115.049 273.983 115.256 274.602 115.256 275.341C115.256 275.973 115.083 276.542 114.739 277.045C114.398 277.545 113.932 277.939 113.341 278.227C112.75 278.515 112.078 278.659 111.324 278.659ZM121.67 266.864V278.5H120.261V268.341H120.193L117.352 270.227V268.795L120.261 266.864H121.67Z" fill="#6B3B20"/>
<defs>
<clipPath id="clip0_1128_5843">
<rect width="258" height="16" fill="white" transform="translate(24 24)"/>
</clipPath>
</defs>
</svg>
