<svg width="602" height="68" viewBox="0 0 602 68" fill="none" xmlns="http://www.w3.org/2000/svg">
<path d="M184.498 3.5H414.503L446 34L414.503 64.5H184.498L153 34L184.498 3.5Z" fill="#6B3B20"/>
<path d="M284.52 33.956L286.92 34.94H292.104L293.184 33.692L295.344 35.348C295.176 35.564 294.936 35.708 294.432 35.78V43.436C294.432 43.556 293.688 43.964 292.584 43.964H292.2V35.636H286.656V43.58C286.656 43.724 285.984 44.132 284.88 44.132H284.52V33.956ZM293.016 41.372V42.068H285.6V41.372H293.016ZM291.072 22.676C291.024 23.012 290.808 23.228 290.184 23.348V31.772H287.904V22.388L291.072 22.676ZM293.736 29.852C293.736 29.852 295.2 30.956 296.064 31.772C295.992 32.036 295.752 32.156 295.416 32.156H283.392L283.2 31.46H292.488L293.736 29.852ZM294.072 24.836C294.072 24.836 295.536 25.964 296.424 26.804C296.376 27.068 296.112 27.188 295.776 27.188H282.576L282.384 26.492H292.8L294.072 24.836ZM283.104 28.34C282.936 28.604 282.432 28.772 281.712 28.388L282.408 28.268C280.992 30.332 277.752 33.668 275.088 35.492L275.064 35.228H276.12C275.976 36.548 275.472 37.268 274.944 37.46L274.032 34.892C274.032 34.892 274.584 34.772 274.8 34.628C276.816 32.996 279.576 28.892 280.536 26.612L283.104 28.34ZM280.8 23.828C280.656 24.116 280.2 24.332 279.432 24.044L280.128 23.876C279.048 25.676 276.816 28.388 274.992 29.828L274.968 29.54H276.096C275.976 30.812 275.544 31.556 275.016 31.772L273.984 29.228C273.984 29.228 274.464 29.108 274.632 28.988C275.88 27.692 277.464 24.26 277.992 22.412L280.8 23.828ZM276.072 37.868C276.864 40.388 276.552 42.308 275.856 43.196C275.376 43.82 274.296 43.916 273.888 43.268C273.552 42.668 273.84 42.02 274.416 41.588C275.064 40.94 275.784 39.284 275.688 37.868H276.072ZM280.44 37.196C284.976 39.524 283.104 43.052 281.496 41.54C281.496 40.148 280.824 38.42 280.152 37.316L280.44 37.196ZM278.112 37.58C281.664 40.892 279.36 44.276 277.92 42.452C278.208 40.892 278.064 38.996 277.776 37.652L278.112 37.58ZM280.224 32.06C284.856 34.7 283.032 38.204 281.424 36.692C281.352 35.228 280.584 33.404 279.936 32.204L280.224 32.06ZM274.464 34.988C275.76 34.94 278.808 34.7 281.856 34.436L281.88 34.772C280.512 35.276 277.968 36.236 275.184 37.076L274.464 34.988ZM274.344 29.276C275.448 29.324 277.92 29.324 280.272 29.276V29.612C279.312 29.996 277.272 30.74 275.16 31.364L274.344 29.276ZM304.632 22.604C304.584 22.94 304.368 23.156 303.768 23.252V27.428H303.528V27.476H303.648V43.916C303.624 44.06 302.952 44.492 302.16 44.492H301.896V27.476H302.016V27.428H301.776V22.316L304.632 22.604ZM304.92 26.996L305.832 25.94L307.968 27.572C307.824 27.74 307.44 27.932 306.96 28.028V36.908C306.96 38.324 306.744 39.116 304.944 39.284C304.92 38.732 304.872 38.228 304.704 37.94C304.56 37.652 304.32 37.46 303.816 37.364V36.98C303.816 36.98 304.584 37.052 304.872 37.052C305.112 37.052 305.16 36.932 305.16 36.692V26.996H304.92ZM300.336 38.924C300.336 39.116 299.592 39.572 298.776 39.572H298.464V26.108L300.456 26.996H305.928V27.692H300.336V38.924ZM319.608 35.996C319.488 36.188 319.224 36.212 318.84 36.116C317.832 36.86 315.84 37.964 314.424 38.732L314.16 38.444C315.12 37.268 316.368 35.516 316.992 34.412L319.608 35.996ZM312.84 33.356C313.8 37.532 316.272 40.82 320.112 41.996L320.088 42.26C319.248 42.5 318.6 43.244 318.36 44.348C314.712 42.356 313.2 38.924 312.48 33.452L312.84 33.356ZM308.088 41.876C309.216 41.66 311.832 40.988 314.4 40.268L314.496 40.556C313.488 41.3 311.496 42.692 309.264 44.06L308.088 41.876ZM310.32 33.332L310.824 33.644V41.876L308.832 42.668L309.768 41.828C310.2 43.292 309.504 44.18 309 44.444L307.608 41.924C308.52 41.42 308.664 41.252 308.664 40.796V33.332H310.32ZM308.952 22.82L311.544 23.876H311.16V33.596H308.952V22.82ZM316.152 28.628C316.152 28.628 317.472 29.636 318.312 30.428C318.24 30.692 318 30.812 317.664 30.812H309.912V30.116H314.952L316.152 28.628ZM316.056 25.46C316.056 25.46 317.4 26.468 318.216 27.26C318.168 27.524 317.904 27.644 317.592 27.644H309.888V26.948H314.88L316.056 25.46ZM316.584 22.268C316.584 22.268 318.048 23.372 318.96 24.188C318.888 24.452 318.624 24.572 318.312 24.572H309.648V23.876H315.288L316.584 22.268ZM317.544 31.532C317.544 31.532 318.984 32.636 319.872 33.452C319.8 33.716 319.56 33.836 319.224 33.836H307.32L307.128 33.14H316.296L317.544 31.532Z" fill="white"/>
</svg>
