<svg width="200" height="23" viewBox="0 0 200 23" fill="none" xmlns="http://www.w3.org/2000/svg">
<path d="M17.528 5.63574H10.3806V17.3616H17.528V5.63574Z" fill="#FF5F00"/>
<path d="M11.1166 11.5007C11.1157 10.3716 11.3705 9.25711 11.8618 8.24157C12.353 7.22598 13.0678 6.33595 13.952 5.63882C12.8568 4.77429 11.5416 4.23669 10.1567 4.08746C8.77169 3.93823 7.37287 4.1834 6.12003 4.79494C4.86725 5.40648 3.81099 6.35973 3.07201 7.54573C2.33304 8.73173 1.94116 10.1027 1.94116 11.5018C1.94116 12.9009 2.33304 14.2718 3.07201 15.4578C3.81099 16.6438 4.86725 17.5971 6.12003 18.2086C7.37287 18.8202 8.77169 19.0653 10.1567 18.9161C11.5416 18.7668 12.8568 18.2293 13.952 17.3647C13.0675 16.6674 12.3526 15.777 11.8613 14.7611C11.3701 13.7451 11.1154 12.6302 11.1166 11.5007Z" fill="#EB001B"/>
<path d="M25.2546 16.1211V15.8808H25.3577V15.8311H25.1123V15.8808H25.2092V16.1211H25.2546ZM25.731 16.1211V15.8311H25.6567L25.5701 16.0382L25.4835 15.8311H25.4093V16.1211H25.4629V15.9015L25.5433 16.09H25.599L25.6794 15.9015V16.1211H25.731Z" fill="#F79E1B"/>
<path d="M25.9641 11.4988C25.964 12.898 25.5721 14.269 24.833 15.4551C24.0939 16.6411 23.0375 17.5943 21.7845 18.2058C20.5315 18.8173 19.1325 19.0622 17.7475 18.9128C16.3624 18.7634 15.0472 18.2255 13.9521 17.3607C14.836 16.6629 15.5506 15.7727 16.042 14.757C16.5334 13.7414 16.7887 12.627 16.7887 11.4977C16.7887 10.3686 16.5334 9.25409 16.042 8.23844C15.5506 7.22283 14.836 6.33255 13.9521 5.63481C15.0472 4.77 16.3624 4.23214 17.7475 4.08269C19.1325 3.93325 20.5315 4.17826 21.7845 4.78972C23.0375 5.40118 24.0939 6.35441 24.833 7.54045C25.5721 8.72646 25.964 10.0975 25.9641 11.4967V11.4988Z" fill="#F79E1B"/>
<path d="M49.612 6.88825L45.6172 16.159H43.0032L41.0305 8.76159C40.9318 8.32929 40.7839 8.13713 40.4386 7.94504C39.8468 7.65678 38.8604 7.32056 38.022 7.17645L38.0713 6.88825H42.2634C42.8059 6.88825 43.2991 7.22449 43.3977 7.84893L44.4335 13.2288L46.9981 6.93628H49.612V6.88825ZM59.8211 13.1328C59.8211 10.683 56.3688 10.5389 56.3688 9.48216C56.3688 9.1459 56.714 8.80964 57.4044 8.7136C57.7497 8.66554 58.7361 8.61749 59.8211 9.1459L60.2649 7.17645C59.6731 6.98432 58.9334 6.74414 57.947 6.74414C55.5303 6.74414 53.8041 7.99303 53.8041 9.81835C53.8041 11.1634 55.0371 11.8839 55.9742 12.3162C56.9112 12.7485 57.2565 13.0367 57.2565 13.469C57.2565 14.0935 56.5167 14.3817 55.7769 14.3817C54.5439 14.3817 53.8041 14.0454 53.2616 13.8053L52.8177 15.8228C53.4096 16.0629 54.4453 16.3031 55.5303 16.3031C58.0949 16.3031 59.7717 15.0542 59.8211 13.1328ZM66.2326 16.159H68.5013L66.5285 6.88825H64.4078C63.9146 6.88825 63.5201 7.17646 63.3721 7.56073L59.6731 16.159H62.2377L62.7309 14.766H65.8874L66.2326 16.159ZM63.4707 12.8926L64.753 9.4341L65.4929 12.8926H63.4707ZM53.1137 6.88825L51.0916 16.159H48.6257L50.6477 6.88825H53.1137Z" fill="#1A1F71"/>
<g clip-path="url(#clip0_1127_2159)">
<path d="M128.699 17.4148C128.699 19.6269 125.311 21.4196 121.13 21.4196H80.0576V5.59765C80.0576 3.38546 83.4456 1.59277 87.6263 1.59277H128.699V17.4148Z" fill="white"/>
<path d="M119.909 12.6343V12.5794C119.883 12.2075 119.404 11.9404 118.812 11.8709C118.731 11.8611 118.588 11.8562 118.482 11.8525H115.308V13.3623H118.438C118.537 13.3623 118.724 13.3525 118.812 13.344C119.395 13.2745 119.883 13.0062 119.909 12.6343Z" fill="url(#paint0_linear_1127_2159)"/>
<path d="M125.988 17.2255V2.92676H118.072C115.085 2.92676 112.669 4.20969 112.669 5.7853V8.75725H120.319C120.496 8.75725 120.711 8.76212 120.844 8.76701C122.573 8.81457 123.85 9.28164 123.85 10.1023C123.85 10.7438 122.976 11.2914 121.388 11.4133V11.4463C123.144 11.5121 124.481 12.0218 124.481 12.8244C124.481 13.6926 123.011 14.2536 121.04 14.2536H112.669V20.0841H120.586C123.573 20.0841 125.988 18.806 125.988 17.2255Z" fill="url(#paint1_linear_1127_2159)"/>
<path d="M118.454 9.61718C118.424 9.61474 118.364 9.61108 118.3 9.60742H115.308V10.9989H118.143C118.249 10.9989 118.392 10.9891 118.454 10.9843C119.042 10.9318 119.542 10.6782 119.542 10.3001C119.542 9.92327 119.044 9.6684 118.454 9.61718Z" fill="url(#paint2_linear_1127_2159)"/>
<path d="M90.869 20.0841C93.773 20.0341 96.0939 18.7792 96.0939 17.2304V2.93164H88.1679V2.92676C85.181 2.92676 82.7656 4.20969 82.7656 5.7853V12.8475C84.2821 13.2341 85.8493 13.4889 87.4373 13.4889C89.3087 13.4889 90.3343 12.8853 90.3343 12.0743V8.75847H94.9807V12.0743C94.9807 13.3718 93.4734 14.4146 88.3131 14.4146C85.2017 14.4146 82.7679 14.0609 82.7679 14.0609V20.0853H90.869V20.0841Z" fill="url(#paint3_linear_1127_2159)"/>
<path d="M103.121 2.92676C100.134 2.92676 97.7188 4.20969 97.7188 5.7853V9.53042C99.0923 8.90725 101.455 8.52067 105.306 8.61091C107.366 8.65847 109.549 8.95115 109.549 8.95115V10.1633C108.452 9.87068 107.143 9.59749 105.456 9.53163C102.54 9.41334 100.784 10.1683 100.784 11.5084C100.784 12.8438 102.54 13.5987 105.456 13.4804C107.14 13.4146 108.468 13.1365 109.549 12.8487V14.0609C109.549 14.0609 107.364 14.3536 105.306 14.4012C101.464 14.4902 99.0923 14.1036 97.7188 13.4816V20.0865H105.645C108.632 20.0865 111.047 18.8084 111.047 17.228V2.92676H103.121Z" fill="url(#paint4_linear_1127_2159)"/>
</g>
<g clip-path="url(#clip1_1127_2159)">
<path d="M160.267 6.77051H156.824C156.588 6.77051 156.388 6.93535 156.351 7.15935L154.958 15.6621C154.931 15.8299 155.065 15.9812 155.242 15.9812H156.886C157.122 15.9812 157.322 15.8163 157.359 15.5919L157.734 13.2985C157.771 13.074 157.972 12.9091 158.207 12.9091H159.297C161.565 12.9091 162.874 11.8522 163.216 9.75766C163.37 8.84129 163.223 8.12129 162.777 7.61705C162.288 7.06335 161.42 6.77051 160.267 6.77051ZM160.664 9.87596C160.476 11.0658 159.532 11.0658 158.619 11.0658H158.099L158.464 8.84372C158.486 8.70941 158.607 8.61051 158.747 8.61051H158.986C159.607 8.61051 160.194 8.61051 160.497 8.95184C160.678 9.15547 160.733 9.45802 160.664 9.87596Z" fill="#253B80"/>
<path d="M170.56 9.83976H168.911C168.771 9.83976 168.649 9.93867 168.628 10.073L168.555 10.5171L168.439 10.3561C168.082 9.85722 167.286 9.69043 166.492 9.69043C164.67 9.69043 163.113 11.0194 162.81 12.8837C162.653 13.8136 162.877 14.7028 163.425 15.3229C163.927 15.8931 164.646 16.1307 165.501 16.1307C166.97 16.1307 167.784 15.2216 167.784 15.2216L167.71 15.6628C167.683 15.8315 167.818 15.9828 167.993 15.9828H169.479C169.715 15.9828 169.914 15.8179 169.951 15.5935L170.843 10.1588C170.871 9.99152 170.736 9.83976 170.56 9.83976ZM168.262 12.9302C168.103 13.8373 167.355 14.4463 166.401 14.4463C165.922 14.4463 165.54 14.2985 165.294 14.0182C165.05 13.7399 164.958 13.3438 165.035 12.9025C165.184 12.0031 165.944 11.3743 166.883 11.3743C167.351 11.3743 167.732 11.5241 167.983 11.8068C168.234 12.0924 168.334 12.4909 168.262 12.9302Z" fill="#253B80"/>
<path d="M179.342 9.83887H177.685C177.527 9.83887 177.378 9.91451 177.289 10.0411L175.003 13.2827L174.035 10.1676C173.974 9.97269 173.787 9.83887 173.575 9.83887H171.947C171.749 9.83887 171.612 10.0251 171.675 10.2045L173.5 15.3623L171.784 17.6949C171.649 17.8786 171.785 18.1313 172.018 18.1313H173.673C173.83 18.1313 173.977 18.0575 174.066 17.9334L179.577 10.2728C179.709 10.0895 179.574 9.83887 179.342 9.83887Z" fill="#253B80"/>
<path d="M184.828 6.77051H181.384C181.149 6.77051 180.949 6.93535 180.912 7.15935L179.519 15.6621C179.492 15.8299 179.626 15.9812 179.802 15.9812H181.57C181.734 15.9812 181.874 15.8658 181.9 15.7087L182.295 13.2985C182.331 13.074 182.532 12.9091 182.767 12.9091H183.857C186.126 12.9091 187.434 11.8522 187.777 9.75766C187.931 8.84129 187.783 8.12129 187.337 7.61705C186.848 7.06335 185.981 6.77051 184.828 6.77051ZM185.225 9.87596C185.038 11.0658 184.094 11.0658 183.18 11.0658H182.661L183.026 8.84372C183.048 8.70941 183.168 8.61051 183.309 8.61051H183.547C184.169 8.61051 184.756 8.61051 185.059 8.95184C185.24 9.15547 185.294 9.45802 185.225 9.87596Z" fill="#179BD7"/>
<path d="M195.12 9.83976H193.473C193.331 9.83976 193.211 9.93867 193.19 10.073L193.117 10.5171L193.001 10.3561C192.644 9.85722 191.848 9.69043 191.054 9.69043C189.232 9.69043 187.676 11.0194 187.373 12.8837C187.216 13.8136 187.439 14.7028 187.986 15.3229C188.49 15.8931 189.208 16.1307 190.063 16.1307C191.532 16.1307 192.346 15.2216 192.346 15.2216L192.272 15.6628C192.245 15.8315 192.379 15.9828 192.556 15.9828H194.041C194.276 15.9828 194.477 15.8179 194.513 15.5935L195.405 10.1588C195.432 9.99152 195.297 9.83976 195.12 9.83976ZM192.822 12.9302C192.664 13.8373 191.915 14.4463 190.962 14.4463C190.484 14.4463 190.1 14.2985 189.854 14.0182C189.611 13.7399 189.519 13.3438 189.596 12.9025C189.745 12.0031 190.504 11.3743 191.443 11.3743C191.912 11.3743 192.292 11.5241 192.543 11.8068C192.795 12.0924 192.895 12.4909 192.822 12.9302Z" fill="#179BD7"/>
<path d="M197.065 7.00421L195.651 15.6626C195.624 15.8304 195.759 15.9817 195.934 15.9817H197.355C197.591 15.9817 197.792 15.8168 197.828 15.5923L199.222 7.09002C199.249 6.92227 199.114 6.77051 198.939 6.77051H197.348C197.207 6.77099 197.086 6.8699 197.065 7.00421Z" fill="#179BD7"/>
<path d="M140.658 17.6359L140.922 16.0252L140.335 16.0121H137.534L139.481 4.12701C139.487 4.09113 139.506 4.05768 139.535 4.03392C139.564 4.01016 139.601 3.99707 139.639 3.99707H144.362C145.93 3.99707 147.012 4.31125 147.576 4.93137C147.841 5.22228 148.01 5.52628 148.092 5.86083C148.177 6.21186 148.179 6.63125 148.095 7.14277L148.089 7.1801V7.50786L148.354 7.65234C148.577 7.76628 148.754 7.89671 148.89 8.04604C149.117 8.29477 149.263 8.61089 149.325 8.98567C149.389 9.37113 149.368 9.82979 149.263 10.3491C149.142 10.9464 148.947 11.4667 148.683 11.8923C148.44 12.2846 148.131 12.6099 147.764 12.862C147.414 13.1015 146.997 13.2833 146.527 13.3997C146.07 13.5141 145.55 13.5719 144.98 13.5719H144.612C144.35 13.5719 144.094 13.663 143.894 13.8264C143.693 13.9932 143.56 14.2211 143.519 14.4703L143.492 14.6153L143.026 17.454L143.005 17.5583C143 17.5913 142.99 17.6077 142.976 17.6189C142.963 17.6291 142.945 17.6359 142.928 17.6359H140.658Z" fill="#253B80"/>
<path d="M148.605 7.21582C148.59 7.30261 148.574 7.39133 148.556 7.48249C147.933 10.5617 145.803 11.6255 143.081 11.6255H141.696C141.363 11.6255 141.082 11.8583 141.03 12.1743L140.321 16.5069L140.12 17.7351C140.086 17.9426 140.253 18.1297 140.47 18.1297H142.928C143.219 18.1297 143.466 17.9261 143.512 17.6497L143.536 17.5295L143.999 14.7019L144.028 14.5467C144.074 14.2694 144.321 14.0657 144.612 14.0657H144.98C147.361 14.0657 149.225 13.1349 149.77 10.441C149.997 9.3157 149.879 8.37606 149.277 7.71521C149.095 7.51594 148.869 7.35061 148.605 7.21582Z" fill="#179BD7"/>
<path d="M147.953 6.9682C147.858 6.94154 147.76 6.91729 147.659 6.89547C147.558 6.87414 147.454 6.85523 147.347 6.83874C146.974 6.78056 146.564 6.75293 146.126 6.75293H142.424C142.333 6.75293 142.246 6.7728 142.169 6.80868C141.998 6.88772 141.871 7.04335 141.841 7.2339L141.053 12.0368L141.031 12.1769C141.082 11.8608 141.363 11.6281 141.696 11.6281H143.081C145.803 11.6281 147.933 10.5639 148.556 7.48505C148.575 7.3939 148.591 7.30517 148.605 7.21838C148.447 7.1379 148.276 7.06905 148.093 7.01038C148.047 6.99584 148 6.98178 147.953 6.9682Z" fill="#222D65"/>
<path d="M141.841 7.23285C141.871 7.0423 141.998 6.88667 142.169 6.80812C142.247 6.77224 142.333 6.75237 142.424 6.75237H146.126C146.564 6.75237 146.974 6.78 147.347 6.83818C147.454 6.85467 147.558 6.87357 147.659 6.89491C147.76 6.91673 147.858 6.94097 147.953 6.96763C148 6.98121 148.047 6.99527 148.093 7.00933C148.277 7.068 148.448 7.13733 148.605 7.21733C148.79 6.07939 148.604 5.30461 147.965 4.60303C147.26 3.83067 145.989 3.5 144.362 3.5H139.639C139.307 3.5 139.024 3.73273 138.972 4.04933L137.005 16.0566C136.966 16.2942 137.157 16.5085 137.405 16.5085H140.321L141.053 12.0357L141.841 7.23285Z" fill="#253B80"/>
</g>
<defs>
<linearGradient id="paint0_linear_1127_2159" x1="112.664" y1="12.6075" x2="126.028" y2="12.6075" gradientUnits="userSpaceOnUse">
<stop stop-color="#007940"/>
<stop offset="0.2412" stop-color="#19893C"/>
<stop offset="0.7476" stop-color="#49A834"/>
<stop offset="1" stop-color="#5BB431"/>
</linearGradient>
<linearGradient id="paint1_linear_1127_2159" x1="112.669" y1="11.5058" x2="126.034" y2="11.5058" gradientUnits="userSpaceOnUse">
<stop stop-color="#007940"/>
<stop offset="0.2412" stop-color="#19893C"/>
<stop offset="0.7476" stop-color="#49A834"/>
<stop offset="1" stop-color="#5BB431"/>
</linearGradient>
<linearGradient id="paint2_linear_1127_2159" x1="112.656" y1="10.303" x2="126.021" y2="10.303" gradientUnits="userSpaceOnUse">
<stop stop-color="#007940"/>
<stop offset="0.2412" stop-color="#19893C"/>
<stop offset="0.7476" stop-color="#49A834"/>
<stop offset="1" stop-color="#5BB431"/>
</linearGradient>
<linearGradient id="paint3_linear_1127_2159" x1="82.7529" y1="11.5058" x2="96.3242" y2="11.5058" gradientUnits="userSpaceOnUse">
<stop stop-color="#1F286F"/>
<stop offset="0.1137" stop-color="#1B3179"/>
<stop offset="0.7053" stop-color="#085DA9"/>
<stop offset="1" stop-color="#006EBB"/>
</linearGradient>
<linearGradient id="paint4_linear_1127_2159" x1="97.646" y1="11.5058" x2="110.826" y2="11.5058" gradientUnits="userSpaceOnUse">
<stop stop-color="#6C2C2F"/>
<stop offset="0.404" stop-color="#A31833"/>
<stop offset="0.8025" stop-color="#D30737"/>
<stop offset="1" stop-color="#E50038"/>
</linearGradient>
<clipPath id="clip0_1127_2159">
<rect width="49" height="20" fill="white" transform="translate(80 1.5)"/>
</clipPath>
<clipPath id="clip1_1127_2159">
<rect width="63" height="16" fill="white" transform="translate(137 3.5)"/>
</clipPath>
</defs>
</svg>
