<svg width="569" height="113" viewBox="0 0 569 113" fill="none" xmlns="http://www.w3.org/2000/svg">
<rect x="15.5" y="24" width="46" height="46" rx="23" stroke="#F1BFC1" stroke-width="4"/>
<path d="M34.0973 57V56.256L37.0493 55.776H40.6973L43.3613 56.352V57.072L34.0973 57ZM36.7853 57C36.8333 55.104 36.8573 53.16 36.8573 51.312V40.776L34.0493 41.112V40.248L40.5293 38.784L40.8893 39.024L40.7933 42.936V51.312C40.7933 53.16 40.8413 55.104 40.8893 57H36.7853Z" fill="#F1BFC1"/>
<path d="M20.212 81.728H24.904V82.424H20.212V81.728ZM20.212 83.696H24.904V84.404H20.212V83.696ZM20.224 85.676H25.468V86.444H20.224V85.676ZM18.856 77.156H25.408V79.208H24.604V77.936H19.636V79.208H18.856V77.156ZM22.168 80.3H23.008V86.084H22.168V80.3ZM20.536 79.724H25.108V80.504H20.536V86.96H19.684V80.54L20.464 79.724H20.536ZM21.664 75.92L22.528 76.088C21.844 78.524 20.656 80.516 19.036 81.8C18.904 81.632 18.58 81.296 18.388 81.14C19.972 79.988 21.076 78.128 21.664 75.92ZM22.912 78.296L23.764 78.512C23.476 79.136 23.152 79.808 22.9 80.264L22.204 80.06C22.456 79.58 22.768 78.824 22.912 78.296ZM14.584 76.736H18.82V77.564H14.584V76.736ZM15.796 80.24H18.508V85.496H15.796V84.704H17.716V81.044H15.796V80.24ZM16 77.132L16.864 77.264C16.492 79.784 15.868 82.148 14.752 83.72C14.656 83.516 14.404 83.072 14.236 82.868C15.196 81.512 15.712 79.388 16 77.132ZM15.424 80.24H16.18V86.432H15.424V80.24ZM33.76 76.76H34.588C34.336 78.704 33.748 80.648 31.648 81.692C31.552 81.5 31.3 81.2 31.108 81.056C33.064 80.156 33.556 78.404 33.76 76.76ZM31.552 78.476L31.996 77.852C33.244 78.272 34.744 79.016 35.536 79.568L35.104 80.276C34.3 79.688 32.8 78.896 31.552 78.476ZM36.592 76.436H37.444C37.444 76.436 37.444 76.7 37.432 76.82C37.312 79.652 37.192 80.72 36.892 81.068C36.7 81.296 36.496 81.38 36.172 81.416C35.884 81.44 35.32 81.428 34.756 81.404C34.744 81.152 34.66 80.804 34.528 80.588C35.08 80.636 35.584 80.636 35.776 80.636C35.968 80.648 36.076 80.612 36.16 80.516C36.376 80.264 36.496 79.304 36.592 76.592V76.436ZM32.908 82.832H33.748V85.724C33.748 86.024 33.796 86.072 34.132 86.072C34.288 86.072 35.068 86.072 35.26 86.072C35.584 86.072 35.632 85.904 35.668 84.704C35.836 84.848 36.196 84.968 36.436 85.04C36.34 86.504 36.112 86.876 35.356 86.876C35.164 86.876 34.216 86.876 34.024 86.876C33.112 86.876 32.908 86.624 32.908 85.736V82.832ZM31.768 83.24L32.5 83.42C32.368 84.488 32.116 85.652 31.48 86.324L30.808 85.88C31.384 85.292 31.648 84.236 31.768 83.24ZM33.112 81.728L33.64 81.2C34.432 81.62 35.356 82.268 35.8 82.772L35.236 83.384C34.804 82.88 33.892 82.184 33.112 81.728ZM35.908 83.324L36.652 83.024C37.3 83.9 37.84 85.076 38.02 85.892L37.216 86.228C37.06 85.412 36.532 84.2 35.908 83.324ZM31.66 76.436H36.964V77.216H31.66V76.436ZM27.316 79.556H30.724V80.276H27.316V79.556ZM27.364 76.352H30.676V77.072H27.364V76.352ZM27.316 81.164H30.724V81.884H27.316V81.164ZM26.776 77.924H31.06V78.668H26.776V77.924ZM27.712 82.784H30.724V86.288H27.712V85.532H29.944V83.528H27.712V82.784ZM27.304 82.784H28.072V86.84H27.304V82.784ZM44.056 76.988H50.212V77.852H44.056V76.988ZM47.02 77.348H47.92V85.784C47.92 86.396 47.776 86.66 47.38 86.804C46.984 86.96 46.3 86.972 45.244 86.972C45.208 86.72 45.052 86.324 44.92 86.048C45.736 86.084 46.492 86.084 46.72 86.072C46.948 86.072 47.02 86 47.02 85.784V77.348ZM39.7 79.556H43.444V80.276H39.7V79.556ZM39.772 76.352H43.456V77.072H39.772V76.352ZM39.7 81.164H43.444V81.884H39.7V81.164ZM39.136 77.924H43.912V78.668H39.136V77.924ZM40.12 82.784H43.408V86.288H40.12V85.532H42.604V83.528H40.12V82.784ZM39.688 82.784H40.492V86.84H39.688V82.784ZM56.536 79.76H57.46V86.96H56.536V79.76ZM53.812 81.788V82.832H60.34V81.788H53.812ZM53.812 80.072V81.092H60.34V80.072H53.812ZM52.936 79.34H61.252V83.552H52.936V79.34ZM51.724 84.476H62.368V85.268H51.724V84.476ZM53.428 77V78.14H55.732V77H53.428ZM52.612 76.4H56.572V78.74H52.612V76.4ZM58.36 77V78.14H60.688V77H58.36ZM57.544 76.4H61.54V78.74H57.544V76.4Z" fill="#3F1A09"/>
<rect width="101" height="3" transform="translate(111 55)" fill="#6B3B20"/>
<rect x="259.5" y="22" width="50" height="50" rx="25" fill="#F1BFC1"/>
<path d="M278.557 57V54.84C279.949 53.328 281.293 51.816 282.469 50.472C285.085 47.52 286.261 45.936 286.261 43.32C286.261 40.872 285.133 39.48 283.285 39.48C282.613 39.48 281.893 39.648 281.173 39.984L282.373 39.456L281.869 42.048C281.605 43.68 280.813 44.064 280.069 44.064C279.373 44.064 278.773 43.656 278.509 43.032C278.653 40.176 281.437 38.664 284.629 38.664C288.421 38.664 290.173 40.704 290.173 43.56C290.173 46.152 287.965 48.024 283.501 51.528C282.613 52.248 281.293 53.352 279.997 54.48L280.285 53.568V54.048H290.605V57H278.557Z" fill="white"/>
<path d="M264.088 76.928H271.336V77.684H264.088V76.928ZM263.752 83.936H271.492V84.704H263.752V83.936ZM267.244 75.92H268.12V78.908H267.244V75.92ZM265.864 80.492V81.26H269.548V80.492H265.864ZM265.864 81.86V82.628H269.548V81.86H265.864ZM265.864 79.16V79.904H269.548V79.16H265.864ZM265.036 78.536H270.412V83.252H265.036V78.536ZM268.336 85.316L268.96 84.86C269.908 85.376 270.952 86.024 271.576 86.516L270.748 86.972C270.196 86.492 269.236 85.832 268.336 85.316ZM266.128 84.896L266.968 85.184C266.224 85.892 265.06 86.564 264.076 86.984C263.932 86.816 263.596 86.492 263.404 86.348C264.4 86 265.48 85.46 266.128 84.896ZM260.584 78.86H264.124V79.712H260.584V78.86ZM261.988 76.076H262.84V83.9H261.988V76.076ZM260.356 84.152C261.328 83.792 262.792 83.168 264.208 82.568L264.412 83.408C263.14 83.996 261.76 84.596 260.704 85.052L260.356 84.152ZM277.852 75.932H278.752V77.408H277.852V75.932ZM273.22 76.892H283.42V79.028H282.568V77.684H274.048V79.028H273.22V76.892ZM277.444 78.068L278.02 78.656C277.228 78.98 276.148 79.256 275.236 79.424C275.2 79.268 275.092 79.016 275.008 78.86C275.86 78.644 276.868 78.344 277.444 78.068ZM274.684 78.68L275.5 78.86V82.028H274.684V78.68ZM274.684 81.608H281.176V79.34H278.668V78.68H282.004V82.28H274.684V81.608ZM274.972 80.144H277.804V80.792H274.972V80.144ZM278.848 80.144H281.596V80.792H278.848V80.144ZM276.34 81.92L277.144 82.16C276.316 83.468 274.828 84.536 273.376 85.196C273.268 85.016 273.004 84.644 272.836 84.476C274.228 83.936 275.62 83.024 276.34 81.92ZM275.824 83.06H282.484V83.792H275.08L275.824 83.06ZM282.196 83.06H283.084C283.084 83.06 283.072 83.3 283.06 83.42C282.928 85.496 282.784 86.312 282.496 86.624C282.28 86.84 282.064 86.912 281.728 86.936C281.428 86.96 280.852 86.948 280.252 86.924C280.24 86.684 280.144 86.348 280 86.132C280.588 86.18 281.14 86.192 281.332 86.18C281.548 86.192 281.656 86.18 281.752 86.084C281.956 85.868 282.076 85.124 282.196 83.18V83.06ZM274.84 84.272L275.56 84.5C275.38 85.352 275.044 86.276 274.384 86.816L273.724 86.408C274.312 85.928 274.66 85.064 274.84 84.272ZM276.268 84.476L276.976 84.392C277.228 85.064 277.42 85.928 277.42 86.48L276.676 86.588C276.688 86.036 276.52 85.16 276.268 84.476ZM277.96 84.416L278.62 84.236C278.992 84.8 279.328 85.568 279.424 86.06L278.74 86.276C278.644 85.772 278.32 85.004 277.96 84.416ZM279.628 84.356L280.228 84.068C280.648 84.452 281.092 84.992 281.284 85.388L280.648 85.7C280.48 85.316 280.036 84.74 279.628 84.356ZM285.832 76.808L286.228 76.196C287.056 76.412 288.172 76.82 288.748 77.12L288.352 77.816C287.788 77.504 286.672 77.072 285.832 76.808ZM285.232 79.34C286.096 79.136 287.368 78.776 288.616 78.428L288.712 79.136C287.62 79.484 286.492 79.856 285.58 80.132L285.232 79.34ZM290.38 76.808H295.204V77.492H289.852L290.38 76.808ZM294.964 76.808H295.108L295.264 76.772L295.864 76.952C295.528 77.576 295.084 78.248 294.652 78.668L293.932 78.416C294.316 78.044 294.724 77.444 294.964 76.94V76.808ZM291.868 77.048H292.696C292.444 78.752 291.676 79.688 289.228 80.18C289.144 79.988 288.952 79.688 288.796 79.532C291.016 79.16 291.664 78.416 291.868 77.048ZM292.66 77.264C292.9 78.284 293.488 79.268 296.152 79.652C295.984 79.832 295.78 80.156 295.684 80.384C292.84 79.892 292.24 78.596 291.928 77.336L292.66 77.264ZM290.572 75.92L291.388 76.052C290.98 76.928 290.368 77.816 289.432 78.536C289.276 78.368 288.964 78.176 288.748 78.08C289.648 77.468 290.26 76.64 290.572 75.92ZM287.716 82.196V83.012H293.764V82.196H287.716ZM287.716 83.6V84.44H293.764V83.6H287.716ZM287.716 80.792V81.608H293.764V80.792H287.716ZM286.84 80.192H294.664V85.04H286.84V80.192ZM291.676 85.652L292.408 85.196C293.728 85.604 295.18 86.132 296.044 86.54L295.048 86.996C294.292 86.6 292.984 86.084 291.676 85.652ZM288.856 85.172L289.672 85.544C288.7 86.12 287.176 86.672 285.976 87.008C285.832 86.828 285.52 86.48 285.316 86.324C286.552 86.06 287.992 85.64 288.856 85.172ZM299.536 75.968H300.376V86.948H299.536V75.968ZM297.604 79.952H302.344V80.804H297.604V79.952ZM299.404 80.396L299.944 80.636C299.524 82.268 298.672 84.344 297.868 85.436C297.772 85.172 297.556 84.788 297.412 84.548C298.18 83.624 299.02 81.8 299.404 80.396ZM300.352 80.96C300.688 81.32 301.912 82.952 302.188 83.348L301.588 84.068C301.288 83.42 300.304 81.848 299.908 81.332L300.352 80.96ZM297.688 76.856L298.348 76.688C298.684 77.528 298.96 78.62 299.044 79.34L298.336 79.532C298.276 78.812 298 77.696 297.688 76.856ZM301.564 76.64L302.356 76.844C302.044 77.756 301.672 78.884 301.348 79.556L300.772 79.376C301.036 78.656 301.396 77.456 301.564 76.64ZM306.22 75.932H307.072V86.96H306.22V75.932ZM302.32 83.564L308.488 82.46L308.632 83.288L302.464 84.404L302.32 83.564ZM303.22 77.396L303.688 76.784C304.384 77.192 305.212 77.804 305.608 78.248L305.128 78.944C304.744 78.476 303.916 77.828 303.22 77.396ZM302.608 80.42L303.028 79.784C303.748 80.156 304.636 80.72 305.068 81.152L304.612 81.86C304.192 81.428 303.328 80.816 302.608 80.42Z" fill="#3F1A09"/>
<rect width="101" height="3" transform="translate(357 55)" fill="#6B3B20"/>
<rect x="507.5" y="24" width="46" height="46" rx="23" stroke="#F1BFC1" stroke-width="4"/>
<path d="M529.944 57.408C526.296 57.408 524.352 55.824 524.136 53.136C524.4 52.368 525.024 52.032 525.648 52.032C526.608 52.032 527.208 52.512 527.424 54.12L527.856 56.712L526.632 56.016C527.328 56.376 527.856 56.568 528.696 56.568C531.168 56.568 532.536 55.176 532.536 52.488C532.536 49.656 531.24 48.144 528.792 48.144H527.856V47.208H528.672C530.784 47.208 532.2 45.912 532.2 43.056C532.2 40.68 531.12 39.48 529.296 39.48C528.648 39.48 527.904 39.648 527.016 40.008L528.528 39.408L528.048 41.88C527.832 43.104 527.088 43.512 526.248 43.512C525.648 43.512 525.168 43.224 524.904 42.768C524.976 39.888 527.496 38.664 530.424 38.664C534.216 38.664 536.016 40.44 536.016 42.912C536.016 45.432 534.384 47.376 529.848 47.784V47.4C534.864 47.664 536.568 49.632 536.568 52.464C536.568 55.392 534.048 57.408 529.944 57.408Z" fill="#F1BFC1"/>
<path d="M508.684 79.412H515.212V80.228H508.684V79.412ZM506.632 81.62H517.276V82.472H506.632V81.62ZM509.788 82.208H510.748C510.496 84.548 509.824 86.168 506.896 86.984C506.8 86.756 506.56 86.396 506.368 86.216C509.068 85.544 509.584 84.164 509.788 82.208ZM512.824 82.136H513.724V85.508C513.724 85.868 513.808 85.928 514.312 85.928C514.552 85.928 515.692 85.928 516.004 85.928C516.46 85.928 516.544 85.712 516.58 84.332C516.772 84.476 517.156 84.62 517.396 84.692C517.3 86.336 517.036 86.756 516.076 86.756C515.836 86.756 514.456 86.756 514.216 86.756C513.112 86.756 512.824 86.48 512.824 85.52V82.136ZM511.456 75.932H512.404V77.84H511.456V75.932ZM506.908 77.216H517V79.76H516.052V78.068H507.82V79.76H506.908V77.216ZM520.36 80.42H523.348V81.26H520.36V80.42ZM522.988 80.42H523.864C523.864 80.42 523.864 80.684 523.864 80.804C523.804 83.516 523.732 84.524 523.48 84.86C523.288 85.076 523.096 85.16 522.76 85.196C522.448 85.232 521.908 85.22 521.32 85.196C521.296 84.932 521.2 84.584 521.068 84.356C521.608 84.404 522.136 84.404 522.34 84.404C522.508 84.404 522.628 84.392 522.712 84.284C522.892 84.068 522.952 83.168 522.988 80.576V80.42ZM526.372 76.532L526.912 75.968C527.656 76.352 528.604 76.928 529.072 77.348L528.508 77.96C528.052 77.54 527.128 76.928 526.372 76.532ZM528.088 79.784L528.988 80C527.968 83.132 526.18 85.448 523.72 86.9C523.588 86.72 523.252 86.348 523.06 86.168C525.496 84.872 527.188 82.676 528.088 79.784ZM520.432 77.96H529.72V78.848H520.432V77.96ZM519.856 77.96H520.792V81.344C520.792 83.048 520.6 85.472 519.508 87.044C519.352 86.864 518.968 86.552 518.752 86.444C519.748 84.968 519.856 82.904 519.856 81.332V77.96ZM524.836 75.944H525.772C525.748 81.464 526.924 85.964 528.484 85.964C528.82 85.964 528.976 85.34 529.048 83.744C529.252 83.948 529.588 84.152 529.828 84.236C529.66 86.288 529.324 86.876 528.412 86.876C525.964 86.876 524.884 81.692 524.836 75.944ZM536.056 76.988H542.212V77.852H536.056V76.988ZM539.02 77.348H539.92V85.784C539.92 86.396 539.776 86.66 539.38 86.804C538.984 86.96 538.3 86.972 537.244 86.972C537.208 86.72 537.052 86.324 536.92 86.048C537.736 86.084 538.492 86.084 538.72 86.072C538.948 86.072 539.02 86 539.02 85.784V77.348ZM531.7 79.556H535.444V80.276H531.7V79.556ZM531.772 76.352H535.456V77.072H531.772V76.352ZM531.7 81.164H535.444V81.884H531.7V81.164ZM531.136 77.924H535.912V78.668H531.136V77.924ZM532.12 82.784H535.408V86.288H532.12V85.532H534.604V83.528H532.12V82.784ZM531.688 82.784H532.492V86.84H531.688V82.784ZM548.536 79.76H549.46V86.96H548.536V79.76ZM545.812 81.788V82.832H552.34V81.788H545.812ZM545.812 80.072V81.092H552.34V80.072H545.812ZM544.936 79.34H553.252V83.552H544.936V79.34ZM543.724 84.476H554.368V85.268H543.724V84.476ZM545.428 77V78.14H547.732V77H545.428ZM544.612 76.4H548.572V78.74H544.612V76.4ZM550.36 77V78.14H552.688V77H550.36ZM549.544 76.4H553.54V78.74H549.544V76.4Z" fill="#3F1A09"/>
</svg>
