<svg width="20" height="21" viewBox="0 0 20 21" fill="none" xmlns="http://www.w3.org/2000/svg">
<rect y="0.5" width="20" height="20" rx="10" fill="#EACEB1"/>
<path d="M8.87207 12.3626V12.2614C8.87917 11.6009 8.94487 11.0753 9.06916 10.6847C9.197 10.294 9.37811 9.97798 9.61248 9.73651C9.84686 9.49503 10.1292 9.27486 10.4594 9.07599C10.6725 8.94105 10.8643 8.79013 11.0347 8.62322C11.2052 8.45632 11.3401 8.26456 11.4395 8.04794C11.539 7.83132 11.5887 7.59162 11.5887 7.32884C11.5887 7.01278 11.5141 6.73935 11.365 6.50852C11.2158 6.2777 11.017 6.10014 10.7684 5.97585C10.5233 5.84801 10.2499 5.78409 9.94806 5.78409C9.67463 5.78409 9.41362 5.84091 9.16504 5.95455C8.91646 6.06818 8.71049 6.24574 8.54714 6.48722C8.38379 6.72514 8.28968 7.03232 8.26483 7.40874H6.64551C6.67037 6.76953 6.83194 6.22976 7.13024 5.78942C7.42853 5.34553 7.82271 5.00994 8.31277 4.78267C8.80637 4.5554 9.35147 4.44176 9.94806 4.44176C10.6015 4.44176 11.1732 4.56428 11.6633 4.8093C12.1533 5.05078 12.5333 5.38991 12.8032 5.8267C13.0766 6.25994 13.2133 6.76598 13.2133 7.34482C13.2133 7.74254 13.1512 8.10121 13.0269 8.42081C12.9026 8.73686 12.7251 9.01918 12.4942 9.26776C12.267 9.51634 11.9935 9.73651 11.6739 9.92827C11.3721 10.1165 11.127 10.3118 10.9388 10.5142C10.7542 10.7166 10.6192 10.9563 10.534 11.2333C10.4488 11.5103 10.4026 11.853 10.3955 12.2614V12.3626H8.87207ZM9.6764 15.6012C9.38521 15.6012 9.13485 15.4982 8.92534 15.2923C8.71582 15.0827 8.61106 14.8306 8.61106 14.5359C8.61106 14.2447 8.71582 13.9961 8.92534 13.7901C9.13485 13.5806 9.38521 13.4759 9.6764 13.4759C9.96404 13.4759 10.2126 13.5806 10.4221 13.7901C10.6352 13.9961 10.7417 14.2447 10.7417 14.5359C10.7417 14.7312 10.692 14.9105 10.5926 15.0739C10.4967 15.2337 10.3689 15.3615 10.2091 15.4574C10.0493 15.5533 9.87172 15.6012 9.6764 15.6012Z" fill="#6B3B20"/>
</svg>
