<svg width="81" height="80" viewBox="0 0 81 80" fill="none" xmlns="http://www.w3.org/2000/svg">
<path d="M40.2028 20.0472L40.2028 20.0472L33.7028 13.5472C33.5576 13.4021 33.4761 13.2052 33.4761 13C33.4761 12.7948 33.5576 12.5979 33.7028 12.4528C33.8479 12.3076 34.0448 12.2261 34.25 12.2261C34.4552 12.2261 34.6521 12.3076 34.7972 12.4528L39.9099 17.5654L39.9766 17.6321V17.5378V3.25C39.9766 3.04487 40.058 2.84814 40.2031 2.7031C40.3481 2.55805 40.5449 2.47656 40.75 2.47656C40.9551 2.47656 41.1519 2.55805 41.2969 2.7031C41.442 2.84814 41.5234 3.04487 41.5234 3.25V17.5378V17.6321L41.5901 17.5654L46.7028 12.4528C46.7746 12.3809 46.86 12.3239 46.9538 12.285C47.0477 12.2461 47.1484 12.2261 47.25 12.2261C47.3516 12.2261 47.4523 12.2461 47.5462 12.285C47.64 12.3239 47.7254 12.3809 47.7972 12.4528C47.8691 12.5246 47.9261 12.61 47.965 12.7038C48.0039 12.7977 48.0239 12.8984 48.0239 13C48.0239 13.1016 48.0039 13.2023 47.965 13.2962C47.9261 13.39 47.8691 13.4754 47.7972 13.5472L41.2972 20.0472L41.2972 20.0472C41.2254 20.1192 41.1401 20.1762 41.0462 20.2151C40.9523 20.254 40.8516 20.2741 40.75 20.2741C40.6484 20.2741 40.5477 20.254 40.4538 20.2151C40.3599 20.1762 40.2746 20.1191 40.2028 20.0472ZM41.2972 31.9528L41.2972 31.9528L47.7972 38.4528C47.9424 38.5979 48.0239 38.7948 48.0239 39C48.0239 39.2052 47.9424 39.4021 47.7972 39.5472C47.6521 39.6924 47.4552 39.7739 47.25 39.7739C47.0448 39.7739 46.8479 39.6924 46.7028 39.5472L41.5901 34.4346L41.5234 34.3679V34.4622V48.75C41.5234 48.9551 41.442 49.1519 41.2969 49.2969C41.1519 49.442 40.9551 49.5234 40.75 49.5234C40.5449 49.5234 40.3481 49.442 40.2031 49.2969C40.058 49.1519 39.9766 48.9551 39.9766 48.75V34.4622V34.3679L39.9099 34.4346L34.7972 39.5472C34.6521 39.6924 34.4552 39.7739 34.25 39.7739C34.0448 39.7739 33.8479 39.6924 33.7028 39.5472C33.5576 39.4021 33.4761 39.2052 33.4761 39C33.4761 38.7948 33.5576 38.5979 33.7028 38.4528L40.2028 31.9528L40.2028 31.9528C40.2746 31.8809 40.3599 31.8238 40.4538 31.7849C40.5477 31.746 40.6484 31.7259 40.75 31.7259C40.8516 31.7259 40.9523 31.746 41.0462 31.7849C41.1401 31.8238 41.2254 31.8808 41.2972 31.9528ZM59.3984 26C59.3984 26.2051 59.317 26.4019 59.1719 26.5469C59.0269 26.692 58.8301 26.7734 58.625 26.7734H22.875C22.6699 26.7734 22.4731 26.692 22.3281 26.5469C22.183 26.4019 22.1016 26.2051 22.1016 26C22.1016 25.7949 22.183 25.5981 22.3281 25.4531C22.4731 25.308 22.6699 25.2266 22.875 25.2266H58.625C58.8301 25.2266 59.0269 25.308 59.1719 25.4531C59.317 25.5981 59.3984 25.7949 59.3984 26Z" fill="#ACA7A1" stroke="#ACA7A1" stroke-width="0.078125"/>
<path d="M21.73 63.16H30.57V64.34H21.73V63.16ZM23.25 71.54H29.31V72.62H23.25V71.54ZM23.25 74.36H29.25V75.54H23.25V74.36ZM25.71 59.84H27.01V68.16H25.71V59.84ZM25.77 69.4H26.87V75H25.77V69.4ZM29.59 58.44L30.41 59.52C28.29 60.04 24.89 60.38 22.17 60.48C22.11 60.2 21.95 59.7 21.79 59.42C24.47 59.26 27.77 58.92 29.59 58.44ZM22.83 60.96L23.85 60.68C24.17 61.34 24.53 62.22 24.71 62.72L23.65 63.08C23.49 62.54 23.13 61.64 22.83 60.96ZM28.83 60.34L29.99 60.72C29.51 61.72 28.99 62.88 28.55 63.62L27.57 63.3C28.01 62.48 28.55 61.2 28.83 60.34ZM25.41 63.72L26.31 64.24C25.29 66 23.49 68.06 21.93 69.1C21.81 68.7 21.51 68.12 21.29 67.8C22.75 66.92 24.53 65.2 25.41 63.72ZM22.57 68.72H30.19V76.36H28.95V69.9H23.73V76.58H22.57V68.72ZM30.81 59.18H34.11V60.48H30.81V59.18ZM33.59 59.18H34.85V74.7C34.85 75.46 34.73 75.9 34.23 76.14C33.75 76.38 32.95 76.4 31.81 76.4C31.75 76.04 31.57 75.4 31.39 75.02C32.23 75.04 33.01 75.04 33.27 75.02C33.51 75.02 33.59 74.94 33.59 74.7V59.18ZM35.31 59.18H38.77V60.48H35.31V59.18ZM38.11 59.18H39.39V74.68C39.39 75.46 39.23 75.88 38.73 76.14C38.23 76.38 37.41 76.4 36.21 76.4C36.17 76.02 35.97 75.38 35.79 75.02C36.69 75.04 37.53 75.04 37.79 75.02C38.03 75.02 38.11 74.94 38.11 74.68V59.18ZM30.69 62.8L31.71 62.46C32.27 63.74 32.85 65.46 33.11 66.42L32.01 66.88C31.77 65.86 31.21 64.12 30.69 62.8ZM35.31 62.84L36.35 62.54C36.87 63.78 37.43 65.44 37.69 66.38L36.59 66.78C36.35 65.78 35.79 64.12 35.31 62.84ZM34.91 71.34C35.53 70.54 36.51 69.26 37.47 67.92L38.21 68.96C37.43 70.12 36.53 71.34 35.69 72.4L34.91 71.34ZM30.29 71.64C30.93 70.84 31.93 69.52 32.89 68.16L33.63 69.2C32.83 70.38 31.93 71.64 31.07 72.7L30.29 71.64ZM26.33 64.48L27.23 63.78C28.57 64.94 30.11 66.6 30.83 67.72L29.87 68.54C29.19 67.4 27.67 65.7 26.33 64.48ZM49.95 59.68H59.71V60.86H49.95V59.68ZM49.73 70.9H59.95V72.06H49.73V70.9ZM54.09 58.22H55.41V69H54.09V58.22ZM51.65 65.02V66.24H57.97V65.02H51.65ZM51.65 62.88V64.1H57.97V62.88H51.65ZM50.41 61.94H59.25V67.2H50.41V61.94ZM49.75 68.56C51.99 68.54 55.39 68.48 58.79 68.4L58.77 69.5C55.51 69.6 52.15 69.66 49.85 69.72L49.75 68.56ZM56.11 69.82H57.51V75.14C57.51 75.88 57.37 76.24 56.81 76.44C56.23 76.64 55.37 76.64 54.01 76.64C53.95 76.26 53.75 75.76 53.57 75.4C54.59 75.44 55.51 75.44 55.77 75.42C56.05 75.4 56.11 75.34 56.11 75.12V69.82ZM50.91 72.86L51.93 72.24C52.73 72.92 53.53 73.88 53.91 74.58L52.79 75.3C52.45 74.58 51.67 73.56 50.91 72.86ZM56.67 67.56L57.67 67.04C58.59 67.84 59.59 68.94 60.07 69.7L59.01 70.32C58.57 69.54 57.57 68.38 56.67 67.56ZM41.77 60.38H49.53V61.72H41.77V60.38ZM41.51 71.78H49.81V73.12H41.51V71.78ZM45.05 58.22H46.43V63.68H45.05V58.22ZM45.19 63.76H46.29V69.58H46.43V76.64H45.05V69.58H45.19V63.76ZM43.37 67.2V69.04H48.15V67.2H43.37ZM43.37 64.32V66.12H48.15V64.32H43.37ZM42.21 63.2H49.31V70.16H42.21V63.2Z" fill="#ACA7A1"/>
</svg>
