<svg width="81" height="80" viewBox="0 0 81 80" fill="none" xmlns="http://www.w3.org/2000/svg">
<path d="M56.6628 18.7266H56.7571L56.6904 18.66L52.3334 14.3009L52.3058 14.3285L52.3334 14.3009C49.1508 11.1186 44.8419 9.31913 40.3413 9.29283C35.8406 9.26653 31.5111 11.0155 28.2915 14.1604L28.2914 14.1604C28.2188 14.2315 28.1329 14.2876 28.0386 14.3255C27.9443 14.3634 27.8434 14.3824 27.7418 14.3813C27.6402 14.3802 27.5397 14.3591 27.4463 14.3193C27.3528 14.2794 27.2681 14.2215 27.197 14.1488C27.1259 14.0762 27.0698 13.9903 27.0319 13.896C26.994 13.8017 26.975 13.7008 26.9761 13.5992C26.9772 13.4976 26.9983 13.3972 27.0382 13.3037C27.078 13.2102 27.136 13.1255 27.2086 13.0544C30.7195 9.62493 35.4409 7.71782 40.3488 7.74666C45.2567 7.7755 49.9554 9.73797 53.4258 13.2085L53.4534 13.1809L53.4258 13.2085L57.7849 17.5655L57.8516 17.6322V17.5379V9.75007C57.8516 9.54494 57.933 9.34822 58.0781 9.20317C58.2231 9.05812 58.4199 8.97663 58.625 8.97663C58.8301 8.97663 59.0269 9.05812 59.1719 9.20317C59.317 9.34822 59.3984 9.54494 59.3984 9.75007V19.5001C59.3984 19.7052 59.317 19.9019 59.1719 20.047C59.0269 20.192 58.8301 20.2735 58.625 20.2735H48.875C48.6699 20.2735 48.4731 20.192 48.3281 20.047C48.183 19.9019 48.1016 19.7052 48.1016 19.5001C48.1016 19.2949 48.183 19.0982 48.3281 18.9532C48.4731 18.8081 48.6699 18.7266 48.875 18.7266H56.6628ZM53.2086 37.8397L53.2401 37.8087C53.3052 37.7522 53.3792 37.7068 53.4594 37.6746C53.5537 37.6367 53.6545 37.6178 53.7562 37.6188C53.8578 37.6199 53.9582 37.641 54.0517 37.6809C54.1452 37.7208 54.2299 37.7787 54.301 37.8513C54.3721 37.9239 54.4282 38.0098 54.4661 38.1041C54.504 38.1985 54.5229 38.2993 54.5219 38.4009C54.5208 38.5026 54.4997 38.603 54.4598 38.6965C54.4199 38.7899 54.362 38.8746 54.2894 38.9457L54.2894 38.9458C50.8126 42.3588 46.132 44.2659 41.2599 44.2544H41.2598H41.1564C36.244 44.2393 31.5386 42.2745 28.0743 38.7917L28.0742 38.7917L23.7151 34.4346L23.6484 34.368V34.4623V42.2501C23.6484 42.4552 23.567 42.6519 23.4219 42.797C23.2769 42.942 23.0801 43.0235 22.875 43.0235C22.6699 43.0235 22.4731 42.942 22.3281 42.797C22.183 42.6519 22.1016 42.4552 22.1016 42.2501V32.5001C22.1016 32.2949 22.183 32.0982 22.3281 31.9532C22.4731 31.8081 22.6699 31.7266 22.875 31.7266H32.625C32.8301 31.7266 33.0269 31.8081 33.1719 31.9532C33.317 32.0982 33.3984 32.2949 33.3984 32.5001C33.3984 32.7052 33.317 32.9019 33.1719 33.047C33.0269 33.192 32.8301 33.2735 32.625 33.2735H24.8372H24.7429L24.8096 33.3402L29.1665 37.6992C32.345 40.8925 36.6608 42.6938 41.1663 42.7076H41.1664H41.2618C45.7292 42.7189 50.0213 40.9701 53.2086 37.8397Z" fill="#ACA7A1" stroke="#ACA7A1" stroke-width="0.078125"/>
<path d="M21.79 74.74H39.73V75.98H21.79V74.74ZM21.89 61.76H39.61V63H21.89V61.76ZM23.27 71.82H38.45V73.02H23.27V71.82ZM29.91 59.74H31.41V75.34H29.91V59.74ZM36.87 58.32L37.67 59.48C34.09 60.14 28.39 60.48 23.71 60.58C23.71 60.22 23.53 59.7 23.39 59.38C28.05 59.26 33.71 58.9 36.87 58.32ZM25.37 67.8V69.34H36.19V67.8H25.37ZM25.37 65.28V66.8H36.19V65.28H25.37ZM23.91 64.2H37.71V70.42H23.91V64.2ZM49.97 69.58L51.15 70.14C49.13 71.92 45.47 73.42 42.35 74.08C42.17 73.74 41.79 73.24 41.51 72.96C44.59 72.4 48.15 71.12 49.97 69.58ZM51.69 69.46C52.95 72.52 55.81 74.46 59.91 75.14C59.63 75.44 59.25 75.98 59.07 76.36C54.77 75.5 51.91 73.32 50.45 69.76L51.69 69.46ZM57.57 70.54L58.67 71.32C57.39 72.22 55.71 73.08 54.39 73.66L53.45 72.9C54.75 72.3 56.53 71.3 57.57 70.54ZM41.85 69.14H59.65V70.36H41.85V69.14ZM53.41 59.24H54.77V65.8H53.41V59.24ZM57.21 58.4H58.57V66.7C58.57 67.48 58.41 67.82 57.85 68.04C57.29 68.24 56.37 68.26 54.95 68.26C54.89 67.88 54.67 67.38 54.47 67C55.57 67.04 56.55 67.04 56.83 67.02C57.13 67.02 57.21 66.94 57.21 66.68V58.4ZM46.31 58.2H47.61V68.36H46.31V58.2ZM50.09 64.08H51.33V66.52C51.33 67.08 51.25 67.36 50.83 67.54C50.41 67.72 49.81 67.72 48.93 67.72C48.87 67.4 48.67 67.04 48.53 66.76C49.17 66.78 49.69 66.78 49.85 66.76C50.03 66.74 50.09 66.7 50.09 66.54V64.08ZM42.81 64.08H50.65V65.1H44.01V67.84H42.81V64.08ZM41.77 61.92H51.87V63.02H41.77V61.92ZM43.85 59.64H51.17V60.7H43.41L43.85 59.64ZM43.67 58.28L44.85 58.56C44.43 59.76 43.77 61.06 43.13 61.9C42.89 61.72 42.35 61.46 42.05 61.32C42.75 60.5 43.31 59.36 43.67 58.28ZM45.51 76.62L45.45 75.56L46.07 75.06L51.85 73.82C51.81 74.18 51.79 74.68 51.81 74.96C46.49 76.22 45.89 76.38 45.51 76.62ZM45.53 76.62C45.43 76.3 45.17 75.74 44.97 75.5C45.29 75.3 45.81 74.9 45.81 73.98V72.08L47.23 72.06V75.02C47.23 75.02 45.53 76.04 45.53 76.62ZM49.73 67.88L51.11 67.48C51.51 68.1 51.93 68.96 52.11 69.48L50.63 69.96C50.49 69.42 50.09 68.52 49.73 67.88Z" fill="#ACA7A1"/>
</svg>
