<svg width="131" height="49" viewBox="0 0 131 49" fill="none" xmlns="http://www.w3.org/2000/svg">
<path d="M55.66 22.7515H67.168V24.8515H55.66V22.7515ZM43.928 36.0235H69.072V38.1235H43.928V36.0235ZM54.456 14.0995H56.668V37.1435H54.456V14.0995ZM71.732 25.1315H97.352V27.4275H71.732V25.1315ZM106.648 25.4395L108.664 26.1395C107.124 28.7435 104.716 31.3755 102.56 33.1115C102.224 32.6915 101.44 31.8795 100.964 31.5155C103.092 30.0315 105.332 27.7635 106.648 25.4395ZM120.564 25.6915L122.552 26.6435C118.856 33.9235 111.744 37.6755 101.02 39.2995C100.796 38.6835 100.376 37.8435 99.928 37.3115C110.316 35.9115 117.204 32.4395 120.564 25.6915ZM100.152 22.2475H124.708V24.2635H100.152V22.2475ZM113.116 16.6755H122.16V18.6635H113.116V16.6755ZM111.688 13.7075H113.928V23.3395H111.688V13.7075ZM104.352 15.8635H106.48V23.2275H104.352V15.8635ZM111.52 23.7315H113.732V33.1115H111.52V23.7315Z" fill="#3F1A09"/>
<path d="M31.9999 15.7796V32.6196C32.0009 33.2844 31.8135 33.9359 31.4596 34.4987C31.1056 35.0615 30.5995 35.5125 29.9999 35.7996C29.2884 36.1356 28.4968 36.2651 27.7154 36.1731C26.9339 36.0812 26.194 35.7716 25.5799 35.2796L15.3799 26.8596C14.9986 26.5291 14.6929 26.1206 14.4833 25.6617C14.2737 25.2027 14.1653 24.7041 14.1653 24.1996C14.1653 23.695 14.2737 23.1964 14.4833 22.7375C14.6929 22.2785 14.9986 21.87 15.3799 21.5396L25.5799 13.1196C26.194 12.6276 26.9339 12.3179 27.7154 12.226C28.4968 12.1341 29.2884 12.2635 29.9999 12.5996C30.5995 12.8867 31.1056 13.3377 31.4596 13.9005C31.8135 14.4632 32.0009 15.1147 31.9999 15.7796ZM27.9999 32.1996V16.3996L18.3599 24.1996L27.9999 32.1996Z" fill="#DEAD9C"/>
</svg>
