<svg width="393" height="68" viewBox="0 0 393 68" fill="none" xmlns="http://www.w3.org/2000/svg">
<path d="M81.4975 3.5H311.503L343 34L311.503 64.5H81.4975L50 34L81.4975 3.5Z" fill="#6B3B20"/>
<path d="M150.856 40.676H156.808V41.372H150.856V40.676ZM155.632 26.324H155.392L156.568 25.004L159.016 26.924C158.848 27.14 158.464 27.332 157.96 27.452V42.788C157.912 43.004 156.856 43.628 155.992 43.628H155.632V26.324ZM137.08 27.5H146.512V28.196H137.296L137.08 27.5ZM140.632 22.388L143.824 22.676C143.752 23.036 143.56 23.252 142.96 23.348C142.84 30.428 143.008 38.732 136.84 44.516L136.48 44.18C140.896 37.772 140.632 29.708 140.632 22.388ZM145.624 27.5H145.36L146.608 26.18L148.864 28.124C148.672 28.34 148.36 28.484 147.856 28.58C147.664 37.628 147.256 41.66 146.056 42.98C145.288 43.772 144.28 44.132 143.08 44.132C143.08 43.364 143.008 42.812 142.696 42.5C142.336 42.116 141.568 41.828 140.632 41.636L140.656 41.252C141.52 41.348 142.912 41.468 143.416 41.468C143.848 41.468 144.04 41.396 144.28 41.156C145.144 40.34 145.456 35.756 145.624 27.5ZM149.848 26.324V25.292L152.2 26.324H156.976V27.02H152.08V43.172C152.08 43.46 151.24 44.012 150.232 44.012H149.848V26.324ZM170.512 24.428L171.664 22.676L174.64 24.86C174.232 25.364 173.2 25.652 171.832 25.796L171.856 26.756C172.6 34.172 176.368 39.332 183.256 42.188L183.184 42.452C182.008 42.548 181.264 43.268 180.808 44.564C177.28 42.548 173.392 38.012 172.24 32.564C170.56 37.964 166.552 42.212 161.032 44.54L160.84 44.228C166.12 41.348 170.44 34.82 171.112 26.708L171.088 25.124H165.544L165.376 24.428H170.512ZM195.568 35.756H203.968V36.452H195.568V35.756ZM193.168 24.98H203.704L204.808 23.516C204.808 23.516 206.056 24.524 206.824 25.268C206.776 25.532 206.536 25.652 206.2 25.652H193.36L193.168 24.98ZM192.808 30.26H204.04L205.144 28.82C205.144 28.82 206.416 29.852 207.16 30.572C207.112 30.836 206.872 30.956 206.536 30.956H193L192.808 30.26ZM192.568 38.972H204.928L205.864 37.532C205.864 37.532 206.968 38.564 207.544 39.284C207.496 39.548 207.304 39.668 206.968 39.668H192.76L192.568 38.972ZM193.504 27.548H203.656L204.592 26.3C204.592 26.3 205.696 27.212 206.368 27.86C206.296 28.124 206.08 28.244 205.744 28.244H193.696L193.504 27.548ZM196.096 22.436L198.856 22.676C198.832 22.988 198.64 23.204 198.112 23.276V30.62H196.096V22.436ZM200.968 22.436L203.752 22.676C203.704 22.988 203.512 23.204 202.984 23.276V30.62H200.968V22.436ZM198.592 30.476H200.584V39.284H198.592V30.476ZM194.272 32.66V31.748L196.384 32.66H203.728V33.356H196.24V43.868C196.24 44.084 195.424 44.564 194.584 44.564H194.272V32.66ZM202.984 32.66H202.744L203.704 31.532L205.96 33.212C205.84 33.404 205.48 33.596 205.024 33.668V41.924C205.024 43.388 204.712 44.276 202.216 44.516C202.168 43.868 202.048 43.34 201.76 43.028C201.448 42.716 200.944 42.5 199.936 42.332V41.972C199.936 41.972 202.024 42.116 202.48 42.116C202.888 42.116 202.984 41.996 202.984 41.66V32.66ZM187.336 38.54L189.952 39.74C189.832 40.004 189.64 40.124 189.064 40.076C188.224 41.54 186.76 43.388 184.96 44.516L184.696 44.228C185.968 42.692 186.928 40.22 187.336 38.54ZM189.736 38.684C194.848 40.724 192.88 44.54 191.056 42.932C190.984 41.564 190.216 39.884 189.472 38.804L189.736 38.684ZM185.992 23.852V22.94L188.224 23.852H190.336L191.344 22.628L193.48 24.284C193.288 24.476 193.024 24.644 192.496 24.74V38.108C192.496 38.228 191.752 38.708 190.768 38.708H190.432V24.524H187.96V38.444C187.96 38.612 187.336 39.044 186.304 39.044H185.992V23.852ZM187.096 28.1H191.512V28.796H187.096V28.1ZM187.096 32.42H191.512V33.116H187.096V32.42ZM187.096 36.86H191.512V37.556H187.096V36.86ZM219.952 22.22L223.096 23.156C222.976 23.444 222.688 23.66 222.16 23.636C220.864 27.476 218.848 30.284 216.208 32.084L215.92 31.844C217.744 29.564 219.28 26.06 219.952 22.22ZM221.776 26.972H224.056C222.928 31.556 220.312 35.732 216.352 38.444L216.112 38.156C219.112 35.228 221.152 30.98 221.776 26.972ZM225.04 26.972H227.488C226.456 33.572 223.696 39.476 217.576 43.124L217.36 42.86C222.136 38.78 224.464 32.972 225.04 26.972ZM228.16 26.972H227.896L229.144 25.628L231.4 27.596C231.208 27.788 230.872 27.956 230.344 28.028C230.008 36.62 229.288 41.684 227.872 43.148C227.032 44.012 225.976 44.396 224.536 44.396C224.536 43.676 224.416 43.076 224.032 42.74C223.6 42.356 222.544 42.044 221.44 41.828V41.444C222.64 41.564 224.488 41.732 225.112 41.732C225.616 41.732 225.832 41.636 226.144 41.372C227.224 40.436 227.872 34.94 228.16 26.972ZM219.64 26.972H228.928V27.668H219.328L219.64 26.972ZM212.92 22.22L215.944 22.532C215.872 22.868 215.704 23.108 215.056 23.204V43.844C215.056 44.06 214.168 44.516 213.352 44.516H212.92V22.22ZM210.112 23.828L212.992 24.356C212.896 24.668 212.656 24.908 212.152 24.932C211.528 27.836 210.544 30.596 209.128 32.444L208.768 32.276C209.512 29.996 209.992 26.78 210.112 23.828ZM208.792 35.3C210.352 34.94 214.36 33.812 218.296 32.588L218.392 32.9C216.64 33.956 214.024 35.516 210.448 37.34C210.352 37.628 210.136 37.868 209.872 37.964L208.792 35.3ZM210.712 27.812H215.416L216.544 26.084C216.544 26.084 217.84 27.308 218.584 28.124C218.536 28.388 218.296 28.508 217.96 28.508H210.712V27.812ZM232.888 39.596H250.912L252.4 37.772C252.4 37.772 254.08 38.996 255.112 39.908C255.064 40.148 254.8 40.268 254.44 40.268H233.08L232.888 39.596ZM233.584 25.412H250.216L251.704 23.588C251.704 23.588 253.384 24.836 254.44 25.7C254.368 25.964 254.104 26.084 253.744 26.084H233.8L233.584 25.412ZM242.704 22.244L245.944 22.58C245.896 22.916 245.704 23.156 245.08 23.252V43.796C245.08 44.06 244.072 44.54 243.184 44.54H242.704V22.244ZM235.912 28.532V27.5L238.384 28.532H250.696V29.204H238.216V37.556C238.216 37.772 237.208 38.3 236.272 38.3H235.912V28.532ZM249.688 28.532H249.472L250.6 27.26L253.024 29.108C252.856 29.3 252.496 29.516 252.016 29.612V37.052C251.992 37.244 250.864 37.748 250.072 37.748H249.688V28.532ZM237.304 36.02H250.48V36.716H237.304V36.02ZM237.304 32.18H250.48V32.876H237.304V32.18Z" fill="white"/>
</svg>
