<svg width="393" height="68" viewBox="0 0 393 68" fill="none" xmlns="http://www.w3.org/2000/svg">
<path d="M81.4975 3.5H311.503L343 34L311.503 64.5H81.4975L50 34L81.4975 3.5Z" fill="#F1BFC1"/>
<path d="M164.992 41.612C164.992 43.124 164.608 44.132 162.064 44.372C162.016 43.724 161.896 43.22 161.56 42.908C161.224 42.572 160.672 42.332 159.568 42.164V41.852C159.568 41.852 161.896 41.996 162.376 41.996C162.784 41.996 162.88 41.876 162.88 41.564V31.988H164.992V41.612ZM170.992 34.988C170.872 35.156 170.512 35.3 170.056 35.108C169.264 35.708 167.68 36.668 166.336 37.34L166.12 37.124C167.008 35.972 168.184 34.1 168.664 33.14L170.992 34.988ZM165.688 22.964C165.592 23.3 165.256 23.468 164.752 23.468C164.2 24.068 163.312 24.956 162.712 25.532H162.016C162.16 24.692 162.352 23.18 162.472 22.196L165.688 22.964ZM160.264 34.652L161.416 33.524L163.384 35.228C163.24 35.444 162.976 35.516 162.472 35.54C161.392 38.876 159.184 41.78 155.128 43.436L154.936 43.124C158.128 41.18 159.856 38.036 160.504 34.652H160.264ZM161.152 34.652V35.348H157.288L157.072 34.652H161.152ZM164.8 32.588C165.856 37.388 168.688 39.644 171.472 40.964L171.424 41.228C170.584 41.396 169.984 42.14 169.696 43.124C167.008 40.868 165.352 38.156 164.56 32.684L164.8 32.588ZM167.92 31.7V32.396H159.832V31.7H167.92ZM167.896 28.508V29.204H159.832V28.508H167.896ZM158.536 24.404L160.816 25.316H167.08L168.088 24.14L170.128 25.724C169.984 25.916 169.744 26.06 169.24 26.156V33.044C169.24 33.164 168.544 33.548 167.512 33.548H167.152V26.012H160.528V33.332C160.528 33.476 159.904 33.884 158.872 33.884H158.536V24.404ZM158.056 27.644C157.912 27.932 157.408 28.124 156.664 27.764L157.36 27.596C155.968 29.852 152.728 33.452 150.088 35.444L150.04 35.156H151.12C150.952 36.476 150.472 37.196 149.896 37.364L149.008 34.82C149.008 34.82 149.584 34.724 149.8 34.556C151.792 32.804 154.528 28.484 155.512 26.084L158.056 27.644ZM155.704 23.636C155.584 23.948 155.128 24.164 154.336 23.876L155.056 23.708C154 25.508 151.888 28.196 150.136 29.684L150.112 29.396H151.216C151.096 30.644 150.664 31.364 150.16 31.58L149.152 29.084C149.152 29.084 149.608 28.988 149.776 28.844C150.952 27.548 152.464 24.116 152.944 22.292L155.704 23.636ZM151.192 37.7C151.912 40.316 151.432 42.26 150.688 43.148C150.208 43.772 149.104 43.892 148.72 43.22C148.384 42.644 148.696 42.02 149.248 41.588C149.968 40.916 150.808 39.236 150.784 37.676L151.192 37.7ZM154.6 36.572C158.968 38.492 157.288 41.78 155.728 40.436C155.68 39.212 154.984 37.652 154.312 36.692L154.6 36.572ZM152.8 37.172C156.232 40.532 154.096 43.94 152.704 42.212C152.992 40.604 152.8 38.636 152.464 37.268L152.8 37.172ZM154.576 31.748C159.04 34.364 157.288 37.796 155.704 36.332C155.632 34.892 154.936 33.068 154.264 31.892L154.576 31.748ZM149.584 34.796C150.832 34.748 153.712 34.508 156.592 34.244L156.616 34.604C155.344 35.084 152.872 36.02 150.256 36.836L149.584 34.796ZM149.584 29.156C150.64 29.204 152.92 29.204 155.104 29.156L155.128 29.516C154.24 29.876 152.344 30.596 150.376 31.22L149.584 29.156ZM181.984 22.532L185.344 22.868C185.296 23.204 185.104 23.444 184.48 23.54V42.956H181.984V22.532ZM183.376 31.46H189.088L190.6 29.54C190.6 29.54 192.304 30.836 193.336 31.772C193.264 32.036 193.024 32.156 192.664 32.156H183.376V31.46ZM172.816 42.572H190.84L192.376 40.652C192.376 40.652 194.104 41.948 195.184 42.884C195.112 43.148 194.848 43.268 194.488 43.268H173.032L172.816 42.572ZM201.64 38.516C203.344 41.396 205.912 41.78 210.76 41.78C212.68 41.78 217.336 41.78 219.376 41.708V42.02C218.512 42.212 218.08 43.028 218.056 43.988C216.472 43.988 212.392 43.988 210.712 43.988C205.6 43.988 203.032 42.98 201.376 38.684L201.64 38.516ZM203.56 29.252C202.744 30.548 200.8 33.308 199.72 34.7H199.912L199.12 35.372L197.344 33.956C197.704 33.74 198.328 33.5 198.76 33.428L197.872 34.1C199 32.732 200.992 29.828 201.784 28.388L203.56 29.252ZM201.472 28.46L202.552 27.356L204.784 29.348C204.376 29.78 203.104 29.804 202.048 29.66L201.76 28.46H201.472ZM201.856 34.1L203.08 32.876L205.192 34.7C205.048 34.94 204.808 35.012 204.256 35.036C203.152 38.66 200.848 42.308 196.84 44.54L196.624 44.252C199.552 41.708 201.4 37.748 202.096 34.1H201.856ZM202.384 28.46V29.156H197.32L197.104 28.46H202.384ZM203.44 34.1V34.796H199.048L199.336 34.1H203.44ZM198.568 22.268C204.808 23.204 203.368 27.692 201.112 26.372C200.728 25.004 199.432 23.396 198.352 22.46L198.568 22.268ZM216.76 23.468C216.64 23.732 216.352 23.948 215.824 23.924C214.84 25.604 213.544 27.188 212.248 28.244L211.888 28.028C212.536 26.636 213.208 24.404 213.664 22.412L216.76 23.468ZM212.416 28.268C212.248 34.076 212.032 38.084 204.616 40.628L204.352 40.244C209.968 37.388 209.872 33.548 209.92 28.268H212.416ZM206.536 22.676C212.224 24.332 210.304 28.484 208.288 26.876C208.12 25.508 207.184 23.852 206.296 22.82L206.536 22.676ZM212.584 34.436C219.832 37.172 218.128 42.14 215.848 40.436C215.488 38.492 213.76 36.092 212.32 34.604L212.584 34.436ZM215.968 26.18C215.968 26.18 217.36 27.332 218.176 28.172C218.104 28.436 217.864 28.556 217.528 28.556H205.6L205.408 27.86H214.744L215.968 26.18ZM216.448 30.956C216.448 30.956 217.96 32.108 218.896 32.924C218.824 33.188 218.584 33.308 218.272 33.308H204.976L204.784 32.612H215.104L216.448 30.956ZM240.352 40.316C240.256 40.58 239.944 40.772 239.44 40.724C238.768 41.468 237.664 42.452 236.68 43.22H236.224C236.752 42.164 237.376 40.532 237.736 39.38L240.352 40.316ZM231.688 39.572C236.008 41.012 233.776 43.916 232.216 42.428C232.216 41.492 231.808 40.412 231.424 39.692L231.688 39.572ZM239.728 38.18V38.876H231.112V38.18H239.728ZM230.104 34.412L232.384 35.324H238.816L239.776 34.196L241.792 35.708C241.672 35.924 241.432 36.044 240.976 36.116V39.14C240.976 39.236 240.256 39.596 239.224 39.596H238.864V36.02H232.12V39.356C232.12 39.5 231.496 39.884 230.44 39.884H230.104V34.412ZM241.048 41.084C241.048 41.084 242.536 42.284 243.376 43.124C243.304 43.388 243.088 43.508 242.752 43.508H227.68L227.488 42.812H239.8L241.048 41.084ZM241 31.868C241 31.868 242.248 32.804 243.04 33.524C242.968 33.788 242.728 33.908 242.416 33.908H228.568L228.376 33.212H239.896L241 31.868ZM238.504 22.436C238.456 22.724 238.264 22.916 237.784 22.988V31.316H236.2V22.196L238.504 22.436ZM235.24 22.436C235.192 22.7 235.024 22.892 234.568 22.964V31.316H233.008V22.196L235.24 22.436ZM240.28 31.004V31.7H230.368V31.004H240.28ZM229.456 23.972L231.712 24.908H239.488L240.448 23.756L242.512 25.316C242.368 25.508 242.128 25.652 241.624 25.724V31.772C241.624 31.892 240.904 32.252 239.92 32.252H239.56V25.604H231.448V32.084C231.448 32.228 230.824 32.612 229.792 32.612H229.456V23.972ZM240.304 27.884V28.58H230.344V27.884H240.304ZM223.336 22.148C228.808 23.636 226.456 27.356 224.56 25.676C224.44 24.524 223.744 23.156 223.096 22.292L223.336 22.148ZM226.144 43.796C226.144 43.988 225.448 44.564 224.416 44.564H224.032V33.14L226.144 31.316V43.796ZM225.664 32.18C230.656 33.764 229.12 37.196 227.464 35.9C227.272 34.7 226.312 33.236 225.4 32.348L225.664 32.18ZM225.712 27.068L227.008 25.844L229.168 27.932C228.952 28.124 228.664 28.172 228.112 28.22C226.816 31.364 224.104 35.012 221.032 37.196L220.768 36.98C223.144 34.244 225.28 30.164 226.024 27.068H225.712ZM227.248 27.068V27.764H221.272L221.056 27.068H227.248Z" fill="white"/>
</svg>
