<svg width="80" height="80" viewBox="0 0 80 80" fill="none" xmlns="http://www.w3.org/2000/svg">
<path d="M58.5306 21.5306L49.5306 30.5306C49.3899 30.6713 49.199 30.7503 49 30.7503C48.801 30.7503 48.6101 30.6713 48.4694 30.5306C48.3286 30.3898 48.2496 30.199 48.2496 29.9999C48.2496 29.8009 48.3286 29.61 48.4694 29.4693L56.1888 21.7499H46.9375C43.1122 21.7486 39.3951 23.0188 36.3705 25.3608C33.346 27.7028 31.1857 30.9836 30.2294 34.6874C30.1877 34.849 30.0933 34.992 29.9612 35.0938C29.8291 35.1957 29.6668 35.2506 29.5 35.2499C29.4367 35.2497 29.3737 35.2416 29.3125 35.2256C29.1201 35.1757 28.9554 35.0515 28.8545 34.8803C28.7536 34.7091 28.7248 34.5049 28.7744 34.3124C29.8119 30.2851 32.1598 26.7174 35.4482 24.1714C38.7367 21.6254 42.7787 20.2458 46.9375 20.2499H56.1925L48.4694 12.5306C48.3286 12.3898 48.2496 12.199 48.2496 11.9999C48.2496 11.8009 48.3286 11.61 48.4694 11.4693C48.6101 11.3286 48.801 11.2495 49 11.2495C49.199 11.2495 49.3899 11.3286 49.5306 11.4693L58.5306 20.4693C58.6004 20.539 58.6557 20.6217 58.6934 20.7127C58.7312 20.8038 58.7506 20.9014 58.7506 20.9999C58.7506 21.0985 58.7312 21.1961 58.6934 21.2871C58.6557 21.3782 58.6004 21.4609 58.5306 21.5306ZM52 41.2499H22.75V17.9999C22.75 17.801 22.671 17.6102 22.5303 17.4696C22.3897 17.3289 22.1989 17.2499 22 17.2499C21.8011 17.2499 21.6103 17.3289 21.4697 17.4696C21.329 17.6102 21.25 17.801 21.25 17.9999V41.9999C21.25 42.1988 21.329 42.3896 21.4697 42.5303C21.6103 42.6709 21.8011 42.7499 22 42.7499H52C52.1989 42.7499 52.3897 42.6709 52.5303 42.5303C52.671 42.3896 52.75 42.1988 52.75 41.9999C52.75 41.801 52.671 41.6102 52.5303 41.4696C52.3897 41.3289 52.1989 41.2499 52 41.2499Z" fill="#3F1A09"/>
<path d="M23.74 63.28H35.18V64.74H23.74V63.28ZM34.68 63.28H36.24C36.24 63.28 36.22 63.8 36.2 64C35.92 70.2 35.64 72.52 34.92 73.28C34.52 73.78 34.08 73.92 33.38 73.98C32.72 74.04 31.46 74.02 30.2 73.96C30.18 73.5 29.98 72.88 29.7 72.44C31.02 72.56 32.26 72.58 32.74 72.58C33.14 72.58 33.38 72.54 33.58 72.32C34.12 71.78 34.42 69.5 34.68 63.56V63.28ZM27.96 63.68H29.56C29.1 68.06 28.06 72.2 22.48 74.2C22.3 73.82 21.86 73.22 21.52 72.9C26.76 71.16 27.56 67.46 27.96 63.68ZM25.88 56.36L27.44 56.74C26.32 60.2 24.32 63.08 21.96 64.94C21.7 64.64 21.06 64.1 20.7 63.84C23.08 62.18 24.92 59.5 25.88 56.36ZM29.02 56.06H33.4V57.46H29.02V56.06ZM31.96 56.06H33.66C34.68 59.2 36.84 62.12 39.4 63.56C39.08 63.88 38.58 64.5 38.32 64.9C35.66 63.2 33.48 60.12 32.38 56.9H31.96V56.06ZM41.08 68.94H58.94V70.26H41.08V68.94ZM42.96 65.3H55.58V66.52H42.96V65.3ZM49.18 67.74H50.74V72.58C50.74 73.4 50.5 73.76 49.8 73.96C49.1 74.16 47.94 74.14 46.14 74.14C46.06 73.76 45.82 73.26 45.62 72.9C46.98 72.94 48.36 72.94 48.7 72.92C49.06 72.9 49.18 72.82 49.18 72.54V67.74ZM55.24 65.3H55.66L55.98 65.22L57 66.08C55.08 67.16 52.4 68.08 49.94 68.62C49.76 68.34 49.4 67.96 49.18 67.74C51.36 67.26 53.92 66.4 55.24 65.6V65.3ZM45.28 61.16V62.96H54.74V61.16H45.28ZM43.8 60.04H56.3V64.08H43.8V60.04ZM41.26 57.46H58.68V58.76H41.26V57.46ZM48.62 55.86L50.12 55.56C50.56 56.32 51.02 57.34 51.18 58L49.62 58.34C49.44 57.68 49.02 56.64 48.62 55.86Z" fill="#3F1A09"/>
</svg>
