<svg width="148" height="67" viewBox="0 0 148 67" fill="none" xmlns="http://www.w3.org/2000/svg">
<path d="M32.16 29.2V32.512L31.368 32.548L31.944 32.584V36.796H27.984V32.584L28.56 32.548L27.768 32.512V29.2H32.16ZM33.312 18.652C33.24 19.156 33.024 19.408 32.16 19.552V21.856H31.692V21.928H31.872V29.02C31.692 29.02 30.324 29.02 28.632 29.02H28.02V21.928H28.2V21.856H27.732V18.184L33.312 18.652ZM39.324 38.632C39.324 38.632 41.052 40.36 41.988 41.512C41.88 41.908 41.556 42.088 41.052 42.088H20.028L19.74 41.08H37.848L39.324 38.632ZM38.64 39.1C38.532 39.64 38.1 39.964 37.236 39.964C36.372 46.012 33.312 50.476 19.848 52.456L19.668 51.988C30.792 49 32.628 43.816 32.448 38.02L38.64 39.1ZM23.052 45.472C41.916 43.528 37.992 52.924 33.816 51.52C31.368 49.432 26.076 47.092 22.548 46.264L23.052 45.472ZM22.548 46.264C23.592 44.14 25.176 39.352 25.644 37.408L31.62 38.272C31.512 38.776 31.188 39.208 29.532 39.28L30.324 38.632C29.64 40.684 28.128 44.788 26.904 47.344L22.548 46.264ZM50.016 23.152C50.016 23.152 52.752 25.384 54.372 26.896C54.264 27.292 53.868 27.472 53.364 27.472H42.132V26.464H47.604L50.016 23.152ZM48.18 19.66C48.072 20.128 47.64 20.452 46.812 20.524C45.372 27.364 43.032 33.016 39.36 36.976L38.892 36.76C40.404 31.828 41.52 24.7 41.736 18.292L48.18 19.66ZM51.744 26.644C51.168 38.056 48.684 47.74 36.12 52.492L35.904 52.168C44.724 45.832 46.452 36.724 46.488 26.644H51.744ZM41.808 27.508C42.96 37.804 46.668 44.392 54.408 47.956L54.3 48.316C51.996 48.856 50.664 50.224 50.088 52.492C43.896 47.92 42.06 39.388 41.412 28.3L41.808 27.508ZM33.348 21.316L35.148 19.444L38.892 22.216C38.748 22.396 38.388 22.612 37.884 22.72V29.236C37.848 29.488 35.724 30.28 34.392 30.28H33.636V21.316H33.348ZM33.816 32.044L35.616 30.208L39.324 32.908C39.18 33.124 38.856 33.34 38.352 33.448V37.12C38.316 37.372 36.192 38.128 34.86 38.128H34.104V32.044H33.816ZM22.188 19.588L26.796 21.316H26.328V29.74C26.328 30.028 25.032 30.892 22.944 30.892H22.188V19.588ZM21.828 30.352L26.364 32.044H25.968V37.696C25.968 37.984 24.672 38.848 22.584 38.848H21.828V30.352ZM39.144 22.792C39.144 22.792 40.692 24.196 41.592 25.204C41.52 25.6 41.196 25.78 40.728 25.78H19.956L19.668 24.772H37.776L39.144 22.792ZM36.3 36.148V37.156H24.348V36.148H36.3ZM36.3 32.044V33.052H24.348V32.044H36.3ZM35.436 28.552V29.56H24.672V28.552H35.436ZM35.436 21.316V22.324H24.672V21.316H35.436ZM69.24 24.232H85.476V25.24H69.24V24.232ZM69.24 28.012H85.476V29.02H69.24V28.012ZM82.956 20.632H82.596L84.828 18.148L89.58 21.676C89.364 21.964 88.932 22.324 88.176 22.468V28.984C88.14 29.236 85.512 30.028 83.856 30.028H82.956V20.632ZM66.144 20.632V18.58L71.544 20.632H85.296V21.64H71.256V29.308C71.256 29.776 68.952 30.856 66.864 30.856H66.144V20.632ZM68.088 38.632H86.232V39.64H68.088V38.632ZM68.088 42.52H86.232V43.528H68.088V42.52ZM83.208 34.78H82.812L85.152 32.188L90.048 35.86C89.832 36.184 89.328 36.58 88.5 36.76V43.456C88.428 43.708 85.764 44.5 84.108 44.5H83.208V34.78ZM65.64 34.78V32.692L71.148 34.78H85.62V35.788H70.86V43.996C70.86 44.464 68.484 45.58 66.36 45.58H65.64V34.78ZM60.888 31.432H86.88L89.256 28.336C89.256 28.336 91.956 30.424 93.576 31.864C93.468 32.26 93.072 32.44 92.568 32.44H61.176L60.888 31.432ZM60.456 50.62H86.952L89.508 47.272C89.508 47.272 92.424 49.504 94.152 51.052C94.044 51.448 93.648 51.628 93.108 51.628H60.744L60.456 50.62ZM63.228 46.444H84.504L86.988 43.204C86.988 43.204 89.796 45.4 91.452 46.876C91.344 47.272 90.948 47.452 90.444 47.452H63.516L63.228 46.444ZM74.46 34.78H79.5V50.872H74.46V34.78Z" fill="#3F1A09"/>
<path d="M105.104 23.375L124.396 23.375C125.158 23.3739 125.904 23.5905 126.549 23.9999C127.193 24.4092 127.71 24.9945 128.039 25.6879C128.424 26.5107 128.572 27.4262 128.467 28.3299C128.362 29.2336 128.007 30.0893 127.443 30.7995L117.797 42.5953C117.419 43.0363 116.951 43.3899 116.425 43.6322C115.899 43.8746 115.328 44 114.75 44C114.172 44 113.601 43.8746 113.075 43.6322C112.549 43.3899 112.081 43.0363 111.703 42.5953L102.057 30.7995C101.493 30.0893 101.138 29.2336 101.033 28.3299C100.928 27.4262 101.076 26.5107 101.461 25.6879C101.79 24.9945 102.307 24.4092 102.951 23.9999C103.596 23.5905 104.342 23.3739 105.104 23.375ZM123.915 28.0008L105.814 28.0008L114.75 39.1491L123.915 28.0008Z" fill="#F1BFC1"/>
</svg>
