<svg width="148" height="67" viewBox="0 0 148 67" fill="none" xmlns="http://www.w3.org/2000/svg">
<path d="M33.384 30.424H50.484V31.432H33.384V30.424ZM30.972 21.316H46.704L49.332 18.04C49.332 18.04 52.32 20.236 54.156 21.748C54.048 22.144 53.616 22.324 53.112 22.324H31.26L30.972 21.316ZM36.804 21.316H41.016V30.856H36.804V21.316ZM42.312 21.316H46.524V30.856H42.312V21.316ZM34.392 43.888H48.936V44.896H34.392V43.888ZM34.392 36.904H48.936V37.912H34.392V36.904ZM34.392 40.36H48.936V41.368H34.392V40.36ZM37.308 45.22L43.176 48.424C42.852 48.856 42.168 49.108 40.944 48.928C38.28 50.512 33.492 51.808 29.136 52.384L28.992 52.024C32.232 50.332 35.688 47.38 37.308 45.22ZM42.6 46.156C61.14 46.66 52.176 55.3 48.396 51.448C47.496 49.972 45.66 47.956 42.456 46.552L42.6 46.156ZM23.196 30.136L25.032 27.688L29.352 29.272C29.244 29.632 28.956 29.848 28.236 29.992V50.98C28.164 51.34 26.112 52.42 24.132 52.42H23.196V30.136ZM25.5 18.22L32.52 20.272C32.376 20.74 31.908 21.028 31.08 21.028C28.272 28.372 24.456 33.916 19.596 37.84L19.2 37.588C21.684 32.8 24.276 25.204 25.5 18.22ZM30.684 25.132V23.188L35.868 25.132H50.736V26.14H35.58V31.576C35.58 32.008 33.348 33.016 31.368 33.016H30.684V25.132ZM32.268 33.52V31.54L37.38 33.52H49.08V34.528H37.164V45.58C37.164 46.012 35.004 47.092 32.988 47.092H32.268V33.52ZM47.82 25.132H47.496L49.62 22.864L54.048 26.14C53.904 26.356 53.544 26.608 52.932 26.752V31.324C52.896 31.612 50.34 32.404 48.72 32.404H47.82V25.132ZM46.236 33.52H45.876L48.108 31.144L52.608 34.528C52.428 34.78 52.032 35.104 51.348 35.248V45.292C51.312 45.58 48.828 46.552 47.136 46.552H46.236V33.52ZM73.776 20.38C73.596 20.848 73.128 21.136 72.3 21.136C69.276 28.696 65.136 33.844 59.736 37.408L59.376 37.156C62.292 32.584 65.244 25.276 66.54 18.184L73.776 20.38ZM70.428 29.236C70.32 29.56 70.032 29.812 69.312 29.956V50.944C69.24 51.34 67.116 52.42 65.064 52.42H64.092V30.136L66 27.616L70.428 29.236ZM77.124 18.292C89.22 20.308 84.216 29.632 79.428 25.708C79.248 23.116 78.132 20.416 76.872 18.472L77.124 18.292ZM91.74 31.108C91.596 31.612 91.236 31.972 90.336 32.008C88.752 36.76 85.728 44.068 82.236 49.648H81.84C83.136 43.672 84.216 35.176 84.684 29.38L91.74 31.108ZM73.128 30.028C86.304 41.692 78.168 51.592 75 45.976C75.18 41.836 74.928 35.284 72.732 30.244L73.128 30.028ZM89.364 45.256C89.364 45.256 92.568 47.812 94.44 49.504C94.332 49.9 93.936 50.08 93.396 50.08H69.888L69.6 49.072H86.52L89.364 45.256ZM89.004 23.62C89.004 23.62 92.064 25.996 93.864 27.616C93.756 28.012 93.324 28.192 92.82 28.192H70.68L70.392 27.184H86.304L89.004 23.62Z" fill="#3F1A09"/>
<path d="M123.896 43.625L104.604 43.625C103.842 43.6261 103.096 43.4095 102.451 43.0001C101.807 42.5908 101.29 42.0055 100.961 41.3121C100.576 40.4893 100.428 39.5738 100.533 38.6701C100.638 37.7664 100.993 36.9107 101.557 36.2005L111.203 24.4047C111.581 23.9637 112.049 23.6101 112.575 23.3678C113.101 23.1254 113.672 23 114.25 23C114.828 23 115.399 23.1254 115.925 23.3678C116.451 23.6101 116.919 23.9637 117.297 24.4047L126.943 36.2005C127.507 36.9107 127.862 37.7664 127.967 38.6701C128.072 39.5738 127.924 40.4893 127.539 41.3121C127.21 42.0055 126.693 42.5908 126.049 43.0001C125.404 43.4095 124.658 43.6261 123.896 43.625ZM105.085 38.9992L123.186 38.9992L114.25 27.8509L105.085 38.9992Z" fill="#F1BFC1"/>
</svg>
