<svg width="149" height="67" viewBox="0 0 149 67" fill="none" xmlns="http://www.w3.org/2000/svg">
<path d="M38.42 22.072L39.644 22.792V47.38L35.18 48.964L37.412 47.308C37.916 50.404 36.584 52.024 35.468 52.564L32.984 47.2C34.496 46.444 34.748 46.012 34.748 45.004V22.072H38.42ZM34.748 19.012L40.112 21.1H39.644V23.26C39.644 23.26 38.132 23.26 34.748 23.26V19.012ZM48.572 21.1V22.108H38.852V21.1H48.572ZM34.028 46.84C35.864 46.588 40.4 45.796 44.828 44.896L44.864 45.256C43.208 46.588 39.752 49.216 35.612 51.772L34.028 46.84ZM53.504 39.352C53.252 39.748 52.748 39.784 52.028 39.568C50.588 40.216 47.312 41.26 44.504 41.62L44.36 41.404C45.692 39.856 47.456 36.904 48.104 35.536L53.504 39.352ZM42.164 33.988C44.108 40.684 49.04 45.364 54.908 47.128L54.836 47.524C53.108 48.028 51.668 49.612 51.128 52.024C45.548 48.64 43.028 43.204 41.732 34.132L42.164 33.988ZM46.052 21.1L48.32 18.652L52.856 22.144C52.64 22.432 52.208 22.72 51.452 22.9V34.852C51.452 35.176 49.04 36.256 47.276 36.256H46.412V21.1H46.052ZM48.32 27.184V28.192H38.6V27.184H48.32ZM48.32 33.736V34.744H38.6V33.736H48.32ZM31.652 21.028V22.036H23.984V21.028H31.652ZM21.752 19.084L26.972 21.028H26.504V50.944C26.504 51.304 25.064 52.456 22.616 52.456H21.752V19.084ZM28.376 21.028L30.86 18.616L35.54 22.9C35.288 23.26 34.784 23.404 33.92 23.404C32.588 25.672 30.32 29.236 28.232 31.54C32.444 33.736 34.28 37.516 34.28 40.54C34.28 44.14 32.768 46.516 28.304 46.552C28.304 45.184 28.16 43.168 27.8 42.52C27.548 42.052 27.044 41.656 26.216 41.44V41.044C26.828 41.044 27.836 41.044 28.232 41.044C28.556 41.044 28.736 40.972 28.952 40.864C29.384 40.576 29.636 40.036 29.636 39.064C29.636 36.616 29.024 33.844 27.332 31.612C27.908 28.912 28.628 23.8 28.808 21.028H28.376ZM87.74 24.52L90.296 21.928L94.796 26.14C94.472 26.464 94.148 26.536 93.356 26.608C91.988 27.688 89.684 29.128 87.848 29.884L87.632 29.668C87.884 28.192 88.064 25.888 88.136 24.52H87.74ZM65.78 22.252C67.724 26.716 66.824 29.992 64.88 31.144C63.476 31.972 61.1 31.288 60.524 29.344C60.056 27.508 61.172 26.176 62.684 25.528C63.836 24.988 65.456 23.656 65.42 22.252H65.78ZM90.008 24.52V25.528H65.492V24.52H90.008ZM73.952 18.328C86.264 17.644 81.152 27.58 76.004 23.8C76.04 21.784 75.176 19.696 73.772 18.508L73.952 18.328ZM73.268 36.148C73.16 36.688 72.764 37.012 71.864 37.048C70.712 42.808 67.94 48.784 60.704 52.384L60.416 52.06C65.096 47.308 66.5 40.396 66.68 35.068L73.268 36.148ZM68.624 39.424C71.324 45.58 76.04 46.588 85.436 46.588C87.488 46.588 92.42 46.588 94.76 46.552V46.948C92.996 47.38 92.168 49.396 92.132 51.556C90.584 51.556 86.768 51.556 85.22 51.556C75.32 51.556 70.604 49.36 68.372 39.532L68.624 39.424ZM86.408 35.14C86.408 35.14 89.18 37.3 90.8 38.776C90.728 39.172 90.332 39.352 89.792 39.352H77.66V38.344H83.96L86.408 35.14ZM80.216 30.532V48.82L74.996 47.56V30.532H80.216ZM86.336 27.472C86.336 27.472 89.144 29.524 90.872 30.964C90.764 31.36 90.368 31.54 89.864 31.54H65.888L65.6 30.532H83.852L86.336 27.472Z" fill="#3F1A09"/>
<path d="M124.396 43.625L105.104 43.625C104.342 43.6261 103.596 43.4095 102.951 43.0001C102.307 42.5908 101.79 42.0055 101.461 41.3121C101.076 40.4893 100.928 39.5738 101.033 38.6701C101.138 37.7664 101.493 36.9107 102.057 36.2005L111.703 24.4047C112.081 23.9637 112.549 23.6101 113.075 23.3678C113.601 23.1254 114.172 23 114.75 23C115.328 23 115.899 23.1254 116.425 23.3678C116.951 23.6101 117.419 23.9637 117.797 24.4047L127.443 36.2005C128.007 36.9107 128.362 37.7664 128.467 38.6701C128.572 39.5738 128.424 40.4893 128.039 41.3121C127.71 42.0055 127.193 42.5908 126.549 43.0001C125.904 43.4095 125.158 43.6261 124.396 43.625ZM105.585 38.9992L123.686 38.9992L114.75 27.8509L105.585 38.9992Z" fill="#F1BFC1"/>
</svg>
