<svg width="148" height="67" viewBox="0 0 148 67" fill="none" xmlns="http://www.w3.org/2000/svg">
<path d="M37.92 22.072L39.144 22.792V47.38L34.68 48.964L36.912 47.308C37.416 50.404 36.084 52.024 34.968 52.564L32.484 47.2C33.996 46.444 34.248 46.012 34.248 45.004V22.072H37.92ZM34.248 19.012L39.612 21.1H39.144V23.26C39.144 23.26 37.632 23.26 34.248 23.26V19.012ZM48.072 21.1V22.108H38.352V21.1H48.072ZM33.528 46.84C35.364 46.588 39.9 45.796 44.328 44.896L44.364 45.256C42.708 46.588 39.252 49.216 35.112 51.772L33.528 46.84ZM53.004 39.352C52.752 39.748 52.248 39.784 51.528 39.568C50.088 40.216 46.812 41.26 44.004 41.62L43.86 41.404C45.192 39.856 46.956 36.904 47.604 35.536L53.004 39.352ZM41.664 33.988C43.608 40.684 48.54 45.364 54.408 47.128L54.336 47.524C52.608 48.028 51.168 49.612 50.628 52.024C45.048 48.64 42.528 43.204 41.232 34.132L41.664 33.988ZM45.552 21.1L47.82 18.652L52.356 22.144C52.14 22.432 51.708 22.72 50.952 22.9V34.852C50.952 35.176 48.54 36.256 46.776 36.256H45.912V21.1H45.552ZM47.82 27.184V28.192H38.1V27.184H47.82ZM47.82 33.736V34.744H38.1V33.736H47.82ZM31.152 21.028V22.036H23.484V21.028H31.152ZM21.252 19.084L26.472 21.028H26.004V50.944C26.004 51.304 24.564 52.456 22.116 52.456H21.252V19.084ZM27.876 21.028L30.36 18.616L35.04 22.9C34.788 23.26 34.284 23.404 33.42 23.404C32.088 25.672 29.82 29.236 27.732 31.54C31.944 33.736 33.78 37.516 33.78 40.54C33.78 44.14 32.268 46.516 27.804 46.552C27.804 45.184 27.66 43.168 27.3 42.52C27.048 42.052 26.544 41.656 25.716 41.44V41.044C26.328 41.044 27.336 41.044 27.732 41.044C28.056 41.044 28.236 40.972 28.452 40.864C28.884 40.576 29.136 40.036 29.136 39.064C29.136 36.616 28.524 33.844 26.832 31.612C27.408 28.912 28.128 23.8 28.308 21.028H27.876ZM87.24 24.52L89.796 21.928L94.296 26.14C93.972 26.464 93.648 26.536 92.856 26.608C91.488 27.688 89.184 29.128 87.348 29.884L87.132 29.668C87.384 28.192 87.564 25.888 87.636 24.52H87.24ZM65.28 22.252C67.224 26.716 66.324 29.992 64.38 31.144C62.976 31.972 60.6 31.288 60.024 29.344C59.556 27.508 60.672 26.176 62.184 25.528C63.336 24.988 64.956 23.656 64.92 22.252H65.28ZM89.508 24.52V25.528H64.992V24.52H89.508ZM73.452 18.328C85.764 17.644 80.652 27.58 75.504 23.8C75.54 21.784 74.676 19.696 73.272 18.508L73.452 18.328ZM72.768 36.148C72.66 36.688 72.264 37.012 71.364 37.048C70.212 42.808 67.44 48.784 60.204 52.384L59.916 52.06C64.596 47.308 66 40.396 66.18 35.068L72.768 36.148ZM68.124 39.424C70.824 45.58 75.54 46.588 84.936 46.588C86.988 46.588 91.92 46.588 94.26 46.552V46.948C92.496 47.38 91.668 49.396 91.632 51.556C90.084 51.556 86.268 51.556 84.72 51.556C74.82 51.556 70.104 49.36 67.872 39.532L68.124 39.424ZM85.908 35.14C85.908 35.14 88.68 37.3 90.3 38.776C90.228 39.172 89.832 39.352 89.292 39.352H77.16V38.344H83.46L85.908 35.14ZM79.716 30.532V48.82L74.496 47.56V30.532H79.716ZM85.836 27.472C85.836 27.472 88.644 29.524 90.372 30.964C90.264 31.36 89.868 31.54 89.364 31.54H65.388L65.1 30.532H83.352L85.836 27.472Z" fill="#3F1A09"/>
<path d="M105.104 23.375L124.396 23.375C125.158 23.3739 125.904 23.5905 126.549 23.9999C127.193 24.4092 127.71 24.9945 128.039 25.6879C128.424 26.5107 128.572 27.4262 128.467 28.3299C128.362 29.2336 128.007 30.0893 127.443 30.7995L117.797 42.5953C117.419 43.0363 116.951 43.3899 116.425 43.6322C115.899 43.8746 115.328 44 114.75 44C114.172 44 113.601 43.8746 113.075 43.6322C112.549 43.3899 112.081 43.0363 111.703 42.5953L102.057 30.7995C101.493 30.0893 101.138 29.2336 101.033 28.3299C100.928 27.4262 101.076 26.5107 101.461 25.6879C101.79 24.9945 102.307 24.4092 102.951 23.9999C103.596 23.5905 104.342 23.3739 105.104 23.375ZM123.915 28.0008L105.814 28.0008L114.75 39.1491L123.915 28.0008Z" fill="#F1BFC1"/>
</svg>
