<svg width="119" height="51" viewBox="0 0 119 51" fill="none" xmlns="http://www.w3.org/2000/svg">
<path d="M0 0H93.5C107.583 0 119 11.4167 119 25.5V25.5C119 39.5833 107.583 51 93.5 51H0V0Z" fill="#CCA568"/>
<path d="M25.4423 38V37.048L28.3823 36.6H29.2503L33.1983 37.048V38H25.4423ZM28.1863 38V17.896H29.2503L29.6423 31.56V38H28.1863ZM38.8543 18.036V17.084H46.6383V18.036L43.6983 18.456H42.8583L38.8543 18.036ZM41.4023 38.056L28.9143 20.024L28.8303 19.912L27.7383 18.26L25.6103 18.036V17.084H32.4983L43.3063 32.708L42.7463 32.904L42.6343 24.616V17.084H43.8663V38.056H41.4023ZM58.8233 38.476C54.0913 38.476 50.7593 35.536 50.7593 30.3C50.7593 25.092 54.5393 22.236 58.6553 22.236C62.9953 22.236 65.2633 25.064 65.2633 28.62C65.2633 29.32 65.2073 29.796 65.0673 30.328H52.6913V29.32H59.3273C60.6153 29.32 61.0073 28.676 61.0073 26.94C61.0073 24.448 59.9713 23.216 58.4593 23.216C56.8633 23.216 55.5473 25.092 55.5473 29.88C55.5473 34.556 57.6193 36.488 60.4193 36.488C62.4073 36.488 63.6393 35.648 64.5633 34.332L65.0953 34.696C63.9193 37.132 61.7353 38.476 58.8233 38.476ZM75.7895 38.056L70.3015 22.712H74.9495L78.5615 34.472L78.1695 34.5L78.2815 34.164L82.0055 22.712H84.3015L88.3335 34.5H87.8575L87.9695 34.192L91.3855 22.712H92.7295L87.4375 38.056H85.5055L81.2775 25.652H82.1735L81.9495 26.268L77.6935 38.056H75.7895ZM69.2935 23.552V22.712H77.5535V23.552L73.8015 23.888H72.2615L69.2935 23.552ZM79.6535 23.552V22.712H86.9335V23.552L83.9095 23.888H82.7055L79.6535 23.552ZM88.6415 23.552V22.712H94.4375V23.552L92.0015 23.888H91.5255L88.6415 23.552Z" fill="white"/>
</svg>
