<svg width="70" height="34" viewBox="0 0 70 34" fill="none" xmlns="http://www.w3.org/2000/svg">
<path d="M7.14 20.256C8.1 20.136 10.524 19.776 12.876 19.344L12.9 19.536C12.18 20.4 10.908 21.768 9.108 23.448C8.988 23.784 8.7 24.048 8.388 24.12L7.14 20.256ZM11.364 6.72L15.468 7.104C15.42 7.44 15.228 7.704 14.604 7.8V18.144C14.556 23.448 12.54 27.312 6.372 29.328L6.228 29.112C10.092 26.448 11.364 22.92 11.364 18.144V6.72ZM15.996 6.72L20.22 7.128C20.172 7.464 19.98 7.728 19.332 7.824V28.128C19.332 28.464 17.892 29.28 16.62 29.28H15.996V6.72ZM8.796 11.448H13.668V12.12H9.012L8.796 11.448ZM8.676 16.128H13.212V16.8H8.892L8.676 16.128ZM17.868 11.448H19.596L21.06 9.264C21.06 9.264 22.692 10.752 23.604 11.736C23.556 12 23.292 12.12 22.956 12.12H17.868V11.448ZM17.868 16.272H19.5L20.892 14.136C20.892 14.136 22.5 15.6 23.388 16.56C23.316 16.824 23.076 16.944 22.74 16.944H17.868V16.272ZM17.988 21.744H19.716L21.204 19.488C21.204 19.488 22.908 21.024 23.844 22.032C23.772 22.296 23.532 22.416 23.172 22.416H17.988V21.744ZM0.683999 12.264H6.228L7.476 9.936C7.476 9.936 8.892 11.568 9.564 12.552C9.516 12.816 9.276 12.936 8.94 12.936H0.876L0.683999 12.264ZM3.156 6.456L7.164 6.84C7.116 7.2 6.876 7.44 6.276 7.512V25.704C6.276 27.864 5.844 29.016 2.604 29.304C2.556 28.296 2.46 27.552 2.172 27.072C1.884 26.592 1.476 26.256 0.491999 26.064V25.752C0.491999 25.752 2.292 25.872 2.724 25.872C3.06 25.872 3.156 25.752 3.156 25.512V6.456ZM0.371999 17.904C1.716 17.616 5.34 16.632 8.724 15.6L8.796 15.816C7.5 16.968 5.364 18.792 2.316 20.952C2.22 21.288 1.956 21.576 1.668 21.696L0.371999 17.904ZM37.164 6.456C45.084 6.576 42.3 12.744 39.036 10.608C38.772 9.12 37.884 7.584 37.02 6.576L37.164 6.456ZM29.292 10.488V9.384L33.276 10.728H32.772V16.824C32.772 20.808 32.508 26.04 27.492 29.352L27.3 29.208C29.22 25.584 29.292 20.928 29.292 16.824V10.488ZM47.436 8.448C47.436 8.448 49.308 9.984 50.388 11.016C50.316 11.28 50.052 11.4 49.716 11.4H31.26V10.728H45.78L47.436 8.448ZM36.636 14.928C43.908 14.28 42.996 19.776 40.068 18.744C39.372 17.424 37.764 15.912 36.468 15.12L36.636 14.928ZM42.276 25.584C42.276 27.768 41.7 29.16 37.908 29.4C37.86 28.344 37.74 27.576 37.308 27.096C36.9 26.64 36.396 26.256 35.004 26.016V25.728C35.004 25.728 37.716 25.896 38.268 25.896C38.628 25.896 38.748 25.752 38.748 25.512V18.888H42.276V25.584ZM45.756 18.888L47.412 17.256L50.244 19.92C50.028 20.136 49.788 20.208 49.284 20.232C48.204 21.288 46.356 22.68 44.892 23.472L44.7 23.328C45.204 22.08 45.804 20.088 46.044 18.888H45.756ZM43.332 13.08L45.18 11.352L48.156 14.184C47.94 14.4 47.7 14.472 47.172 14.496C45.396 15.48 42.396 16.608 40.284 17.184L40.14 17.04C41.316 15.96 42.876 14.208 43.62 13.08H43.332ZM46.884 18.888V19.56H33.3L33.084 18.888H46.884ZM44.844 13.08V13.752H34.236L34.02 13.08H44.844Z" fill="#3F1A09"/>
<path d="M64.8067 11.1667H59.1934C58.9718 11.167 58.7546 11.1045 58.567 10.9866C58.3794 10.8686 58.2291 10.6999 58.1334 10.5C58.0214 10.2628 57.9782 9.99898 58.0089 9.73849C58.0395 9.478 58.1427 9.23136 58.3067 9.02667L61.1134 5.62667C61.2235 5.49959 61.3597 5.39766 61.5127 5.32781C61.6657 5.25795 61.8319 5.2218 62 5.2218C62.1682 5.2218 62.3344 5.25795 62.4874 5.32781C62.6404 5.39766 62.7766 5.49959 62.8867 5.62667L65.6934 9.02667C65.8574 9.23136 65.9606 9.478 65.9912 9.73849C66.0219 9.99898 65.9787 10.2628 65.8667 10.5C65.771 10.6999 65.6207 10.8686 65.4331 10.9866C65.2455 11.1045 65.0283 11.167 64.8067 11.1667ZM59.3334 9.83334H64.6L62 6.62001L59.3334 9.83334Z" fill="#F1BFC1"/>
<path d="M59.1933 22.8333H64.8066C65.0282 22.833 65.2454 22.8955 65.433 23.0134C65.6206 23.1314 65.7709 23.3001 65.8666 23.5C65.9786 23.7372 66.0218 24.001 65.9911 24.2615C65.9605 24.522 65.8573 24.7686 65.6933 24.9733L62.8866 28.3733C62.7765 28.5004 62.6403 28.6023 62.4873 28.6722C62.3343 28.742 62.1681 28.7782 62 28.7782C61.8318 28.7782 61.6656 28.742 61.5126 28.6722C61.3596 28.6023 61.2234 28.5004 61.1133 28.3733L58.3066 24.9733C58.1426 24.7686 58.0394 24.522 58.0088 24.2615C57.9781 24.001 58.0213 23.7372 58.1333 23.5C58.229 23.3001 58.3793 23.1314 58.5669 23.0134C58.7545 22.8955 58.9717 22.833 59.1933 22.8333ZM64.6666 24.1667H59.4L62 27.38L64.6666 24.1667Z" fill="#F1BFC1"/>
</svg>
