<svg width="538" height="114" viewBox="0 0 538 114" fill="none" xmlns="http://www.w3.org/2000/svg">
<path d="M177 40L391.22 40L410 67.5L391.22 95L177 95V40Z" fill="white"/>
<path d="M177 40L391.22 40L410 67.5L391.22 95L177 95V40Z" fill="#EDB8B8" fill-opacity="0.5"/>
<path d="M309.94 90.16H319.9V91H309.94V90.16ZM309.94 97.21H319.9V98.05H309.94V97.21ZM309.91 104.56H319.87V105.4H309.91V104.56ZM295.21 88H303.4L305.05 85.33C305.05 85.33 306.88 87.19 307.87 88.36C307.78 88.69 307.48 88.84 307.06 88.84H295.45L295.21 88ZM298.9 88H303.04V88.48C301.81 93.85 298.96 98.32 294.82 101.68L294.46 101.38C296.77 97.81 298.21 92.62 298.9 88ZM299.11 80.44L304.42 80.95C304.36 81.4 304.15 81.7 303.31 81.82V107.71C303.31 108.04 301.54 108.88 299.95 108.88H299.11V80.44ZM303.31 91.42C310.84 93.58 307.27 99.16 304.42 96.55C304.36 94.84 303.7 92.92 303.01 91.57L303.31 91.42ZM307.9 83.14V81.34L312.31 83.14H319.72V83.95H312.16V107.05C312.16 107.62 310.51 108.67 308.59 108.67H307.9V83.14ZM317.53 83.14H317.23L319.24 80.92L323.08 84.01C322.87 84.28 322.51 84.52 321.88 84.67V107.2C321.85 107.5 319.84 108.49 318.22 108.49H317.53V83.14ZM351.16 93.07C350.95 93.37 350.35 93.58 349.45 93.07L350.35 92.98C348.94 94.12 345.91 95.86 343.45 96.7L343.42 96.37H344.44C344.32 97.57 343.9 98.2 343.45 98.38L342.34 96.01C342.34 96.01 342.79 95.89 343.03 95.8C344.98 94.96 347.44 92.35 348.37 91.03L351.16 93.07ZM348.31 91.06C348.13 91.36 347.59 91.66 346.6 91.24L347.53 91.12C346.51 92.02 344.59 93.28 343.12 93.88V93.52H344.14C344.02 94.72 343.6 95.32 343.15 95.5L342.07 93.16C342.07 93.16 342.43 93.07 342.64 92.98C343.66 92.41 344.86 90.34 345.25 89.38L348.31 91.06ZM342.85 96.01C344.11 96.01 346.96 95.86 349.75 95.68L349.78 96.16C348.58 96.58 346.03 97.45 343.57 98.17L342.85 96.01ZM342.4 93.19C343.45 93.22 345.76 93.22 347.89 93.19V93.67C347.08 93.97 344.98 94.57 343.15 95.05L342.4 93.19ZM348.58 94.51C352.78 96.55 350.53 99.52 348.97 97.96C348.97 96.88 348.58 95.5 348.22 94.66L348.58 94.51ZM351.28 98.71C351.22 99.04 351.04 99.28 350.41 99.4V103.45C350.41 103.66 349.21 104.08 348.22 104.08H347.74V98.38L351.28 98.71ZM349.15 102.04V102.88H344.77V102.04H349.15ZM340.99 102.01V102.85H336.76V102.01H340.99ZM347.17 98.62C347.11 99.04 346.84 99.34 346.06 99.46V106.72C346.06 106.96 344.77 107.41 343.63 107.41H343.12V98.26L347.17 98.62ZM343.33 98.65C343.27 99.04 343.06 99.31 342.37 99.4V101.14C342.28 103.54 341.14 106.3 335.14 107.71L334.9 107.38C338.8 105.7 339.52 103.24 339.52 101.08V98.29L343.33 98.65ZM338.92 98.89C338.86 99.28 338.62 99.52 337.96 99.64V100.81H335.26V98.5L338.92 98.89ZM337.33 99.88L337.96 100.27V102.85H338.2L337.21 104.23L334.15 102.49C334.51 102.1 335.26 101.62 335.77 101.44L335.26 102.52V99.88H337.33ZM342.67 93.1C342.49 93.4 341.89 93.61 340.99 93.1L341.89 93.01C340.54 94.27 337.75 96.16 335.5 97.15L335.47 96.79H336.49C336.4 97.99 335.95 98.62 335.5 98.8L334.42 96.43C334.42 96.43 334.87 96.34 335.08 96.22C336.82 95.29 339.04 92.5 339.85 91.09L342.67 93.1ZM340.81 90.97C340.66 91.3 340.12 91.57 339.13 91.15L340.03 91.03C338.95 91.96 336.88 93.22 335.29 93.82L335.26 93.46H336.28C336.19 94.66 335.74 95.26 335.32 95.44L334.24 93.1C334.24 93.1 334.6 93.01 334.81 92.92C335.95 92.32 337.33 90.25 337.78 89.29L340.81 90.97ZM334.99 96.43C336.16 96.43 338.77 96.31 341.26 96.13L341.29 96.61C340.27 97 337.9 97.84 335.71 98.53L334.99 96.43ZM334.69 93.16C335.71 93.19 337.93 93.19 339.94 93.16V93.64C339.19 93.91 337.15 94.54 335.44 95.02L334.69 93.16ZM340.03 94.48C344.38 96.34 342.25 99.4 340.66 97.93C340.6 96.82 340.12 95.47 339.67 94.63L340.03 94.48ZM353.47 88.54V89.38H345.37V88.54H353.47ZM353.47 85.54V86.38H345.37V85.54H353.47ZM340.15 88.57V89.41H331.78V88.57H340.15ZM340.15 85.54V86.38H331.78V85.54H340.15ZM337.33 82.51L338.95 80.77L342.34 83.29C342.16 83.5 341.8 83.77 341.23 83.86V89.89C341.2 90.1 339.4 90.73 338.26 90.73H337.63V82.51H337.33ZM351.19 82.51L352.93 80.5L356.59 83.35C356.38 83.59 355.99 83.86 355.39 83.98V104.17C355.39 106.81 354.79 108.25 350.41 108.64C350.29 107.38 350.11 106.45 349.6 105.88C349.06 105.31 348.4 104.86 346.78 104.59V104.17C346.78 104.17 350.14 104.38 350.83 104.38C351.34 104.38 351.49 104.17 351.49 103.75V82.51H351.19ZM347.32 89.53C347.32 89.86 345.64 90.67 344.11 90.67H343.57V81.01L347.47 82.51H353.59V83.35H347.32V89.53ZM333.88 107.41C333.88 107.92 332.44 108.88 330.7 108.88H330.04V80.83L334.03 82.51H340.09V83.35H333.88V107.41ZM369.76 95.35V93.76L373.87 95.35H379.27V96.19H373.75V103.63C373.75 103.99 371.98 104.86 370.33 104.86H369.76V95.35ZM372.22 101.56H380.02V102.4H372.22V101.56ZM378.31 95.35H378.01L379.81 93.46L383.44 96.19C383.26 96.4 382.93 96.64 382.36 96.76V103.12C382.33 103.39 380.38 104.2 379.03 104.2H378.31V95.35ZM363.25 82.6V80.83L367.45 82.6H372.34V83.44H367.33V107.32C367.33 107.83 365.8 108.85 363.94 108.85H363.25V82.6ZM377.05 82.6V81.01L381.13 82.6H386.32V83.44H380.98V91.48C380.98 91.84 379.27 92.71 377.62 92.71H377.05V82.6ZM385 82.6H384.7L386.56 80.47L390.34 83.47C390.13 83.71 389.77 83.98 389.17 84.1V104.35C389.17 106.99 388.57 108.31 384.34 108.64C384.28 107.44 384.16 106.54 383.8 106.03C383.44 105.52 382.99 105.1 381.7 104.86V104.47C381.7 104.47 383.92 104.62 384.46 104.62C384.91 104.62 385 104.38 385 104.05V82.6ZM371.29 82.6H370.99L372.73 80.74L376.3 83.41C376.12 83.62 375.79 83.89 375.22 83.98V92.17C375.19 92.38 373.24 93.07 371.98 93.07H371.29V82.6ZM365.59 86.26H372.55V87.1H365.59V86.26ZM365.59 89.98H372.55V90.82H365.59V89.98ZM379.51 86.26H386.47V87.1H379.51V86.26ZM379.51 89.98H386.47V90.82H379.51V89.98ZM405.01 82.42H404.68L406.48 80.41L410.29 83.29C410.11 83.53 409.69 83.83 409 83.98V91.87C408.97 92.11 406.99 92.77 405.7 92.77H405.01V82.42ZM397.33 82.42V80.86L401.38 82.42H406.93V83.26H401.23V92.14C401.23 92.5 399.52 93.37 397.9 93.37H397.33V82.42ZM400.09 86.5H407.17V87.34H400.09V86.5ZM400.09 90.52H407.17V91.36H400.09V90.52ZM395.53 94.15H405.97L407.83 91.69C407.83 91.69 409.93 93.37 411.16 94.51C411.07 94.84 410.77 94.99 410.35 94.99H395.77L395.53 94.15ZM401.53 94.15H405.43V105.73L401.53 103.54V94.15ZM403.15 99.19H405.73L407.38 96.7C407.38 96.7 409.27 98.41 410.29 99.55C410.23 99.88 409.9 100.03 409.51 100.03H403.15V99.19ZM398.8 99.28C401.08 104.08 404.71 104.68 412.12 104.68C414.82 104.68 421.42 104.68 424.3 104.62V104.95C422.86 105.31 422.17 106.72 422.11 108.22C419.92 108.22 414.28 108.22 412.03 108.22C404.17 108.22 400.54 106.6 398.53 99.43L398.8 99.28ZM408.94 82.54H419.38L421.15 80.26C421.15 80.26 423.13 81.82 424.33 82.9C424.24 83.23 423.94 83.38 423.52 83.38H409.18L408.94 82.54ZM412.87 89.95H419.68V90.79H412.87V89.95ZM412.99 93.79H419.8V94.63H412.99V93.79ZM412.84 97.63H419.8V98.47H412.84V97.63ZM410.8 86.11V84.49L414.88 86.11H419.98V86.95H414.73V98.68C414.73 99.1 413.08 99.97 411.37 99.97H410.8V86.11ZM418.06 86.11H417.79L419.53 84.25L423.04 86.92C422.89 87.1 422.59 87.31 422.11 87.4V98.35C422.08 98.59 420.1 99.37 418.75 99.37H418.06V86.11ZM412.6 98.71L417.4 100.93C417.19 101.29 416.71 101.5 415.72 101.41C414.13 102.76 411.31 103.78 408.13 104.23L408.01 103.9C410.11 102.67 411.85 100.45 412.6 98.71ZM414.25 82.54H418.9C418.18 83.65 416.98 85.36 416.05 86.32H414.1C414.19 85.21 414.28 83.47 414.25 82.54ZM416.65 99.28C428.83 99.85 422.56 106.45 420.04 103.3C419.59 102.13 418.57 100.69 416.5 99.64L416.65 99.28ZM397.3 96.85L401.95 97.21C401.89 97.69 401.59 97.99 400.84 98.08C400.45 101.89 399.22 106.24 395.83 108.88L395.59 108.55C397.18 105.37 397.51 100.51 397.3 96.85Z" fill="#3F1A09"/>
<path d="M196.696 67.12C189.304 67.12 185.828 62.5 185.828 57.132V56.78H192.956C192.34 61.796 194.936 64.92 199.16 64.92C200.436 64.92 201.404 64.788 202.636 64.216L203.164 65.492C201.404 66.504 199.072 67.12 196.696 67.12ZM189.568 57.88C181.296 57.88 173.948 52.028 173.948 40.544C173.948 29.192 181.296 23.252 189.568 23.252C197.84 23.252 205.144 29.148 205.144 40.544C205.144 51.984 197.884 57.88 189.568 57.88ZM189.568 56.208C194.936 56.208 197.312 49.608 197.312 40.544C197.312 31.568 194.936 24.924 189.568 24.924C184.2 24.924 181.78 31.568 181.78 40.544C181.78 49.608 184.2 56.208 189.568 56.208ZM223.885 57.748C217.241 57.748 213.764 53.656 213.764 48.992C213.764 44.944 216.185 41.688 222.653 39.224V38.96L222.961 39.752C220.629 41.952 219.793 44.24 219.793 46.66C219.793 51.148 222.829 54.052 227.141 54.052C229.605 54.052 231.497 53.26 233.213 51.764L234.445 52.38H233.917C232.025 55.152 228.681 57.748 223.885 57.748ZM237.172 49.74L235.985 49.08H236.381C238.581 45.472 239.769 41.644 240.341 36.848H243.509C241.969 42.436 240.737 45.384 237.172 49.74ZM241.265 37.816L236.161 37.112V35.88H246.853V37.112L242.233 37.816H241.265ZM241.925 57.66C239.197 57.66 237.129 57.088 235.061 55.24C232.025 52.424 229.517 49.256 227.229 46.572C223.973 42.612 222.521 40.764 220.937 38.916C218.78 36.1 217.945 33.724 217.945 31.26C217.945 26.508 221.641 23.516 227.053 23.516C232.465 23.516 235.457 26.112 235.457 29.94C235.457 33.504 232.817 35.924 227.405 38.168V38.476L226.833 37.464C229.209 35 230.573 32.536 230.573 29.676C230.573 26.904 229.253 25.408 227.009 25.408C224.809 25.408 223.269 27.036 223.269 29.412C223.269 30.908 223.665 32.404 225.205 34.56C226.481 36.232 227.757 37.64 231.805 42.084C236.997 47.76 239.637 50.488 244.917 55.856L242.189 55.152L246.765 55.724L246.677 57C244.565 57.484 243.333 57.66 241.925 57.66ZM254.087 57V55.504L258.487 54.844H259.323L264.119 55.504V57H254.087ZM257.079 57L268.123 24H272.699L283.963 57H276.351L267.287 28.532H268.211L268.079 29.148L259.411 57H257.079ZM262.007 46.572L262.403 45.032H276.659L277.055 46.572H262.007ZM271.423 57V55.46L277.407 54.8H280.135L286.427 55.46V57H271.423Z" fill="#CFB286"/>
</svg>
