<svg width="39" height="66" viewBox="0 0 39 66" fill="none" xmlns="http://www.w3.org/2000/svg">
<g clip-path="url(#clip0_856_3390)">
<path d="M0 0H29C34.5228 0 39 4.47715 39 10V56C39 61.5228 34.5228 66 29 66H0V0Z" fill="white"/>
<path d="M0 0H29C34.5228 0 39 4.47715 39 10V56C39 61.5228 34.5228 66 29 66H0V0Z" fill="#EBDAC6" fill-opacity="0.3"/>
<path d="M28.8346 24.5777V41.4177C28.8356 42.0825 28.6482 42.734 28.2943 43.2968C27.9403 43.8595 27.4343 44.3106 26.8346 44.5977C26.1231 44.9337 25.3315 45.0632 24.5501 44.9712C23.7686 44.8793 23.0287 44.5697 22.4146 44.0777L12.2146 35.6577C11.8334 35.3272 11.5276 34.9187 11.318 34.4598C11.1085 34.0008 11 33.5022 11 32.9977C11 32.4931 11.1085 31.9945 11.318 31.5356C11.5276 31.0766 11.8334 30.6681 12.2146 30.3377L22.4146 21.9177C23.0287 21.4257 23.7686 21.116 24.5501 21.0241C25.3315 20.9322 26.1231 21.0616 26.8346 21.3977C27.4343 21.6848 27.9403 22.1358 28.2943 22.6986C28.6482 23.2613 28.8356 23.9128 28.8346 24.5777ZM24.8346 40.9977V25.1977L15.1946 32.9977L24.8346 40.9977Z" fill="#EACEB1"/>
<rect x="35" y="7" width="4" height="53" rx="2" fill="#CCA568" fill-opacity="0.3"/>
</g>
<defs>
<clipPath id="clip0_856_3390">
<path d="M0 0H29C34.5228 0 39 4.47715 39 10V56C39 61.5228 34.5228 66 29 66H0V0Z" fill="white"/>
</clipPath>
</defs>
</svg>
