<svg width="102" height="117" viewBox="0 0 102 117" fill="none" xmlns="http://www.w3.org/2000/svg">
<circle cx="51" cy="48.533" r="40.511" fill="#B9C7DA"/>
<path d="M33.756 95.1121H49.776V96.2821H33.756V95.1121ZM43.512 99.1441H49.542V100.242H43.512V99.1441ZM43.206 102.564H49.128V103.662H43.206V102.564ZM38.004 93.9421H39.336V97.3261H38.004V93.9421ZM37.788 97.9741H38.94V100.062H37.788V97.9741ZM37.788 101.826H38.94V103.914H37.788V101.826ZM44.034 93.9421H45.366V97.3261H44.034V93.9421ZM33.666 108.792H49.812V109.944H33.666V108.792ZM35.61 105.084H48.066V109.386H46.752V106.146H44.214V109.386H43.044V106.146H40.524V109.386H39.354V106.146H36.87V109.386H35.61V105.084ZM43.926 97.3981L45.168 97.6861C44.61 99.3781 43.674 101.034 42.648 102.096C42.432 101.898 41.91 101.538 41.604 101.376C42.612 100.386 43.458 98.9101 43.926 97.3981ZM35.214 99.5221H41.46V102.366H35.214V101.538H40.344V100.35H35.214V99.5221ZM41.91 97.6321V98.5321H35.718V103.41H42.036V104.31H34.584V97.6321H41.91ZM54.834 102.924H66.138V104.166H54.834V102.924ZM59.73 98.8921H61.08V103.554H59.73V98.8921ZM54.78 98.4061H67.056V104.958H65.688V99.6301H54.78V98.4061ZM54.096 98.4061H55.446V107.622C55.446 108.774 55.824 109.026 57.804 109.026C58.758 109.026 63.69 109.026 64.896 109.026C66.642 109.026 66.93 108.558 67.146 106.344C67.488 106.578 68.064 106.776 68.478 106.848C68.172 109.512 67.614 110.304 64.932 110.304C64.212 110.304 58.56 110.304 57.894 110.304C54.978 110.304 54.096 109.782 54.096 107.622V98.4061ZM57.102 95.1301H62.754V96.3361H56.49L57.102 95.1301ZM57.138 93.8701L58.632 94.1581C57.354 96.3001 55.482 98.6761 52.89 100.566C52.674 100.242 52.224 99.7921 51.9 99.5761C54.348 97.9201 56.166 95.6881 57.138 93.8701ZM62.16 95.1301H62.466L62.736 95.0581L63.654 95.6521C62.952 97.0381 61.89 98.5861 60.972 99.5581C60.774 99.2881 60.36 98.8921 60.108 98.6941C60.882 97.8301 61.746 96.4081 62.16 95.4001V95.1301Z" fill="#3F1A09"/>
</svg>
