<svg width="125" height="49" viewBox="0 0 125 49" fill="none" xmlns="http://www.w3.org/2000/svg">
<path d="M6.04 15.7515H30.96V17.8795H6.04V15.7515ZM16.82 17.4315H19.032V39.4115H16.82V17.4315ZM18.052 24.0675L19.424 22.4435C22.784 24.0675 27.208 26.6155 29.448 28.2955L27.964 30.1995C25.808 28.4635 21.44 25.8035 18.052 24.0675ZM33.732 25.1315H59.352V27.4275H33.732V25.1315ZM68.648 25.4395L70.664 26.1395C69.124 28.7435 66.716 31.3755 64.56 33.1115C64.224 32.6915 63.44 31.8795 62.964 31.5155C65.092 30.0315 67.332 27.7635 68.648 25.4395ZM82.564 25.6915L84.552 26.6435C80.856 33.9235 73.744 37.6755 63.02 39.2995C62.796 38.6835 62.376 37.8435 61.928 37.3115C72.316 35.9115 79.204 32.4395 82.564 25.6915ZM62.152 22.2475H86.708V24.2635H62.152V22.2475ZM75.116 16.6755H84.16V18.6635H75.116V16.6755ZM73.688 13.7075H75.928V23.3395H73.688V13.7075ZM66.352 15.8635H68.48V23.2275H66.352V15.8635ZM73.52 23.7315H75.732V33.1115H73.52V23.7315Z" fill="#3F1A09"/>
<path d="M93.0001 32.6194V15.7794C92.9991 15.1145 93.1865 14.463 93.5404 13.9002C93.8944 13.3375 94.4005 12.8864 95.0001 12.5994C95.7116 12.2633 96.5032 12.1339 97.2846 12.2258C98.0661 12.3177 98.806 12.6273 99.4201 13.1194L109.62 21.5394C110.001 21.8698 110.307 22.2783 110.517 22.7373C110.726 23.1962 110.835 23.6948 110.835 24.1994C110.835 24.7039 110.726 25.2025 110.517 25.6615C110.307 26.1204 110.001 26.5289 109.62 26.8594L99.4201 35.2794C98.806 35.7714 98.0661 36.081 97.2846 36.1729C96.5032 36.2649 95.7116 36.1354 95.0001 35.7994C94.4005 35.5123 93.8944 35.0612 93.5404 34.4985C93.1865 33.9357 92.9991 33.2842 93.0001 32.6194ZM97.0001 16.1994V31.9994L106.64 24.1994L97.0001 16.1994Z" fill="#DEAD9C"/>
</svg>
