<svg width="80" height="80" viewBox="0 0 80 80" fill="none" xmlns="http://www.w3.org/2000/svg">
<path d="M56.5 16.5L55.25 37.764C55.1826 38.9101 54.6798 39.9871 53.8443 40.7746C53.0089 41.5621 51.9041 42.0004 50.756 42H29.244C28.0959 42.0004 26.9911 41.5621 26.1557 40.7746C25.3202 39.9871 24.8174 38.9101 24.75 37.764L23.5 16.5M40 22.5V36M40 36L34 30M40 36L46 30M22.75 16.5H57.25C58.492 16.5 59.5 15.492 59.5 14.25V11.25C59.5 10.008 58.492 9 57.25 9H22.75C21.508 9 20.5 10.008 20.5 11.25V14.25C20.5 15.492 21.508 16.5 22.75 16.5Z" stroke="#3F1A09" stroke-width="1.25" stroke-linecap="round" stroke-linejoin="round"/>
<path d="M31.4 58.06H36.52V59.3H31.4V58.06ZM31.02 61.96H39.24V63.22H31.02V61.96ZM25.4 59.34H30.94V60.54H25.4V59.34ZM26.02 62H30.56V63.22H26.02V62ZM26.02 64.72H30.56V65.9H26.02V64.72ZM33.4 55.82H34.68V62.82H33.4V55.82ZM37.72 56.38L39 56.68C37.4 61.48 34.72 65.32 31.22 67.8C31.04 67.54 30.58 66.98 30.3 66.72C33.74 64.5 36.28 60.82 37.72 56.38ZM32.74 65.24H38.54V73.94H37.18V66.5H34.04V74.1H32.74V65.24ZM33.36 68.58H37.78V69.8H33.36V68.58ZM33.36 71.94H37.78V73.2H33.36V71.94ZM24.28 55.82L25.58 56.18C24.58 59.64 23 63.18 21.24 65.52C21.12 65.16 20.72 64.36 20.48 64C22.04 61.96 23.42 58.88 24.28 55.82ZM22.78 61L24.04 59.64L24.06 59.68V74.08H22.78V61ZM26.8 56.62L27.76 56.02C28.32 56.7 28.94 57.62 29.18 58.24L28.2 58.92C27.96 58.26 27.36 57.3 26.8 56.62ZM25.78 67.56H30.76V73.58H29.5V68.76H27V73.88H25.78V67.56ZM26.18 71.52H30.22V72.7H26.18V71.52ZM46.7 67.2H59.14V68.6H46.7V67.2ZM48.4 62.02H56.64V63.4H48.4V62.02ZM52.26 65.54H53.78V72.32C53.78 73.2 53.58 73.64 52.92 73.88C52.24 74.1 51.14 74.1 49.42 74.08C49.34 73.68 49.14 73.1 48.94 72.66C50.28 72.72 51.46 72.72 51.82 72.68C52.18 72.66 52.26 72.58 52.26 72.3V65.54ZM56.24 62.02H56.6L56.92 61.94L57.88 62.68C56.62 64.06 54.74 65.5 53.08 66.42C52.9 66.16 52.5 65.76 52.26 65.54C53.72 64.76 55.4 63.34 56.24 62.3V62.02ZM41.24 58.32H58.76V59.76H41.24V58.32ZM47.7 55.7L49.24 56.08C47.84 60.68 45.38 65.34 41.38 68.2C41.2 67.82 40.84 67.16 40.6 66.82C44.24 64.28 46.58 59.84 47.7 55.7ZM43.76 63.88H45.26V74.08H43.76V63.88Z" fill="#3F1A09"/>
</svg>
