<svg width="102" height="117" viewBox="0 0 102 117" fill="none" xmlns="http://www.w3.org/2000/svg">
<circle cx="51" cy="48.533" r="40.011" fill="#F6EAE5" stroke="#E3B8AA"/>
<path d="M17.466 107.82H28.878V109.17H17.466V107.82ZM17.376 102.276H28.896V103.608H17.376V102.276ZM16.764 96.8219H29.616V110.412H28.212V98.1719H18.114V110.484H16.764V96.8219ZM22.2 93.8699L23.874 94.1759C23.37 95.3999 22.776 96.7499 22.272 97.6499L20.958 97.3439C21.408 96.3719 21.948 94.9139 22.2 93.8699ZM33.558 96.3539H40.146V97.6859H33.558V96.3539ZM40.074 95.0219H49.902V96.3899H40.074V95.0219ZM36.186 96.6779H37.536V105.516H36.186V96.6779ZM33.324 105.498C35.16 105.12 37.986 104.454 40.704 103.788L40.866 105.084C38.292 105.732 35.592 106.398 33.63 106.884L33.324 105.498ZM42.774 95.3819H44.214C43.692 97.9379 42.954 101.304 42.414 103.302L41.01 103.086C41.604 101.106 42.342 97.8119 42.774 95.3819ZM42.414 100.476H48.75V101.79H42.054L42.414 100.476ZM48.138 100.476H49.524C49.524 100.476 49.506 100.944 49.488 101.16C49.038 106.812 48.624 109.026 47.832 109.8C47.418 110.25 46.986 110.394 46.302 110.448C45.69 110.484 44.574 110.466 43.422 110.412C43.386 109.998 43.206 109.404 42.936 109.008C44.178 109.134 45.348 109.152 45.834 109.152C46.212 109.152 46.446 109.116 46.662 108.918C47.31 108.36 47.742 106.11 48.138 100.71V100.476ZM55.824 100.206V103.104H64.734V100.206H55.824ZM54.51 98.9999H66.12V104.31H54.51V98.9999ZM52.512 95.7239H68.082V96.9839H52.512V95.7239ZM59.532 93.9239H60.9V99.5399H59.532V93.9239ZM61.458 103.572H62.826V108.396C62.826 108.936 62.97 109.026 63.726 109.026C64.104 109.026 65.85 109.026 66.336 109.026C67.074 109.026 67.182 108.684 67.254 106.362C67.56 106.614 68.154 106.83 68.532 106.92C68.37 109.638 67.974 110.322 66.444 110.322C66.084 110.322 63.942 110.322 63.6 110.322C61.908 110.322 61.458 109.89 61.458 108.414V103.572ZM57.354 104.04H58.794C58.416 107.334 57.336 109.44 52.836 110.52C52.71 110.16 52.332 109.584 52.044 109.296C56.166 108.45 57.03 106.74 57.354 104.04ZM71.286 97.8659H85.254V99.2339H71.286V97.8659ZM84.732 97.8659H86.136C86.136 97.8659 86.118 98.3699 86.1 98.5859C85.686 106.038 85.308 108.72 84.516 109.62C84.084 110.142 83.652 110.286 82.968 110.34C82.338 110.412 81.186 110.376 80.07 110.304C80.052 109.908 79.872 109.314 79.62 108.918C80.844 109.026 81.996 109.044 82.446 109.044C82.842 109.044 83.058 108.99 83.292 108.774C83.976 108.108 84.372 105.3 84.732 98.1539V97.8659ZM77.172 93.9599H78.594V97.0919C78.594 101.196 78.09 106.758 71.79 110.556C71.592 110.232 71.088 109.728 70.764 109.494C76.74 105.93 77.172 100.818 77.172 97.0919V93.9599Z" fill="#3F1A09"/>
</svg>
