<svg width="102" height="117" viewBox="0 0 102 117" fill="none" xmlns="http://www.w3.org/2000/svg">
<rect width="102" height="116.022" rx="10" fill="#EACEB1"/>
<rect x="11.489" y="9" width="79.022" height="79.022" rx="39.511" fill="white"/>
<rect x="11.489" y="9" width="79.022" height="79.022" rx="39.511" stroke="#F3C4B4" stroke-width="2"/>
<circle cx="51" cy="48.511" r="34" fill="#B88F7D"/>
<path d="M9.096 94.388L10.464 94.676C9.708 97.322 8.484 99.842 7.116 101.498C6.828 101.3 6.198 100.94 5.856 100.778C7.278 99.266 8.43 96.836 9.096 94.388ZM8.79 97.196H21.012V98.528H8.394L8.79 97.196ZM5.838 102.812H22.02V104.144H5.838V102.812ZM13.416 93.902H14.838V110.444H13.416V93.902ZM24.234 97.628H30.21V98.888H24.234V97.628ZM27.006 93.92L28.284 94.064C27.564 97.664 26.43 102.524 25.584 105.512L24.468 104.918C25.26 102.164 26.358 97.34 27.006 93.92ZM25.152 104.378L25.908 103.424C27.798 104.486 30.012 106.124 31.038 107.366L30.21 108.446C29.22 107.186 27.042 105.476 25.152 104.378ZM29.742 97.628H29.976L30.228 97.574L31.038 97.736C30.534 104.72 28.554 108.536 25.188 110.498C24.99 110.174 24.63 109.688 24.342 109.418C27.384 107.834 29.31 104.036 29.742 97.898V97.628ZM31.092 94.946H37.32V96.188H31.092V94.946ZM37.212 99.914H39.768V101.156H37.05L37.212 99.914ZM39.3 99.914H40.578C40.578 99.914 40.578 100.364 40.56 100.544C40.254 106.772 39.984 109.058 39.372 109.76C39.012 110.21 38.634 110.336 38.076 110.39C37.554 110.426 36.654 110.426 35.718 110.354C35.682 109.994 35.538 109.436 35.322 109.094C36.276 109.166 37.176 109.184 37.536 109.184C37.86 109.184 38.058 109.148 38.238 108.95C38.724 108.41 39.048 106.16 39.3 100.184V99.914ZM33.126 95.396H34.458C34.386 100.994 34.206 107.078 31.182 110.48C30.966 110.192 30.498 109.814 30.174 109.634C33.018 106.52 33.09 100.634 33.126 95.396ZM36.96 94.946H38.22C38.076 97.214 37.806 100.22 37.554 102.002L36.312 101.912C36.582 100.13 36.852 97.142 36.96 94.946ZM42.828 96.332H49.416V97.664H42.828V96.332ZM49.344 95H59.172V96.368H49.344V95ZM45.456 96.656H46.806V105.494H45.456V96.656ZM42.594 105.476C44.43 105.098 47.256 104.432 49.974 103.766L50.136 105.062C47.562 105.71 44.862 106.376 42.9 106.862L42.594 105.476ZM52.044 95.36H53.484C52.962 97.916 52.224 101.282 51.684 103.28L50.28 103.064C50.874 101.084 51.612 97.79 52.044 95.36ZM51.684 100.454H58.02V101.768H51.324L51.684 100.454ZM57.408 100.454H58.794C58.794 100.454 58.776 100.922 58.758 101.138C58.308 106.79 57.894 109.004 57.102 109.778C56.688 110.228 56.256 110.372 55.572 110.426C54.96 110.462 53.844 110.444 52.692 110.39C52.656 109.976 52.476 109.382 52.206 108.986C53.448 109.112 54.618 109.13 55.104 109.13C55.482 109.13 55.716 109.094 55.932 108.896C56.58 108.338 57.012 106.088 57.408 100.688V100.454ZM65.094 100.184V103.082H74.004V100.184H65.094ZM63.78 98.978H75.39V104.288H63.78V98.978ZM61.782 95.702H77.352V96.962H61.782V95.702ZM68.802 93.902H70.17V99.518H68.802V93.902ZM70.728 103.55H72.096V108.374C72.096 108.914 72.24 109.004 72.996 109.004C73.374 109.004 75.12 109.004 75.606 109.004C76.344 109.004 76.452 108.662 76.524 106.34C76.83 106.592 77.424 106.808 77.802 106.898C77.64 109.616 77.244 110.3 75.714 110.3C75.354 110.3 73.212 110.3 72.87 110.3C71.178 110.3 70.728 109.868 70.728 108.392V103.55ZM66.624 104.018H68.064C67.686 107.312 66.606 109.418 62.106 110.498C61.98 110.138 61.602 109.562 61.314 109.274C65.436 108.428 66.3 106.718 66.624 104.018ZM80.556 97.844H94.524V99.212H80.556V97.844ZM94.002 97.844H95.406C95.406 97.844 95.388 98.348 95.37 98.564C94.956 106.016 94.578 108.698 93.786 109.598C93.354 110.12 92.922 110.264 92.238 110.318C91.608 110.39 90.456 110.354 89.34 110.282C89.322 109.886 89.142 109.292 88.89 108.896C90.114 109.004 91.266 109.022 91.716 109.022C92.112 109.022 92.328 108.968 92.562 108.752C93.246 108.086 93.642 105.278 94.002 98.132V97.844ZM86.442 93.938H87.864V97.07C87.864 101.174 87.36 106.736 81.06 110.534C80.862 110.21 80.358 109.706 80.034 109.472C86.01 105.908 86.442 100.796 86.442 97.07V93.938Z" fill="white"/>
</svg>
